/* XPM */
static char * Next_Click_xpm[] = {
"32 32 672 2",
"  	c None",
". 	c #9A9CA0",
"+ 	c #FFFFFF",
"@ 	c #9A9B9F",
"# 	c #585F6A",
"$ 	c #0F6C8F",
"% 	c #11769A",
"& 	c #13769B",
"* 	c #106B8F",
"= 	c #135B7E",
"- 	c #134A6A",
"; 	c #525D64",
"> 	c #176A95",
", 	c #0F75A4",
"' 	c #0E7DAF",
") 	c #0E86B9",
"! 	c #0E8DC3",
"~ 	c #0C90C7",
"{ 	c #0D90C7",
"] 	c #0E8CC2",
"^ 	c #1185BA",
"/ 	c #117CAF",
"( 	c #1273A3",
"_ 	c #1A6792",
": 	c #155A85",
"< 	c #136B9B",
"[ 	c #117DAA",
"} 	c #1389B5",
"| 	c #198DBC",
"1 	c #198DBF",
"2 	c #1E8FC7",
"3 	c #1A8BC3",
"4 	c #198AC2",
"5 	c #1A8AC2",
"6 	c #1584B9",
"7 	c #1685B6",
"8 	c #1280AF",
"9 	c #1276A5",
"0 	c #156697",
"a 	c #145584",
"b 	c #848888",
"c 	c #0F6495",
"d 	c #1079B0",
"e 	c #1E8DC1",
"f 	c #1F90C2",
"g 	c #1E90C2",
"h 	c #1F8EC2",
"i 	c #1F8DC2",
"j 	c #1E88C0",
"k 	c #2189C3",
"l 	c #2087C2",
"m 	c #1C83BD",
"n 	c #1C85BC",
"o 	c #1B85BA",
"p 	c #1781B6",
"q 	c #197FB5",
"r 	c #197CB4",
"s 	c #106FA5",
"t 	c #0E5C8D",
"u 	c #838688",
"v 	c #14689A",
"w 	c #1981BA",
"x 	c #2092C9",
"y 	c #2190C4",
"z 	c #228EC1",
"A 	c #228EC2",
"B 	c #1E8CC0",
"C 	c #1D8BBF",
"D 	c #1C8BBF",
"E 	c #1A8ABE",
"F 	c #1987BC",
"G 	c #1B87BC",
"H 	c #1A83B8",
"I 	c #1A80B6",
"J 	c #1C80B7",
"K 	c #1D7DB6",
"L 	c #197AB4",
"M 	c #167AB2",
"N 	c #1471AC",
"O 	c #165E95",
"P 	c #186C9E",
"Q 	c #238CC6",
"R 	c #2394CB",
"S 	c #1D90C1",
"T 	c #2291C1",
"U 	c #218EBF",
"V 	c #1F90C3",
"W 	c #2094C4",
"X 	c #2297C6",
"Y 	c #229AC8",
"Z 	c #229CC8",
"` 	c #2299C7",
" .	c #2298C6",
"..	c #2394C4",
"+.	c #1F8DBF",
"@.	c #1983B7",
"#.	c #197CB1",
"$.	c #1B7BB0",
"%.	c #177AAE",
"&.	c #1779B4",
"*.	c #1771B0",
"=.	c #165B92",
"-.	c #126A9A",
";.	c #2091C8",
">.	c #2191C4",
",.	c #2192C1",
"'.	c #1F91BF",
").	c #2096C4",
"!.	c #1F9BC9",
"~.	c #219CCC",
"{.	c #229ECD",
"].	c #219DCC",
"^.	c #219CCA",
"/.	c #239DCB",
"(.	c #239BCB",
"_.	c #259CCD",
":.	c #2196C7",
"<.	c #1E8FBD",
"[.	c #1880B0",
"}.	c #1678AE",
"|.	c #1677AF",
"1.	c #1375B1",
"2.	c #166FA8",
"3.	c #175C8E",
"4.	c #9698A0",
"5.	c #145A87",
"6.	c #228DC3",
"7.	c #1E91C7",
"8.	c #1F93C4",
"9.	c #1E91C0",
"0.	c #1D95C4",
"a.	c #1F9BC8",
"b.	c #209CCA",
"c.	c #1F9BCB",
"d.	c #1F9ACD",
"e.	c #1F9ACE",
"f.	c #209BCF",
"g.	c #209ACD",
"h.	c #209ACC",
"i.	c #2199CC",
"j.	c #209BC9",
"k.	c #1C86BC",
"l.	c #1677AD",
"m.	c #1375A9",
"n.	c #1272A9",
"o.	c #166AA4",
"p.	c #154C7C",
"q.	c #9599A1",
"r.	c #247CAD",
"s.	c #2192C6",
"t.	c #2190C1",
"u.	c #1F92C0",
"v.	c #1C98C5",
"w.	c #1D98CA",
"x.	c #2097CA",
"y.	c #2098C8",
"z.	c #2098CA",
"A.	c #2197CA",
"B.	c #2196CC",
"C.	c #2297CC",
"D.	c #2196CB",
"E.	c #2198C9",
"F.	c #2198CA",
"G.	c #2098CD",
"H.	c #2594C5",
"I.	c #1E82B4",
"J.	c #1573A7",
"K.	c #166FA9",
"L.	c #186EAA",
"M.	c #186094",
"N.	c #1C6A95",
"O.	c #268EBC",
"P.	c #1F92C2",
"Q.	c #1E91C2",
"R.	c #2092C5",
"S.	c #2194C5",
"T.	c #2992BD",
"U.	c #419BC4",
"V.	c #3E96C0",
"W.	c #2C90BC",
"X.	c #2193BF",
"Y.	c #2193C4",
"Z.	c #2292C7",
"`.	c #2290C7",
" +	c #2193C9",
".+	c #2292C3",
"++	c #2493C1",
"@+	c #3495BB",
"#+	c #479FC8",
"$+	c #3995C0",
"%+	c #2D91BC",
"&+	c #258FC1",
"*+	c #1F83BB",
"=+	c #136DA8",
"-+	c #166CA4",
";+	c #1B679C",
">+	c #155580",
",+	c #7F767F",
"'+	c #2485B1",
")+	c #2290BD",
"!+	c #1E92BF",
"~+	c #1A90C1",
"{+	c #1C92C8",
"]+	c #218FC3",
"^+	c #58A4C6",
"/+	c #B2E2EF",
"(+	c #B1DFEB",
"_+	c #71B6D4",
":+	c #2A8CAE",
"<+	c #2590BC",
"[+	c #208FC3",
"}+	c #2391C7",
"|+	c #1E90C6",
"1+	c #2291C3",
"2+	c #228DBE",
"3+	c #2D90BD",
"4+	c #99D5E7",
"5+	c #C0E9F2",
"6+	c #A2D6E7",
"7+	c #4B9CC2",
"8+	c #218EC3",
"9+	c #1C8BC3",
"0+	c #1276AD",
"a+	c #166CA3",
"b+	c #1C669B",
"c+	c #1C5F92",
"d+	c #7B7C7D",
"e+	c #12496C",
"f+	c #2691C3",
"g+	c #1F91C1",
"h+	c #1E90BF",
"i+	c #1D91C1",
"j+	c #1B8FC0",
"k+	c #258BB8",
"l+	c #84BDD2",
"m+	c #E7FFFF",
"n+	c #F1FFFF",
"o+	c #ECFEFF",
"p+	c #B4E0ED",
"q+	c #67AAC8",
"r+	c #2B8EBC",
"s+	c #1A8EBF",
"t+	c #1991BE",
"u+	c #1D8EBB",
"v+	c #288CBD",
"w+	c #59AAD3",
"x+	c #EBFFFE",
"y+	c #F6FFFE",
"z+	c #E3FFFF",
"A+	c #7BBAD1",
"B+	c #298DBD",
"C+	c #228FC3",
"D+	c #1E83B8",
"E+	c #136DA2",
"F+	c #17669E",
"G+	c #19649C",
"H+	c #10395D",
"I+	c #1C6086",
"J+	c #2190C7",
"K+	c #1D8EC2",
"L+	c #1E8DBF",
"M+	c #1C8CBD",
"N+	c #1D8BBA",
"O+	c #2786B0",
"P+	c #8CBDCF",
"Q+	c #EFFFFF",
"R+	c #FCFFFE",
"S+	c #FAFEFF",
"T+	c #F4FFFF",
"U+	c #DCF4FA",
"V+	c #92C7DC",
"W+	c #4494B7",
"X+	c #2489B7",
"Y+	c #2089B9",
"Z+	c #2788B6",
"`+	c #62AED0",
" @	c #F4FFFD",
".@	c #FEFFFD",
"+@	c #ECFFFF",
"@@	c #89BDD1",
"#@	c #2887B2",
"$@	c #228ABB",
"%@	c #2185B7",
"&@	c #1673A7",
"*@	c #13669F",
"=@	c #1564A2",
"-@	c #14456E",
";@	c #206D91",
">@	c #1E8EC4",
",@	c #1E8CC1",
"'@	c #218ABD",
")@	c #1D89BA",
"!@	c #1C87B6",
"~@	c #2786AE",
"{@	c #8DBBCC",
"]@	c #FFFEFB",
"^@	c #FFFEFD",
"/@	c #FDFDFC",
"(@	c #F7FFFF",
"_@	c #DEF7FF",
":@	c #80B8D3",
"<@	c #468EB4",
"[@	c #2D83A9",
"}@	c #61ABCA",
"|@	c #F3FEFF",
"1@	c #FFFEFE",
"2@	c #F2FFFF",
"3@	c #89BACD",
"4@	c #2985B0",
"5@	c #1E86B6",
"6@	c #2285B7",
"7@	c #1A77AB",
"8@	c #10649E",
"9@	c #1363A1",
"0@	c #164972",
"a@	c #247394",
"b@	c #1F8CC1",
"c@	c #1F8ABE",
"d@	c #1F85BA",
"e@	c #1C85B8",
"f@	c #1B86B8",
"g@	c #2584B1",
"h@	c #89B8CC",
"i@	c #FFFDFD",
"j@	c #FEFDFE",
"k@	c #FEFDFD",
"l@	c #FDFEFF",
"m@	c #FAFFFE",
"n@	c #EBFBFE",
"o@	c #C1E2EC",
"p@	c #5B9CB7",
"q@	c #64A8C5",
"r@	c #FEFCFF",
"s@	c #87B8CC",
"t@	c #2583B1",
"u@	c #1C85B7",
"v@	c #1F83B7",
"w@	c #1D79AE",
"x@	c #11649E",
"y@	c #10609B",
"z@	c #1C4D72",
"A@	c #277392",
"B@	c #1D8ABF",
"C@	c #1F88BE",
"D@	c #1A81B7",
"E@	c #1882B7",
"F@	c #227FAF",
"G@	c #F0FFFF",
"H@	c #FDFFFF",
"I@	c #F9FEFF",
"J@	c #FBFEFD",
"K@	c #F8FEFD",
"L@	c #F8FEFF",
"M@	c #F6FEFF",
"N@	c #C8E4EB",
"O@	c #8BB5C8",
"P@	c #F6FFFF",
"Q@	c #FFFEFF",
"R@	c #85B7CC",
"S@	c #227FAD",
"T@	c #1982B5",
"U@	c #1B81B6",
"V@	c #1E7AB1",
"W@	c #0F629C",
"X@	c #115F9A",
"Y@	c #1C4B71",
"Z@	c #236F90",
"`@	c #1C89C0",
" #	c #1E89C0",
".#	c #1A7DB6",
"+#	c #187EB5",
"@#	c #177FB3",
"##	c #227BAB",
"$#	c #89B6CB",
"%#	c #F9FDFD",
"&#	c #FEFEFA",
"*#	c #FCFEFC",
"=#	c #FCFEFE",
"-#	c #FDFDFF",
";#	c #F9FDFF",
">#	c #BBDAE4",
",#	c #7DACC1",
"'#	c #F5FEFD",
")#	c #FEFEFD",
"!#	c #F1FEFF",
"~#	c #86B6CA",
"{#	c #217BAB",
"]#	c #187EB3",
"^#	c #197CB3",
"/#	c #1D78B0",
"(#	c #0F629D",
"_#	c #0F5D9A",
":#	c #1A4B70",
"<#	c #22688B",
"[#	c #1B88BC",
"}#	c #1B86BC",
"|#	c #177AB2",
"1#	c #177AB3",
"2#	c #1979B0",
"3#	c #2375A6",
"4#	c #8BB3C9",
"5#	c #F3FFFF",
"6#	c #FFFFFD",
"7#	c #FEFEFC",
"8#	c #FBFFF8",
"9#	c #FCFFFA",
"0#	c #FAFCFC",
"a#	c #F9FFFF",
"b#	c #DBEDF7",
"c#	c #9ABBD4",
"d#	c #3C7396",
"e#	c #639EBB",
"f#	c #F5FFFE",
"g#	c #87B4C7",
"h#	c #2077A5",
"i#	c #187AAE",
"j#	c #1B79B0",
"k#	c #1C72AB",
"l#	c #0E5E9A",
"m#	c #0F5E9A",
"n#	c #13456A",
"o#	c #235D7E",
"p#	c #1C83B6",
"q#	c #197AB0",
"r#	c #1777AD",
"s#	c #1A77AC",
"t#	c #2273A3",
"u#	c #8BB1C7",
"v#	c #F8FFFA",
"w#	c #FAFFFC",
"x#	c #F3FCFE",
"y#	c #BCD5E3",
"z#	c #4E88B0",
"A#	c #2872A2",
"B#	c #24719F",
"C#	c #61A0C1",
"D#	c #F5FEFE",
"E#	c #FEFDFC",
"F#	c #86B2C5",
"G#	c #2075A3",
"H#	c #1977AB",
"I#	c #1B75AB",
"J#	c #1C6DA5",
"K#	c #105C96",
"L#	c #125B96",
"M#	c #123E61",
"N#	c #7C7A81",
"O#	c #2483B2",
"P#	c #1D82B2",
"Q#	c #1A7AAD",
"R#	c #1473A8",
"S#	c #1972A9",
"T#	c #226EA1",
"U#	c #88B1C7",
"V#	c #FEFDFF",
"W#	c #EEFAFD",
"X#	c #C1DBE6",
"Y#	c #5C8BB1",
"Z#	c #256896",
"`#	c #1772A5",
" $	c #1474A9",
".$	c #1B71A6",
"+$	c #5A9AC4",
"@$	c #F7FEFE",
"#$	c #82B2C6",
"$$	c #1B719F",
"%$	c #1774A8",
"&$	c #1A70A5",
"*$	c #18649A",
"=$	c #155A90",
"-$	c #16588C",
";$	c #787C7C",
">$	c #2B7CA7",
",$	c #1F80B1",
"'$	c #177DAF",
")$	c #1072A8",
"!$	c #176FA9",
"~$	c #226DA2",
"{$	c #79A5BD",
"]$	c #FBFEFF",
"^$	c #EAF6FE",
"/$	c #77A1BA",
"($	c #35759F",
"_$	c #1E699F",
":$	c #1C6CA3",
"<$	c #156FA6",
"[$	c #1171AA",
"}$	c #156EA3",
"|$	c #4485AE",
"1$	c #E9FDFF",
"2$	c #6BA1BB",
"3$	c #1A6F9F",
"4$	c #166EA3",
"5$	c #1C6BA3",
"6$	c #165F97",
"7$	c #12588F",
"8$	c #175581",
"9$	c #2580AA",
"0$	c #167EAF",
"a$	c #1675AD",
"b$	c #1668A4",
"c$	c #18659C",
"d$	c #3674A0",
"e$	c #84B0C9",
"f$	c #87ABC4",
"g$	c #37678A",
"h$	c #1A6494",
"i$	c #116AA1",
"j$	c #136DA6",
"k$	c #1769A2",
"l$	c #1869A2",
"m$	c #136CA5",
"n$	c #146BA0",
"o$	c #1D6895",
"p$	c #6393B4",
"q$	c #9CC0D5",
"r$	c #6D9CBF",
"s$	c #266B96",
"t$	c #176AA0",
"u$	c #196AA5",
"v$	c #16619D",
"w$	c #135893",
"x$	c #175587",
"y$	c #8D979D",
"z$	c #227492",
"A$	c #1A7DAE",
"B$	c #1D77B1",
"C$	c #1565A0",
"D$	c #17689F",
"E$	c #15649B",
"F$	c #156198",
"G$	c #175F97",
"H$	c #18639B",
"I$	c #1668A0",
"J$	c #12689E",
"K$	c #12669D",
"L$	c #17679F",
"M$	c #18679F",
"N$	c #14669D",
"O$	c #14699D",
"P$	c #15669B",
"Q$	c #186299",
"R$	c #175E98",
"S$	c #156099",
"T$	c #15659B",
"U$	c #15689F",
"V$	c #1566A3",
"W$	c #115B99",
"X$	c #15568E",
"Y$	c #1D4C74",
"Z$	c #9199A1",
"`$	c #2278A4",
" %	c #1977AC",
".%	c #1D70A8",
"+%	c #166297",
"@%	c #12649B",
"#%	c #1062A1",
"$%	c #1263A2",
"%%	c #11629B",
"&%	c #14659B",
"*%	c #16649A",
"=%	c #166298",
"-%	c #166197",
";%	c #186499",
">%	c #146397",
",%	c #136299",
"'%	c #13629F",
")%	c #1161A1",
"!%	c #166399",
"~%	c #146299",
"{%	c #0F5D9B",
"]%	c #0F5593",
"^%	c #1B5386",
"/%	c #216083",
"(%	c #2176A5",
"_%	c #1974A9",
":%	c #1A6EA4",
"<%	c #136093",
"[%	c #155F95",
"}%	c #145F98",
"|%	c #13619C",
"1%	c #14629B",
"2%	c #105F96",
"3%	c #146199",
"4%	c #146098",
"5%	c #135F97",
"6%	c #136097",
"7%	c #125F96",
"8%	c #166198",
"9%	c #155F98",
"0%	c #175F98",
"a%	c #175E95",
"b%	c #155D92",
"c%	c #125C95",
"d%	c #0D5793",
"e%	c #16558C",
"f%	c #15426B",
"g%	c #1E5778",
"h%	c #1A73A0",
"i%	c #1776A8",
"j%	c #1969A0",
"k%	c #17619A",
"l%	c #115B95",
"m%	c #105C95",
"n%	c #105B94",
"o%	c #115C94",
"p%	c #0F5C94",
"q%	c #0D5B94",
"r%	c #115C96",
"s%	c #105B93",
"t%	c #125C94",
"u%	c #135A92",
"v%	c #115991",
"w%	c #145A91",
"x%	c #155B92",
"y%	c #135993",
"z%	c #11568F",
"A%	c #175487",
"B%	c #133D62",
"C%	c #7E838C",
"D%	c #1B719E",
"E%	c #186EA6",
"F%	c #176AA9",
"G%	c #1362A1",
"H%	c #0F5E99",
"I%	c #0E5992",
"J%	c #0D5890",
"K%	c #0D5A92",
"L%	c #105992",
"M%	c #115892",
"N%	c #115992",
"O%	c #105993",
"P%	c #0D5A95",
"Q%	c #0F5996",
"R%	c #135794",
"S%	c #195284",
"T%	c #154066",
"U%	c #1E5F8C",
"V%	c #1E699D",
"W%	c #1A69A0",
"X%	c #1363A0",
"Y%	c #0E5F9E",
"Z%	c #0D5D99",
"`%	c #0C5B94",
" &	c #0E5A92",
".&	c #0F5C98",
"+&	c #0D5998",
"@&	c #135B93",
"#&	c #115A90",
"$&	c #18578B",
"%&	c #194874",
"&&	c #4F5862",
"*&	c #256285",
"=&	c #226490",
"-&	c #19629C",
";&	c #14629D",
">&	c #155F94",
",&	c #165E93",
"'&	c #135D98",
")&	c #115B9A",
"!&	c #155993",
"~&	c #1C5683",
"{&	c #1C5176",
"]&	c #585965",
"^&	c #565B62",
"/&	c #184B71",
"(&	c #17466D",
"_&	c #596064",
":&	c #919B9C",
"<&	c #505860",
"[&	c #595B64",
"}&	c #959C9C",
"                      . + + + + + + + + @                       ",
"                  # + + + + $ % & * = - + + +                   ",
"              ; + + > , ' ) ! ~ { ] ^ / ( _ + + +               ",
"            + + : < [ } | 1 2 3 4 5 6 7 8 9 0 a + +             ",
"        b + + c d e f g h i j k l m n o p q r s t + + u         ",
"        + + v w x y z A B C D E F G H I J K L M N O + +         ",
"      + + P Q R S T U V W X Y Z `  ...+.@.#.$.%.&.*.=.+ +       ",
"    + + -.Q ;.>.,.'.).!.~.{.].^./.(._._.:.<.[.}.|.1.2.3.+ +     ",
"  4.+ 5.6.7.8.9.0.a.b.c.d.d.d.e.f.g.g.h.i.j.).k.l.m.n.o.p.+ q.  ",
"  + + r.s.s.t.u.v.w.x.y.z.A.B.C.D.B.A.E.F.G.x.H.I.J.K.L.M.+ +   ",
"  + N.O.P.Q.R.S.T.U.V.W.X.Y.Z.`. +Z..+++@+#+$+%+&+*+=+-+;+>++   ",
",++ '+)+!+~+{+]+^+/+(+_+:+<+[+}+|+1+2+3+4+5+6+7+8+9+0+a+b+c++ d+",
"+ e+f+g+h+i+j+k+l+m+n+o+p+q+r+s+t+u+v+w+x+y+z+A+B+C+D+E+F+G+H++ ",
"+ I+J+K+L+M+N+O+P+Q+R+S+T+U+V+W+X+Y+Z+`+ @.@+@@@#@$@%@&@*@=@-@+ ",
"+ ;@>@,@'@)@!@~@{@n+]@^@]@/@(@_@:@<@[@}@|@1@2@3@4@5@6@7@8@9@0@+ ",
"+ a@b@c@d@e@f@g@h@n+i@j@k@l@l@m@n@o@p@q@|@r@n+s@t@u@v@w@x@y@z@+ ",
"+ A@B@C@J D@E@F@s@G@H@I@j@j@J@K@L@M@N@O@P@Q@G@R@S@T@U@V@W@X@Y@+ ",
"+ Z@`@ #.#+#@###$#2@l@%#&#*#=#J@-#;#>#,#'#)#!#~#{#]#^#/#(#_#:#+ ",
"+ <#[#}#|#1#2#3#4#5#6#7#8#9#0#a#b#c#d#e#f#]@T+g#h#i#j#k#l#m#n#+ ",
"+ o#p#e@q#r#s#t#u#5#1@j@v#w#x#y#z#A#B#C#D#E#T+F#G#H#I#J#K#L#M#+ ",
"N#+ O#P#Q#R#S#T#U#2@Q@V#W#X#Y#Z#`# $.$+$@$^@G@#$$$%$&$*$=$-$+ ;$",
"  + >$,$'$)$!$~${$Q+]$^$/$($_$:$<$[$}$|$Q+]$1$2$3$4$5$6$7$8$+   ",
"  + + 9$0$a$b$c$d$e$f$g$h$i$j$k$l$m$n$o$p$q$r$s$t$u$v$w$x$+ +   ",
"  y$+ z$A$B$C$D$E$F$G$H$I$J$K$L$M$N$O$P$Q$R$S$T$U$V$W$X$Y$+ Z$  ",
"    + + `$ %.%+%@%W@#%$%%%&%*%=%-%;%>%,%'%)%'%!%~%{%]%^%+ +     ",
"      + /%(%_%:%<%[%}%|%1%2%3%4%5%6%7%8%9%0%a%b%c%d%e%f%+       ",
"        + g%h%i%j%k%l%m%n%o%p%q%r%s%t%u%v%w%x%y%z%A%B%+         ",
"        C%+ + D%E%F%G%H%I%s%J%K%I%L%M%N%O%P%Q%R%S%T%+ +         ",
"            + + U%V%W%M$X%Y%Z%`% &.&+&Q%@&#&$&%&+ +             ",
"              &&+ + *&=&-&=@;&>&,&'&)&!&~&{&+ + ]&              ",
"                  ^&+ + + + /&+ + (&+ + + + _&                  ",
"                      :&<&+ + + + + + [&}&                      "};
