/* XPM */
static char * Previous_click_xpm[] = {
"32 32 686 2",
"  	c None",
". 	c #C4C8C8",
"+ 	c #9A9CA0",
"@ 	c #FFFFFF",
"# 	c #555C64",
"$ 	c #9A9B9F",
"% 	c #B6BBC0",
"& 	c #135D7F",
"* 	c #0F6C8F",
"= 	c #11769A",
"- 	c #13769B",
"; 	c #106B8F",
"> 	c #6273A1",
", 	c #B1BABF",
"' 	c #525D64",
") 	c #176A95",
"! 	c #0F75A4",
"~ 	c #0E7DAF",
"{ 	c #0E86B9",
"] 	c #0E8DC3",
"^ 	c #0C90C7",
"/ 	c #0D90C7",
"( 	c #0E8CC2",
"_ 	c #1185BA",
": 	c #117CAF",
"< 	c #1273A3",
"[ 	c #1A6792",
"} 	c #596B93",
"| 	c #C1C6C8",
"1 	c #AFB5B6",
"2 	c #155A85",
"3 	c #136B9B",
"4 	c #117DAA",
"5 	c #1389B5",
"6 	c #198DBC",
"7 	c #198DBF",
"8 	c #1E8FC7",
"9 	c #1A8BC3",
"0 	c #198AC2",
"a 	c #1A8AC2",
"b 	c #1584B9",
"c 	c #1685B6",
"d 	c #1280AF",
"e 	c #1276A5",
"f 	c #156697",
"g 	c #BFD1DD",
"h 	c #B2B6B7",
"i 	c #848888",
"j 	c #0F6495",
"k 	c #1079B0",
"l 	c #1E8DC1",
"m 	c #1F90C2",
"n 	c #1E90C2",
"o 	c #1F8EC2",
"p 	c #1F8DC2",
"q 	c #1E88C0",
"r 	c #2189C3",
"s 	c #2087C2",
"t 	c #1C83BD",
"u 	c #1C85BC",
"v 	c #1B85BA",
"w 	c #1781B6",
"x 	c #197FB5",
"y 	c #197CB4",
"z 	c #106FA5",
"A 	c #4883A8",
"B 	c #6683DF",
"C 	c #86898B",
"D 	c #A4ABAD",
"E 	c #14689A",
"F 	c #1981BA",
"G 	c #2092C9",
"H 	c #2190C4",
"I 	c #228EC1",
"J 	c #228EC2",
"K 	c #1E8CC0",
"L 	c #1D8BBF",
"M 	c #1C8BBF",
"N 	c #1A8ABE",
"O 	c #1987BC",
"P 	c #1B87BC",
"Q 	c #1A83B8",
"R 	c #1A80B6",
"S 	c #1C80B7",
"T 	c #1D7DB6",
"U 	c #197AB4",
"V 	c #167AB2",
"W 	c #1471AC",
"X 	c #1B6197",
"Y 	c #A8ABAB",
"Z 	c #B1B9BA",
"` 	c #186C9E",
" .	c #238CC6",
"..	c #2394CB",
"+.	c #1D90C1",
"@.	c #2291C1",
"#.	c #218EBF",
"$.	c #1F90C3",
"%.	c #2094C4",
"&.	c #2297C6",
"*.	c #229AC8",
"=.	c #229CC8",
"-.	c #2299C7",
";.	c #2298C6",
">.	c #2394C4",
",.	c #1F8DBF",
"'.	c #1983B7",
").	c #197CB1",
"!.	c #1B7BB0",
"~.	c #177AAE",
"{.	c #1779B4",
"].	c #1771B0",
"^.	c #4179A6",
"/.	c #B3B8B8",
"(.	c #126A9A",
"_.	c #2091C8",
":.	c #2191C4",
"<.	c #2192C1",
"[.	c #1F91BF",
"}.	c #2096C4",
"|.	c #1F9BC9",
"1.	c #219CCC",
"2.	c #229ECD",
"3.	c #219DCC",
"4.	c #219CCA",
"5.	c #239DCB",
"6.	c #239BCB",
"7.	c #259CCD",
"8.	c #2196C7",
"9.	c #1E8FBD",
"0.	c #1880B0",
"a.	c #1678AE",
"b.	c #1677AF",
"c.	c #1375B1",
"d.	c #166FA8",
"e.	c #749DBB",
"f.	c #495981",
"g.	c #145A87",
"h.	c #228DC3",
"i.	c #1E91C7",
"j.	c #1F93C4",
"k.	c #1E91C0",
"l.	c #1D95C4",
"m.	c #1F9BC8",
"n.	c #209CCA",
"o.	c #1F9BCB",
"p.	c #1F9ACD",
"q.	c #1F9ACE",
"r.	c #209BCF",
"s.	c #209ACD",
"t.	c #209ACC",
"u.	c #2199CC",
"v.	c #209BC9",
"w.	c #1C86BC",
"x.	c #1677AD",
"y.	c #1375A9",
"z.	c #1272A9",
"A.	c #166AA4",
"B.	c #9599A1",
"C.	c #247CAD",
"D.	c #2192C6",
"E.	c #2190C1",
"F.	c #1F92C0",
"G.	c #1C98C5",
"H.	c #1D98CA",
"I.	c #2097CA",
"J.	c #2098C8",
"K.	c #2098CA",
"L.	c #2197CA",
"M.	c #2196CC",
"N.	c #2297CC",
"O.	c #2196CB",
"P.	c #2198C9",
"Q.	c #2198CA",
"R.	c #2098CD",
"S.	c #2594C5",
"T.	c #1E82B4",
"U.	c #1573A7",
"V.	c #166FA9",
"W.	c #186EAA",
"X.	c #1D6396",
"Y.	c #546493",
"Z.	c #E7E6E4",
"`.	c #1D6A95",
" +	c #268EBC",
".+	c #1F93C2",
"++	c #2090C2",
"@+	c #2391C7",
"#+	c #2193C5",
"$+	c #2692BC",
"%+	c #3A96BF",
"&+	c #479EC6",
"*+	c #3495BA",
"=+	c #2591C3",
"-+	c #2392C6",
";+	c #2193C7",
">+	c #2092C7",
",+	c #2491C6",
"'+	c #2192C7",
")+	c #2093C5",
"!+	c #2393BF",
"~+	c #2D90BB",
"{+	c #3F98C3",
"]+	c #429AC5",
"^+	c #2E91BB",
"/+	c #258FC1",
"(+	c #1D81B9",
"_+	c #116FA7",
":+	c #146CA4",
"<+	c #19689C",
"[+	c #AFB1B0",
"}+	c #7A7A7F",
"|+	c #2684B1",
"1+	c #2191BD",
"2+	c #1E92BF",
"3+	c #1E8FC2",
"4+	c #1E8DC6",
"5+	c #228EC5",
"6+	c #499DC2",
"7+	c #A2D7E8",
"8+	c #C1E9F1",
"9+	c #98D5E7",
"0+	c #308EBF",
"a+	c #228CC2",
"b+	c #2091C4",
"c+	c #1E91C3",
"d+	c #2391C4",
"e+	c #2590BD",
"f+	c #2C8BAF",
"g+	c #72B6D2",
"h+	c #B4DFEC",
"i+	c #B1E1EF",
"j+	c #55A4C6",
"k+	c #2290C3",
"l+	c #1D8FC5",
"m+	c #1078AC",
"n+	c #126EA2",
"o+	c #1A679B",
"p+	c #3A74A0",
"q+	c #7B7B7D",
"r+	c #4873BC",
"s+	c #2691C3",
"t+	c #2090C1",
"u+	c #208FBF",
"v+	c #1D8EBF",
"w+	c #288CBC",
"x+	c #7FBBD0",
"y+	c #E2FFFF",
"z+	c #F5FFFE",
"A+	c #EBFFFE",
"B+	c #5AA7D6",
"C+	c #278CC0",
"D+	c #1B8FBB",
"E+	c #1992BB",
"F+	c #1A8FBC",
"G+	c #2A8FBC",
"H+	c #68ABCA",
"I+	c #B8DFEE",
"J+	c #ECFEFF",
"K+	c #F3FFFF",
"L+	c #E7FFFF",
"M+	c #80BBD1",
"N+	c #268BBA",
"O+	c #1F8EBF",
"P+	c #1C83B5",
"Q+	c #116EA2",
"R+	c #15679E",
"S+	c #18649C",
"T+	c #CBD4DC",
"U+	c #2091C7",
"V+	c #1E8EC2",
"W+	c #228BBF",
"X+	c #1C8CBC",
"Y+	c #1C8DBB",
"Z+	c #2887B2",
"`+	c #8DBBCF",
" @	c #EEFFFF",
".@	c #FDFFFB",
"+@	c #F4FFFD",
"@@	c #63ABD3",
"#@	c #2688B9",
"$@	c #1D8AB9",
"%@	c #238BB4",
"&@	c #4694B4",
"*@	c #91C8DC",
"=@	c #DCF4FB",
"-@	c #F6FFFF",
";@	c #FAFFFF",
">@	c #FDFEFD",
",@	c #EFFFFF",
"'@	c #89BCCF",
")@	c #2089BA",
"!@	c #2185B8",
"~@	c #1673A7",
"{@	c #11669F",
"]@	c #1464A0",
"^@	c #CFD7EA",
"/@	c #1D8EC4",
"(@	c #208BC1",
"_@	c #2288BD",
":@	c #1C8ABB",
"<@	c #1988B6",
"[@	c #2986B2",
"}@	c #90B9CD",
"|@	c #F3FEFF",
"1@	c #FFFEFD",
"2@	c #F2FEFF",
"3@	c #61A8CC",
"4@	c #2C83AC",
"5@	c #4390B4",
"6@	c #80B9D2",
"7@	c #DFF8FF",
"8@	c #F5FFFF",
"9@	c #FCFDFF",
"0@	c #FFFDFC",
"a@	c #FFFEFB",
"b@	c #F1FFFF",
"c@	c #8CBCCE",
"d@	c #2A84AF",
"e@	c #1F85B5",
"f@	c #2286B8",
"g@	c #1B77AB",
"h@	c #10649E",
"i@	c #12649F",
"j@	c #F9FAFB",
"k@	c #1F8CC1",
"l@	c #1F89BF",
"m@	c #1F85BA",
"n@	c #1985B8",
"o@	c #1987B9",
"p@	c #2381AF",
"q@	c #8DBBCE",
"r@	c #FEFEFF",
"s@	c #64A5C8",
"t@	c #5A9CBB",
"u@	c #C0E3EC",
"v@	c #EBFCFE",
"w@	c #FAFFFD",
"x@	c #FBFFFE",
"y@	c #FCFEFF",
"z@	c #FFFCFE",
"A@	c #FFFDFD",
"B@	c #FFFEFE",
"C@	c #F0FFFF",
"D@	c #89BACE",
"E@	c #247FAE",
"F@	c #1E84B7",
"G@	c #2083B7",
"H@	c #1E79AE",
"I@	c #11649E",
"J@	c #10609B",
"K@	c #1E89BF",
"L@	c #1F88BF",
"M@	c #1B80B7",
"N@	c #1782B7",
"O@	c #1683B7",
"P@	c #227FAF",
"Q@	c #8AB7CC",
"R@	c #F2FFFF",
"S@	c #8BB3CC",
"T@	c #C9E4ED",
"U@	c #F4FFFF",
"V@	c #F9FFFE",
"W@	c #F9FEF9",
"X@	c #FAFEFC",
"Y@	c #FEFEFE",
"Z@	c #F8FEFF",
"`@	c #FCFFFF",
" #	c #85B7CC",
".#	c #227DAF",
"+#	c #1A81B6",
"@#	c #1E80B6",
"##	c #1F79B1",
"$#	c #10619C",
"%#	c #105F9A",
"&#	c #1B8BC0",
"*#	c #1F89C0",
"=#	c #1B7DB6",
"-#	c #157EB5",
";#	c #157FB3",
">#	c #217BAB",
",#	c #8CB5CB",
"'#	c #F3FEFD",
")#	c #7FAAC4",
"!#	c #BCDAE6",
"~#	c #F9FDFF",
"{#	c #FEFDFD",
"]#	c #FDFDFB",
"^#	c #FBFEFE",
"/#	c #FEFEFC",
"(#	c #F8FFFA",
"_#	c #FCFEFE",
":#	c #86B6CA",
"<#	c #227AAB",
"[#	c #1A7EB3",
"}#	c #1B7CB4",
"|#	c #1D77B0",
"1#	c #10629D",
"2#	c #0F5D9A",
"3#	c #1A88BC",
"4#	c #1979B1",
"5#	c #167BB2",
"6#	c #167BAF",
"7#	c #2376A6",
"8#	c #8EB3C8",
"9#	c #FEFFFB",
"0#	c #F2FFFE",
"a#	c #659BBF",
"b#	c #3D739A",
"c#	c #9ABCD5",
"d#	c #DEEDF7",
"e#	c #FAFCFC",
"f#	c #FCFFFC",
"g#	c #FDFFFA",
"h#	c #FDFEF9",
"i#	c #87B4C8",
"j#	c #2177A6",
"k#	c #197BAE",
"l#	c #1A79B0",
"m#	c #1B73AC",
"n#	c #0E5E9A",
"o#	c #105D9A",
"p#	c #FAFBFB",
"q#	c #4C618F",
"r#	c #1B84B6",
"s#	c #1C85B8",
"t#	c #1677AC",
"u#	c #1977AB",
"v#	c #2473A3",
"w#	c #8BB2C6",
"x#	c #FEFFFC",
"y#	c #F3FEFE",
"z#	c #619DC4",
"A#	c #2470A2",
"B#	c #2872A2",
"C#	c #5088AF",
"D#	c #BFD5E2",
"E#	c #F2FCFE",
"F#	c #F9FEFC",
"G#	c #FEFEFB",
"H#	c #86B2C6",
"I#	c #1F75A4",
"J#	c #1878AC",
"K#	c #1975AB",
"L#	c #1A6EA6",
"M#	c #105C97",
"N#	c #125A96",
"O#	c #797D82",
"P#	c #2682B0",
"Q#	c #1C83B1",
"R#	c #177CAD",
"S#	c #1572A6",
"T#	c #1C71A8",
"U#	c #216F9F",
"V#	c #83B2C7",
"W#	c #FFFEFC",
"X#	c #F6FEFE",
"Y#	c #5A98C6",
"Z#	c #1B71A9",
"`#	c #1374AA",
" $	c #1972A2",
".$	c #276893",
"+$	c #5D8CB1",
"@$	c #C0DBE7",
"#$	c #EFFAFD",
"$$	c #FFFDFE",
"%$	c #83B1C6",
"&$	c #1B71A0",
"*$	c #1674A8",
"=$	c #1971A7",
"-$	c #16659B",
";$	c #145B92",
">$	c #16578E",
",$	c #CCCCCE",
"'$	c #AEB0B4",
")$	c #2C7CA4",
"!$	c #1F80B2",
"~$	c #177DB2",
"{$	c #1372A7",
"]$	c #176EA4",
"^$	c #1E6C9F",
"/$	c #6CA2BD",
"($	c #E9FEFF",
"_$	c #EEFEFE",
":$	c #4383B2",
"<$	c #146DA8",
"[$	c #1271AA",
"}$	c #1770A3",
"|$	c #1C6DA0",
"1$	c #1D69A0",
"2$	c #3474A3",
"3$	c #76A2BC",
"4$	c #E9F7FE",
"5$	c #FBFFFF",
"6$	c #79A7BE",
"7$	c #1B6B9C",
"8$	c #186FA6",
"9$	c #186BA3",
"0$	c #136098",
"a$	c #135790",
"b$	c #195285",
"c$	c #E5E5EA",
"d$	c #526491",
"e$	c #257FAC",
"f$	c #177CB3",
"g$	c #1573AB",
"h$	c #156BA1",
"i$	c #1969A0",
"j$	c #286B9A",
"k$	c #6E9EBF",
"l$	c #9CC2D4",
"m$	c #6393B2",
"n$	c #1E6698",
"o$	c #146AA5",
"p$	c #136CA6",
"q$	c #176A9E",
"r$	c #176A9F",
"s$	c #136DA8",
"t$	c #1169A5",
"u$	c #1A6497",
"v$	c #37698A",
"w$	c #87ACC5",
"x$	c #85B0C8",
"y$	c #34719B",
"z$	c #1C699E",
"A$	c #186AA3",
"B$	c #14639E",
"C$	c #105993",
"D$	c #185487",
"E$	c #889DB8",
"F$	c #E4E5E5",
"G$	c #8E969C",
"H$	c #247392",
"I$	c #1B7DAE",
"J$	c #1A75AE",
"K$	c #196AA3",
"L$	c #13649C",
"M$	c #16679D",
"N$	c #136096",
"O$	c #155E93",
"P$	c #186297",
"Q$	c #15659D",
"R$	c #1468A1",
"S$	c #14669D",
"T$	c #18679B",
"U$	c #17689D",
"V$	c #12669D",
"W$	c #1267A2",
"X$	c #1668A1",
"Y$	c #196399",
"Z$	c #166096",
"`$	c #155E96",
" %	c #19639B",
".%	c #17669D",
"+%	c #12669E",
"@%	c #0F609C",
"#%	c #115790",
"$%	c #1D4C73",
"%%	c #4B5B80",
"&%	c #2179A4",
"*%	c #1778AD",
"=%	c #1B6FA8",
"-%	c #1B659C",
";%	c #126299",
">%	c #11659F",
",%	c #1063A0",
"'%	c #12639E",
")%	c #12629C",
"!%	c #14629A",
"~%	c #18649A",
"{%	c #166295",
"]%	c #166296",
"^%	c #166499",
"/%	c #14649D",
"(%	c #12619C",
"_%	c #1363A0",
":%	c #1063A2",
"<%	c #1162A1",
"[%	c #17639D",
"}%	c #116097",
"|%	c #0D5F99",
"1%	c #075692",
"2%	c #175489",
"3%	c #B4B3B8",
"4%	c #6691BC",
"5%	c #2079A8",
"6%	c #1873A8",
"7%	c #1C6DA4",
"8%	c #165F96",
"9%	c #135F97",
"0%	c #145F99",
"a%	c #14619A",
"b%	c #125F98",
"c%	c #136097",
"d%	c #135F96",
"e%	c #146197",
"f%	c #146199",
"g%	c #105E97",
"h%	c #15619B",
"i%	c #145E98",
"j%	c #155D96",
"k%	c #176096",
"l%	c #105C96",
"m%	c #0D5B97",
"n%	c #11558C",
"o%	c #12446B",
"p%	c #546DB6",
"q%	c #B5B8BA",
"r%	c #A3A7AF",
"s%	c #1E76A2",
"t%	c #1773A7",
"u%	c #1B6AA5",
"v%	c #16609B",
"w%	c #135B95",
"x%	c #105A92",
"y%	c #105B94",
"z%	c #115C94",
"A%	c #105B95",
"B%	c #125C95",
"C%	c #125A93",
"D%	c #125B93",
"E%	c #135992",
"F%	c #155C94",
"G%	c #0F598F",
"H%	c #125891",
"I%	c #145389",
"J%	c #4C6D89",
"K%	c #A6AEB2",
"L%	c #80828C",
"M%	c #2D689A",
"N%	c #1A729F",
"O%	c #176FA8",
"P%	c #196AAB",
"Q%	c #1461A2",
"R%	c #105D99",
"S%	c #0E5992",
"T%	c #105B93",
"U%	c #0E5890",
"V%	c #0E5993",
"W%	c #105992",
"X%	c #115890",
"Y%	c #115992",
"Z%	c #0E5A94",
"`%	c #0E5A96",
" &	c #0E5A95",
".&	c #125990",
"+&	c #185384",
"@&	c #828A90",
"#&	c #ABB2B7",
"$&	c #1C6188",
"%&	c #1F689E",
"&&	c #1C67A3",
"*&	c #1967A0",
"=&	c #0E5F9C",
"-&	c #0D5D99",
";&	c #0E5B96",
">&	c #0E5995",
",&	c #0F5C98",
"'&	c #0D5A96",
")&	c #0F5A94",
"!&	c #145B93",
"~&	c #14598F",
"{&	c #195688",
"]&	c #D1D7EB",
"^&	c #4E5863",
"/&	c #6E95AF",
"(&	c #226491",
"_&	c #19629A",
":&	c #16649F",
"<&	c #14629C",
"[&	c #155F96",
"}&	c #165D96",
"|&	c #135D98",
"1&	c #115C96",
"2&	c #155A91",
"3&	c #1C5685",
"4&	c #575A63",
"5&	c #B6B6BA",
"6&	c #565B62",
"7&	c #595E67",
"8&	c #B7BBC2",
"9&	c #BDC6C6",
"0&	c #8F9B9F",
"a&	c #50585E",
"b&	c #CFD0D1",
"c&	c #959CA0",
"                    . + @ @ @ @ @ @ @ # $                       ",
"                % @ @ @ @ & * = - ; @ @ @ @ > ,                 ",
"              ' @ @ ) ! ~ { ] ^ / ( _ : < [ @ @ } |             ",
"          1 @ @ 2 3 4 5 6 7 8 9 0 a b c d e f g @ @ h           ",
"        i @ @ j k l m n o p q r s t u v w x y z A @ B C         ",
"      D @ @ E F G H I J K L M N O P Q R S T U V W X @ @ Y       ",
"    Z @ @ `  ...+.@.#.$.%.&.*.=.-.;.>.,.'.).!.~.{.].^.@ @ /.    ",
"    @ @ (. ._.:.<.[.}.|.1.2.3.4.5.6.7.7.8.9.0.a.b.c.d.e.@ f.    ",
"    @ g.h.i.j.k.l.m.n.o.p.p.p.q.r.s.s.t.u.v.}.w.x.y.z.A.@ @ B.  ",
"  @ @ C.D.D.E.F.G.H.I.J.K.L.M.N.O.M.L.P.Q.R.I.S.T.U.V.W.X.@ Y.Z.",
"  @ `. +.+++@+#+$+%+&+*+=+-+;+>+,+'+)+!+~+{+]+^+/+(+_+:+<+@ @ [+",
"}+@ |+1+2+3+4+5+6+7+8+9+0+a+b+c+d+$.e+f+g+h+i+j+k+l+m+n+o+p+@ q+",
"@ r+s+t+u+v+$.w+x+y+z+A+B+C+D+E+F+G+H+I+J+K+L+M+N+O+P+Q+R+S+T+@ ",
"@ @ U+V+W+X+Y+Z+`+ @.@+@@@#@$@%@&@*@=@-@;@>@,@'@Z+)@!@~@{@]@@ ^@",
"@ @ /@(@_@:@<@[@}@|@1@2@3@4@5@6@7@8@9@0@a@a@b@c@d@e@f@g@h@i@j@@ ",
"@ @ k@l@m@n@o@p@q@|@r@2@s@t@u@v@w@x@y@z@A@B@C@D@E@F@G@H@I@J@@ @ ",
"@ @ K@L@M@N@O@P@Q@R@r@8@S@T@U@V@W@X@Y@z@Z@`@,@ #.#+#@###$#%#@ @ ",
"@ @ &#*#=#-#;#>#,#|@.@'#)#!#~#{#]#^#^#/#(#_#b@:#<#[#}#|#1#2#j@@ ",
"@ @ 3#w.4#5#6#7#8#U@9#0#a#b#c#d#y@e#f#g#h#a@U@i#j#k#l#m#n#o#p#@ ",
"q#@ r#s#k#t#u#v#w#U@x#y#z#A#B#C#D#E#w@F#G#a@U@H#I#J#K#L#M#N#@ @ ",
"O#@ P#Q#R#S#T#U#V#C@W#X#Y#Z#`# $.$+$@$#$Y@$$R@%$&$*$=$-$;$>$@ ,$",
"'$@ )$!$~${$]$^$/$($x@_$:$<$[$}$|$1$2$3$4$5$C@6$7$8$9$0$a$b$@   ",
"c$d$@ e$f$g$h$i$j$k$l$m$n$o$p$q$r$s$t$u$v$w$x$y$z$A$B$C$D$E$@ F$",
"  G$@ H$I$J$K$L$M$N$O$P$Q$R$S$T$U$V$W$X$Y$Z$`$ %.%+%@%#%$%@ @   ",
"    %%@ &%*%=%-%;%>%,%'%)%!%~%{%]%^%/%(%_%:%<%[%}%|%1%2%@ @     ",
"    3%@ 4%5%6%7%8%Z$9%0%a%b%c%d%e%f%g%h%a%i%j%k%l%m%n%o%p%q%    ",
"      r%@ @ s%t%u%v%w%x%y%z%y%A%A%y%B%C%D%E%F%G%H%I%J%@ K%      ",
"        L%@ M%N%O%P%Q%R%S%T%U%V%V%W%X%Y%Z%`% &.&+&@ @ @&        ",
"          #&@ @ $&%&&&*&B$=&-&;&>&,&'&)&!&~&{&@ @ ]&            ",
"              ^&@ @ /&(&_&:&<&[&}&|&1&2&3&@ @ @ 4&              ",
"                5&6&@ @ @ @ @ @ @ @ @ @ @ @ 7&8&                ",
"                    9&0&a&@ @ @ @ @ @ b&c&                      "};
