/* XPM */
static char * Stop_Hover_xpm[] = {
"32 32 671 2",
"  	c None",
". 	c #C4C8C8",
"+ 	c #9A9CA0",
"@ 	c #7696FF",
"# 	c #9A9B9F",
"$ 	c #C4C7C7",
"% 	c #B6BBC0",
"& 	c #585F6A",
"* 	c #6D8CED",
"= 	c #11769A",
"- 	c #13769B",
"; 	c #57606B",
"> 	c #B1BABF",
", 	c #C0C8C7",
"' 	c #525D64",
") 	c #176A95",
"! 	c #0F75A4",
"~ 	c #0E7DAF",
"{ 	c #0E86B9",
"] 	c #0E8DC3",
"^ 	c #0C90C7",
"/ 	c #0D90C7",
"( 	c #0E8CC2",
"_ 	c #1185BA",
": 	c #117CAF",
"< 	c #1273A3",
"[ 	c #1A6792",
"} 	c #4E5A66",
"| 	c #C1C6C8",
"1 	c #AFB5B6",
"2 	c #155A85",
"3 	c #136B9B",
"4 	c #117DAA",
"5 	c #1389B5",
"6 	c #198DBC",
"7 	c #198DBF",
"8 	c #1E8FC7",
"9 	c #1A8BC3",
"0 	c #198AC2",
"a 	c #1A8AC2",
"b 	c #1584B9",
"c 	c #1685B6",
"d 	c #1280AF",
"e 	c #1276A5",
"f 	c #156697",
"g 	c #145584",
"h 	c #6D8CEC",
"i 	c #B0B4B5",
"j 	c #0F4A6B",
"k 	c #0F6495",
"l 	c #1079B0",
"m 	c #1E8DC1",
"n 	c #1F90C2",
"o 	c #1E90C2",
"p 	c #1F8EC2",
"q 	c #1F8DC2",
"r 	c #1E88C0",
"s 	c #2189C3",
"t 	c #2087C2",
"u 	c #1C83BD",
"v 	c #1C85BC",
"w 	c #1B85BA",
"x 	c #1781B6",
"y 	c #197FB5",
"z 	c #197CB4",
"A 	c #106FA5",
"B 	c #0E5C8D",
"C 	c #466FB7",
"D 	c #838688",
"E 	c #A4ABAD",
"F 	c #14689A",
"G 	c #1981BA",
"H 	c #2092C9",
"I 	c #2190C4",
"J 	c #228EC1",
"K 	c #228EC2",
"L 	c #1E8CC0",
"M 	c #1D8BBF",
"N 	c #1C8BBF",
"O 	c #1A8ABE",
"P 	c #1987BC",
"Q 	c #1B87BC",
"R 	c #1A83B8",
"S 	c #1A80B6",
"T 	c #1C80B7",
"U 	c #1D7DB6",
"V 	c #197AB4",
"W 	c #167AB2",
"X 	c #1471AC",
"Y 	c #165E95",
"Z 	c #A6A9A9",
"` 	c #B1B9BA",
" .	c #0E4A6B",
"..	c #186C9E",
"+.	c #238CC6",
"@.	c #2394CB",
"#.	c #1D90C1",
"$.	c #2291C1",
"%.	c #218EBF",
"&.	c #1F90C3",
"*.	c #2094C4",
"=.	c #2297C6",
"-.	c #229AC8",
";.	c #229CC8",
">.	c #2299C7",
",.	c #2298C6",
"'.	c #2394C4",
").	c #1F8DBF",
"!.	c #1983B7",
"~.	c #197CB1",
"{.	c #1B7BB0",
"].	c #177AAE",
"^.	c #1779B4",
"/.	c #1771B0",
"(.	c #165B92",
"_.	c #B3B8B8",
":.	c #126A9A",
"<.	c #2091C8",
"[.	c #2191C4",
"}.	c #2192C1",
"|.	c #1F91BF",
"1.	c #2096C4",
"2.	c #1F9BC9",
"3.	c #219CCC",
"4.	c #229ECD",
"5.	c #219DCC",
"6.	c #219CCA",
"7.	c #239DCB",
"8.	c #239BCB",
"9.	c #259CCD",
"0.	c #2196C7",
"a.	c #1E8FBD",
"b.	c #1880B0",
"c.	c #1678AE",
"d.	c #1677AF",
"e.	c #1375B1",
"f.	c #166FA8",
"g.	c #175C8E",
"h.	c #6B8BED",
"i.	c #3F4C65",
"j.	c #9698A0",
"k.	c #145A87",
"l.	c #228DC3",
"m.	c #1E91C7",
"n.	c #1F93C4",
"o.	c #1E91C0",
"p.	c #1D95C4",
"q.	c #1F9BC8",
"r.	c #209CCA",
"s.	c #1F9BCB",
"t.	c #1F9ACD",
"u.	c #1F9ACE",
"v.	c #209BCF",
"w.	c #209ACD",
"x.	c #209ACC",
"y.	c #2199CC",
"z.	c #209BC9",
"A.	c #1C86BC",
"B.	c #1677AD",
"C.	c #1375A9",
"D.	c #1272A9",
"E.	c #166AA4",
"F.	c #154C7C",
"G.	c #9599A1",
"H.	c #E7E6E5",
"I.	c #247CAD",
"J.	c #2192C6",
"K.	c #2190C1",
"L.	c #1F92C0",
"M.	c #1C98C5",
"N.	c #1D98CA",
"O.	c #2097CA",
"P.	c #2098C8",
"Q.	c #2098CA",
"R.	c #2197CA",
"S.	c #2196CC",
"T.	c #2297CC",
"U.	c #2196CB",
"V.	c #2198C9",
"W.	c #2198CA",
"X.	c #2098CD",
"Y.	c #2594C5",
"Z.	c #1E82B4",
"`.	c #1573A7",
" +	c #166FA9",
".+	c #186EAA",
"++	c #186094",
"@+	c #E7E6E4",
"#+	c #AEB1B2",
"$+	c #1B6B97",
"%+	c #278EBF",
"&+	c #2091C3",
"*+	c #218FC2",
"=+	c #2290C3",
"-+	c #1D96C4",
";+	c #2094C6",
">+	c #2193C8",
",+	c #2194C4",
"'+	c #2891BD",
")+	c #2C8FBA",
"!+	c #2C8FBB",
"~+	c #2990BC",
"{+	c #2B91BD",
"]+	c #2B8FBA",
"^+	c #2B8EB9",
"/+	c #2992BD",
"(+	c #2094CA",
"_+	c #2093C7",
":+	c #2394C2",
"<+	c #258FBF",
"[+	c #2181B7",
"}+	c #136DA8",
"|+	c #156CA7",
"1+	c #19689E",
"2+	c #155582",
"3+	c #AEB2B3",
"4+	c #7A7A7F",
"5+	c #2484B4",
"6+	c #258FC0",
"7+	c #2191C3",
"8+	c #208FC0",
"9+	c #1D94C4",
"0+	c #2192C2",
"a+	c #238FBD",
"b+	c #2A8EB7",
"c+	c #61B0D2",
"d+	c #76BAD8",
"e+	c #75BAD7",
"f+	c #6FBAD8",
"g+	c #6FBAD7",
"h+	c #76BAD7",
"i+	c #76BBD8",
"j+	c #60B0D1",
"k+	c #2A8EB8",
"l+	c #2290C2",
"m+	c #218FC3",
"n+	c #238DC3",
"o+	c #1375AE",
"p+	c #126CA7",
"q+	c #19679E",
"r+	c #1A6093",
"s+	c #797C81",
"t+	c #134967",
"u+	c #2990C0",
"v+	c #228FC0",
"w+	c #1E8FC1",
"x+	c #1F8CC1",
"y+	c #1D8EC4",
"z+	c #1B90C1",
"A+	c #1E8EBF",
"B+	c #3E91B7",
"C+	c #A7D9EA",
"D+	c #E9FEFF",
"E+	c #F3FEFF",
"F+	c #F4FDFF",
"G+	c #F4FDFE",
"H+	c #F2FEFF",
"I+	c #E9FFFF",
"J+	c #A6D8EA",
"K+	c #3C93BB",
"L+	c #1E8DC0",
"M+	c #208EBF",
"N+	c #238EC4",
"O+	c #1D81B8",
"P+	c #116DA7",
"Q+	c #17669E",
"R+	c #1A6398",
"S+	c #123959",
"T+	c #1F5F7F",
"U+	c #258FC2",
"V+	c #1E8EC0",
"W+	c #1C8DBF",
"X+	c #1E8BBD",
"Y+	c #1E8BBF",
"Z+	c #1C8CC2",
"`+	c #1C8BBD",
" @	c #62A8C5",
".@	c #E3FAFC",
"+@	c #F9FEFF",
"@@	c #FCFBFC",
"#@	c #FFFEFD",
"$@	c #FEFEFD",
"%@	c #FFFEFF",
"&@	c #FFFDFD",
"*@	c #FDFBFC",
"=@	c #FAFFFF",
"-@	c #E2F9FC",
";@	c #5EA8C8",
">@	c #1C8ABE",
",@	c #208CBD",
"'@	c #1F8ABE",
")@	c #2085BA",
"!@	c #1472AB",
"~@	c #13669D",
"{@	c #18649A",
"]@	c #174466",
"^@	c #256C8E",
"/@	c #1F8DC3",
"(@	c #1B8DC1",
"_@	c #1B8CBD",
":@	c #1D88BA",
"<@	c #1E87BB",
"[@	c #1C87BF",
"}@	c #1989BC",
"|@	c #1B87BB",
"1@	c #6FAAC6",
"2@	c #F7FEFF",
"3@	c #FEFDFF",
"4@	c #FFFEFE",
"5@	c #FCFCF9",
"6@	c #FEFEFB",
"7@	c #FDFEFA",
"8@	c #FDFCF9",
"9@	c #FEFCFE",
"0@	c #6CAAC7",
"a@	c #1C88BC",
"b@	c #1E88BA",
"c@	c #1C89BC",
"d@	c #1C88BA",
"e@	c #1F86BA",
"f@	c #1777AE",
"g@	c #10649D",
"h@	c #15639C",
"i@	c #18496E",
"j@	c #267196",
"k@	c #1C8DC3",
"l@	c #198BC0",
"m@	c #1988BA",
"n@	c #1C85B6",
"o@	c #1F83B8",
"p@	c #1986BA",
"q@	c #70A9C4",
"r@	c #F9FEFE",
"s@	c #FEFEFF",
"t@	c #FDFEFD",
"u@	c #FDFEFC",
"v@	c #FDFFFC",
"w@	c #FCFEFC",
"x@	c #6DA8C4",
"y@	c #1E86BB",
"z@	c #1D84B6",
"A@	c #1B86B8",
"B@	c #1B86B6",
"C@	c #1F84B8",
"D@	c #1A7AB0",
"E@	c #0F659D",
"F@	c #106099",
"G@	c #1A4D74",
"H@	c #267297",
"I@	c #1A8BC1",
"J@	c #1A8ABF",
"K@	c #1783B6",
"L@	c #1B81B3",
"M@	c #1E7FB4",
"N@	c #1B80B8",
"O@	c #1981B7",
"P@	c #1B81B6",
"Q@	c #6FA7C1",
"R@	c #F7FEFC",
"S@	c #FDFFFF",
"T@	c #FBFEFE",
"U@	c #FEFEFE",
"V@	c #6BA6C2",
"W@	c #1C81B2",
"X@	c #1982B4",
"Y@	c #1A82B3",
"Z@	c #1D81B4",
"`@	c #1C7BB1",
" #	c #0C629B",
".#	c #106098",
"+#	c #194C74",
"@#	c #256D91",
"##	c #1C8AC0",
"$#	c #1D8ABF",
"%#	c #1780B4",
"&#	c #1A7DB0",
"*#	c #1D7CB3",
"=#	c #1B7CB6",
"-#	c #187EB3",
";#	c #1A7DB2",
">#	c #6EA4C0",
",#	c #F8FEFE",
"'#	c #FCFDFD",
")#	c #FDFEFE",
"!#	c #FDFDFE",
"~#	c #FFFDFF",
"{#	c #6BA4C1",
"]#	c #1A7DB3",
"^#	c #1B7EAF",
"/#	c #187EB2",
"(#	c #197EB1",
"_#	c #1B7DB2",
":#	c #1B79B0",
"<#	c #0F639C",
"[#	c #105E96",
"}#	c #194A70",
"|#	c #256888",
"1#	c #1E87BA",
"2#	c #1D86BA",
"3#	c #157BAF",
"4#	c #1A7AAE",
"5#	c #1C78B0",
"6#	c #1A79B3",
"7#	c #177AAF",
"8#	c #1979AE",
"9#	c #6EA2BD",
"0#	c #F8FDFE",
"a#	c #FDFDFC",
"b#	c #FDFEFB",
"c#	c #FDFFFE",
"d#	c #FBFEFF",
"e#	c #FCFDFF",
"f#	c #FEFFFE",
"g#	c #6BA1BF",
"h#	c #1A79AF",
"i#	c #1A79AC",
"j#	c #1879AF",
"k#	c #1A73AC",
"l#	c #0F5E96",
"m#	c #135D95",
"n#	c #1A476E",
"o#	c #235E7B",
"p#	c #1E83B4",
"q#	c #1E84B7",
"r#	c #187BAF",
"s#	c #1976AB",
"t#	c #1B75AE",
"u#	c #1976B1",
"v#	c #1778AC",
"w#	c #1877AA",
"x#	c #6DA1BB",
"y#	c #F7FEFE",
"z#	c #FEFFFC",
"A#	c #FEFFFA",
"B#	c #FCFFFC",
"C#	c #F6FEFE",
"D#	c #69A0BD",
"E#	c #1977AC",
"F#	c #1977AA",
"G#	c #1877AE",
"H#	c #1B75AD",
"I#	c #1A6EA8",
"J#	c #115C94",
"K#	c #155A90",
"L#	c #787D82",
"M#	c #2384B3",
"N#	c #1D81B3",
"O#	c #187AAF",
"P#	c #1672A8",
"Q#	c #1971AA",
"R#	c #1772AC",
"S#	c #1574A7",
"T#	c #1773A7",
"U#	c #5A92B6",
"V#	c #E3F3FA",
"W#	c #FFFFFC",
"X#	c #FFFDFE",
"Y#	c #FBFEFD",
"Z#	c #E2F3FA",
"`#	c #5692B7",
" $	c #1873A6",
".$	c #1673AA",
"+$	c #1772AB",
"@$	c #1A70AB",
"#$	c #14659F",
"$$	c #135B92",
"%$	c #16588B",
"&$	c #777B81",
"*$	c #ADB1B4",
"=$	c #287DA7",
"-$	c #2080B1",
";$	c #1A7CB1",
">$	c #1371A8",
",$	c #196FA6",
"'$	c #196DA4",
")$	c #196FA3",
"!$	c #186FA7",
"~$	c #2F71A0",
"{$	c #98BDD7",
"]$	c #F1FFFF",
"^$	c #F8FFFF",
"/$	c #F5FEFF",
"($	c #F6FEFF",
"_$	c #F0FFFF",
":$	c #96BCD6",
"<$	c #2D72A2",
"[$	c #1670A8",
"}$	c #186EA3",
"|$	c #176EA4",
"1$	c #186CA6",
"2$	c #12619A",
"3$	c #14588C",
"4$	c #1B537F",
"5$	c #AFB2B6",
"6$	c #267EAE",
"7$	c #197CB2",
"8$	c #1474AA",
"9$	c #136DA0",
"0$	c #186DA0",
"a$	c #1869A0",
"b$	c #1569A2",
"c$	c #1B6AA1",
"d$	c #1D5F91",
"e$	c #44769F",
"f$	c #5C83A7",
"g$	c #5D85A6",
"h$	c #5986A6",
"i$	c #5985A8",
"j$	c #5B84A7",
"k$	c #19699F",
"l$	c #156CA4",
"m$	c #176AA2",
"n$	c #176AA1",
"o$	c #1868A2",
"p$	c #13639D",
"q$	c #0E5B93",
"r$	c #165686",
"s$	c #153E61",
"t$	c #E5E4E4",
"u$	c #8F959E",
"v$	c #25709D",
"w$	c #1B7BB1",
"x$	c #1778AD",
"y$	c #106CA0",
"z$	c #11699E",
"A$	c #1468A0",
"B$	c #13689D",
"C$	c #13699E",
"D$	c #15689E",
"E$	c #16639A",
"F$	c #166196",
"G$	c #196298",
"H$	c #166197",
"I$	c #166399",
"J$	c #15679F",
"K$	c #14679B",
"L$	c #13689E",
"M$	c #1368A1",
"N$	c #16669F",
"O$	c #16639B",
"P$	c #105C97",
"Q$	c #0F5892",
"R$	c #164E7B",
"S$	c #2377A5",
"T$	c #1879B0",
"U$	c #1265A1",
"V$	c #11639A",
"W$	c #146498",
"X$	c #126396",
"Y$	c #0F6597",
"Z$	c #11669B",
"`$	c #11639B",
" %	c #14629D",
".%	c #17619E",
"+%	c #17619F",
"@%	c #14619D",
"#%	c #106497",
"$%	c #116497",
"%%	c #13649A",
"&%	c #14639B",
"*%	c #15609B",
"=%	c #125B99",
"-%	c #105592",
";%	c #195389",
">%	c #5877CB",
",%	c #AEB7B6",
"'%	c #2374A6",
")%	c #1774B1",
"!%	c #146DA9",
"~%	c #126096",
"{%	c #135F98",
"]%	c #125F98",
"^%	c #126196",
"/%	c #126095",
"(%	c #136098",
"_%	c #145E99",
":%	c #145E9B",
"<%	c #145F98",
"[%	c #136095",
"}%	c #136096",
"|%	c #115F99",
"1%	c #116197",
"2%	c #145F96",
"3%	c #115B96",
"4%	c #115896",
"5%	c #175389",
"6%	c #184169",
"7%	c #B5B8BB",
"8%	c #9FAAA7",
"9%	c #2270A2",
"0%	c #1773AA",
"a%	c #166CA5",
"b%	c #11639C",
"c%	c #105C9A",
"d%	c #13599B",
"e%	c #115993",
"f%	c #115C91",
"g%	c #115C92",
"h%	c #115B93",
"i%	c #135B95",
"j%	c #125B92",
"k%	c #135B91",
"l%	c #135993",
"m%	c #14599B",
"n%	c #105A9B",
"o%	c #0F5D98",
"p%	c #115A94",
"q%	c #11578F",
"r%	c #175485",
"s%	c #A9ACB1",
"t%	c #808385",
"u%	c #20587A",
"v%	c #1F6F9E",
"w%	c #176FA7",
"x%	c #166CA4",
"y%	c #14629F",
"z%	c #125B9C",
"A%	c #0E5995",
"B%	c #0E5B94",
"C%	c #0E5890",
"D%	c #125890",
"E%	c #125891",
"F%	c #105992",
"G%	c #0F5993",
"H%	c #105995",
"I%	c #125799",
"J%	c #105799",
"K%	c #105895",
"L%	c #135892",
"M%	c #175383",
"N%	c #848A8C",
"O%	c #AAB3B2",
"P%	c #1D5F8C",
"Q%	c #1F699B",
"R%	c #1E689B",
"S%	c #1A689B",
"T%	c #12649E",
"U%	c #0D609B",
"V%	c #105B97",
"W%	c #145891",
"X%	c #165691",
"Y%	c #135A97",
"Z%	c #0A5B97",
"`%	c #0B5B94",
" &	c #135C92",
".&	c #16588E",
"+&	c #1A568B",
"@&	c #154A78",
"#&	c #B2B7B5",
"$&	c #C0C5C8",
"%&	c #4D5864",
"&&	c #266087",
"*&	c #22658F",
"=&	c #186499",
"-&	c #15659F",
";&	c #15629B",
">&	c #175E94",
",&	c #175D95",
"'&	c #135D97",
")&	c #0F5C96",
"!&	c #195884",
"~&	c #1D5178",
"{&	c #525C67",
"]&	c #C5C9CA",
"^&	c #B2B7BE",
"/&	c #6788E6",
"(&	c #5A5F67",
"_&	c #B6BCC1",
":&	c #C2C4C3",
"<&	c #93999C",
"[&	c #C5C6C4",
"                    . + @ @ @ @ @ @ @ @ # $                     ",
"                % & * @ @ @ @ = - @ @ @ @ @ ; >                 ",
"            , ' @ @ ) ! ~ { ] ^ / ( _ : < [ @ @ } |             ",
"          1 @ @ 2 3 4 5 6 7 8 9 0 a b c d e f g @ h i           ",
"        @ @ j k l m n o p q r s t u v w x y z A B C @ D         ",
"      E @ @ F G H I J K L M N O P Q R S T U V W X Y @ @ Z       ",
"    ` @  ...+.@.#.$.%.&.*.=.-.;.>.,.'.).!.~.{.].^./.(.@ @ _.    ",
"    @ @ :.+.<.[.}.|.1.2.3.4.5.6.7.8.9.9.0.a.b.c.d.e.f.g.h.i.    ",
"  j.@ k.l.m.n.o.p.q.r.s.t.t.t.u.v.w.w.x.y.z.1.A.B.C.D.E.F.@ G.  ",
"H.@ @ I.J.J.K.L.M.N.O.P.Q.R.S.T.U.S.R.V.W.X.O.Y.Z.`. +.+++@ @ @+",
"#+@ $+%+&+*+=+*.-+;+>+,+'+)+!+~+{+]+^+/+*.(+_+:+<+[+}+|+1+2+@ 3+",
"4+@ 5+6+7+8+&.m.9+0+a+b+c+d+e+f+g+h+i+j+k+l+&+$.m+n+o+p+q+r+@ s+",
"@ t+u+v+w+).x+y+z+A+B+C+D+E+F+E+E+G+H+I+J+K+L+M+L+N+O+P+Q+R+S+@ ",
"@ T+U+V+W+X+Y+Z+7 `+ @.@+@@@#@$@%@&@*@=@-@;@>@,@>@'@)@!@~@{@]@@ ",
"@ ^@/@(@_@:@<@[@}@|@1@2@3@4@5@6@7@8@4@9@2@0@a@b@c@d@e@f@g@h@i@@ ",
"@ j@k@l@m@n@o@v p@w q@r@3@s@t@u@v@w@s@3@r@x@y@z@A@B@C@D@E@F@G@@ ",
"@ H@I@J@K@L@M@N@O@P@Q@R@S@T@U@$@$@U@T@S@R@V@P@W@X@Y@Z@`@ #.#+#@ ",
"@ @###$#%#&#*#=#-#;#>#,#'#)#!#~#~#!#)#'#,#{#]#^#/#(#_#:#<#[#}#@ ",
"@ |#1#2#3#4#5#6#7#8#9#0#a#b#c#d#e#f#b#a#0#g#h#i#7#j#:#k#l#m#n#@ ",
"@ o#p#q#r#s#t#u#v#w#x#y#z#A#B#=@=@B#A#z#C#D#E#F#f@G#H#I#J#K#@ @ ",
"L#@ M#N#O#P#Q#R#S#T#U#V#T@W#X#3@~#X#W#Y#Z#`#T# $.$+$@$#$$$%$@ &$",
"*$@ =$-$;$>$,$'$)$!$~${$]$^$+@/$($+@^$_$:$<$[$}$|$!$1$2$3$4$@ 5$",
"  @ @ 6$7$8$9$0$a$b$c$d$e$f$g$h$i$g$j$e$d$k$l$m$n$o$p$q$r$s$@ t$",
"  u$@ v$w$x$y$z$A$B$C$D$E$F$G$F$H$G$F$I$J$K$L$M$N$O$P$Q$R$@ @   ",
"    @ @ S$T$X U$V$W$X$Y$Z$`$ %.%+%@%`$Z$#%$%%%&%*%=%-%;%>%@     ",
"    ,%@ @ '%)%!%V$~%{%]%^%/%(%_%:%<%[%}%{%|%1%2%3%4%5%6%@ 7%    ",
"      8%@ @ 9%0%a%b%c%d%e%f%g%h%i%j%k%l%m%n%o%p%q%r%@ @ s%      ",
"        t%@ u%v%w%x%y%z%A%B%C%D%E%F%G%H%I%J%K%L%M%@ @ N%        ",
"          O%@ @ P%Q%R%S%T%U%V%W%X%Y%Z%`% &.&+&@&@ @ #&          ",
"            $&%&@ @ &&*&=&-&;&>&,&'&)&k%!&~&@ @ {&]&            ",
"                ^&@ @ @ @ @ @ @ @ @ @ /&@ @ (&_&                ",
"                    :&<&@ @ @ @ @ @ @ @ @ [&                    "};
