/* XPM */
static char * Play_Hover_xpm[] = {
"32 32 709 2",
"  	c None",
". 	c #7696FF",
"+ 	c #979DA1",
"@ 	c #C3C8C8",
"# 	c #B6BBC0",
"$ 	c #585F6A",
"% 	c #8FBDCE",
"& 	c #63A3BB",
"* 	c #57606B",
"= 	c #B1BABF",
"- 	c #C0C8C7",
"; 	c #525D64",
"> 	c #186995",
", 	c #1073A4",
"' 	c #0C7FAE",
") 	c #0B88B8",
"! 	c #0B8EC1",
"~ 	c #0D90C6",
"{ 	c #0E8FC6",
"] 	c #0D8DC1",
"^ 	c #0F86BA",
"/ 	c #107DB0",
"( 	c #1471A3",
"_ 	c #1C6692",
": 	c #4E5A66",
"< 	c #C1C6C8",
"[ 	c #AFB5B6",
"} 	c #155A85",
"| 	c #136B9B",
"1 	c #137CAA",
"2 	c #1687B5",
"3 	c #188EBC",
"4 	c #168FBD",
"5 	c #1B91C5",
"6 	c #198CC2",
"7 	c #188BC1",
"8 	c #188CC1",
"9 	c #1485B7",
"0 	c #1685B4",
"a 	c #167FAD",
"b 	c #1575A4",
"c 	c #156697",
"d 	c #145584",
"e 	c #B0B4B5",
"f 	c #848888",
"g 	c #0F4A6B",
"h 	c #0F6495",
"i 	c #1079B0",
"j 	c #1E8DC1",
"k 	c #1E90C2",
"l 	c #1F8DC2",
"m 	c #1C88C0",
"n 	c #1D8BC2",
"o 	c #1C89C0",
"p 	c #1B84BB",
"q 	c #1F84BC",
"r 	c #1D83BA",
"s 	c #1981B4",
"t 	c #197FB5",
"u 	c #197CB4",
"v 	c #106FA5",
"w 	c #0E5C8D",
"x 	c #8EA6B7",
"y 	c #838688",
"z 	c #A4ABAD",
"A 	c #14689A",
"B 	c #1981BA",
"C 	c #2092C9",
"D 	c #2190C4",
"E 	c #208EC3",
"F 	c #1E8EC3",
"G 	c #1F8CC1",
"H 	c #1F8AC1",
"I 	c #1C8CBF",
"J 	c #188BBD",
"K 	c #1788BD",
"L 	c #1B87BB",
"M 	c #1C81B8",
"N 	c #1C7FB6",
"O 	c #1B81B6",
"P 	c #1D7DB6",
"Q 	c #197AB4",
"R 	c #167AB2",
"S 	c #1471AC",
"T 	c #165E95",
"U 	c #133A5E",
"V 	c #829FFF",
"W 	c #A6A9A9",
"X 	c #B1B9BA",
"Y 	c #0E4A6B",
"Z 	c #186C9E",
"` 	c #238CC6",
" .	c #2394CB",
"..	c #1D90C1",
"+.	c #2291C1",
"@.	c #1E8EBE",
"#.	c #1C90C1",
"$.	c #2094C5",
"%.	c #2295C6",
"&.	c #2497C8",
"*.	c #2499CA",
"=.	c #2598C9",
"-.	c #2496C8",
";.	c #2492C6",
">.	c #1F8DC1",
",.	c #1784B8",
"'.	c #177CB2",
").	c #1B7BB0",
"!.	c #177AAE",
"~.	c #1779B4",
"{.	c #1771B0",
"].	c #165B92",
"^.	c #B3B8B8",
"/.	c #9EA3A8",
"(.	c #126A9A",
"_.	c #2091C8",
":.	c #2191C4",
"<.	c #2192C1",
"[.	c #1F91BF",
"}.	c #2196C5",
"|.	c #229CCB",
"1.	c #1F9BC9",
"2.	c #269DCC",
"3.	c #279ACC",
"4.	c #2999CD",
"5.	c #259ACD",
"6.	c #249DCF",
"7.	c #239DCF",
"8.	c #2098C9",
"9.	c #1D8FBE",
"0.	c #1880B0",
"a.	c #1678AE",
"b.	c #1677AF",
"c.	c #1375B1",
"d.	c #166FA8",
"e.	c #175C8E",
"f.	c #9698A0",
"g.	c #145A87",
"h.	c #228DC3",
"i.	c #1E91C7",
"j.	c #1F93C4",
"k.	c #1E91C0",
"l.	c #1D95C4",
"m.	c #1F9BC8",
"n.	c #239BC9",
"o.	c #2497C7",
"p.	c #239AC9",
"q.	c #239BCC",
"r.	c #2198C9",
"s.	c #2397CB",
"t.	c #2499CE",
"u.	c #219ACD",
"v.	c #1E9ACD",
"w.	c #1F9ACD",
"x.	c #2299CD",
"y.	c #209AC9",
"z.	c #2096C4",
"A.	c #1C86BC",
"B.	c #1677AD",
"C.	c #1375A9",
"D.	c #1272A9",
"E.	c #166AA4",
"F.	c #154C7C",
"G.	c #9599A1",
"H.	c #0B3F64",
"I.	c #247CAD",
"J.	c #2192C6",
"K.	c #2190C1",
"L.	c #1F92C0",
"M.	c #1C98C5",
"N.	c #1D98CA",
"O.	c #2396C8",
"P.	c #2793C2",
"Q.	c #2896C4",
"R.	c #2593C3",
"S.	c #2597C8",
"T.	c #2297C9",
"U.	c #2097CA",
"V.	c #2197CA",
"W.	c #2296CA",
"X.	c #2396CB",
"Y.	c #2098CD",
"Z.	c #2594C5",
"`.	c #1E82B4",
" +	c #1573A7",
".+	c #166FA9",
"++	c #186EAA",
"@+	c #186094",
"#+	c #1B6B97",
"$+	c #278EBF",
"%+	c #2091C3",
"&+	c #218FC2",
"*+	c #2290C3",
"=+	c #2094C4",
"-+	c #1D96C4",
";+	c #2094C6",
">+	c #3191BE",
",+	c #70B8D4",
"'+	c #A3E2FA",
")+	c #87C9E1",
"!+	c #479BBF",
"~+	c #2E91BC",
"{+	c #2493C4",
"]+	c #2192C4",
"^+	c #2192C5",
"/+	c #1D94C6",
"(+	c #1D95CA",
"_+	c #1E95C8",
":+	c #2095C4",
"<+	c #258FBD",
"[+	c #2381B7",
"}+	c #176BA9",
"|+	c #176AA7",
"1+	c #1B679D",
"2+	c #16557F",
"3+	c #ADB2B3",
"4+	c #7A7A7F",
"5+	c #2484B4",
"6+	c #258FC0",
"7+	c #2191C3",
"8+	c #208FC0",
"9+	c #1F90C3",
"0+	c #1D94C4",
"a+	c #2192C2",
"b+	c #4E9CBE",
"c+	c #C8E9F0",
"d+	c #F1FFFF",
"e+	c #EDFEFF",
"f+	c #BEE4F0",
"g+	c #77B7D3",
"h+	c #338AB7",
"i+	c #288DBF",
"j+	c #2092C3",
"k+	c #1B93C4",
"l+	c #1A94C6",
"m+	c #1C93C3",
"n+	c #1C92C4",
"o+	c #1E93C7",
"p+	c #2193C0",
"q+	c #268CC1",
"r+	c #1972B1",
"s+	c #176AA9",
"t+	c #1A679D",
"u+	c #1D5F90",
"v+	c #777D80",
"w+	c #134967",
"x+	c #2990C0",
"y+	c #228FC0",
"z+	c #1E8FC1",
"A+	c #1F8DBF",
"B+	c #1D8EC4",
"C+	c #1B90C1",
"D+	c #1E8EBF",
"E+	c #5AA1C1",
"F+	c #DCF2F8",
"G+	c #F9FFFF",
"H+	c #FEFDFD",
"I+	c #FCFEFE",
"J+	c #F5FFFF",
"K+	c #BBDDEE",
"L+	c #6AAAC7",
"M+	c #2D8EB6",
"N+	c #208BBB",
"O+	c #258CC2",
"P+	c #248BBF",
"Q+	c #208CC0",
"R+	c #208CC3",
"S+	c #1E8EBA",
"T+	c #208CBB",
"U+	c #1E84BA",
"V+	c #0F6EA8",
"W+	c #1566A3",
"X+	c #19639C",
"Y+	c #11395C",
"Z+	c #1F5F7F",
"`+	c #258FC2",
" @	c #1E8EC0",
".@	c #1C8DBF",
"+@	c #1E8BBD",
"@@	c #1E8BBF",
"#@	c #1C8CC2",
"$@	c #198DBF",
"%@	c #1C8BBD",
"&@	c #59A0C1",
"*@	c #D9F1F8",
"=@	c #FDFEFE",
"-@	c #FFFCFA",
";@	c #FEFEFB",
">@	c #FAFFFE",
",@	c #F4FFFF",
"'@	c #DCF6FB",
")@	c #98CBDC",
"!@	c #4A95B6",
"~@	c #2984B2",
"{@	c #2487B7",
"]@	c #2089BE",
"^@	c #1B87C2",
"/@	c #1D8BBA",
"(@	c #1F8BBA",
"_@	c #1D87BA",
":@	c #1174AB",
"<@	c #1265A3",
"[@	c #15649E",
"}@	c #144568",
"|@	c #256C8E",
"1@	c #1F8DC3",
"2@	c #1B8DC1",
"3@	c #1B8CBD",
"4@	c #1D88BA",
"5@	c #1E87BB",
"6@	c #1C87BF",
"7@	c #1989BC",
"8@	c #579DC1",
"9@	c #DAF1F8",
"0@	c #FCFEFD",
"a@	c #FDFEFB",
"b@	c #FAFEFE",
"c@	c #FAFDFE",
"d@	c #DDFCFF",
"e@	c #88BBD1",
"f@	c #4891B3",
"g@	c #2686B8",
"h@	c #1E88C1",
"i@	c #1D87B7",
"j@	c #1E87B7",
"k@	c #1679AC",
"l@	c #12629F",
"m@	c #13639E",
"n@	c #144B6D",
"o@	c #267196",
"p@	c #1C8DC3",
"q@	c #198BC0",
"r@	c #1988BA",
"s@	c #1C85B6",
"t@	c #1F83B8",
"u@	c #1C85BC",
"v@	c #1986BA",
"w@	c #1B85BA",
"x@	c #579BC0",
"y@	c #DCF0F8",
"z@	c #FBFDFF",
"A@	c #FFFDFD",
"B@	c #FFFEFF",
"C@	c #FEFDFF",
"D@	c #FDFEFF",
"E@	c #F6FEFE",
"F@	c #F6FFFF",
"G@	c #F0F9FD",
"H@	c #C4E2EB",
"I@	c #579FC8",
"J@	c #2382B6",
"K@	c #1F83B6",
"L@	c #2184B6",
"M@	c #1F84B5",
"N@	c #197BAD",
"O@	c #14629F",
"P@	c #115F9B",
"Q@	c #194E72",
"R@	c #267297",
"S@	c #1A8BC1",
"T@	c #1A8ABF",
"U@	c #1783B6",
"V@	c #1B81B3",
"W@	c #1E7FB4",
"X@	c #1B80B8",
"Y@	c #1981B7",
"Z@	c #5898BB",
"`@	c #E0F0F6",
" #	c #FEFFFF",
".#	c #FFFDFE",
"+#	c #FFFEFE",
"@#	c #FFFDFF",
"##	c #FEFFFD",
"$#	c #FDFFFD",
"%#	c #FEFDFE",
"&#	c #FDFCFF",
"*#	c #CFEFF9",
"=#	c #4C98BE",
"-#	c #237EAD",
";#	c #217EB3",
">#	c #1A7CAF",
",#	c #10619C",
"'#	c #125E9D",
")#	c #1B4A78",
"!#	c #256D91",
"~#	c #1C8AC0",
"{#	c #1D8ABF",
"]#	c #1780B4",
"^#	c #1A7DB0",
"/#	c #1D7CB3",
"(#	c #1B7CB6",
"_#	c #187EB3",
":#	c #1A7DB2",
"<#	c #5696B8",
"[#	c #DDF0F6",
"}#	c #FDFFFF",
"|#	c #FEFFFC",
"1#	c #FEFFFA",
"2#	c #FDFFFB",
"3#	c #FDFCFD",
"4#	c #FCFDFE",
"5#	c #FCFFFE",
"6#	c #FCFEFC",
"7#	c #FEFEFF",
"8#	c #D4F2FB",
"9#	c #4B99BA",
"0#	c #1F7DAB",
"a#	c #1C7AB0",
"b#	c #1C7DB4",
"c#	c #187AAE",
"d#	c #10629B",
"e#	c #105D98",
"f#	c #194A75",
"g#	c #256888",
"h#	c #1E87BA",
"i#	c #1D86BA",
"j#	c #157BAF",
"k#	c #1A7AAE",
"l#	c #1C78B0",
"m#	c #1A79B3",
"n#	c #177AAF",
"o#	c #1979AE",
"p#	c #5494B7",
"q#	c #DBEFF7",
"r#	c #FDFFFE",
"s#	c #FFFEFA",
"t#	c #FEFFF9",
"u#	c #FCFFFB",
"v#	c #FDFCFE",
"w#	c #F6FEFF",
"x#	c #F1FEFF",
"y#	c #CFE7EE",
"z#	c #649FBA",
"A#	c #2079A2",
"B#	c #157CAA",
"C#	c #187BB1",
"D#	c #1979B2",
"E#	c #1675AA",
"F#	c #0E5F95",
"G#	c #125E93",
"H#	c #34607B",
"I#	c #2D6581",
"J#	c #1E83B4",
"K#	c #1E84B7",
"L#	c #187BAF",
"M#	c #1976AB",
"N#	c #1B75AE",
"O#	c #1976B1",
"P#	c #1778AC",
"Q#	c #1877AA",
"R#	c #5590B4",
"S#	c #DDEFF7",
"T#	c #FFFDFB",
"U#	c #FFFFFD",
"V#	c #FEFCFF",
"W#	c #F7FFFE",
"X#	c #EBFFFF",
"Y#	c #95B7CD",
"Z#	c #4983A3",
"`#	c #21729D",
" $	c #1975A8",
".$	c #147AAB",
"+$	c #167AB0",
"@$	c #1875B0",
"#$	c #186FA7",
"$$	c #115C91",
"%$	c #145B8D",
"&$	c #2384B3",
"*$	c #1D81B3",
"=$	c #187AAF",
"-$	c #1672A8",
";$	c #1971AA",
">$	c #1772AC",
",$	c #1574A7",
"'$	c #1773A7",
")$	c #558DB0",
"!$	c #DFEEF5",
"~$	c #FBFDFC",
"{$	c #EDF5FC",
"]$	c #A7C5D5",
"^$	c #4B81A2",
"/$	c #206A99",
"($	c #1A72A5",
"_$	c #186FA9",
":$	c #206FAD",
"<$	c #1872A6",
"[$	c #1473A8",
"}$	c #1872AE",
"|$	c #1564A2",
"1$	c #175994",
"2$	c #19568C",
"3$	c #777B84",
"4$	c #287DA7",
"5$	c #2080B1",
"6$	c #1A7CB1",
"7$	c #1371A8",
"8$	c #196FA6",
"9$	c #196DA4",
"0$	c #196FA3",
"a$	c #5289B0",
"b$	c #DEEDF4",
"c$	c #FCFDFF",
"d$	c #FEFCFE",
"e$	c #F8FFFF",
"f$	c #CBE2EF",
"g$	c #6F96B5",
"h$	c #2C6A94",
"i$	c #1D6C9A",
"j$	c #146FA3",
"k$	c #1270AA",
"l$	c #186FAB",
"m$	c #1B6CA6",
"n$	c #196DA2",
"o$	c #1670A6",
"p$	c #176CA8",
"q$	c #13609B",
"r$	c #15568D",
"s$	c #3C6A91",
"t$	c #267EAE",
"u$	c #197CB2",
"v$	c #1474AA",
"w$	c #136DA0",
"x$	c #186DA0",
"y$	c #1869A0",
"z$	c #1569A2",
"A$	c #427FA9",
"B$	c #CAE3EC",
"C$	c #F5FEFF",
"D$	c #F8FEFF",
"E$	c #D4E2EB",
"F$	c #82A4C0",
"G$	c #245D8C",
"H$	c #1C6396",
"I$	c #1A6A9F",
"J$	c #14699D",
"K$	c #146DA3",
"L$	c #126BA3",
"M$	c #156CA4",
"N$	c #176AA2",
"O$	c #176AA1",
"P$	c #1868A2",
"Q$	c #13639D",
"R$	c #0E5B93",
"S$	c #165686",
"T$	c #404654",
"U$	c #8F959E",
"V$	c #B9C2CA",
"W$	c #25709D",
"X$	c #1B7BB1",
"Y$	c #1778AD",
"Z$	c #106CA0",
"`$	c #11699E",
" %	c #1468A0",
".%	c #13689D",
"+%	c #226991",
"@%	c #71A0B9",
"#%	c #C4E7F7",
"$%	c #98BACA",
"%%	c #417090",
"&%	c #1F5F8C",
"*%	c #15659B",
"=%	c #16679E",
"-%	c #19679A",
";%	c #196598",
">%	c #17669B",
",%	c #15679A",
"'%	c #13689E",
")%	c #1368A1",
"!%	c #16669F",
"~%	c #16639B",
"{%	c #105C97",
"]%	c #0F5892",
"^%	c #164E7B",
"/%	c #8A949A",
"(%	c #2377A5",
"_%	c #1879B0",
":%	c #1265A1",
"<%	c #11639A",
"[%	c #146498",
"}%	c #156193",
"|%	c #165F90",
"1%	c #0E5280",
"2%	c #165B88",
"3%	c #186192",
"4%	c #136398",
"5%	c #0E659E",
"6%	c #106199",
"7%	c #14649C",
"8%	c #14629C",
"9%	c #13639A",
"0%	c #13649A",
"a%	c #14639B",
"b%	c #15609B",
"c%	c #125B99",
"d%	c #105592",
"e%	c #195389",
"f%	c #BAC2CB",
"g%	c #AEB7B6",
"h%	c #236080",
"i%	c #2374A6",
"j%	c #1774B1",
"k%	c #146DA9",
"l%	c #126096",
"m%	c #156097",
"n%	c #165F96",
"o%	c #18619B",
"p%	c #135E99",
"q%	c #135F9B",
"r%	c #11619A",
"s%	c #10619A",
"t%	c #116098",
"u%	c #136098",
"v%	c #156096",
"w%	c #116097",
"x%	c #116197",
"y%	c #145F96",
"z%	c #115B96",
"A%	c #115896",
"B%	c #175389",
"C%	c #184169",
"D%	c #FFFFFF",
"E%	c #B5B8BB",
"F%	c #9FAAA7",
"G%	c #2270A2",
"H%	c #1773AA",
"I%	c #166CA5",
"J%	c #11639C",
"K%	c #115C96",
"L%	c #135994",
"M%	c #115895",
"N%	c #125999",
"O%	c #125B9B",
"P%	c #115897",
"Q%	c #135A95",
"R%	c #135A92",
"S%	c #115B91",
"T%	c #125B90",
"U%	c #115C92",
"V%	c #0E5C97",
"W%	c #0F5D98",
"X%	c #115A94",
"Y%	c #11578F",
"Z%	c #175485",
"`%	c #163C5E",
" &	c #A9ACB1",
".&	c #808385",
"+&	c #20587A",
"@&	c #1F6F9E",
"#&	c #176FA7",
"$&	c #166CA4",
"%&	c #12639B",
"&&	c #125D97",
"*&	c #105892",
"=&	c #125994",
"-&	c #105693",
";&	c #105894",
">&	c #115890",
",&	c #12588E",
"'&	c #12588D",
")&	c #115991",
"!&	c #0D5A95",
"~&	c #0D5997",
"{&	c #105895",
"]&	c #135892",
"^&	c #175383",
"/&	c #AAB3B2",
"(&	c #1D5F8C",
"_&	c #1F699B",
":&	c #1C689C",
"<&	c #19679E",
"[&	c #13649B",
"}&	c #105F97",
"|&	c #105C91",
"1&	c #105B8C",
"2&	c #105A89",
"3&	c #125C8F",
"4&	c #105992",
"5&	c #105995",
"6&	c #145A99",
"7&	c #165692",
"8&	c #1A568B",
"9&	c #154A78",
"0&	c #C0C5C8",
"a&	c #256189",
"b&	c #1F6593",
"c&	c #156599",
"d&	c #12669D",
"e&	c #126499",
"f&	c #116193",
"g&	c #116093",
"h&	c #0E5F98",
"i&	c #0E5C98",
"j&	c #1C558B",
"k&	c #1E4F7C",
"l&	c #B2B7BE",
"m&	c #555B66",
"n&	c #1F4765",
"o&	c #14456B",
"p&	c #174B71",
"q&	c #1A4C72",
"r&	c #184D73",
"s&	c #104972",
"t&	c #11446B",
"u&	c #1D415F",
"v&	c #5A5F67",
"w&	c #B6BCC1",
"x&	c #93999C",
"y&	c #999C96",
"z&	c #C5C7C0",
"                    . . . . . . . . . . + @                     ",
"                # $ . . . . . % & . . . . . * =                 ",
"            - ; . . > , ' ) ! ~ { ] ^ / ( _ . . : <             ",
"          [ . . } | 1 2 3 4 5 6 7 8 9 0 a b c d . . e           ",
"        f . g h i j k k l l m n o p q r s t u v w x . y         ",
"      z . . A B C D E F G H I J K L M N O P Q R S T U V W       ",
"    X . Y Z `  ...+.@.#.$.%.&.*.=.-.;.>.,.'.).!.~.{.].V . ^.    ",
"    /.. (.` _.:.<.[.}.|.1.|.2.3.4.5.6.7.8.9.0.a.b.c.d.e.V V     ",
"  f.. g.h.i.j.k.l.m.n.o.p.q.r.s.t.u.v.w.x.y.z.A.B.C.D.E.F.V G.  ",
"  . H.I.J.J.K.L.M.N.O.P.Q.R.S.T.U.U.V.W.X.Y.U.Z.`. +.+++@+V V   ",
"  . #+$+%+&+*+=+-+;+>+,+'+)+!+~+{+]+^+$./+(+_+:+<+[+}+|+1+2+V 3+",
"4+. 5+6+7+8+9+i.0+a+b+c+d+e+f+g+h+i+j+k+l+m+n+o+p+q+r+s+t+u+V v+",
". w+x+y+z+A+G B+C+D+E+F+G+H+I+J+K+L+M+N+O+P+Q+R+S+T+U+V+W+X+Y+. ",
". Z+`+ @.@+@@@#@$@%@&@*@=@-@;@>@,@'@)@!@~@{@]@^@/@(@_@:@<@[@}@. ",
". |@1@2@3@4@5@6@7@L 8@9@0@-@a@>@b@c@d+d@e@f@g@h@_@i@j@k@l@m@n@. ",
". o@p@q@r@s@t@u@v@w@x@y@z@A@A@B@C@D@E@F@G@H@I@J@K@L@M@N@O@P@Q@. ",
". R@S@T@U@V@W@X@Y@O Z@`@ #.#+#B@@#.###$#%#&#*#=#-#;#W@>#,#'#)#. ",
". !#~#{#]#^#/#(#_#:#<#[#}#|#1#2#3#.#4#5#6#7#8#9#0#a#b#c#d#e#f#. ",
". g#h#i#j#k#l#m#n#o#p#q#r#s#t#u#B@v#5#w#x#y#z#A#B#C#D#E#F#G#H#. ",
". I#J#K#L#M#N#O#P#Q#R#S# #T#U#}#V#v#W#X#Y#Z#`# $.$+$@$#$$$%$. . ",
". . &$*$=$-$;$>$,$'$)$!$}#r#r#r#~${$]$^$/$($_$:$<$[$}$|$1$2$. 3$",
"  . 4$5$6$7$8$9$0$#$a$b$c$d$7#e$f$g$h$i$j$k$l$m$n$o$p$q$r$s$.   ",
"  . . t$u$v$w$x$y$z$A$B$C$D$E$F$G$H$I$J$K$L$M$N$O$P$Q$R$S$. T$  ",
"  U$V$W$X$Y$Z$`$ %.%+%@%#%$%%%&%*%=%-%;%>%,%'%)%!%~%{%]%^%. .   ",
"    /%. (%_%S :%<%[%}%|%1%2%3%4%5%5%6%7%8%9%0%a%b%c%d%e%f%.     ",
"    g%. h%i%j%k%<%l%m%n%o%p%q%q$r%s%t%u%v%w%x%y%z%A%B%C%D%E%    ",
"      F%. . G%H%I%J%K%L%M%N%O%P%Q%R%S%T%U%V%W%X%Y%Z%`%.  &      ",
"        .&. +&@&#&$&%&&&*&=&-&;&>&,&'&)&!&~&{&]&^&. . .         ",
"          /&. . (&_&:&<&[&}&|&1&2&3&4&5&6&7&8&9&. .             ",
"            0&. . . a&b&c&d&e&f&g&h&i&Q%j&k&. . .               ",
"                l&m&. . n&o&p&q&r&s&t&u&. . v&w&                ",
"                      x&. . . . . . . . y&z&                    "};
