/* XPM */
static char *SMPDlg_NextButton_XPM[]={
/* SMPDlg_NextButton */
"32 32 782 2",
"      c None",
" 0    c #9A9CA0",
" 1    c #575D64",
" 2    c #273D46",
" 3    c #022532",
" 4    c #03202E",
" 5    c #031F2E",
" 6    c #263C46",
" 7    c #555C64",
" 8    c #9A9B9F",
" 9    c #585F6A",
" a    c #1A2C43",
" b    c #04304E",
" c    c #134D6C",
" d    c #135D7F",
" e    c #0F6C8F",
" f    c #11769A",
" g    c #13769B",
" h    c #106B8F",
" i    c #135B7E",
" j    c #134A6A",
" k    c #052F4D",
" l    c #192C42",
" m    c #57606B",
" n    c #525D64",
" o    c #061C36",
" p    c #0E3F63",
" q    c #176A95",
" r    c #0F75A4",
" s    c #0E7DAF",
" t    c #0E86B9",
" u    c #0E8DC3",
" v    c #0C90C7",
" w    c #0D90C7",
" x    c #0E8CC2",
" y    c #1185BA",
" z    c #117CAF",
" A    c #1273A3",
" B    c #1A6792",
" C    c #0E3E61",
" D    c #061E3A",
" E    c #4E5A66",
" F    c #1F2F38",
" G    c #0B314A",
" H    c #155A85",
" I    c #136B9B",
" J    c #117DAA",
" K    c #1389B5",
" L    c #198DBC",
" M    c #198DBF",
" N    c #1E8FC7",
" O    c #1A8BC3",
" P    c #198AC2",
" Q    c #1A8AC2",
" R    c #1584B9",
" S    c #1685B6",
" T    c #1280AF",
" U    c #1276A5",
" V    c #156697",
" W    c #145584",
" X    c #0F324F",
" Y    c #202E39",
" Z    c #848888",
" &    c #101F2B",
"0     c #0F4A6B",
"00    c #0F6495",
"01    c #1079B0",
"02    c #1E8DC1",
"03    c #1F90C2",
"04    c #1E90C2",
"05    c #1F8EC2",
"06    c #1F8DC2",
"07    c #1E88C0",
"08    c #2189C3",
"09    c #2087C2",
"0a    c #1C83BD",
"0b    c #1C85BC",
"0c    c #1B85BA",
"0d    c #1781B6",
"0e    c #197FB5",
"0f    c #197CB4",
"0g    c #106FA5",
"0h    c #0E5C8D",
"0i    c #124569",
"0j    c #111D2C",
"0k    c #838688",
"0l    c #0E202B",
"0m    c #10405F",
"0n    c #14689A",
"0o    c #1981BA",
"0p    c #2092C9",
"0q    c #2190C4",
"0r    c #228EC1",
"0s    c #228EC2",
"0t    c #1E8CC0",
"0u    c #1D8BBF",
"0v    c #1C8BBF",
"0w    c #1A8ABE",
"0x    c #1987BC",
"0y    c #1B87BC",
"0z    c #1A83B8",
"0A    c #1A80B6",
"0B    c #1C80B7",
"0C    c #1D7DB6",
"0D    c #197AB4",
"0E    c #167AB2",
"0F    c #1471AC",
"0G    c #165E95",
"0H    c #133A5E",
"0I    c #101D2C",
"0J    c #192932",
"0K    c #0E4A6B",
"0L    c #186C9E",
"0M    c #238CC6",
"0N    c #2394CB",
"0O    c #1D90C1",
"0P    c #2291C1",
"0Q    c #218EBF",
"0R    c #1F90C3",
"0S    c #2094C4",
"0T    c #2297C6",
"0U    c #229AC8",
"0V    c #229CC8",
"0W    c #2299C7",
"0X    c #2298C6",
"0Y    c #2394C4",
"0Z    c #1F8DBF",
"0&    c #1983B7",
"1     c #197CB1",
"10    c #1B7BB0",
"11    c #177AAE",
"12    c #1779B4",
"13    c #1771B0",
"14    c #165B92",
"15    c #124165",
"16    c #192630",
"17    c #333F48",
"18    c #0A314A",
"19    c #126A9A",
"1a    c #2091C8",
"1b    c #2191C4",
"1c    c #2192C1",
"1d    c #1F91BF",
"1e    c #2096C4",
"1f    c #1F9BC9",
"1g    c #219CCC",
"1h    c #229ECD",
"1i    c #219DCC",
"1j    c #219CCA",
"1k    c #239DCB",
"1l    c #239BCB",
"1m    c #259CCD",
"1n    c #2196C7",
"1o    c #1E8FBD",
"1p    c #1880B0",
"1q    c #1678AE",
"1r    c #1677AF",
"1s    c #1375B1",
"1t    c #166FA8",
"1u    c #175C8E",
"1v    c #0A2946",
"1w    c #37404C",
"1x    c #9698A0",
"1y    c #051E3A",
"1z    c #145A87",
"1A    c #228DC3",
"1B    c #1E91C7",
"1C    c #1F93C4",
"1D    c #1E91C0",
"1E    c #1D95C4",
"1F    c #1F9BC8",
"1G    c #209CCA",
"1H    c #1F9BCB",
"1I    c #1F9ACD",
"1J    c #1F9ACE",
"1K    c #209BCF",
"1L    c #209ACD",
"1M    c #209ACC",
"1N    c #2199CC",
"1O    c #209BC9",
"1P    c #1C86BC",
"1Q    c #1677AD",
"1R    c #1375A9",
"1S    c #1272A9",
"1T    c #166AA4",
"1U    c #154C7C",
"1V    c #061A39",
"1W    c #9599A1",
"1X    c #3F4553",
"1Y    c #0B3F64",
"1Z    c #247CAD",
"1&    c #2192C6",
"2     c #2190C1",
"20    c #1F92C0",
"21    c #1C98C5",
"22    c #1D98CA",
"23    c #2097CA",
"24    c #2098C8",
"25    c #2098CA",
"26    c #2197CA",
"27    c #2196CC",
"28    c #2297CC",
"29    c #2196CB",
"2a    c #2198C9",
"2b    c #2198CA",
"2c    c #2098CD",
"2d    c #2594C5",
"2e    c #1E82B4",
"2f    c #1573A7",
"2g    c #166FA9",
"2h    c #186EAA",
"2i    c #186094",
"2j    c #0C375D",
"2k    c #414855",
"2l    c #0B2137",
"2m    c #1C6A95",
"2n    c #268EBC",
"2o    c #1F92C2",
"2p    c #1E91C2",
"2q    c #2092C5",
"2r    c #2194C5",
"2s    c #2992BD",
"2t    c #419BC4",
"2u    c #3E96C0",
"2v    c #2C90BC",
"2w    c #2193BF",
"2x    c #2193C4",
"2y    c #2292C7",
"2z    c #2290C7",
"2A    c #2193C9",
"2B    c #2292C3",
"2C    c #2493C1",
"2D    c #3495BB",
"2E    c #479FC8",
"2F    c #3995C0",
"2G    c #2D91BC",
"2H    c #258FC1",
"2I    c #1F83BB",
"2J    c #136DA8",
"2K    c #166CA4",
"2L    c #1B679C",
"2M    c #155580",
"2N    c #0B1F34",
"2O    c #7F767F",
"2P    c #032B46",
"2Q    c #2485B1",
"2R    c #2290BD",
"2S    c #1E92BF",
"2T    c #1A90C1",
"2U    c #1C92C8",
"2V    c #218FC3",
"2W    c #58A4C6",
"2X    c #B2E2EF",
"2Y    c #B1DFEB",
"2Z    c #71B6D4",
"2&    c #2A8CAE",
"3     c #2590BC",
"30    c #208FC3",
"31    c #2391C7",
"32    c #1E90C6",
"33    c #2291C3",
"34    c #228DBE",
"35    c #2D90BD",
"36    c #99D5E7",
"37    c #C0E9F2",
"38    c #A2D6E7",
"39    c #4B9CC2",
"3a    c #218EC3",
"3b    c #1C8BC3",
"3c    c #1276AD",
"3d    c #166CA3",
"3e    c #1C669B",
"3f    c #1C5F92",
"3g    c #052540",
"3h    c #7B7C7D",
"3i    c #373E4C",
"3j    c #12496C",
"3k    c #2691C3",
"3l    c #1F91C1",
"3m    c #1E90BF",
"3n    c #1D91C1",
"3o    c #1B8FC0",
"3p    c #258BB8",
"3q    c #84BDD2",
"3r    c #E7FFFF",
"3s    c #F1FFFF",
"3t    c #ECFEFF",
"3u    c #B4E0ED",
"3v    c #67AAC8",
"3w    c #2B8EBC",
"3x    c #1A8EBF",
"3y    c #1991BE",
"3z    c #1D8EBB",
"3A    c #288CBD",
"3B    c #59AAD3",
"3C    c #EBFFFE",
"3D    c #F6FFFE",
"3E    c #E3FFFF",
"3F    c #7BBAD1",
"3G    c #298DBD",
"3H    c #228FC3",
"3I    c #1E83B8",
"3J    c #136DA2",
"3K    c #17669E",
"3L    c #19649C",
"3M    c #10395D",
"3N    c #37414B",
"3O    c #0F2535",
"3P    c #1C6086",
"3Q    c #2190C7",
"3R    c #1D8EC2",
"3S    c #1E8DBF",
"3T    c #1C8CBD",
"3U    c #1D8BBA",
"3V    c #2786B0",
"3W    c #8CBDCF",
"3X    c #EFFFFF",
"3Y    c #FCFFFE",
"3Z    c #FAFEFF",
"3&    c #F4FFFF",
"4     c #DCF4FA",
"40    c #92C7DC",
"41    c #4494B7",
"42    c #2489B7",
"43    c #2089B9",
"44    c #2788B6",
"45    c #62AED0",
"46    c #F4FFFD",
"47    c #FEFFFD",
"48    c #ECFFFF",
"49    c #89BDD1",
"4a    c #2887B2",
"4b    c #228ABB",
"4c    c #2185B7",
"4d    c #1673A7",
"4e    c #13669F",
"4f    c #1564A2",
"4g    c #14456E",
"4h    c #132533",
"4i    c #011927",
"4j    c #206D91",
"4k    c #1E8EC4",
"4l    c #1E8CC1",
"4m    c #218ABD",
"4n    c #1D89BA",
"4o    c #1C87B6",
"4p    c #2786AE",
"4q    c #8DBBCC",
"4r    c #FFFEFB",
"4s    c #FFFEFD",
"4t    c #FDFDFC",
"4u    c #F7FFFF",
"4v    c #DEF7FF",
"4w    c #80B8D3",
"4x    c #468EB4",
"4y    c #2D83A9",
"4z    c #61ABCA",
"4A    c #F3FEFF",
"4B    c #FFFEFE",
"4C    c #F2FFFF",
"4D    c #89BACD",
"4E    c #2985B0",
"4F    c #1E86B6",
"4G    c #2285B7",
"4H    c #1A77AB",
"4I    c #10649E",
"4J    c #1363A1",
"4K    c #164972",
"4L    c #021322",
"4M    c #051D26",
"4N    c #247394",
"4O    c #1F8CC1",
"4P    c #1F8ABE",
"4Q    c #1F85BA",
"4R    c #1C85B8",
"4S    c #1B86B8",
"4T    c #2584B1",
"4U    c #89B8CC",
"4V    c #FFFDFD",
"4W    c #FEFDFE",
"4X    c #FEFDFD",
"4Y    c #FDFEFF",
"4Z    c #FAFFFE",
"4&    c #EBFBFE",
"5     c #C1E2EC",
"50    c #5B9CB7",
"51    c #64A8C5",
"52    c #FEFCFF",
"53    c #87B8CC",
"54    c #2583B1",
"55    c #1C85B7",
"56    c #1F83B7",
"57    c #1D79AE",
"58    c #11649E",
"59    c #10609B",
"5a    c #1C4D72",
"5b    c #06111F",
"5c    c #061C24",
"5d    c #277392",
"5e    c #1D8ABF",
"5f    c #1F88BE",
"5g    c #1A81B7",
"5h    c #1882B7",
"5i    c #227FAF",
"5j    c #F0FFFF",
"5k    c #FDFFFF",
"5l    c #F9FEFF",
"5m    c #FBFEFD",
"5n    c #F8FEFD",
"5o    c #F8FEFF",
"5p    c #F6FEFF",
"5q    c #C8E4EB",
"5r    c #8BB5C8",
"5s    c #F6FFFF",
"5t    c #FFFEFF",
"5u    c #85B7CC",
"5v    c #227FAD",
"5w    c #1982B5",
"5x    c #1B81B6",
"5y    c #1E7AB1",
"5z    c #0F629C",
"5A    c #115F9A",
"5B    c #1C4B71",
"5C    c #07111D",
"5D    c #061E2A",
"5E    c #236F90",
"5F    c #1C89C0",
"5G    c #1E89C0",
"5H    c #1A7DB6",
"5I    c #187EB5",
"5J    c #177FB3",
"5K    c #227BAB",
"5L    c #89B6CB",
"5M    c #F9FDFD",
"5N    c #FEFEFA",
"5O    c #FCFEFC",
"5P    c #FCFEFE",
"5Q    c #FDFDFF",
"5R    c #F9FDFF",
"5S    c #BBDAE4",
"5T    c #7DACC1",
"5U    c #F5FEFD",
"5V    c #FEFEFD",
"5W    c #F1FEFF",
"5X    c #86B6CA",
"5Y    c #217BAB",
"5Z    c #187EB3",
"5&    c #197CB3",
"6     c #1D78B0",
"60    c #0F629D",
"61    c #0F5D9A",
"62    c #1A4B70",
"63    c #06121E",
"64    c #122D38",
"65    c #22688B",
"66    c #1B88BC",
"67    c #1B86BC",
"68    c #177AB2",
"69    c #177AB3",
"6a    c #1979B0",
"6b    c #2375A6",
"6c    c #8BB3C9",
"6d    c #F3FFFF",
"6e    c #FFFFFD",
"6f    c #FEFEFC",
"6g    c #FBFFF8",
"6h    c #FCFFFA",
"6i    c #FAFCFC",
"6j    c #F9FFFF",
"6k    c #DBEDF7",
"6l    c #9ABBD4",
"6m    c #3C7396",
"6n    c #639EBB",
"6o    c #F5FFFE",
"6p    c #87B4C7",
"6q    c #2077A5",
"6r    c #187AAE",
"6s    c #1B79B0",
"6t    c #1C72AB",
"6u    c #0E5E9A",
"6v    c #0F5E9A",
"6w    c #13456A",
"6x    c #11232F",
"6y    c #36424E",
"6z    c #235D7E",
"6A    c #1C83B6",
"6B    c #197AB0",
"6C    c #1777AD",
"6D    c #1A77AC",
"6E    c #2273A3",
"6F    c #8BB1C7",
"6G    c #F8FFFA",
"6H    c #FAFFFC",
"6I    c #F3FCFE",
"6J    c #BCD5E3",
"6K    c #4E88B0",
"6L    c #2872A2",
"6M    c #24719F",
"6N    c #61A0C1",
"6O    c #F5FEFE",
"6P    c #FEFDFC",
"6Q    c #86B2C5",
"6R    c #2075A3",
"6S    c #1977AB",
"6T    c #1B75AB",
"6U    c #1C6DA5",
"6V    c #105C96",
"6W    c #125B96",
"6X    c #123E61",
"6Y    c #354149",
"6Z    c #7C7A81",
"6&    c #13405C",
"7     c #2483B2",
"70    c #1D82B2",
"71    c #1A7AAD",
"72    c #1473A8",
"73    c #1972A9",
"74    c #226EA1",
"75    c #88B1C7",
"76    c #FEFDFF",
"77    c #EEFAFD",
"78    c #C1DBE6",
"79    c #5C8BB1",
"7a    c #256896",
"7b    c #1772A5",
"7c    c #1474A9",
"7d    c #1B71A6",
"7e    c #5A9AC4",
"7f    c #F7FEFE",
"7g    c #82B2C6",
"7h    c #1B719F",
"7i    c #1774A8",
"7j    c #1A70A5",
"7k    c #18649A",
"7l    c #155A90",
"7m    c #16588C",
"7n    c #092B47",
"7o    c #787C7C",
"7p    c #0C2D42",
"7q    c #2B7CA7",
"7r    c #1F80B1",
"7s    c #177DAF",
"7t    c #1072A8",
"7u    c #176FA9",
"7v    c #226DA2",
"7w    c #79A5BD",
"7x    c #FBFEFF",
"7y    c #EAF6FE",
"7z    c #77A1BA",
"7A    c #35759F",
"7B    c #1E699F",
"7C    c #1C6CA3",
"7D    c #156FA6",
"7E    c #1171AA",
"7F    c #156EA3",
"7G    c #4485AE",
"7H    c #E9FDFF",
"7I    c #6BA1BB",
"7J    c #1A6F9F",
"7K    c #166EA3",
"7L    c #1C6BA3",
"7M    c #165F97",
"7N    c #12588F",
"7O    c #175581",
"7P    c #0D2236",
"7Q    c #3D4755",
"7R    c #1E5B7B",
"7S    c #2580AA",
"7T    c #167EAF",
"7U    c #1675AD",
"7V    c #1668A4",
"7W    c #18659C",
"7X    c #3674A0",
"7Y    c #84B0C9",
"7Z    c #87ABC4",
"7&    c #37678A",
"8     c #1A6494",
"80    c #116AA1",
"81    c #136DA6",
"82    c #1769A2",
"83    c #1869A2",
"84    c #136CA5",
"85    c #146BA0",
"86    c #1D6895",
"87    c #6393B4",
"88    c #9CC0D5",
"89    c #6D9CBF",
"8a    c #266B96",
"8b    c #176AA0",
"8c    c #196AA5",
"8d    c #16619D",
"8e    c #135893",
"8f    c #175587",
"8g    c #123F62",
"8h    c #3F4855",
"8i    c #8D979D",
"8j    c #0C2F40",
"8k    c #227492",
"8l    c #1A7DAE",
"8m    c #1D77B1",
"8n    c #1565A0",
"8o    c #17689F",
"8p    c #15649B",
"8q    c #156198",
"8r    c #175F97",
"8s    c #18639B",
"8t    c #1668A0",
"8u    c #12689E",
"8v    c #12669D",
"8w    c #17679F",
"8x    c #18679F",
"8y    c #14669D",
"8z    c #14699D",
"8A    c #15669B",
"8B    c #186299",
"8C    c #175E98",
"8D    c #156099",
"8E    c #15659B",
"8F    c #15689F",
"8G    c #1566A3",
"8H    c #115B99",
"8I    c #15568E",
"8J    c #1D4C74",
"8K    c #091F37",
"8L    c #9199A1",
"8M    c #35454B",
"8N    c #18455A",
"8O    c #2278A4",
"8P    c #1977AC",
"8Q    c #1D70A8",
"8R    c #166297",
"8S    c #12649B",
"8T    c #1062A1",
"8U    c #1263A2",
"8V    c #11629B",
"8W    c #14659B",
"8X    c #16649A",
"8Y    c #166298",
"8Z    c #166197",
"8&    c #186499",
"9     c #146397",
"90    c #136299",
"91    c #13629F",
"92    c #1161A1",
"93    c #166399",
"94    c #146299",
"95    c #0F5D9B",
"96    c #0F5593",
"97    c #1B5386",
"98    c #122C48",
"99    c #3A404D",
"9a    c #1B2B39",
"9b    c #216083",
"9c    c #2176A5",
"9d    c #1974A9",
"9e    c #1A6EA4",
"9f    c #136093",
"9g    c #155F95",
"9h    c #145F98",
"9i    c #13619C",
"9j    c #14629B",
"9k    c #105F96",
"9l    c #146199",
"9m    c #146098",
"9n    c #135F97",
"9o    c #136097",
"9p    c #125F96",
"9q    c #166198",
"9r    c #155F98",
"9s    c #175F98",
"9t    c #175E95",
"9u    c #155D92",
"9v    c #125C95",
"9w    c #0D5793",
"9x    c #16558C",
"9y    c #15426B",
"9z    c #1B2537",
"9A    c #102236",
"9B    c #1E5778",
"9C    c #1A73A0",
"9D    c #1776A8",
"9E    c #1969A0",
"9F    c #17619A",
"9G    c #115B95",
"9H    c #105C95",
"9I    c #105B94",
"9J    c #115C94",
"9K    c #0F5C94",
"9L    c #0D5B94",
"9M    c #115C96",
"9N    c #105B93",
"9O    c #125C94",
"9P    c #135A92",
"9Q    c #115991",
"9R    c #145A91",
"9S    c #155B92",
"9T    c #135993",
"9U    c #11568F",
"9V    c #175487",
"9W    c #133D62",
"9X    c #0F1D34",
"9Y    c #7E838C",
"9Z    c #102337",
"9&    c #185C7E",
"a     c #1B719E",
"a0    c #186EA6",
"a1    c #176AA9",
"a2    c #1362A1",
"a3    c #0F5E99",
"a4    c #0E5992",
"a5    c #0D5890",
"a6    c #0D5A92",
"a7    c #105992",
"a8    c #115892",
"a9    c #115992",
"aa    c #105993",
"ab    c #0D5A95",
"ac    c #0F5996",
"ad    c #135794",
"ae    c #195284",
"af    c #154066",
"ag    c #0F1E31",
"ah    c #828A91",
"ai    c #1E2F3B",
"aj    c #123752",
"ak    c #1E5F8C",
"al    c #1E699D",
"am    c #1A69A0",
"an    c #1363A0",
"ao    c #0E5F9E",
"ap    c #0D5D99",
"aq    c #0C5B94",
"ar    c #0E5A92",
"as    c #0F5C98",
"at    c #0D5998",
"au    c #135B93",
"av    c #115A90",
"aw    c #18578B",
"ax    c #194874",
"ay    c #112645",
"az    c #222B3B",
"aA    c #4F5862",
"aB    c #071B36",
"aC    c #143F5E",
"aD    c #256285",
"aE    c #226490",
"aF    c #19629C",
"aG    c #14629D",
"aH    c #155F94",
"aI    c #165E93",
"aJ    c #135D98",
"aK    c #115B9A",
"aL    c #155993",
"aM    c #1C5683",
"aN    c #1C5176",
"aO    c #0E334F",
"aP    c #06172D",
"aQ    c #585965",
"aR    c #565B62",
"aS    c #172933",
"aT    c #08293C",
"aU    c #173D5E",
"aV    c #16456B",
"aW    c #184B71",
"aX    c #1A4D6E",
"aY    c #1B4C6D",
"aZ    c #17466D",
"a&    c #174168",
"b     c #153656",
"b0    c #062337",
"b1    c #192A34",
"b2    c #596064",
"b3    c #919B9C",
"b4    c #505860",
"b5    c #283644",
"b6    c #081D2C",
"b7    c #041524",
"b8    c #041423",
"b9    c #0A1B2B",
"ba    c #2D3644",
"bb    c #595B64",
"bc    c #959C9C",
"                       0 1 2 3 4 5 3 6 7 8                      ",
"                   9 a b c d e f g h i j k l m                  ",
"               n o p q r s t u v w x y z A B C D E              ",
"             F G H I J K L M N O P Q R S T U V W X Y            ",
"         Z &0 000102030405060708090a0b0c0d0e0f0g0h0i0j0k        ",
"        0l0m0n0o0p0q0r0s0t0u0v0w0x0y0z0A0B0C0D0E0F0G0H0I        ",
"      0J0K0L0M0N0O0P0Q0R0S0T0U0V0W0X0Y0Z0&1 10111213141516      ",
"    1718190M1a1b1c1d1e1f1g1h1i1j1k1l1m1m1n1o1p1q1r1s1t1u1v1w    ",
"  1x1y1z1A1B1C1D1E1F1G1H1I1I1I1J1K1L1L1M1N1O1e1P1Q1R1S1T1U1V1W  ",
"  1X1Y1Z1&1&2 2021222324252627282927262a2b2c232d2e2f2g2h2i2j2k  ",
"  2l2m2n2o2p2q2r2s2t2u2v2w2x2y2z2A2y2B2C2D2E2F2G2H2I2J2K2L2M2N  ",
"2O2P2Q2R2S2T2U2V2W2X2Y2Z2&3 303132333435363738393a3b3c3d3e3f3g3h",
"3i3j3k3l3m3n3o3p3q3r3s3t3u3v3w3x3y3z3A3B3C3D3E3F3G3H3I3J3K3L3M3N",
"3O3P3Q3R3S3T3U3V3W3X3Y3Z3&4 404142434445464748494a4b4c4d4e4f4g4h",
"4i4j4k4l4m4n4o4p4q3s4r4s4r4t4u4v4w4x4y4z4A4B4C4D4E4F4G4H4I4J4K4L",
"4M4N4O4P4Q4R4S4T4U3s4V4W4X4Y4Y4Z4&5 50514A523s535455565758595a5b",
"5c5d5e5f0B5g5h5i535j5k5l4W4W5m5n5o5p5q5r5s5t5j5u5v5w5x5y5z5A5B5C",
"5D5E5F5G5H5I5J5K5L4C4Y5M5N5O5P5m5Q5R5S5T5U5V5W5X5Y5Z5&6 60616263",
"6465666768696a6b6c6d6e6f6g6h6i6j6k6l6m6n6o4r3&6p6q6r6s6t6u6v6w6x",
"6y6z6A4R6B6C6D6E6F6d4B4W6G6H6I6J6K6L6M6N6O6P3&6Q6R6S6T6U6V6W6X6Y",
"6Z6&7 7071727374754C5t767778797a7b7c7d7e7f4s5j7g7h7i7j7k7l7m7n7o",
"  7p7q7r7s7t7u7v7w3X7x7y7z7A7B7C7D7E7F7G3X7x7H7I7J7K7L7M7N7O7P  ",
"  7Q7R7S7T7U7V7W7X7Y7Z7&8 808182838485868788898a8b8c8d8e8f8g8h  ",
"  8i8j8k8l8m8n8o8p8q8r8s8t8u8v8w8x8y8z8A8B8C8D8E8F8G8H8I8J8K8L  ",
"    8M8N8O8P8Q8R8S5z8T8U8V8W8X8Y8Z8&9 9091929193949596979899    ",
"      9a9b9c9d9e9f9g9h9i9j9k9l9m9n9o9p9q9r9s9t9u9v9w9x9y9z      ",
"        9A9B9C9D9E9F9G9H9I9J9K9L9M9N9O9P9Q9R9S9T9U9V9W9X        ",
"        9Y9Z9&a a0a1a2a3a49Na5a6a4a7a8a9aaabacadaeafagah        ",
"            aiajakalam8xanaoapaqarasatacauavawaxayaz            ",
"              aAaBaCaDaEaF4faGaHaIaJaKaLaMaNaOaPaQ              ",
"                  aRaSaTaUaVaWaXaYaZa&b b0b1b2                  ",
"                      b3b4b5b6b7b8b9babbbc                      "};

