/* XPM */
static char * Stop_Normal_xpm[] = {
"32 32 784 2",
"  	c None",
". 	c #C4C8C8",
"+ 	c #9A9CA0",
"@ 	c #575D64",
"# 	c #273D46",
"$ 	c #022532",
"% 	c #03202E",
"& 	c #031F2E",
"* 	c #263C46",
"= 	c #555C64",
"- 	c #9A9B9F",
"; 	c #C4C7C7",
"> 	c #B6BBC0",
", 	c #585F6A",
"' 	c #1A2C43",
") 	c #04304E",
"! 	c #134D6C",
"~ 	c #135D7F",
"{ 	c #0F6C8F",
"] 	c #11769A",
"^ 	c #13769B",
"/ 	c #106B8F",
"( 	c #135B7E",
"_ 	c #134A6A",
": 	c #052F4D",
"< 	c #192C42",
"[ 	c #57606B",
"} 	c #B1BABF",
"| 	c #C0C8C7",
"1 	c #525D64",
"2 	c #061C36",
"3 	c #0E3F63",
"4 	c #176A95",
"5 	c #0F75A4",
"6 	c #0E7DAF",
"7 	c #0E86B9",
"8 	c #0E8DC3",
"9 	c #0C90C7",
"0 	c #0D90C7",
"a 	c #0E8CC2",
"b 	c #1185BA",
"c 	c #117CAF",
"d 	c #1273A3",
"e 	c #1A6792",
"f 	c #0E3E61",
"g 	c #061E3A",
"h 	c #4E5A66",
"i 	c #C1C6C8",
"j 	c #AFB5B6",
"k 	c #1F2F38",
"l 	c #0B314A",
"m 	c #155A85",
"n 	c #136B9B",
"o 	c #117DAA",
"p 	c #1389B5",
"q 	c #198DBC",
"r 	c #198DBF",
"s 	c #1E8FC7",
"t 	c #1A8BC3",
"u 	c #198AC2",
"v 	c #1A8AC2",
"w 	c #1584B9",
"x 	c #1685B6",
"y 	c #1280AF",
"z 	c #1276A5",
"A 	c #156697",
"B 	c #145584",
"C 	c #0F324F",
"D 	c #202E39",
"E 	c #B0B4B5",
"F 	c #848888",
"G 	c #101F2B",
"H 	c #0F4A6B",
"I 	c #0F6495",
"J 	c #1079B0",
"K 	c #1E8DC1",
"L 	c #1F90C2",
"M 	c #1E90C2",
"N 	c #1F8EC2",
"O 	c #1F8DC2",
"P 	c #1E88C0",
"Q 	c #2189C3",
"R 	c #2087C2",
"S 	c #1C83BD",
"T 	c #1C85BC",
"U 	c #1B85BA",
"V 	c #1781B6",
"W 	c #197FB5",
"X 	c #197CB4",
"Y 	c #106FA5",
"Z 	c #0E5C8D",
"` 	c #124569",
" .	c #111D2C",
"..	c #838688",
"+.	c #A4ABAD",
"@.	c #0E202B",
"#.	c #10405F",
"$.	c #14689A",
"%.	c #1981BA",
"&.	c #2092C9",
"*.	c #2190C4",
"=.	c #228EC1",
"-.	c #228EC2",
";.	c #1E8CC0",
">.	c #1D8BBF",
",.	c #1C8BBF",
"'.	c #1A8ABE",
").	c #1987BC",
"!.	c #1B87BC",
"~.	c #1A83B8",
"{.	c #1A80B6",
"].	c #1C80B7",
"^.	c #1D7DB6",
"/.	c #197AB4",
"(.	c #167AB2",
"_.	c #1471AC",
":.	c #165E95",
"<.	c #133A5E",
"[.	c #101D2C",
"}.	c #A6A9A9",
"|.	c #B1B9BA",
"1.	c #192932",
"2.	c #0E4A6B",
"3.	c #186C9E",
"4.	c #238CC6",
"5.	c #2394CB",
"6.	c #1D90C1",
"7.	c #2291C1",
"8.	c #218EBF",
"9.	c #1F90C3",
"0.	c #2094C4",
"a.	c #2297C6",
"b.	c #229AC8",
"c.	c #229CC8",
"d.	c #2299C7",
"e.	c #2298C6",
"f.	c #2394C4",
"g.	c #1F8DBF",
"h.	c #1983B7",
"i.	c #197CB1",
"j.	c #1B7BB0",
"k.	c #177AAE",
"l.	c #1779B4",
"m.	c #1771B0",
"n.	c #165B92",
"o.	c #124165",
"p.	c #192630",
"q.	c #B3B8B8",
"r.	c #333F48",
"s.	c #0A314A",
"t.	c #126A9A",
"u.	c #2091C8",
"v.	c #2191C4",
"w.	c #2192C1",
"x.	c #1F91BF",
"y.	c #2096C4",
"z.	c #1F9BC9",
"A.	c #219CCC",
"B.	c #229ECD",
"C.	c #219DCC",
"D.	c #219CCA",
"E.	c #239DCB",
"F.	c #239BCB",
"G.	c #259CCD",
"H.	c #2196C7",
"I.	c #1E8FBD",
"J.	c #1880B0",
"K.	c #1678AE",
"L.	c #1677AF",
"M.	c #1375B1",
"N.	c #166FA8",
"O.	c #175C8E",
"P.	c #0A2946",
"Q.	c #37404C",
"R.	c #9698A0",
"S.	c #051E3A",
"T.	c #145A87",
"U.	c #228DC3",
"V.	c #1E91C7",
"W.	c #1F93C4",
"X.	c #1E91C0",
"Y.	c #1D95C4",
"Z.	c #1F9BC8",
"`.	c #209CCA",
" +	c #1F9BCB",
".+	c #1F9ACD",
"++	c #1F9ACE",
"@+	c #209BCF",
"#+	c #209ACD",
"$+	c #209ACC",
"%+	c #2199CC",
"&+	c #209BC9",
"*+	c #1C86BC",
"=+	c #1677AD",
"-+	c #1375A9",
";+	c #1272A9",
">+	c #166AA4",
",+	c #154C7C",
"'+	c #061A39",
")+	c #9599A1",
"!+	c #E7E6E5",
"~+	c #3F4553",
"{+	c #0B3F64",
"]+	c #247CAD",
"^+	c #2192C6",
"/+	c #2190C1",
"(+	c #1F92C0",
"_+	c #1C98C5",
":+	c #1D98CA",
"<+	c #2097CA",
"[+	c #2098C8",
"}+	c #2098CA",
"|+	c #2197CA",
"1+	c #2196CC",
"2+	c #2297CC",
"3+	c #2196CB",
"4+	c #2198C9",
"5+	c #2198CA",
"6+	c #2098CD",
"7+	c #2594C5",
"8+	c #1E82B4",
"9+	c #1573A7",
"0+	c #166FA9",
"a+	c #186EAA",
"b+	c #186094",
"c+	c #0C375D",
"d+	c #414855",
"e+	c #E7E6E4",
"f+	c #AEB1B2",
"g+	c #0A2338",
"h+	c #1B6B97",
"i+	c #278EBF",
"j+	c #2091C3",
"k+	c #218FC2",
"l+	c #2290C3",
"m+	c #1D96C4",
"n+	c #2094C6",
"o+	c #2193C8",
"p+	c #2194C4",
"q+	c #2891BD",
"r+	c #2C8FBA",
"s+	c #2C8FBB",
"t+	c #2990BC",
"u+	c #2B91BD",
"v+	c #2B8FBA",
"w+	c #2B8EB9",
"x+	c #2992BD",
"y+	c #2094CA",
"z+	c #2093C7",
"A+	c #2394C2",
"B+	c #258FBF",
"C+	c #2181B7",
"D+	c #136DA8",
"E+	c #156CA7",
"F+	c #19689E",
"G+	c #155582",
"H+	c #0B1F35",
"I+	c #AEB2B3",
"J+	c #7A7A7F",
"K+	c #012D48",
"L+	c #2484B4",
"M+	c #258FC0",
"N+	c #2191C3",
"O+	c #208FC0",
"P+	c #1D94C4",
"Q+	c #2192C2",
"R+	c #238FBD",
"S+	c #2A8EB7",
"T+	c #61B0D2",
"U+	c #76BAD8",
"V+	c #75BAD7",
"W+	c #6FBAD8",
"X+	c #6FBAD7",
"Y+	c #76BAD7",
"Z+	c #76BBD8",
"`+	c #60B0D1",
" @	c #2A8EB8",
".@	c #2290C2",
"+@	c #218FC3",
"@@	c #238DC3",
"#@	c #1375AE",
"$@	c #126CA7",
"%@	c #19679E",
"&@	c #1A6093",
"*@	c #052643",
"=@	c #797C81",
"-@	c #383E46",
";@	c #134967",
">@	c #2990C0",
",@	c #228FC0",
"'@	c #1E8FC1",
")@	c #1F8CC1",
"!@	c #1D8EC4",
"~@	c #1B90C1",
"{@	c #1E8EBF",
"]@	c #3E91B7",
"^@	c #A7D9EA",
"/@	c #E9FEFF",
"(@	c #F3FEFF",
"_@	c #F4FDFF",
":@	c #F4FDFE",
"<@	c #F2FEFF",
"[@	c #E9FFFF",
"}@	c #A6D8EA",
"|@	c #3C93BB",
"1@	c #1E8DC0",
"2@	c #208EBF",
"3@	c #238EC4",
"4@	c #1D81B8",
"5@	c #116DA7",
"6@	c #17669E",
"7@	c #1A6398",
"8@	c #123959",
"9@	c #394148",
"0@	c #13232E",
"a@	c #1F5F7F",
"b@	c #258FC2",
"c@	c #1E8EC0",
"d@	c #1C8DBF",
"e@	c #1E8BBD",
"f@	c #1E8BBF",
"g@	c #1C8CC2",
"h@	c #1C8BBD",
"i@	c #62A8C5",
"j@	c #E3FAFC",
"k@	c #F9FEFF",
"l@	c #FCFBFC",
"m@	c #FFFEFD",
"n@	c #FEFEFD",
"o@	c #FFFEFF",
"p@	c #FFFDFD",
"q@	c #FDFBFC",
"r@	c #FAFFFF",
"s@	c #E2F9FC",
"t@	c #5EA8C8",
"u@	c #1C8ABE",
"v@	c #208CBD",
"w@	c #1F8ABE",
"x@	c #2085BA",
"y@	c #1472AB",
"z@	c #13669D",
"A@	c #18649A",
"B@	c #174466",
"C@	c #15242F",
"D@	c #031624",
"E@	c #256C8E",
"F@	c #1F8DC3",
"G@	c #1B8DC1",
"H@	c #1B8CBD",
"I@	c #1D88BA",
"J@	c #1E87BB",
"K@	c #1C87BF",
"L@	c #1989BC",
"M@	c #1B87BB",
"N@	c #6FAAC6",
"O@	c #F7FEFF",
"P@	c #FEFDFF",
"Q@	c #FFFEFE",
"R@	c #FCFCF9",
"S@	c #FEFEFB",
"T@	c #FDFEFA",
"U@	c #FDFCF9",
"V@	c #FEFCFE",
"W@	c #6CAAC7",
"X@	c #1C88BC",
"Y@	c #1E88BA",
"Z@	c #1C89BC",
"`@	c #1C88BA",
" #	c #1F86BA",
".#	c #1777AE",
"+#	c #10649D",
"@#	c #15639C",
"##	c #18496E",
"$#	c #021322",
"%#	c #061929",
"&#	c #267196",
"*#	c #1C8DC3",
"=#	c #198BC0",
"-#	c #1988BA",
";#	c #1C85B6",
">#	c #1F83B8",
",#	c #1986BA",
"'#	c #70A9C4",
")#	c #F9FEFE",
"!#	c #FEFEFF",
"~#	c #FDFEFD",
"{#	c #FDFEFC",
"]#	c #FDFFFC",
"^#	c #FCFEFC",
"/#	c #6DA8C4",
"(#	c #1E86BB",
"_#	c #1D84B6",
":#	c #1B86B8",
"<#	c #1B86B6",
"[#	c #1F84B8",
"}#	c #1A7AB0",
"|#	c #0F659D",
"1#	c #106099",
"2#	c #1A4D74",
"3#	c #051224",
"4#	c #071A29",
"5#	c #267297",
"6#	c #1A8BC1",
"7#	c #1A8ABF",
"8#	c #1783B6",
"9#	c #1B81B3",
"0#	c #1E7FB4",
"a#	c #1B80B8",
"b#	c #1981B7",
"c#	c #1B81B6",
"d#	c #6FA7C1",
"e#	c #F7FEFC",
"f#	c #FDFFFF",
"g#	c #FBFEFE",
"h#	c #FEFEFE",
"i#	c #6BA6C2",
"j#	c #1C81B2",
"k#	c #1982B4",
"l#	c #1A82B3",
"m#	c #1D81B4",
"n#	c #1C7BB1",
"o#	c #0C629B",
"p#	c #106098",
"q#	c #194C74",
"r#	c #061224",
"s#	c #071C2B",
"t#	c #256D91",
"u#	c #1C8AC0",
"v#	c #1D8ABF",
"w#	c #1780B4",
"x#	c #1A7DB0",
"y#	c #1D7CB3",
"z#	c #1B7CB6",
"A#	c #187EB3",
"B#	c #1A7DB2",
"C#	c #6EA4C0",
"D#	c #F8FEFE",
"E#	c #FCFDFD",
"F#	c #FDFEFE",
"G#	c #FDFDFE",
"H#	c #FFFDFF",
"I#	c #6BA4C1",
"J#	c #1A7DB3",
"K#	c #1B7EAF",
"L#	c #187EB2",
"M#	c #197EB1",
"N#	c #1B7DB2",
"O#	c #1B79B0",
"P#	c #0F639C",
"Q#	c #105E96",
"R#	c #194A70",
"S#	c #051222",
"T#	c #152C36",
"U#	c #256888",
"V#	c #1E87BA",
"W#	c #1D86BA",
"X#	c #157BAF",
"Y#	c #1A7AAE",
"Z#	c #1C78B0",
"`#	c #1A79B3",
" $	c #177AAF",
".$	c #1979AE",
"+$	c #6EA2BD",
"@$	c #F8FDFE",
"#$	c #FDFDFC",
"$$	c #FDFEFB",
"%$	c #FDFFFE",
"&$	c #FBFEFF",
"*$	c #FCFDFF",
"=$	c #FEFFFE",
"-$	c #6BA1BF",
";$	c #1A79AF",
">$	c #1A79AC",
",$	c #1879AF",
"'$	c #1A73AC",
")$	c #0F5E96",
"!$	c #135D95",
"~$	c #164467",
"{$	c #13232F",
"]$	c #35444B",
"^$	c #235E7B",
"/$	c #1E83B4",
"($	c #1E84B7",
"_$	c #187BAF",
":$	c #1976AB",
"<$	c #1B75AE",
"[$	c #1976B1",
"}$	c #1778AC",
"|$	c #1877AA",
"1$	c #6DA1BB",
"2$	c #F7FEFE",
"3$	c #FEFFFC",
"4$	c #FEFFFA",
"5$	c #FCFFFC",
"6$	c #F6FEFE",
"7$	c #69A0BD",
"8$	c #1977AC",
"9$	c #1977AA",
"0$	c #1877AE",
"a$	c #1B75AD",
"b$	c #1A6EA8",
"c$	c #115C94",
"d$	c #155A90",
"e$	c #153D5D",
"f$	c #364049",
"g$	c #787D82",
"h$	c #10425C",
"i$	c #2384B3",
"j$	c #1D81B3",
"k$	c #187AAF",
"l$	c #1672A8",
"m$	c #1971AA",
"n$	c #1772AC",
"o$	c #1574A7",
"p$	c #1773A7",
"q$	c #5A92B6",
"r$	c #E3F3FA",
"s$	c #FFFFFC",
"t$	c #FFFDFE",
"u$	c #FBFEFD",
"v$	c #E2F3FA",
"w$	c #5692B7",
"x$	c #1873A6",
"y$	c #1673AA",
"z$	c #1772AB",
"A$	c #1A70AB",
"B$	c #14659F",
"C$	c #135B92",
"D$	c #16588B",
"E$	c #0A2B48",
"F$	c #777B81",
"G$	c #ADB1B4",
"H$	c #0B2E42",
"I$	c #287DA7",
"J$	c #2080B1",
"K$	c #1A7CB1",
"L$	c #1371A8",
"M$	c #196FA6",
"N$	c #196DA4",
"O$	c #196FA3",
"P$	c #186FA7",
"Q$	c #2F71A0",
"R$	c #98BDD7",
"S$	c #F1FFFF",
"T$	c #F8FFFF",
"U$	c #F5FEFF",
"V$	c #F6FEFF",
"W$	c #F0FFFF",
"X$	c #96BCD6",
"Y$	c #2D72A2",
"Z$	c #1670A8",
"`$	c #186EA3",
" %	c #176EA4",
".%	c #186CA6",
"+%	c #12619A",
"@%	c #14588C",
"#%	c #1B537F",
"$%	c #0D2038",
"%%	c #AFB2B6",
"&%	c #3E4654",
"*%	c #1E5A7C",
"=%	c #267EAE",
"-%	c #197CB2",
";%	c #1474AA",
">%	c #136DA0",
",%	c #186DA0",
"'%	c #1869A0",
")%	c #1569A2",
"!%	c #1B6AA1",
"~%	c #1D5F91",
"{%	c #44769F",
"]%	c #5C83A7",
"^%	c #5D85A6",
"/%	c #5986A6",
"(%	c #5985A8",
"_%	c #5B84A7",
":%	c #19699F",
"<%	c #156CA4",
"[%	c #176AA2",
"}%	c #176AA1",
"|%	c #1868A2",
"1%	c #13639D",
"2%	c #0E5B93",
"3%	c #165686",
"4%	c #153E61",
"5%	c #404654",
"6%	c #E5E4E4",
"7%	c #8F959E",
"8%	c #0C2B48",
"9%	c #25709D",
"0%	c #1B7BB1",
"a%	c #1778AD",
"b%	c #106CA0",
"c%	c #11699E",
"d%	c #1468A0",
"e%	c #13689D",
"f%	c #13699E",
"g%	c #15689E",
"h%	c #16639A",
"i%	c #166196",
"j%	c #196298",
"k%	c #166197",
"l%	c #166399",
"m%	c #15679F",
"n%	c #14679B",
"o%	c #13689E",
"p%	c #1368A1",
"q%	c #16669F",
"r%	c #16639B",
"s%	c #105C97",
"t%	c #0F5892",
"u%	c #164E7B",
"v%	c #07203B",
"w%	c #919A9F",
"x%	c #344550",
"y%	c #194360",
"z%	c #2377A5",
"A%	c #1879B0",
"B%	c #1265A1",
"C%	c #11639A",
"D%	c #146498",
"E%	c #126396",
"F%	c #0F6597",
"G%	c #11669B",
"H%	c #11639B",
"I%	c #14629D",
"J%	c #17619E",
"K%	c #17619F",
"L%	c #14619D",
"M%	c #106497",
"N%	c #116497",
"O%	c #13649A",
"P%	c #14639B",
"Q%	c #15609B",
"R%	c #125B99",
"S%	c #105592",
"T%	c #195389",
"U%	c #0F2D4C",
"V%	c #37434E",
"W%	c #AEB7B6",
"X%	c #1B2C36",
"Y%	c #236080",
"Z%	c #2374A6",
"`%	c #1774B1",
" &	c #146DA9",
".&	c #126096",
"+&	c #135F98",
"@&	c #125F98",
"#&	c #126196",
"$&	c #126095",
"%&	c #136098",
"&&	c #145E99",
"*&	c #145E9B",
"=&	c #145F98",
"-&	c #136095",
";&	c #136096",
">&	c #115F99",
",&	c #116197",
"'&	c #145F96",
")&	c #115B96",
"!&	c #115896",
"~&	c #175389",
"{&	c #184169",
"]&	c #1B2534",
"^&	c #B5B8BB",
"/&	c #9FAAA7",
"(&	c #12212F",
"_&	c #255475",
":&	c #2270A2",
"<&	c #1773AA",
"[&	c #166CA5",
"}&	c #11639C",
"|&	c #105C9A",
"1&	c #13599B",
"2&	c #115993",
"3&	c #115C91",
"4&	c #115C92",
"5&	c #115B93",
"6&	c #135B95",
"7&	c #125B92",
"8&	c #135B91",
"9&	c #135993",
"0&	c #14599B",
"a&	c #105A9B",
"b&	c #0F5D98",
"c&	c #115A94",
"d&	c #11578F",
"e&	c #175485",
"f&	c #163C5E",
"g&	c #111B2D",
"h&	c #A9ACB1",
"i&	c #808385",
"j&	c #132130",
"k&	c #20587A",
"l&	c #1F6F9E",
"m&	c #176FA7",
"n&	c #166CA4",
"o&	c #14629F",
"p&	c #125B9C",
"q&	c #0E5995",
"r&	c #0E5B94",
"s&	c #0E5890",
"t&	c #125890",
"u&	c #125891",
"v&	c #105992",
"w&	c #0F5993",
"x&	c #105995",
"y&	c #125799",
"z&	c #105799",
"A&	c #105895",
"B&	c #135892",
"C&	c #175383",
"D&	c #174061",
"E&	c #111E2B",
"F&	c #848A8C",
"G&	c #AAB3B2",
"H&	c #1F2C38",
"I&	c #123654",
"J&	c #1D5F8C",
"K&	c #1F699B",
"L&	c #1E689B",
"M&	c #1A689B",
"N&	c #12649E",
"O&	c #0D609B",
"P&	c #105B97",
"Q&	c #145891",
"R&	c #165691",
"S&	c #135A97",
"T&	c #0A5B97",
"U&	c #0B5B94",
"V&	c #135C92",
"W&	c #16588E",
"X&	c #1A568B",
"Y&	c #154A78",
"Z&	c #0E2943",
"`&	c #222C36",
" *	c #B2B7B5",
".*	c #C0C5C8",
"+*	c #4D5864",
"@*	c #061C39",
"#*	c #143E63",
"$*	c #266087",
"%*	c #22658F",
"&*	c #186499",
"**	c #15659F",
"=*	c #15629B",
"-*	c #175E94",
";*	c #175D95",
">*	c #135D97",
",*	c #0F5C96",
"'*	c #195884",
")*	c #1D5178",
"!*	c #0F3256",
"~*	c #041934",
"{*	c #525C67",
"]*	c #C5C9CA",
"^*	c #B2B7BE",
"/*	c #555B66",
"(*	c #182738",
"_*	c #09283F",
":*	c #173D5C",
"<*	c #16456A",
"[*	c #164C70",
"}*	c #174F70",
"|*	c #184D70",
"1*	c #14486D",
"2*	c #164167",
"3*	c #143657",
"4*	c #07233B",
"5*	c #1B293A",
"6*	c #5A5F67",
"7*	c #B6BCC1",
"8*	c #C2C4C3",
"9*	c #93999C",
"0*	c #525760",
"a*	c #293544",
"b*	c #071D2B",
"c*	c #031623",
"d*	c #041523",
"e*	c #081C2B",
"f*	c #2C3645",
"g*	c #5A5A65",
"h*	c #989A9E",
"i*	c #C5C6C4",
"                    . + @ # $ % & $ * = - ;                     ",
"                > , ' ) ! ~ { ] ^ / ( _ : < [ }                 ",
"            | 1 2 3 4 5 6 7 8 9 0 a b c d e f g h i             ",
"          j k l m n o p q r s t u v w x y z A B C D E           ",
"        F G H I J K L M N O P Q R S T U V W X Y Z `  ...        ",
"      +.@.#.$.%.&.*.=.-.;.>.,.'.).!.~.{.].^./.(._.:.<.[.}.      ",
"    |.1.2.3.4.5.6.7.8.9.0.a.b.c.d.e.f.g.h.i.j.k.l.m.n.o.p.q.    ",
"    r.s.t.4.u.v.w.x.y.z.A.B.C.D.E.F.G.G.H.I.J.K.L.M.N.O.P.Q.    ",
"  R.S.T.U.V.W.X.Y.Z.`. +.+.+.+++@+#+#+$+%+&+y.*+=+-+;+>+,+'+)+  ",
"!+~+{+]+^+^+/+(+_+:+<+[+}+|+1+2+3+1+|+4+5+6+<+7+8+9+0+a+b+c+d+e+",
"f+g+h+i+j+k+l+0.m+n+o+p+q+r+s+t+u+v+w+x+0.y+z+A+B+C+D+E+F+G+H+I+",
"J+K+L+M+N+O+9.V.P+Q+R+S+T+U+V+W+X+Y+Z+`+ @.@j+7.+@@@#@$@%@&@*@=@",
"-@;@>@,@'@g.)@!@~@{@]@^@/@(@_@(@(@:@<@[@}@|@1@2@1@3@4@5@6@7@8@9@",
"0@a@b@c@d@e@f@g@r h@i@j@k@l@m@n@o@p@q@r@s@t@u@v@u@w@x@y@z@A@B@C@",
"D@E@F@G@H@I@J@K@L@M@N@O@P@Q@R@S@T@U@Q@V@O@W@X@Y@Z@`@ #.#+#@###$#",
"%#&#*#=#-#;#>#T ,#U '#)#P@!#~#{#]#^#!#P@)#/#(#_#:#<#[#}#|#1#2#3#",
"4#5#6#7#8#9#0#a#b#c#d#e#f#g#h#n@n@h#g#f#e#i#c#j#k#l#m#n#o#p#q#r#",
"s#t#u#v#w#x#y#z#A#B#C#D#E#F#G#H#H#G#F#E#D#I#J#K#L#M#N#O#P#Q#R#S#",
"T#U#V#W#X#Y#Z#`# $.$+$@$#$$$%$&$*$=$$$#$@$-$;$>$ $,$O#'$)$!$~${$",
"]$^$/$($_$:$<$[$}$|$1$2$3$4$5$r@r@5$4$3$6$7$8$9$.#0$a$b$c$d$e$f$",
"g$h$i$j$k$l$m$n$o$p$q$r$g#s$t$P@H#t$s$u$v$w$p$x$y$z$A$B$C$D$E$F$",
"G$H$I$J$K$L$M$N$O$P$Q$R$S$T$k@U$V$k@T$W$X$Y$Z$`$ %P$.%+%@%#%$%%%",
"  &%*%=%-%;%>%,%'%)%!%~%{%]%^%/%(%^%_%{%~%:%<%[%}%|%1%2%3%4%5%6%",
"  7%8%9%0%a%b%c%d%e%f%g%h%i%j%i%k%j%i%l%m%n%o%p%q%r%s%t%u%v%w%  ",
"    x%y%z%A%_.B%C%D%E%F%G%H%I%J%K%L%H%G%M%N%O%P%Q%R%S%T%U%V%    ",
"    W%X%Y%Z%`% &C%.&+&@&#&$&%&&&*&=&-&;&+&>&,&'&)&!&~&{&]&^&    ",
"      /&(&_&:&<&[&}&|&1&2&3&4&5&6&7&8&9&0&a&b&c&d&e&f&g&h&      ",
"        i&j&k&l&m&n&o&p&q&r&s&t&u&v&w&x&y&z&A&B&C&D&E&F&        ",
"          G&H&I&J&K&L&M&N&O&P&Q&R&S&T&U&V&W&X&Y&Z&`& *          ",
"            .*+*@*#*$*%*&***=*-*;*>*,*8&'*)*!*~*{*]*            ",
"                ^*/*(*_*:*<*[*}*|*1*2*3*4*5*6*7*                ",
"                    8*9*0*a*b*c*d*e*f*g*h*i*                    "};
