/* XPM */
static char * Stop_Click_xpm[] = {
"32 32 664 2",
"  	c None",
". 	c #C4C8C8",
"+ 	c #9A9CA0",
"@ 	c #FFFFFF",
"# 	c #9A9B9F",
"$ 	c #C4C7C7",
"% 	c #B6BBC0",
"& 	c #585F6A",
"* 	c #11769A",
"= 	c #13769B",
"- 	c #57606B",
"; 	c #B1BABF",
"> 	c #C0C8C7",
", 	c #525D64",
"' 	c #176A95",
") 	c #0F75A4",
"! 	c #0E7DAF",
"~ 	c #0E86B9",
"{ 	c #0E8DC3",
"] 	c #0C90C7",
"^ 	c #0D90C7",
"/ 	c #0E8CC2",
"( 	c #1185BA",
"_ 	c #117CAF",
": 	c #1273A3",
"< 	c #1A6792",
"[ 	c #C1C6C8",
"} 	c #AFB5B6",
"| 	c #155A85",
"1 	c #136B9B",
"2 	c #117DAA",
"3 	c #1389B5",
"4 	c #198DBC",
"5 	c #198DBF",
"6 	c #1E8FC7",
"7 	c #1A8BC3",
"8 	c #198AC2",
"9 	c #1A8AC2",
"0 	c #1584B9",
"a 	c #1685B6",
"b 	c #1280AF",
"c 	c #1276A5",
"d 	c #156697",
"e 	c #145584",
"f 	c #B0B4B5",
"g 	c #0F4A6B",
"h 	c #0F6495",
"i 	c #1079B0",
"j 	c #1E8DC1",
"k 	c #1F90C2",
"l 	c #1E90C2",
"m 	c #1F8EC2",
"n 	c #1F8DC2",
"o 	c #1E88C0",
"p 	c #2189C3",
"q 	c #2087C2",
"r 	c #1C83BD",
"s 	c #1C85BC",
"t 	c #1B85BA",
"u 	c #1781B6",
"v 	c #197FB5",
"w 	c #197CB4",
"x 	c #106FA5",
"y 	c #0E5C8D",
"z 	c #466FB7",
"A 	c #838688",
"B 	c #A4ABAD",
"C 	c #14689A",
"D 	c #1981BA",
"E 	c #2092C9",
"F 	c #2190C4",
"G 	c #228EC1",
"H 	c #228EC2",
"I 	c #1E8CC0",
"J 	c #1D8BBF",
"K 	c #1C8BBF",
"L 	c #1A8ABE",
"M 	c #1987BC",
"N 	c #1B87BC",
"O 	c #1A83B8",
"P 	c #1A80B6",
"Q 	c #1C80B7",
"R 	c #1D7DB6",
"S 	c #197AB4",
"T 	c #167AB2",
"U 	c #1471AC",
"V 	c #165E95",
"W 	c #A6A9A9",
"X 	c #B1B9BA",
"Y 	c #0E4A6B",
"Z 	c #186C9E",
"` 	c #238CC6",
" .	c #2394CB",
"..	c #1D90C1",
"+.	c #2291C1",
"@.	c #218EBF",
"#.	c #1F90C3",
"$.	c #2094C4",
"%.	c #2297C6",
"&.	c #229AC8",
"*.	c #229CC8",
"=.	c #2299C7",
"-.	c #2298C6",
";.	c #2394C4",
">.	c #1F8DBF",
",.	c #1983B7",
"'.	c #197CB1",
").	c #1B7BB0",
"!.	c #177AAE",
"~.	c #1779B4",
"{.	c #1771B0",
"].	c #165B92",
"^.	c #B3B8B8",
"/.	c #126A9A",
"(.	c #2091C8",
"_.	c #2191C4",
":.	c #2192C1",
"<.	c #1F91BF",
"[.	c #2096C4",
"}.	c #1F9BC9",
"|.	c #219CCC",
"1.	c #229ECD",
"2.	c #219DCC",
"3.	c #219CCA",
"4.	c #239DCB",
"5.	c #239BCB",
"6.	c #259CCD",
"7.	c #2196C7",
"8.	c #1E8FBD",
"9.	c #1880B0",
"0.	c #1678AE",
"a.	c #1677AF",
"b.	c #1375B1",
"c.	c #166FA8",
"d.	c #175C8E",
"e.	c #9698A0",
"f.	c #145A87",
"g.	c #228DC3",
"h.	c #1E91C7",
"i.	c #1F93C4",
"j.	c #1E91C0",
"k.	c #1D95C4",
"l.	c #1F9BC8",
"m.	c #209CCA",
"n.	c #1F9BCB",
"o.	c #1F9ACD",
"p.	c #1F9ACE",
"q.	c #209BCF",
"r.	c #209ACD",
"s.	c #209ACC",
"t.	c #2199CC",
"u.	c #209BC9",
"v.	c #1C86BC",
"w.	c #1677AD",
"x.	c #1375A9",
"y.	c #1272A9",
"z.	c #166AA4",
"A.	c #154C7C",
"B.	c #9599A1",
"C.	c #E7E6E5",
"D.	c #247CAD",
"E.	c #2192C6",
"F.	c #2190C1",
"G.	c #1F92C0",
"H.	c #1C98C5",
"I.	c #1D98CA",
"J.	c #2097CA",
"K.	c #2098C8",
"L.	c #2098CA",
"M.	c #2197CA",
"N.	c #2196CC",
"O.	c #2297CC",
"P.	c #2196CB",
"Q.	c #2198C9",
"R.	c #2198CA",
"S.	c #2098CD",
"T.	c #2594C5",
"U.	c #1E82B4",
"V.	c #1573A7",
"W.	c #166FA9",
"X.	c #186EAA",
"Y.	c #186094",
"Z.	c #E7E6E4",
"`.	c #AEB1B2",
" +	c #1B6B97",
".+	c #278EBF",
"++	c #2091C3",
"@+	c #218FC2",
"#+	c #2290C3",
"$+	c #1D96C4",
"%+	c #2094C6",
"&+	c #2193C8",
"*+	c #2194C4",
"=+	c #2891BD",
"-+	c #2C8FBA",
";+	c #2C8FBB",
">+	c #2990BC",
",+	c #2B91BD",
"'+	c #2B8FBA",
")+	c #2B8EB9",
"!+	c #2992BD",
"~+	c #2094CA",
"{+	c #2093C7",
"]+	c #2394C2",
"^+	c #258FBF",
"/+	c #2181B7",
"(+	c #136DA8",
"_+	c #156CA7",
":+	c #19689E",
"<+	c #155582",
"[+	c #AEB2B3",
"}+	c #7A7A7F",
"|+	c #2484B4",
"1+	c #258FC0",
"2+	c #2191C3",
"3+	c #208FC0",
"4+	c #1D94C4",
"5+	c #2192C2",
"6+	c #238FBD",
"7+	c #2A8EB7",
"8+	c #61B0D2",
"9+	c #76BAD8",
"0+	c #75BAD7",
"a+	c #6FBAD8",
"b+	c #6FBAD7",
"c+	c #76BAD7",
"d+	c #76BBD8",
"e+	c #60B0D1",
"f+	c #2A8EB8",
"g+	c #2290C2",
"h+	c #218FC3",
"i+	c #238DC3",
"j+	c #1375AE",
"k+	c #126CA7",
"l+	c #19679E",
"m+	c #1A6093",
"n+	c #797C81",
"o+	c #134967",
"p+	c #2990C0",
"q+	c #228FC0",
"r+	c #1E8FC1",
"s+	c #1F8CC1",
"t+	c #1D8EC4",
"u+	c #1B90C1",
"v+	c #1E8EBF",
"w+	c #3E91B7",
"x+	c #A7D9EA",
"y+	c #E9FEFF",
"z+	c #F3FEFF",
"A+	c #F4FDFF",
"B+	c #F4FDFE",
"C+	c #F2FEFF",
"D+	c #E9FFFF",
"E+	c #A6D8EA",
"F+	c #3C93BB",
"G+	c #1E8DC0",
"H+	c #208EBF",
"I+	c #238EC4",
"J+	c #1D81B8",
"K+	c #116DA7",
"L+	c #17669E",
"M+	c #1A6398",
"N+	c #123959",
"O+	c #1F5F7F",
"P+	c #258FC2",
"Q+	c #1E8EC0",
"R+	c #1C8DBF",
"S+	c #1E8BBD",
"T+	c #1E8BBF",
"U+	c #1C8CC2",
"V+	c #1C8BBD",
"W+	c #62A8C5",
"X+	c #E3FAFC",
"Y+	c #F9FEFF",
"Z+	c #FCFBFC",
"`+	c #FFFEFD",
" @	c #FEFEFD",
".@	c #FFFEFF",
"+@	c #FFFDFD",
"@@	c #FDFBFC",
"#@	c #FAFFFF",
"$@	c #E2F9FC",
"%@	c #5EA8C8",
"&@	c #1C8ABE",
"*@	c #208CBD",
"=@	c #1F8ABE",
"-@	c #2085BA",
";@	c #1472AB",
">@	c #13669D",
",@	c #18649A",
"'@	c #174466",
")@	c #256C8E",
"!@	c #1F8DC3",
"~@	c #1B8DC1",
"{@	c #1B8CBD",
"]@	c #1D88BA",
"^@	c #1E87BB",
"/@	c #1C87BF",
"(@	c #1989BC",
"_@	c #1B87BB",
":@	c #6FAAC6",
"<@	c #F7FEFF",
"[@	c #FEFDFF",
"}@	c #FFFEFE",
"|@	c #FCFCF9",
"1@	c #FEFEFB",
"2@	c #FDFEFA",
"3@	c #FDFCF9",
"4@	c #FEFCFE",
"5@	c #6CAAC7",
"6@	c #1C88BC",
"7@	c #1E88BA",
"8@	c #1C89BC",
"9@	c #1C88BA",
"0@	c #1F86BA",
"a@	c #1777AE",
"b@	c #10649D",
"c@	c #15639C",
"d@	c #18496E",
"e@	c #267196",
"f@	c #1C8DC3",
"g@	c #198BC0",
"h@	c #1988BA",
"i@	c #1C85B6",
"j@	c #1F83B8",
"k@	c #1986BA",
"l@	c #70A9C4",
"m@	c #F9FEFE",
"n@	c #FEFEFF",
"o@	c #FDFEFD",
"p@	c #FDFEFC",
"q@	c #FDFFFC",
"r@	c #FCFEFC",
"s@	c #6DA8C4",
"t@	c #1E86BB",
"u@	c #1D84B6",
"v@	c #1B86B8",
"w@	c #1B86B6",
"x@	c #1F84B8",
"y@	c #1A7AB0",
"z@	c #0F659D",
"A@	c #106099",
"B@	c #1A4D74",
"C@	c #267297",
"D@	c #1A8BC1",
"E@	c #1A8ABF",
"F@	c #1783B6",
"G@	c #1B81B3",
"H@	c #1E7FB4",
"I@	c #1B80B8",
"J@	c #1981B7",
"K@	c #1B81B6",
"L@	c #6FA7C1",
"M@	c #F7FEFC",
"N@	c #FDFFFF",
"O@	c #FBFEFE",
"P@	c #FEFEFE",
"Q@	c #6BA6C2",
"R@	c #1C81B2",
"S@	c #1982B4",
"T@	c #1A82B3",
"U@	c #1D81B4",
"V@	c #1C7BB1",
"W@	c #0C629B",
"X@	c #106098",
"Y@	c #194C74",
"Z@	c #256D91",
"`@	c #1C8AC0",
" #	c #1D8ABF",
".#	c #1780B4",
"+#	c #1A7DB0",
"@#	c #1D7CB3",
"##	c #1B7CB6",
"$#	c #187EB3",
"%#	c #1A7DB2",
"&#	c #6EA4C0",
"*#	c #F8FEFE",
"=#	c #FCFDFD",
"-#	c #FDFEFE",
";#	c #FDFDFE",
">#	c #FFFDFF",
",#	c #6BA4C1",
"'#	c #1A7DB3",
")#	c #1B7EAF",
"!#	c #187EB2",
"~#	c #197EB1",
"{#	c #1B7DB2",
"]#	c #1B79B0",
"^#	c #0F639C",
"/#	c #105E96",
"(#	c #194A70",
"_#	c #256888",
":#	c #1E87BA",
"<#	c #1D86BA",
"[#	c #157BAF",
"}#	c #1A7AAE",
"|#	c #1C78B0",
"1#	c #1A79B3",
"2#	c #177AAF",
"3#	c #1979AE",
"4#	c #6EA2BD",
"5#	c #F8FDFE",
"6#	c #FDFDFC",
"7#	c #FDFEFB",
"8#	c #FDFFFE",
"9#	c #FBFEFF",
"0#	c #FCFDFF",
"a#	c #FEFFFE",
"b#	c #6BA1BF",
"c#	c #1A79AF",
"d#	c #1A79AC",
"e#	c #1879AF",
"f#	c #1A73AC",
"g#	c #0F5E96",
"h#	c #135D95",
"i#	c #1A476E",
"j#	c #235E7B",
"k#	c #1E83B4",
"l#	c #1E84B7",
"m#	c #187BAF",
"n#	c #1976AB",
"o#	c #1B75AE",
"p#	c #1976B1",
"q#	c #1778AC",
"r#	c #1877AA",
"s#	c #6DA1BB",
"t#	c #F7FEFE",
"u#	c #FEFFFC",
"v#	c #FEFFFA",
"w#	c #FCFFFC",
"x#	c #F6FEFE",
"y#	c #69A0BD",
"z#	c #1977AC",
"A#	c #1977AA",
"B#	c #1877AE",
"C#	c #1B75AD",
"D#	c #1A6EA8",
"E#	c #115C94",
"F#	c #155A90",
"G#	c #787D82",
"H#	c #2384B3",
"I#	c #1D81B3",
"J#	c #187AAF",
"K#	c #1672A8",
"L#	c #1971AA",
"M#	c #1772AC",
"N#	c #1574A7",
"O#	c #1773A7",
"P#	c #5A92B6",
"Q#	c #E3F3FA",
"R#	c #FFFFFC",
"S#	c #FFFDFE",
"T#	c #FBFEFD",
"U#	c #E2F3FA",
"V#	c #5692B7",
"W#	c #1873A6",
"X#	c #1673AA",
"Y#	c #1772AB",
"Z#	c #1A70AB",
"`#	c #14659F",
" $	c #135B92",
".$	c #16588B",
"+$	c #777B81",
"@$	c #ADB1B4",
"#$	c #287DA7",
"$$	c #2080B1",
"%$	c #1A7CB1",
"&$	c #1371A8",
"*$	c #196FA6",
"=$	c #196DA4",
"-$	c #196FA3",
";$	c #186FA7",
">$	c #2F71A0",
",$	c #98BDD7",
"'$	c #F1FFFF",
")$	c #F8FFFF",
"!$	c #F5FEFF",
"~$	c #F6FEFF",
"{$	c #F0FFFF",
"]$	c #96BCD6",
"^$	c #2D72A2",
"/$	c #1670A8",
"($	c #186EA3",
"_$	c #176EA4",
":$	c #186CA6",
"<$	c #12619A",
"[$	c #14588C",
"}$	c #1B537F",
"|$	c #AFB2B6",
"1$	c #267EAE",
"2$	c #197CB2",
"3$	c #1474AA",
"4$	c #136DA0",
"5$	c #186DA0",
"6$	c #1869A0",
"7$	c #1569A2",
"8$	c #1B6AA1",
"9$	c #1D5F91",
"0$	c #44769F",
"a$	c #5C83A7",
"b$	c #5D85A6",
"c$	c #5986A6",
"d$	c #5985A8",
"e$	c #5B84A7",
"f$	c #19699F",
"g$	c #156CA4",
"h$	c #176AA2",
"i$	c #176AA1",
"j$	c #1868A2",
"k$	c #13639D",
"l$	c #0E5B93",
"m$	c #165686",
"n$	c #153E61",
"o$	c #E5E4E4",
"p$	c #8F959E",
"q$	c #25709D",
"r$	c #1B7BB1",
"s$	c #1778AD",
"t$	c #106CA0",
"u$	c #11699E",
"v$	c #1468A0",
"w$	c #13689D",
"x$	c #13699E",
"y$	c #15689E",
"z$	c #16639A",
"A$	c #166196",
"B$	c #196298",
"C$	c #166197",
"D$	c #166399",
"E$	c #15679F",
"F$	c #14679B",
"G$	c #13689E",
"H$	c #1368A1",
"I$	c #16669F",
"J$	c #16639B",
"K$	c #105C97",
"L$	c #0F5892",
"M$	c #164E7B",
"N$	c #2377A5",
"O$	c #1879B0",
"P$	c #1265A1",
"Q$	c #11639A",
"R$	c #146498",
"S$	c #126396",
"T$	c #0F6597",
"U$	c #11669B",
"V$	c #11639B",
"W$	c #14629D",
"X$	c #17619E",
"Y$	c #17619F",
"Z$	c #14619D",
"`$	c #106497",
" %	c #116497",
".%	c #13649A",
"+%	c #14639B",
"@%	c #15609B",
"#%	c #125B99",
"$%	c #105592",
"%%	c #195389",
"&%	c #AEB7B6",
"*%	c #2374A6",
"=%	c #1774B1",
"-%	c #146DA9",
";%	c #126096",
">%	c #135F98",
",%	c #125F98",
"'%	c #126196",
")%	c #126095",
"!%	c #136098",
"~%	c #145E99",
"{%	c #145E9B",
"]%	c #145F98",
"^%	c #136095",
"/%	c #136096",
"(%	c #115F99",
"_%	c #116197",
":%	c #145F96",
"<%	c #115B96",
"[%	c #115896",
"}%	c #175389",
"|%	c #184169",
"1%	c #B5B8BB",
"2%	c #9FAAA7",
"3%	c #2270A2",
"4%	c #1773AA",
"5%	c #166CA5",
"6%	c #11639C",
"7%	c #105C9A",
"8%	c #13599B",
"9%	c #115993",
"0%	c #115C91",
"a%	c #115C92",
"b%	c #115B93",
"c%	c #135B95",
"d%	c #125B92",
"e%	c #135B91",
"f%	c #135993",
"g%	c #14599B",
"h%	c #105A9B",
"i%	c #0F5D98",
"j%	c #115A94",
"k%	c #11578F",
"l%	c #175485",
"m%	c #A9ACB1",
"n%	c #808385",
"o%	c #20587A",
"p%	c #1F6F9E",
"q%	c #176FA7",
"r%	c #166CA4",
"s%	c #14629F",
"t%	c #125B9C",
"u%	c #0E5995",
"v%	c #0E5B94",
"w%	c #0E5890",
"x%	c #125890",
"y%	c #125891",
"z%	c #105992",
"A%	c #0F5993",
"B%	c #105995",
"C%	c #125799",
"D%	c #105799",
"E%	c #105895",
"F%	c #135892",
"G%	c #175383",
"H%	c #848A8C",
"I%	c #AAB3B2",
"J%	c #1D5F8C",
"K%	c #1F699B",
"L%	c #1E689B",
"M%	c #1A689B",
"N%	c #12649E",
"O%	c #0D609B",
"P%	c #105B97",
"Q%	c #145891",
"R%	c #165691",
"S%	c #135A97",
"T%	c #0A5B97",
"U%	c #0B5B94",
"V%	c #135C92",
"W%	c #16588E",
"X%	c #1A568B",
"Y%	c #154A78",
"Z%	c #B2B7B5",
"`%	c #C0C5C8",
" &	c #4D5864",
".&	c #266087",
"+&	c #22658F",
"@&	c #186499",
"#&	c #15659F",
"$&	c #15629B",
"%&	c #175E94",
"&&	c #175D95",
"*&	c #135D97",
"=&	c #0F5C96",
"-&	c #195884",
";&	c #1D5178",
">&	c #525C67",
",&	c #C5C9CA",
"'&	c #B2B7BE",
")&	c #5A5F67",
"!&	c #B6BCC1",
"~&	c #C2C4C3",
"{&	c #93999C",
"]&	c #C5C6C4",
"                    . + @ @ @ @ @ @ @ @ # $                     ",
"                % & @ @ @ @ @ * = @ @ @ @ @ - ;                 ",
"            > , @ @ ' ) ! ~ { ] ^ / ( _ : < @ @ @ [             ",
"          } @ @ | 1 2 3 4 5 6 7 8 9 0 a b c d e @ @ f           ",
"        @ @ g h i j k l m n o p q r s t u v w x y z @ A         ",
"      B @ @ C D E F G H I J K L M N O P Q R S T U V @ @ W       ",
"    X @ Y Z `  ...+.@.#.$.%.&.*.=.-.;.>.,.'.).!.~.{.].@ @ ^.    ",
"    @ @ /.` (._.:.<.[.}.|.1.2.3.4.5.6.6.7.8.9.0.a.b.c.d.@ @     ",
"  e.@ f.g.h.i.j.k.l.m.n.o.o.o.p.q.r.r.s.t.u.[.v.w.x.y.z.A.@ B.  ",
"C.@ @ D.E.E.F.G.H.I.J.K.L.M.N.O.P.N.M.Q.R.S.J.T.U.V.W.X.Y.@ @ Z.",
"`.@  +.+++@+#+$.$+%+&+*+=+-+;+>+,+'+)+!+$.~+{+]+^+/+(+_+:+<+@ [+",
"}+@ |+1+2+3+#.h.4+5+6+7+8+9+0+a+b+c+d+e+f+g++++.h+i+j+k+l+m+@ n+",
"@ o+p+q+r+>.s+t+u+v+w+x+y+z+A+z+z+B+C+D+E+F+G+H+G+I+J+K+L+M+N+@ ",
"@ O+P+Q+R+S+T+U+5 V+W+X+Y+Z+`+ @.@+@@@#@$@%@&@*@&@=@-@;@>@,@'@@ ",
"@ )@!@~@{@]@^@/@(@_@:@<@[@}@|@1@2@3@}@4@<@5@6@7@8@9@0@a@b@c@d@@ ",
"@ e@f@g@h@i@j@s k@t l@m@[@n@o@p@q@r@n@[@m@s@t@u@v@w@x@y@z@A@B@@ ",
"@ C@D@E@F@G@H@I@J@K@L@M@N@O@P@ @ @P@O@N@M@Q@K@R@S@T@U@V@W@X@Y@@ ",
"@ Z@`@ #.#+#@###$#%#&#*#=#-#;#>#>#;#-#=#*#,#'#)#!#~#{#]#^#/#(#@ ",
"@ _#:#<#[#}#|#1#2#3#4#5#6#7#8#9#0#a#7#6#5#b#c#d#2#e#]#f#g#h#i#@ ",
"@ j#k#l#m#n#o#p#q#r#s#t#u#v#w##@#@w#v#u#x#y#z#A#a@B#C#D#E#F#@ @ ",
"G#@ H#I#J#K#L#M#N#O#P#Q#O@R#S#[@>#S#R#T#U#V#O#W#X#Y#Z#`# $.$@ +$",
"@$@ #$$$%$&$*$=$-$;$>$,$'$)$Y+!$~$Y+)${$]$^$/$($_$;$:$<$[$}$@ |$",
"  @ @ 1$2$3$4$5$6$7$8$9$0$a$b$c$d$b$e$0$9$f$g$h$i$j$k$l$m$n$@ o$",
"  p$@ q$r$s$t$u$v$w$x$y$z$A$B$A$C$B$A$D$E$F$G$H$I$J$K$L$M$@ @   ",
"    @ @ N$O$U P$Q$R$S$T$U$V$W$X$Y$Z$V$U$`$ %.%+%@%#%$%%%@ @     ",
"    &%@ @ *%=%-%Q$;%>%,%'%)%!%~%{%]%^%/%>%(%_%:%<%[%}%|%@ 1%    ",
"      2%@ @ 3%4%5%6%7%8%9%0%a%b%c%d%e%f%g%h%i%j%k%l%@ @ m%      ",
"        n%@ o%p%q%r%s%t%u%v%w%x%y%z%A%B%C%D%E%F%G%@ @ H%        ",
"          I%@ @ J%K%L%M%N%O%P%Q%R%S%T%U%V%W%X%Y%@ @ Z%          ",
"            `% &@ @ .&+&@&#&$&%&&&*&=&e%-&;&@ @ >&,&            ",
"                '&@ @ @ @ @ @ @ @ @ @ @ @ @ )&!&                ",
"                    ~&{&@ @ @ @ @ @ @ @ @ ]&                    "};
