/* XPM */
static char * click_play_xpm[] = {
"32 32 572 2",
"  	c None",
". 	c #FFFFFF",
"+ 	c #8096BA",
"@ 	c #103A7E",
"# 	c #002D75",
"$ 	c #30558F",
"% 	c #002C75",
"& 	c #00276E",
"* 	c #002369",
"= 	c #00246A",
"- 	c #00256B",
"; 	c #00266C",
"> 	c #054894",
", 	c #0A5EAD",
"' 	c #0A5EAE",
") 	c #0A5FAE",
"! 	c #0B5FAF",
"~ 	c #0B60AF",
"{ 	c #1064B2",
"] 	c #2A78BC",
"^ 	c #3882BF",
"/ 	c #357FBE",
"( 	c #2E7ABB",
"_ 	c #206CB2",
": 	c #094E9A",
"< 	c #01337C",
"[ 	c #002B73",
"} 	c #002166",
"| 	c #002064",
"1 	c #002165",
"2 	c #002266",
"3 	c #002267",
"4 	c #002268",
"5 	c #002368",
"6 	c #06438E",
"7 	c #0E6ABB",
"8 	c #0F6BBC",
"9 	c #0F6CBC",
"0 	c #106DBD",
"a 	c #116EBD",
"b 	c #207AC3",
"c 	c #4696D1",
"d 	c #67AFDD",
"e 	c #69AFDD",
"f 	c #62ABDA",
"g 	c #3484C5",
"h 	c #033C86",
"i 	c #002167",
"j 	c #01256B",
"k 	c #053881",
"l 	c #116FBE",
"m 	c #1270BF",
"n 	c #1371C0",
"o 	c #1372C0",
"p 	c #1E79C3",
"q 	c #57A2D7",
"r 	c #6AB0DE",
"s 	c #69AFDC",
"t 	c #3586C5",
"u 	c #002970",
"v 	c #002269",
"w 	c #00256A",
"x 	c #01266C",
"y 	c #01276D",
"z 	c #01276E",
"A 	c #022E76",
"B 	c #1473C1",
"C 	c #1574C2",
"D 	c #1675C3",
"E 	c #1572C0",
"F 	c #53A0D6",
"G 	c #6AB1DE",
"H 	c #64ADDC",
"I 	c #094F9B",
"J 	c #0D3C81",
"K 	c #124183",
"L 	c #114183",
"M 	c #114184",
"N 	c #114284",
"O 	c #114285",
"P 	c #124285",
"Q 	c #2980C5",
"R 	c #2C88CD",
"S 	c #2C89CD",
"T 	c #2D89CD",
"U 	c #2D88CD",
"V 	c #2B87CC",
"W 	c #2986CC",
"X 	c #2885CB",
"Y 	c #2683CA",
"Z 	c #2581C9",
"` 	c #2A85CA",
" .	c #75B7E2",
"..	c #78B9E2",
"+.	c #2C77B9",
"@.	c #0E3C81",
"#.	c #124485",
"$.	c #134486",
"%.	c #144586",
"&.	c #144587",
"*.	c #144688",
"=.	c #154789",
"-.	c #15488A",
";.	c #16498B",
">.	c #174A8C",
",.	c #174B8C",
"'.	c #2C7CBD",
").	c #3690D1",
"!.	c #3891D2",
"~.	c #3992D2",
"{.	c #3A93D3",
"].	c #3791D1",
"^.	c #3590D1",
"/.	c #338ED0",
"(.	c #328CCF",
"_.	c #62AADC",
":.	c #86C1E6",
"<.	c #448DC7",
"[.	c #0D387D",
"}.	c #134588",
"|.	c #144789",
"1.	c #14478A",
"2.	c #15488B",
"3.	c #15498B",
"4.	c #2F5E99",
"5.	c #245694",
"6.	c #174B8D",
"7.	c #184C8F",
"8.	c #184D90",
"9.	c #184E90",
"0.	c #2971B3",
"a.	c #3B95D5",
"b.	c #3C95D6",
"c.	c #3C96D6",
"d.	c #3D96D6",
"e.	c #3A94D4",
"f.	c #348FD1",
"g.	c #499BD6",
"h.	c #88C2E7",
"i.	c #4991C8",
"j.	c #0D3479",
"k.	c #14488B",
"l.	c #15498C",
"m.	c #164A8C",
"n.	c #174C8E",
"o.	c #5E85B3",
"p.	c #EBF0F6",
"q.	c #7395BD",
"r.	c #1B5192",
"s.	c #1A5091",
"t.	c #1A5092",
"u.	c #2668A9",
"v.	c #3D96D7",
"w.	c #3F98D8",
"x.	c #4099D8",
"y.	c #3E97D7",
"z.	c #3A94D3",
"A.	c #8AC3E8",
"B.	c #4A91CA",
"C.	c #0D3378",
"D.	c #144689",
"E.	c #154A8C",
"F.	c #164B8E",
"G.	c #164C8F",
"H.	c #174D90",
"I.	c #5F86B4",
"J.	c #D3DFEC",
"K.	c #517DB0",
"L.	c #1C5495",
"M.	c #225F9F",
"N.	c #419AD8",
"O.	c #429BD9",
"P.	c #439CD9",
"Q.	c #449CDA",
"R.	c #88C3E8",
"S.	c #144386",
"T.	c #154C90",
"U.	c #164D90",
"V.	c #174E90",
"W.	c #184F91",
"X.	c #185093",
"Y.	c #5F88B7",
"Z.	c #B2C6DD",
"`.	c #396DA7",
" +	c #4098D6",
".+	c #449DDA",
"++	c #469EDB",
"@+	c #479FDC",
"#+	c #47A0DC",
"$+	c #469FDB",
"%+	c #459DDA",
"&+	c #429CD9",
"*+	c #409AD8",
"=+	c #82BFE6",
"-+	c #4B93CB",
";+	c #0E357B",
">+	c #144184",
",+	c #164E91",
"'+	c #175092",
")+	c #185194",
"!+	c #1A5395",
"~+	c #618AB8",
"{+	c #F7F9FC",
"]+	c #A1CDEB",
"^+	c #4FA4DE",
"/+	c #49A1DD",
"(+	c #4AA1DE",
"_+	c #4BA3DE",
":+	c #4AA2DE",
"<+	c #48A0DC",
"[+	c #80BEE6",
"}+	c #4C94CC",
"|+	c #0E377C",
"1+	c #133F82",
"2+	c #175094",
"3+	c #185195",
"4+	c #185395",
"5+	c #1A5596",
"6+	c #1B5698",
"7+	c #618CBA",
"8+	c #EBF5FC",
"9+	c #8AC4EB",
"0+	c #4EA6E0",
"a+	c #4FA6E1",
"b+	c #4DA5DF",
"c+	c #48A0DD",
"d+	c #459EDB",
"e+	c #7EBDE5",
"f+	c #4D95CC",
"g+	c #104187",
"h+	c #133D81",
"i+	c #185296",
"j+	c #185497",
"k+	c #1A5598",
"l+	c #1B5799",
"m+	c #1C589B",
"n+	c #628EBC",
"o+	c #D7ECF9",
"p+	c #76BBE9",
"q+	c #53A9E3",
"r+	c #52A8E3",
"s+	c #50A7E2",
"t+	c #4DA6E0",
"u+	c #7DBDE6",
"v+	c #4E95CC",
"w+	c #0B418B",
"x+	c #10387C",
"y+	c #175497",
"z+	c #1A569A",
"A+	c #1B589B",
"B+	c #1C599B",
"C+	c #1E5A9D",
"D+	c #6390BE",
"E+	c #FEFFFF",
"F+	c #BFE0F6",
"G+	c #65B4E7",
"H+	c #53AAE3",
"I+	c #439BD9",
"J+	c #79BAE5",
"K+	c #4A92CA",
"L+	c #063E8C",
"M+	c #052A73",
"N+	c #033985",
"O+	c #07408A",
"P+	c #0D478F",
"Q+	c #124E94",
"R+	c #165399",
"S+	c #5F8CBC",
"T+	c #F6FBFE",
"U+	c #A3D2F1",
"V+	c #4DA5E1",
"W+	c #419DDD",
"X+	c #3A97D9",
"Y+	c #3292D6",
"Z+	c #2B8BD2",
"`+	c #2485CE",
" @	c #5FAADE",
".@	c #3986C5",
"+@	c #062F7A",
"@@	c #033B86",
"#@	c #043C88",
"$@	c #053E89",
"%@	c #06408C",
"&@	c #06428D",
"*@	c #517EB3",
"=@	c #97CBEE",
"-@	c #3A99DD",
";@	c #3192D9",
">@	c #2D8ED6",
",@	c #298BD3",
"'@	c #2687D0",
")@	c #2283CE",
"!@	c #5AA7DC",
"~@	c #073683",
"{@	c #043D89",
"]@	c #043F8B",
"^@	c #05408C",
"/@	c #06428E",
"(@	c #074490",
"_@	c #5280B5",
":@	c #B8DDF5",
"<@	c #4FA7E4",
"[@	c #3899DE",
"}@	c #3496DB",
"|@	c #2C8ED6",
"1@	c #55A4DB",
"2@	c #093E8C",
"3@	c #05428F",
"4@	c #05418D",
"5@	c #06428F",
"6@	c #064491",
"7@	c #084692",
"8@	c #5282B7",
"9@	c #D3EAF9",
"0@	c #65B2E7",
"a@	c #3B9CE0",
"b@	c #399ADF",
"c@	c #3798DD",
"d@	c #3395DA",
"e@	c #3091D8",
"f@	c #2C8DD5",
"g@	c #288AD2",
"h@	c #2586D0",
"i@	c #2283CD",
"j@	c #4FA0D9",
"k@	c #093C8A",
"l@	c #074F9E",
"m@	c #054290",
"n@	c #074793",
"o@	c #084995",
"p@	c #5383B8",
"q@	c #E7F1F9",
"r@	c #7BBCE8",
"s@	c #3698DC",
"t@	c #3898DD",
"u@	c #3495DB",
"v@	c #2E8FD7",
"w@	c #2B8CD4",
"x@	c #2789D1",
"y@	c #2485CF",
"z@	c #2182CD",
"A@	c #489BD7",
"B@	c #3986C4",
"C@	c #093A88",
"D@	c #095CAC",
"E@	c #054492",
"F@	c #064694",
"G@	c #074996",
"H@	c #094B98",
"I@	c #5385BA",
"J@	c #F6FAFD",
"K@	c #8BB2D6",
"L@	c #216BB1",
"M@	c #3092D9",
"N@	c #3294DA",
"O@	c #3395DB",
"P@	c #3394DA",
"Q@	c #2E90D7",
"R@	c #2B8DD5",
"S@	c #2384CE",
"T@	c #2080CC",
"U@	c #3E94D4",
"V@	c #3885C4",
"W@	c #063D8B",
"X@	c #083784",
"Y@	c #0A64B6",
"Z@	c #064997",
"`@	c #064896",
" #	c #084B98",
".#	c #094D9A",
"+#	c #5386BC",
"@#	c #AECAE3",
"##	c #2F72B4",
"$#	c #1560AA",
"%#	c #1662AC",
"&#	c #2B8AD2",
"*#	c #2F90D7",
"=#	c #2D8FD6",
"-#	c #2788D1",
";#	c #1E7FCB",
">#	c #338CD0",
",#	c #3785C3",
"'#	c #08327F",
")#	c #0A63B6",
"!#	c #0854A3",
"~#	c #064A98",
"{#	c #084D9B",
"]#	c #094F9D",
"^#	c #5488BE",
"/#	c #D1E1EF",
"(#	c #4A84BE",
"_#	c #125DA9",
":#	c #1460AB",
"<#	c #1562AC",
"[#	c #1764AE",
"}#	c #2580C9",
"|#	c #2A8CD4",
"1#	c #298AD3",
"2#	c #2486D0",
"3#	c #1F80CB",
"4#	c #1D7DC9",
"5#	c #2683CB",
"6#	c #3683C3",
"7#	c #053C8A",
"8#	c #082D7A",
"9#	c #0960B3",
"0#	c #095DAE",
"a#	c #064C9A",
"b#	c #084E9D",
"c#	c #09509F",
"d#	c #5489BF",
"e#	c #EAF1F8",
"f#	c #6B9CCA",
"g#	c #115CA8",
"h#	c #115CA9",
"i#	c #125EAA",
"j#	c #1461AD",
"k#	c #1563AF",
"l#	c #1665B1",
"m#	c #2078C2",
"n#	c #1D7ECA",
"o#	c #1B7BC8",
"p#	c #1A7AC6",
"q#	c #3381C1",
"r#	c #053B89",
"s#	c #082C79",
"t#	c #0855A6",
"u#	c #0A63B5",
"v#	c #08509F",
"w#	c #0952A0",
"x#	c #2368AE",
"y#	c #1A62AB",
"z#	c #0D5AA7",
"A#	c #0F5CA9",
"B#	c #115EAB",
"C#	c #1261AD",
"D#	c #1363AF",
"E#	c #1564B1",
"F#	c #1666B2",
"G#	c #1B71BC",
"H#	c #1F7FCB",
"I#	c #1979C6",
"J#	c #1776C4",
"K#	c #2477BC",
"L#	c #043A88",
"M#	c #072B76",
"N#	c #08418F",
"O#	c #085EB0",
"P#	c #0753A3",
"Q#	c #0851A0",
"R#	c #0A54A2",
"S#	c #0B57A5",
"T#	c #0C58A7",
"U#	c #0E5BA9",
"V#	c #0F5EAB",
"W#	c #1161AD",
"X#	c #1363B0",
"Y#	c #1466B2",
"Z#	c #1568B4",
"`#	c #186CB9",
" $	c #2081CC",
".$	c #1C7DC9",
"+$	c #166BB6",
"@$	c #033886",
"#$	c #062770",
"$$	c #062973",
"%$	c #064C9D",
"&$	c #064E9E",
"*$	c #054694",
"=$	c #074A98",
"-$	c #084C99",
";$	c #084C98",
">$	c #0A4F9B",
",$	c #0B509C",
"'$	c #0C519E",
")$	c #0D539F",
"!$	c #0E55A1",
"~$	c #0E58A3",
"{$	c #1467B3",
"]$	c #1668B4",
"^$	c #1569B5",
"/$	c #1569B6",
"($	c #1469B7",
"_$	c #1369B7",
":$	c #1168B6",
"<$	c #0B5AA7",
"[$	c #013784",
"}$	c #05246E",
"|$	c #06246C",
"1$	c #062B75",
"2$	c #054594",
"3$	c #04408E",
"4$	c #04418E",
"5$	c #054390",
"6$	c #064490",
"7$	c #074591",
"8$	c #074693",
"9$	c #084794",
"0$	c #084894",
"a$	c #094996",
"b$	c #0A4B96",
"c$	c #0A4B97",
"d$	c #0D529F",
"e$	c #0D54A1",
"f$	c #0C529D",
"g$	c #0C519D",
"h$	c #0C509D",
"i$	c #0B509D",
"j$	c #0B4F9C",
"k$	c #0A4F9A",
"l$	c #0A4D9A",
"m$	c #094D99",
"n$	c #043E89",
"o$	c #002F78",
"p$	c #032F7A",
"q$	c #052067",
"r$	c #052168",
"s$	c #05256E",
"t$	c #04337E",
"u$	c #033A87",
"v$	c #033C88",
"w$	c #053D88",
"x$	c #053E8A",
"y$	c #06408A",
"z$	c #06418C",
"A$	c #07418C",
"B$	c #084591",
"C$	c #094793",
"D$	c #094692",
"E$	c #084590",
"F$	c #08448F",
"G$	c #07448F",
"H$	c #07438F",
"I$	c #07438E",
"J$	c #053F8C",
"K$	c #013079",
"L$	c #00307A",
"M$	c #022C76",
"N$	c #042168",
"O$	c #051E64",
"P$	c #051D63",
"Q$	c #042269",
"R$	c #032D76",
"S$	c #02347F",
"T$	c #03357F",
"U$	c #033680",
"V$	c #033681",
"W$	c #033781",
"X$	c #043782",
"Y$	c #043882",
"Z$	c #053984",
"`$	c #053B86",
" %	c #053A85",
".%	c #043983",
"+%	c #01327B",
"@%	c #002E77",
"#%	c #012F79",
"$%	c #012D76",
"%%	c #022B75",
"&%	c #022972",
"*%	c #022A73",
"=%	c #012E78",
"-%	c #02307A",
";%	c #02317A",
">%	c #02327B",
",%	c #02337C",
"'%	c #02337D",
")%	c #02327C",
"!%	c #023179",
"~%	c #023078",
"{%	c #013179",
"]%	c #012F77",
". . + @ # # # # # # # # # # # # # # # # # # # # # # # # @ + . . ",
". $ # % & * * = = = - - ; > , ' ) ! ~ ~ ~ { ] ^ / ( _ : < # $ . ",
"+ # [ } | | 1 } 2 3 4 5 * 6 7 8 9 0 a a a a 0 b c d e f g h # + ",
"@ # 3 } i 3 4 5 * * = - j k a l m n o o o o n m l p q r s t < @ ",
"# u 4 v * * = w - j x y z A n B C C D D D D C C B o E F G H I # ",
"# J K L L L K M M N N O P P Q R S T T T U R V W X Y Z `  ...+.# ",
"# @.#.$.%.&.*.=.-.-.;.>.,.,.'.).!.~.{.{.{.{.~.!.].^./.(._.:.<.# ",
"# [.}.*.|.1.2.3.4.5.6.7.8.9.0.{.a.b.c.d.d.c.b.a.e.~.).f.g.h.i.# ",
"# j.1.k.3.l.m.n.o.p.q.r.s.t.u.b.v.w.x.x.x.x.w.y.c.a.{.].z.A.B.# ",
"# C.D.E.F.G.H.9.I.. . J.K.L.M.w.N.O.P.Q.Q.Q.P.N.x.v.b.{.!.R.B.# ",
"# j.S.T.U.V.W.X.Y.. . . . Z.`. +.+++@+#+#+#+$+%+&+*+y.b.{.=+-+# ",
"# ;+>+,+'+X.)+!+~+. . . . . {+]+^+/+(+_+_+:+/+<+++P.*+y.a.[+}+# ",
"# |+1+2+3+4+5+6+7+. . . . . . . 8+9+0+a+a+0+b+:+c+d+P.x.b.e+f+# ",
"# g+h+i+j+k+l+m+n+. . . . . . . . . o+p+q+r+s+t+:+<+%+N.y.u+v+# ",
"# w+x+y+z+A+B+C+D+. . . . . . . . . . E+F+G+H+s+b+/+$+I+w.J+K+# ",
"# L+M+N+O+P+Q+R+S+. . . . . . . . . . . . T+U+V+W+X+Y+Z+`+ @.@# ",
"# L++@@@#@$@%@&@*@. . . . . . . . . . . . T+=@-@;@>@,@'@)@!@.@# ",
"# L+~@{@]@^@/@(@_@. . . . . . . . . . E+:@<@[@}@;@|@,@'@)@1@.@# ",
"# L+2@3@4@5@6@7@8@. . . . . . . . . 9@0@a@b@c@d@e@f@g@h@i@j@.@# ",
"# L+k@l@m@6@n@o@p@. . . . . . . q@r@s@c@t@s@u@;@v@w@x@y@z@A@B@# ",
"# L+C@D@E@F@G@H@I@. . . . . J@K@L@M@N@O@u@P@;@Q@R@,@'@S@T@U@V@# ",
"# W@X@Y@Z@`@ #.#+#. . . . @###$#%#&#*#e@e@*#=#R@,@-#y@z@;#>#,## ",
"# W@'#)#!#~#{#]#^#. . /#(#_#:#<#[#}#w@R@f@R@|#1#-#2#)@3#4#5#6## ",
"# 7#8#9#0#a#b#c#d#e#f#g#h#i#j#k#l#m#x@g@g@g@-#'@y@)@T@n#o#p#q## ",
"# r#s#t#u#l@v#w#x#y#z#A#B#C#D#E#F#G#y@h@h@h@y@)@z@H#n#o#I#J#K## ",
"# L#M#N#O#P#l@Q#R#S#T#U#V#W#X#Y#Z#`#z@z@z@z@ $T@;#.$o#I#J#C +$# ",
"# @$#$$$%$&$*$`@=$-$;$.#>$,$'$)$!$~${$]$]$Z#^$/$/$($_$_$:$:$<$# ",
"# [$}$|$1$2$3$4$5$6$6$7$8$9$0$a$b$c$d$e$)$f$g$h$i$j$k$l$m$ #n$# ",
"@ o$p$q$r$s$t$u$v${@#@w$$@x$y$%@z$A$B$C$D$E$F$G$H$I$I$&@^@J$K$@ ",
"+ # L$M$N$O$P$Q$R$S$S$T$U$V$W$X$Y$Y$Z$`$ %.%.%Y$Y$Y$X$W$W$+%# + ",
". $ # @%#%$%%%&%&%*%=%K$-%;%;%;%>%>%,%'%)%;%;%;%;%!%~%{%]%# $ . ",
". . + @ # # # # # # # # # # # # # # # # # # # # # # # # @ + . . "};
