/* XPM */
static char * click_pause_xpm[] = {
"32 32 632 2",
"  	c None",
". 	c #FFFFFF",
"+ 	c #A2B7D1",
"@ 	c #2A5490",
"# 	c #002E75",
"$ 	c #002D75",
"% 	c #6989B3",
"& 	c #002C75",
"* 	c #00276E",
"= 	c #002369",
"- 	c #00246A",
"; 	c #00256B",
"> 	c #00266C",
", 	c #054894",
"' 	c #0A5EAD",
") 	c #0A5EAE",
"! 	c #0A5FAE",
"~ 	c #0B5FAF",
"{ 	c #0B60AF",
"] 	c #1064B2",
"^ 	c #2A78BC",
"/ 	c #3882BF",
"( 	c #357FBE",
"_ 	c #2E7ABB",
": 	c #206CB2",
"< 	c #094E9A",
"[ 	c #01337C",
"} 	c #002B73",
"| 	c #002166",
"1 	c #002064",
"2 	c #002165",
"3 	c #002266",
"4 	c #002267",
"5 	c #002268",
"6 	c #002368",
"7 	c #06438E",
"8 	c #0E6ABB",
"9 	c #0F6BBC",
"0 	c #0F6CBC",
"a 	c #106DBD",
"b 	c #116EBD",
"c 	c #207AC3",
"d 	c #4696D1",
"e 	c #67AFDD",
"f 	c #69AFDD",
"g 	c #62ABDA",
"h 	c #3484C5",
"i 	c #033C86",
"j 	c #2A548F",
"k 	c #002167",
"l 	c #01256B",
"m 	c #053881",
"n 	c #116FBE",
"o 	c #1270BF",
"p 	c #1371C0",
"q 	c #1372C0",
"r 	c #1E79C3",
"s 	c #57A2D7",
"t 	c #6AB0DE",
"u 	c #69AFDC",
"v 	c #3586C5",
"w 	c #002970",
"x 	c #002269",
"y 	c #00256A",
"z 	c #01266C",
"A 	c #01276D",
"B 	c #01276E",
"C 	c #022E76",
"D 	c #1473C1",
"E 	c #1574C2",
"F 	c #1675C3",
"G 	c #1572C0",
"H 	c #53A0D6",
"I 	c #6AB1DE",
"J 	c #64ADDC",
"K 	c #094F9B",
"L 	c #0D3C81",
"M 	c #124183",
"N 	c #114183",
"O 	c #114184",
"P 	c #114284",
"Q 	c #114285",
"R 	c #124285",
"S 	c #2980C5",
"T 	c #2C88CD",
"U 	c #2C89CD",
"V 	c #2D89CD",
"W 	c #2D88CD",
"X 	c #2B87CC",
"Y 	c #2986CC",
"Z 	c #2885CB",
"` 	c #2683CA",
" .	c #2581C9",
"..	c #2A85CA",
"+.	c #75B7E2",
"@.	c #78B9E2",
"#.	c #2C77B9",
"$.	c #0E3C81",
"%.	c #124485",
"&.	c #134486",
"*.	c #144586",
"=.	c #144587",
"-.	c #144688",
";.	c #154789",
">.	c #15488A",
",.	c #16498B",
"'.	c #174A8C",
").	c #174B8C",
"!.	c #2C7CBD",
"~.	c #3690D1",
"{.	c #3891D2",
"].	c #3992D2",
"^.	c #3A93D3",
"/.	c #3791D1",
"(.	c #3590D1",
"_.	c #338ED0",
":.	c #328CCF",
"<.	c #62AADC",
"[.	c #86C1E6",
"}.	c #448DC7",
"|.	c #0D387D",
"1.	c #134588",
"2.	c #144789",
"3.	c #14478A",
"4.	c #15488B",
"5.	c #15498B",
"6.	c #164A8C",
"7.	c #174B8D",
"8.	c #184C8F",
"9.	c #184D90",
"0.	c #184E90",
"a.	c #2971B3",
"b.	c #3B95D5",
"c.	c #3C95D6",
"d.	c #3C96D6",
"e.	c #3D96D6",
"f.	c #3A94D4",
"g.	c #348FD1",
"h.	c #499BD6",
"i.	c #88C2E7",
"j.	c #4991C8",
"k.	c #0D3479",
"l.	c #14488B",
"m.	c #15498C",
"n.	c #174C8E",
"o.	c #174C8F",
"p.	c #194F91",
"q.	c #1A5091",
"r.	c #1A5092",
"s.	c #2668A9",
"t.	c #3D96D7",
"u.	c #3F98D8",
"v.	c #4099D8",
"w.	c #3E97D7",
"x.	c #3A94D3",
"y.	c #8AC3E8",
"z.	c #4A91CA",
"A.	c #0D3378",
"B.	c #144689",
"C.	c #154A8C",
"D.	c #164B8E",
"E.	c #164C8F",
"F.	c #174D90",
"G.	c #184F91",
"H.	c #A6BDD7",
"I.	c #CCD9E8",
"J.	c #799CC2",
"K.	c #1C5495",
"L.	c #225F9F",
"M.	c #419AD8",
"N.	c #429BD9",
"O.	c #439CD9",
"P.	c #95C8EA",
"Q.	c #D6EAF7",
"R.	c #B8DBF1",
"S.	c #88C3E8",
"T.	c #144386",
"U.	c #154C90",
"V.	c #164D90",
"W.	c #174E90",
"X.	c #185093",
"Y.	c #1A5194",
"Z.	c #CFDCEA",
"`.	c #96B2D0",
" +	c #1E5798",
".+	c #1F599A",
"++	c #4098D6",
"@+	c #449DDA",
"#+	c #469EDB",
"$+	c #479FDC",
"%+	c #ADD5F0",
"&+	c #D9ECF8",
"*+	c #459DDA",
"=+	c #429CD9",
"-+	c #409AD8",
";+	c #82BFE6",
">+	c #4B93CB",
",+	c #0E357B",
"'+	c #144184",
")+	c #164E91",
"!+	c #175092",
"~+	c #185194",
"{+	c #1A5395",
"]+	c #1B5596",
"^+	c #CFDDEB",
"/+	c #96B3D2",
"(+	c #205A9B",
"_+	c #215B9C",
":+	c #3D8FCD",
"<+	c #47A0DC",
"[+	c #49A1DD",
"}+	c #4AA1DE",
"|+	c #AED7F1",
"1+	c #DAEDF9",
"2+	c #48A0DC",
"3+	c #80BEE6",
"4+	c #4C94CC",
"5+	c #0E377C",
"6+	c #133F82",
"7+	c #175094",
"8+	c #185195",
"9+	c #185395",
"0+	c #1A5596",
"a+	c #1B5698",
"b+	c #1C5799",
"c+	c #97B4D3",
"d+	c #225D9F",
"e+	c #235FA0",
"f+	c #3985C4",
"g+	c #4CA4DF",
"h+	c #4EA6E0",
"i+	c #B0D8F2",
"j+	c #DBEDF9",
"k+	c #4AA2DE",
"l+	c #48A0DD",
"m+	c #459EDB",
"n+	c #7EBDE5",
"o+	c #4D95CC",
"p+	c #104187",
"q+	c #133D81",
"r+	c #185296",
"s+	c #185497",
"t+	c #1A5598",
"u+	c #1B5799",
"v+	c #1C589B",
"w+	c #1E5A9C",
"x+	c #D0DEEC",
"y+	c #98B6D4",
"z+	c #2461A2",
"A+	c #2562A3",
"B+	c #347CBB",
"C+	c #4CA5DF",
"D+	c #4FA6E1",
"E+	c #51A8E3",
"F+	c #B2D9F3",
"G+	c #DBEEFA",
"H+	c #4DA6E0",
"I+	c #7DBDE6",
"J+	c #4E95CC",
"K+	c #0B418B",
"L+	c #10387C",
"M+	c #175497",
"N+	c #1A569A",
"O+	c #1B589B",
"P+	c #1C599B",
"Q+	c #1E5A9D",
"R+	c #1F5C9F",
"S+	c #D0DFED",
"T+	c #99B7D6",
"U+	c #2664A6",
"V+	c #2766A7",
"W+	c #3074B3",
"X+	c #52A9E3",
"Y+	c #55ABE4",
"Z+	c #B4DBF4",
"`+	c #DCEEFA",
" @	c #50A7E2",
".@	c #4DA5DF",
"+@	c #469FDB",
"@@	c #439BD9",
"#@	c #79BAE5",
"$@	c #4A92CA",
"%@	c #063E8C",
"&@	c #052A73",
"*@	c #033985",
"=@	c #07408A",
"-@	c #0D478F",
";@	c #124E94",
">@	c #165399",
",@	c #1A589C",
"'@	c #CFDEEC",
")@	c #9AB9D7",
"!@	c #2868A8",
"~@	c #2969AA",
"{@	c #2C6DAD",
"]@	c #57ADE5",
"^@	c #B5DCF4",
"/@	c #DBEEF9",
"(@	c #48A2E0",
"_@	c #419DDD",
":@	c #3A97D9",
"<@	c #3292D6",
"[@	c #2B8BD2",
"}@	c #2485CE",
"|@	c #5FAADE",
"1@	c #3986C5",
"2@	c #062F7A",
"3@	c #033B86",
"4@	c #043C88",
"5@	c #053E89",
"6@	c #06408C",
"7@	c #06428D",
"8@	c #08448F",
"9@	c #C9D9E9",
"0@	c #8DADD0",
"a@	c #105099",
"b@	c #12539B",
"c@	c #14559E",
"d@	c #318CD2",
"e@	c #3A9ADE",
"f@	c #3D9DE0",
"g@	c #A9D5F3",
"h@	c #D6EBF8",
"i@	c #3596DB",
"j@	c #3192D9",
"k@	c #2D8ED6",
"l@	c #298BD3",
"m@	c #2687D0",
"n@	c #2283CE",
"o@	c #5AA7DC",
"p@	c #073683",
"q@	c #043D89",
"r@	c #043F8B",
"s@	c #05408C",
"t@	c #06428E",
"u@	c #074490",
"v@	c #084691",
"w@	c #C9DAEA",
"x@	c #8DAED1",
"y@	c #0F509A",
"z@	c #11539C",
"A@	c #12559F",
"B@	c #287FC6",
"C@	c #3798DD",
"D@	c #3B9CE0",
"E@	c #A8D5F2",
"F@	c #3496DB",
"G@	c #2C8ED6",
"H@	c #55A4DB",
"I@	c #093E8C",
"J@	c #05428F",
"K@	c #05418D",
"L@	c #06428F",
"M@	c #064491",
"N@	c #084692",
"O@	c #094894",
"P@	c #CADAEA",
"Q@	c #8DAFD2",
"R@	c #10539E",
"S@	c #11569F",
"T@	c #1358A1",
"U@	c #2274BD",
"V@	c #3697DC",
"W@	c #3999DE",
"X@	c #A7D3F1",
"Y@	c #3395DA",
"Z@	c #3091D8",
"`@	c #2C8DD5",
" #	c #288AD2",
".#	c #2586D0",
"+#	c #2283CD",
"@#	c #4FA0D9",
"##	c #093C8A",
"$#	c #074F9E",
"%#	c #054290",
"&#	c #074793",
"*#	c #084995",
"=#	c #094A97",
"-#	c #CADBEB",
";#	c #8EB1D4",
">#	c #1157A1",
",#	c #1259A3",
"'#	c #145BA5",
")#	c #1D6BB4",
"!#	c #3395DB",
"~#	c #A5D2F0",
"{#	c #D5EAF8",
"]#	c #2E8FD7",
"^#	c #2B8CD4",
"/#	c #2789D1",
"(#	c #2485CF",
"_#	c #2182CD",
":#	c #489BD7",
"<#	c #3986C4",
"[#	c #093A88",
"}#	c #095CAC",
"|#	c #054492",
"1#	c #064694",
"2#	c #074996",
"3#	c #094B98",
"4#	c #0A4D99",
"5#	c #CADBEC",
"6#	c #8EB2D5",
"7#	c #1159A3",
"8#	c #135BA6",
"9#	c #155EA8",
"0#	c #1864AD",
"a#	c #3092D9",
"b#	c #3294DA",
"c#	c #A3D0EF",
"d#	c #D4EAF8",
"e#	c #2E90D7",
"f#	c #2B8DD5",
"g#	c #2384CE",
"h#	c #2080CC",
"i#	c #3E94D4",
"j#	c #3885C4",
"k#	c #063D8B",
"l#	c #083784",
"m#	c #0A64B6",
"n#	c #064997",
"o#	c #064896",
"p#	c #084B98",
"q#	c #094D9A",
"r#	c #0A4F9C",
"s#	c #CADCEC",
"t#	c #8FB3D6",
"u#	c #125BA7",
"v#	c #145DA8",
"w#	c #1560AA",
"x#	c #1662AC",
"y#	c #2B8AD2",
"z#	c #2F90D7",
"A#	c #A2CFEE",
"B#	c #D3E9F7",
"C#	c #2788D1",
"D#	c #1E7FCB",
"E#	c #338CD0",
"F#	c #3785C3",
"G#	c #08327F",
"H#	c #0A63B6",
"I#	c #0854A3",
"J#	c #064A98",
"K#	c #084D9B",
"L#	c #094F9D",
"M#	c #0B519F",
"N#	c #9FBFDD",
"O#	c #C8DBEC",
"P#	c #C9DBED",
"Q#	c #72A1CE",
"R#	c #125DA9",
"S#	c #1460AB",
"T#	c #1562AC",
"U#	c #1764AE",
"V#	c #2580C9",
"W#	c #86BFE8",
"X#	c #D0E7F6",
"Y#	c #ADD4F0",
"Z#	c #298AD3",
"`#	c #2486D0",
" $	c #1F80CB",
".$	c #1D7DC9",
"+$	c #2683CB",
"@$	c #3683C3",
"#$	c #053C8A",
"$$	c #082D7A",
"%$	c #0960B3",
"&$	c #095DAE",
"*$	c #064C9A",
"=$	c #084E9D",
"-$	c #09509F",
";$	c #0B53A1",
">$	c #0C56A3",
",$	c #0D58A5",
"'$	c #0F5AA7",
")$	c #115CA9",
"!$	c #125EAA",
"~$	c #1461AD",
"{$	c #1563AF",
"]$	c #1665B1",
"^$	c #2078C2",
"/$	c #1D7ECA",
"($	c #1B7BC8",
"_$	c #1A7AC6",
":$	c #3381C1",
"<$	c #053B89",
"[$	c #082C79",
"}$	c #0855A6",
"|$	c #0A63B5",
"1$	c #08509F",
"2$	c #0952A0",
"3$	c #0B55A3",
"4$	c #0C57A5",
"5$	c #0D5AA7",
"6$	c #0F5CA9",
"7$	c #115EAB",
"8$	c #1261AD",
"9$	c #1363AF",
"0$	c #1564B1",
"a$	c #1666B2",
"b$	c #1B71BC",
"c$	c #1F7FCB",
"d$	c #1979C6",
"e$	c #1776C4",
"f$	c #2477BC",
"g$	c #043A88",
"h$	c #072B76",
"i$	c #08418F",
"j$	c #085EB0",
"k$	c #0753A3",
"l$	c #0851A0",
"m$	c #0A54A2",
"n$	c #0B57A5",
"o$	c #0C58A7",
"p$	c #0E5BA9",
"q$	c #0F5EAB",
"r$	c #1161AD",
"s$	c #1363B0",
"t$	c #1466B2",
"u$	c #1568B4",
"v$	c #186CB9",
"w$	c #2081CC",
"x$	c #1C7DC9",
"y$	c #166BB6",
"z$	c #033886",
"A$	c #062770",
"B$	c #062973",
"C$	c #064C9D",
"D$	c #064E9E",
"E$	c #054694",
"F$	c #074A98",
"G$	c #084C99",
"H$	c #084C98",
"I$	c #0A4F9B",
"J$	c #0B509C",
"K$	c #0C519E",
"L$	c #0D539F",
"M$	c #0E55A1",
"N$	c #0E58A3",
"O$	c #1467B3",
"P$	c #1668B4",
"Q$	c #1569B5",
"R$	c #1569B6",
"S$	c #1469B7",
"T$	c #1369B7",
"U$	c #1168B6",
"V$	c #0B5AA7",
"W$	c #013784",
"X$	c #05246E",
"Y$	c #06246C",
"Z$	c #062B75",
"`$	c #054594",
" %	c #04408E",
".%	c #04418E",
"+%	c #054390",
"@%	c #064490",
"#%	c #074591",
"$%	c #074693",
"%%	c #084794",
"&%	c #084894",
"*%	c #094996",
"=%	c #0A4B96",
"-%	c #0A4B97",
";%	c #0D529F",
">%	c #0D54A1",
",%	c #0C529D",
"'%	c #0C519D",
")%	c #0C509D",
"!%	c #0B509D",
"~%	c #0B4F9C",
"{%	c #0A4F9A",
"]%	c #0A4D9A",
"^%	c #094D99",
"/%	c #043E89",
"(%	c #002F78",
"_%	c #032F7A",
":%	c #052067",
"<%	c #052168",
"[%	c #05256E",
"}%	c #04337E",
"|%	c #033A87",
"1%	c #033C88",
"2%	c #053D88",
"3%	c #053E8A",
"4%	c #06408A",
"5%	c #06418C",
"6%	c #07418C",
"7%	c #084591",
"8%	c #094793",
"9%	c #094692",
"0%	c #084590",
"a%	c #07448F",
"b%	c #07438F",
"c%	c #07438E",
"d%	c #053F8C",
"e%	c #013079",
"f%	c #00307A",
"g%	c #022C76",
"h%	c #042168",
"i%	c #051E64",
"j%	c #051D63",
"k%	c #042269",
"l%	c #032D76",
"m%	c #02347F",
"n%	c #03357F",
"o%	c #033680",
"p%	c #033681",
"q%	c #033781",
"r%	c #043782",
"s%	c #043882",
"t%	c #053984",
"u%	c #053B86",
"v%	c #053A85",
"w%	c #043983",
"x%	c #01327B",
"y%	c #002E77",
"z%	c #012F79",
"A%	c #012D76",
"B%	c #022B75",
"C%	c #022972",
"D%	c #022A73",
"E%	c #012E78",
"F%	c #02307A",
"G%	c #02317A",
"H%	c #02327B",
"I%	c #02337C",
"J%	c #02337D",
"K%	c #02327C",
"L%	c #023179",
"M%	c #023078",
"N%	c #013179",
"O%	c #012F77",
". . + @ # $ $ $ $ $ $ $ $ $ $ $ $ $ $ $ $ $ $ $ $ $ $ # @ + . . ",
". % $ & * = = - - - ; ; > , ' ) ! ~ { { { ] ^ / ( _ : < [ $ % . ",
"+ $ } | 1 1 2 | 3 4 5 6 = 7 8 9 0 a b b b b a c d e f g h i $ + ",
"j $ 4 | k 4 5 6 = = - ; l m b n o p q q q q p o n r s t u v [ j ",
"$ w 5 x = = - y ; l z A B C p D E E F F F F E E D q G H I J K # ",
"$ L M N N N M O O P P Q R R S T U V V V W T X Y Z `  ...+.@.#.$ ",
"$ $.%.&.*.=.-.;.>.>.,.'.).).!.~.{.].^.^.^.^.].{./.(._.:.<.[.}.$ ",
"$ |.1.-.2.3.4.5.6.).7.8.9.0.a.^.b.c.d.e.e.d.c.b.f.].~.g.h.i.j.$ ",
"$ k.3.l.5.m.6.n.o.9.0.p.q.r.s.c.t.u.v.v.v.v.u.w.d.b.^./.x.y.z.$ ",
"$ A.B.C.D.E.F.0.G.H.I.I.J.K.L.u.M.N.O.P.Q.Q.R.M.v.t.c.^.{.S.z.$ ",
"$ k.T.U.V.W.G.X.Y.Z.. . `. +.+++@+#+$+%+. . &+*+=+-+w.c.^.;+>+$ ",
"$ ,+'+)+!+X.~+{+]+^+. . /+(+_+:+<+[+}+|+. . 1+2+#+O.-+w.b.3+4+$ ",
"$ 5+6+7+8+9+0+a+b+^+. . c+d+e+f+}+g+h+i+. . j+k+l+m+O.v.c.n+o+$ ",
"$ p+q+r+s+t+u+v+w+x+. . y+z+A+B+C+D+E+F+. . G+H+k+2+*+M.w.I+J+$ ",
"$ K+L+M+N+O+P+Q+R+S+. . T+U+V+W+D+X+Y+Z+. . `+ @.@[++@@@u.#@$@$ ",
"$ %@&@*@=@-@;@>@,@'@. . )@!@~@{@ @Y+]@^@. . /@(@_@:@<@[@}@|@1@$ ",
"$ %@2@3@4@5@6@7@8@9@. . 0@a@b@c@d@e@f@g@. . h@i@j@k@l@m@n@o@1@$ ",
"$ %@p@q@r@s@t@u@v@w@. . x@y@z@A@B@C@D@E@. . h@F@j@G@l@m@n@H@1@$ ",
"$ %@I@J@K@L@M@N@O@P@. . Q@R@S@T@U@V@W@X@. . h@Y@Z@`@ #.#+#@#1@$ ",
"$ %@##$#%#M@&#*#=#-#. . ;#>#,#'#)#!#V@~#. . {#j@]#^#/#(#_#:#<#$ ",
"$ %@[#}#|#1#2#3#4#5#. . 6#7#8#9#0#a#b#c#. . d#e#f#l@m@g#h#i#j#$ ",
"$ k#l#m#n#o#p#q#r#s#. . t#u#v#w#x#y#z#A#. . B#f#l@C#(#_#D#E#F#$ ",
"$ k#G#H#I#J#K#L#M#N#O#P#Q#R#S#T#U#V#^#W#X#X#Y#Z#C#`#n@ $.$+$@$$ ",
"$ #$$$%$&$*$=$-$;$>$,$'$)$!$~${$]$^$/# # # #C#m@(#n@h#/$($_$:$$ ",
"$ <$[$}$|$$#1$2$3$4$5$6$7$8$9$0$a$b$(#.#.#.#(#n@_#c$/$($d$e$f$$ ",
"$ g$h$i$j$k$$#l$m$n$o$p$q$r$s$t$u$v$_#_#_#_#w$h#D#x$($d$e$E y$$ ",
"$ z$A$B$C$D$E$o#F$G$H$q#I$J$K$L$M$N$O$P$P$u$Q$R$R$S$T$T$U$U$V$$ ",
"$ W$X$Y$Z$`$ %.%+%@%@%#%$%%%&%*%=%-%;%>%L$,%'%)%!%~%{%]%^%p#/%# ",
"j (%_%:%<%[%}%|%1%q@4@2%5@3%4%6@5%6%7%8%9%0%8@a%b%c%c%7@s@d%e%j ",
"+ $ f%g%h%i%j%k%l%m%m%n%o%p%q%r%s%s%t%u%v%w%w%s%s%s%r%q%q%x%$ + ",
". % $ y%z%A%B%C%C%D%E%e%F%G%G%G%H%H%I%J%K%G%G%G%G%L%M%N%O%$ % . ",
". . + @ # $ $ $ $ $ $ $ $ $ $ $ $ $ $ $ $ $ $ $ $ $ $ # @ + . . "};
