/* XPM */
static char * click_skip_backward_xpm[] = {
"32 32 607 2",
"  	c None",
". 	c #FFFFFF",
"+ 	c #8096BA",
"@ 	c #103A7E",
"# 	c #002D75",
"$ 	c #30558F",
"% 	c #002C75",
"& 	c #00276E",
"* 	c #002369",
"= 	c #00246A",
"- 	c #00256B",
"; 	c #00266C",
"> 	c #054894",
", 	c #0A5EAD",
"' 	c #0A5EAE",
") 	c #0A5FAE",
"! 	c #0B5FAF",
"~ 	c #0B60AF",
"{ 	c #1064B2",
"] 	c #2A78BC",
"^ 	c #3882BF",
"/ 	c #357FBE",
"( 	c #2E7ABB",
"_ 	c #206CB2",
": 	c #094E9A",
"< 	c #01337C",
"[ 	c #002B73",
"} 	c #002166",
"| 	c #002064",
"1 	c #002165",
"2 	c #002266",
"3 	c #002267",
"4 	c #002268",
"5 	c #002368",
"6 	c #06438E",
"7 	c #0E6ABB",
"8 	c #0F6BBC",
"9 	c #0F6CBC",
"0 	c #106DBD",
"a 	c #116EBD",
"b 	c #207AC3",
"c 	c #4696D1",
"d 	c #67AFDD",
"e 	c #69AFDD",
"f 	c #62ABDA",
"g 	c #3484C5",
"h 	c #033C86",
"i 	c #002167",
"j 	c #01256B",
"k 	c #053881",
"l 	c #116FBE",
"m 	c #1270BF",
"n 	c #1371C0",
"o 	c #1372C0",
"p 	c #1E79C3",
"q 	c #57A2D7",
"r 	c #6AB0DE",
"s 	c #69AFDC",
"t 	c #3586C5",
"u 	c #002970",
"v 	c #002269",
"w 	c #00256A",
"x 	c #01266C",
"y 	c #01276D",
"z 	c #01276E",
"A 	c #022E76",
"B 	c #1473C1",
"C 	c #1574C2",
"D 	c #1675C3",
"E 	c #1572C0",
"F 	c #53A0D6",
"G 	c #6AB1DE",
"H 	c #64ADDC",
"I 	c #094F9B",
"J 	c #0D3C81",
"K 	c #124183",
"L 	c #114183",
"M 	c #114184",
"N 	c #114284",
"O 	c #114285",
"P 	c #124285",
"Q 	c #2980C5",
"R 	c #2C88CD",
"S 	c #2C89CD",
"T 	c #2D89CD",
"U 	c #2D88CD",
"V 	c #2B87CC",
"W 	c #2986CC",
"X 	c #2885CB",
"Y 	c #2683CA",
"Z 	c #2581C9",
"` 	c #2A85CA",
" .	c #75B7E2",
"..	c #78B9E2",
"+.	c #2C77B9",
"@.	c #0E3C81",
"#.	c #124485",
"$.	c #134486",
"%.	c #144586",
"&.	c #144587",
"*.	c #144688",
"=.	c #154789",
"-.	c #15488A",
";.	c #16498B",
">.	c #174A8C",
",.	c #174B8C",
"'.	c #2C7CBD",
").	c #3690D1",
"!.	c #3891D2",
"~.	c #3992D2",
"{.	c #3A93D3",
"].	c #3791D1",
"^.	c #3590D1",
"/.	c #338ED0",
"(.	c #328CCF",
"_.	c #62AADC",
":.	c #86C1E6",
"<.	c #448DC7",
"[.	c #0D387D",
"}.	c #134588",
"|.	c #144789",
"1.	c #14478A",
"2.	c #15488B",
"3.	c #15498B",
"4.	c #164A8C",
"5.	c #174B8D",
"6.	c #184C8F",
"7.	c #184D90",
"8.	c #184E90",
"9.	c #2971B3",
"0.	c #3B95D5",
"a.	c #3C95D6",
"b.	c #3C96D6",
"c.	c #3D96D6",
"d.	c #3A94D4",
"e.	c #348FD1",
"f.	c #499BD6",
"g.	c #88C2E7",
"h.	c #4991C8",
"i.	c #0D3479",
"j.	c #14488B",
"k.	c #15498C",
"l.	c #174C8E",
"m.	c #174C8F",
"n.	c #194F91",
"o.	c #1A5091",
"p.	c #1A5092",
"q.	c #2668A9",
"r.	c #3D96D7",
"s.	c #3F98D8",
"t.	c #4099D8",
"u.	c #3E97D7",
"v.	c #3A94D3",
"w.	c #8AC3E8",
"x.	c #4A91CA",
"y.	c #0D3378",
"z.	c #144689",
"A.	c #154A8C",
"B.	c #164B8E",
"C.	c #164C8F",
"D.	c #174D90",
"E.	c #7496BE",
"F.	c #CEDBE9",
"G.	c #AFC6DD",
"H.	c #1B5294",
"I.	c #1B5395",
"J.	c #1C5495",
"K.	c #225F9F",
"L.	c #419AD8",
"M.	c #429BD9",
"N.	c #439CD9",
"O.	c #449CDA",
"P.	c #80BCE6",
"Q.	c #8BC2E8",
"R.	c #88C3E8",
"S.	c #144386",
"T.	c #154C90",
"U.	c #164D90",
"V.	c #174E90",
"W.	c #184F91",
"X.	c #8EAACA",
"Y.	c #D8E4EF",
"Z.	c #1C5596",
"`.	c #1E5797",
" +	c #1E5798",
".+	c #1F599A",
"++	c #4098D6",
"@+	c #449DDA",
"#+	c #469EDB",
"$+	c #479FDC",
"%+	c #47A0DC",
"&+	c #6AB3E3",
"*+	c #D1E8F7",
"=+	c #A3CFED",
"-+	c #409AD8",
";+	c #82BFE6",
">+	c #4B93CB",
",+	c #0E357B",
"'+	c #144184",
")+	c #164E91",
"!+	c #175092",
"~+	c #185093",
"{+	c #185194",
"]+	c #8FABCC",
"^+	c #D8E4F0",
"/+	c #1E5899",
"(+	c #1F599B",
"_+	c #205A9B",
":+	c #215B9C",
"<+	c #3D8FCD",
"[+	c #49A1DD",
"}+	c #4AA1DE",
"|+	c #5AABE2",
"1+	c #B7DBF3",
"2+	c #FDFEFF",
"3+	c #A5D0EE",
"4+	c #80BEE6",
"5+	c #4C94CC",
"6+	c #0E377C",
"7+	c #133F82",
"8+	c #175094",
"9+	c #185195",
"0+	c #185395",
"a+	c #1A5596",
"b+	c #8FADCD",
"c+	c #D8E5F0",
"d+	c #205B9C",
"e+	c #215C9E",
"f+	c #225D9F",
"g+	c #235FA0",
"h+	c #3985C4",
"i+	c #50A6E0",
"j+	c #9DCEEE",
"k+	c #F5FAFE",
"l+	c #A6D2EF",
"m+	c #459EDB",
"n+	c #7EBDE5",
"o+	c #4D95CC",
"p+	c #104187",
"q+	c #133D81",
"r+	c #185296",
"s+	c #185497",
"t+	c #1A5598",
"u+	c #1B5799",
"v+	c #90AECF",
"w+	c #D9E5F0",
"x+	c #215EA0",
"y+	c #235FA1",
"z+	c #2461A2",
"A+	c #2562A3",
"B+	c #347CBB",
"C+	c #81C0E9",
"D+	c #E4F2FB",
"E+	c #A7D2EF",
"F+	c #48A0DC",
"G+	c #459DDA",
"H+	c #7DBDE6",
"I+	c #4E95CC",
"J+	c #0B418B",
"K+	c #10387C",
"L+	c #175497",
"M+	c #1A569A",
"N+	c #1B589B",
"O+	c #1C599B",
"P+	c #91AFD0",
"Q+	c #D9E6F1",
"R+	c #2361A2",
"S+	c #2563A4",
"T+	c #2664A6",
"U+	c #497FB5",
"V+	c #C2D6E8",
"W+	c #A8D3EF",
"X+	c #469FDB",
"Y+	c #439BD9",
"Z+	c #79BAE5",
"`+	c #4A92CA",
" @	c #063E8C",
".@	c #052A73",
"+@	c #033985",
"@@	c #07408A",
"#@	c #0D478F",
"$@	c #124E94",
"%@	c #8CABCD",
"&@	c #DAE6F1",
"*@	c #2464A5",
"=@	c #336FAC",
"-@	c #9FBDD9",
";@	c #FBFCFE",
">@	c #A2CFEE",
",@	c #3A97D9",
"'@	c #3292D6",
")@	c #2B8BD2",
"!@	c #2485CE",
"~@	c #5FAADE",
"{@	c #3986C5",
"]@	c #062F7A",
"^@	c #033B86",
"/@	c #043C88",
"(@	c #053E89",
"_@	c #06408C",
":@	c #84A3C8",
"<@	c #D3E1EF",
"[@	c #0C4A95",
"}@	c #1C589E",
"|@	c #91B1D2",
"1@	c #FAFCFD",
"2@	c #9ACAEC",
"3@	c #2D8ED6",
"4@	c #298BD3",
"5@	c #2687D0",
"6@	c #2283CE",
"7@	c #5AA7DC",
"8@	c #073683",
"9@	c #043D89",
"0@	c #043F8B",
"a@	c #05408C",
"b@	c #06428E",
"c@	c #85A4C9",
"d@	c #D3E2EF",
"e@	c #0C4C97",
"f@	c #0D4E98",
"g@	c #0F509A",
"h@	c #336DAC",
"i@	c #B8CFE4",
"j@	c #2C8ED6",
"k@	c #55A4DB",
"l@	c #093E8C",
"m@	c #05428F",
"n@	c #05418D",
"o@	c #06428F",
"p@	c #064491",
"q@	c #85A5CA",
"r@	c #0C4E9A",
"s@	c #0E519B",
"t@	c #10539E",
"u@	c #11569F",
"v@	c #1358A1",
"w@	c #5E98CC",
"x@	c #DFEFFA",
"y@	c #99C9EC",
"z@	c #2C8DD5",
"A@	c #288AD2",
"B@	c #2586D0",
"C@	c #2283CD",
"D@	c #4FA0D9",
"E@	c #093C8A",
"F@	c #074F9E",
"G@	c #054290",
"H@	c #074793",
"I@	c #85A6CC",
"J@	c #D4E3F0",
"K@	c #0D519D",
"L@	c #0F549F",
"M@	c #1157A1",
"N@	c #1259A3",
"O@	c #145BA5",
"P@	c #1D6BB4",
"Q@	c #3797DC",
"R@	c #8FC6EC",
"S@	c #F3F9FD",
"T@	c #98C9EB",
"U@	c #2B8CD4",
"V@	c #2789D1",
"W@	c #2485CF",
"X@	c #2182CD",
"Y@	c #489BD7",
"Z@	c #3986C4",
"`@	c #093A88",
" #	c #095CAC",
".#	c #054492",
"+#	c #064694",
"@#	c #074996",
"##	c #86A7CD",
"$#	c #0E549F",
"%#	c #1057A1",
"&#	c #1159A3",
"*#	c #135BA6",
"=#	c #155EA8",
"-#	c #1864AD",
";#	c #3092D9",
">#	c #3294DA",
",#	c #449EDE",
"'#	c #ACD5F1",
")#	c #97C8EB",
"!#	c #2384CE",
"~#	c #2080CC",
"{#	c #3E94D4",
"]#	c #3885C4",
"^#	c #063D8B",
"/#	c #083784",
"(#	c #0A64B6",
"_#	c #064997",
":#	c #064896",
"<#	c #084B98",
"[#	c #86A8CE",
"}#	c #D4E4F1",
"|#	c #0F57A2",
"1#	c #1059A4",
"2#	c #125BA7",
"3#	c #145DA8",
"4#	c #1560AA",
"5#	c #1662AC",
"6#	c #2B8AD2",
"7#	c #2F90D7",
"8#	c #3091D8",
"9#	c #55A6DF",
"0#	c #CBE4F6",
"a#	c #96C7EA",
"b#	c #2788D1",
"c#	c #1E7FCB",
"d#	c #338CD0",
"e#	c #3785C3",
"f#	c #08327F",
"g#	c #0A63B6",
"h#	c #0854A3",
"i#	c #064A98",
"j#	c #084D9B",
"k#	c #6895C4",
"l#	c #C5D8EA",
"m#	c #A5C4E0",
"n#	c #0F58A5",
"o#	c #115BA7",
"p#	c #125DA9",
"q#	c #1460AB",
"r#	c #1562AC",
"s#	c #1764AE",
"t#	c #2580C9",
"u#	c #2B8DD5",
"v#	c #2A8CD4",
"w#	c #6EB2E2",
"x#	c #7BB7E4",
"y#	c #2486D0",
"z#	c #1F80CB",
"A#	c #1D7DC9",
"B#	c #2683CB",
"C#	c #3683C3",
"D#	c #053C8A",
"E#	c #082D7A",
"F#	c #0960B3",
"G#	c #095DAE",
"H#	c #064C9A",
"I#	c #084E9D",
"J#	c #09509F",
"K#	c #0B53A1",
"L#	c #0C56A3",
"M#	c #0D58A5",
"N#	c #0F5AA7",
"O#	c #115CA9",
"P#	c #125EAA",
"Q#	c #1461AD",
"R#	c #1563AF",
"S#	c #1665B1",
"T#	c #2078C2",
"U#	c #1D7ECA",
"V#	c #1B7BC8",
"W#	c #1A7AC6",
"X#	c #3381C1",
"Y#	c #053B89",
"Z#	c #082C79",
"`#	c #0855A6",
" $	c #0A63B5",
".$	c #08509F",
"+$	c #0952A0",
"@$	c #0B55A3",
"#$	c #0C57A5",
"$$	c #0D5AA7",
"%$	c #0F5CA9",
"&$	c #115EAB",
"*$	c #1261AD",
"=$	c #1363AF",
"-$	c #1564B1",
";$	c #1666B2",
">$	c #1B71BC",
",$	c #1F7FCB",
"'$	c #1979C6",
")$	c #1776C4",
"!$	c #2477BC",
"~$	c #043A88",
"{$	c #072B76",
"]$	c #08418F",
"^$	c #085EB0",
"/$	c #0753A3",
"($	c #0851A0",
"_$	c #0A54A2",
":$	c #0B57A5",
"<$	c #0C58A7",
"[$	c #0E5BA9",
"}$	c #0F5EAB",
"|$	c #1161AD",
"1$	c #1363B0",
"2$	c #1466B2",
"3$	c #1568B4",
"4$	c #186CB9",
"5$	c #2081CC",
"6$	c #1C7DC9",
"7$	c #166BB6",
"8$	c #033886",
"9$	c #062770",
"0$	c #062973",
"a$	c #064C9D",
"b$	c #064E9E",
"c$	c #054694",
"d$	c #074A98",
"e$	c #084C99",
"f$	c #084C98",
"g$	c #094D9A",
"h$	c #0A4F9B",
"i$	c #0B509C",
"j$	c #0C519E",
"k$	c #0D539F",
"l$	c #0E55A1",
"m$	c #0E58A3",
"n$	c #1467B3",
"o$	c #1668B4",
"p$	c #1569B5",
"q$	c #1569B6",
"r$	c #1469B7",
"s$	c #1369B7",
"t$	c #1168B6",
"u$	c #0B5AA7",
"v$	c #013784",
"w$	c #05246E",
"x$	c #06246C",
"y$	c #062B75",
"z$	c #054594",
"A$	c #04408E",
"B$	c #04418E",
"C$	c #054390",
"D$	c #064490",
"E$	c #074591",
"F$	c #074693",
"G$	c #084794",
"H$	c #084894",
"I$	c #094996",
"J$	c #0A4B96",
"K$	c #0A4B97",
"L$	c #0D529F",
"M$	c #0D54A1",
"N$	c #0C529D",
"O$	c #0C519D",
"P$	c #0C509D",
"Q$	c #0B509D",
"R$	c #0B4F9C",
"S$	c #0A4F9A",
"T$	c #0A4D9A",
"U$	c #094D99",
"V$	c #043E89",
"W$	c #002F78",
"X$	c #032F7A",
"Y$	c #052067",
"Z$	c #052168",
"`$	c #05256E",
" %	c #04337E",
".%	c #033A87",
"+%	c #033C88",
"@%	c #053D88",
"#%	c #053E8A",
"$%	c #06408A",
"%%	c #06418C",
"&%	c #07418C",
"*%	c #084591",
"=%	c #094793",
"-%	c #094692",
";%	c #084590",
">%	c #08448F",
",%	c #07448F",
"'%	c #07438F",
")%	c #07438E",
"!%	c #06428D",
"~%	c #053F8C",
"{%	c #013079",
"]%	c #00307A",
"^%	c #022C76",
"/%	c #042168",
"(%	c #051E64",
"_%	c #051D63",
":%	c #042269",
"<%	c #032D76",
"[%	c #02347F",
"}%	c #03357F",
"|%	c #033680",
"1%	c #033681",
"2%	c #033781",
"3%	c #043782",
"4%	c #043882",
"5%	c #053984",
"6%	c #053B86",
"7%	c #053A85",
"8%	c #043983",
"9%	c #01327B",
"0%	c #002E77",
"a%	c #012F79",
"b%	c #012D76",
"c%	c #022B75",
"d%	c #022972",
"e%	c #022A73",
"f%	c #012E78",
"g%	c #02307A",
"h%	c #02317A",
"i%	c #02327B",
"j%	c #02337C",
"k%	c #02337D",
"l%	c #02327C",
"m%	c #023179",
"n%	c #023078",
"o%	c #013179",
"p%	c #012F77",
". . + @ # # # # # # # # # # # # # # # # # # # # # # # # @ + . . ",
". $ # % & * * = = = - - ; > , ' ) ! ~ ~ ~ { ] ^ / ( _ : < # $ . ",
"+ # [ } | | 1 } 2 3 4 5 * 6 7 8 9 0 a a a a 0 b c d e f g h # + ",
"@ # 3 } i 3 4 5 * * = - j k a l m n o o o o n m l p q r s t < @ ",
"# u 4 v * * = w - j x y z A n B C C D D D D C C B o E F G H I # ",
"# J K L L L K M M N N O P P Q R S T T T U R V W X Y Z `  ...+.# ",
"# @.#.$.%.&.*.=.-.-.;.>.,.,.'.).!.~.{.{.{.{.~.!.].^./.(._.:.<.# ",
"# [.}.*.|.1.2.3.4.,.5.6.7.8.9.{.0.a.b.c.c.b.a.0.d.~.).e.f.g.h.# ",
"# i.1.j.3.k.4.l.m.7.8.n.o.p.q.a.r.s.t.t.t.t.s.u.b.0.{.].v.w.x.# ",
"# y.z.A.B.C.D.E.F.F.G.H.I.J.K.s.L.M.N.O.O.O.N.P.Q.r.a.{.!.R.x.# ",
"# i.S.T.U.V.W.X.. . Y.Z.`. +.+++@+#+$+%+%+&+*+. =+-+u.a.{.;+>+# ",
"# ,+'+)+!+~+{+]+. . ^+/+(+_+:+<+%+[+}+|+1+2+. . 3+N.-+u.0.4+5+# ",
"# 6+7+8+9+0+a+b+. . c+d+e+f+g+h+}+i+j+k+. . . . l+m+N.t.a.n+o+# ",
"# p+q+r+s+t+u+v+. . w+x+y+z+A+B+C+D+. . . . . . E+F+G+L.u.H+I+# ",
"# J+K+L+M+N+O+P+. . Q+R+S+T+U+V+. . . . . . . . W+[+X+Y+s.Z+`+# ",
"#  @.@+@@@#@$@%@. . &@*@=@-@;@. . . . . . . . . >@,@'@)@!@~@{@# ",
"#  @]@^@/@(@_@:@. . <@[@}@|@1@. . . . . . . . . 2@3@4@5@6@7@{@# ",
"#  @8@9@0@a@b@c@. . d@e@f@g@h@i@. . . . . . . . 2@j@4@5@6@k@{@# ",
"#  @l@m@n@o@p@q@. . d@r@s@t@u@v@w@x@. . . . . . y@z@A@B@C@D@{@# ",
"#  @E@F@G@p@H@I@. . J@K@L@M@N@O@P@Q@R@S@. . . . T@U@V@W@X@Y@Z@# ",
"#  @`@ #.#+#@###. . J@$#%#&#*#=#-#;#>#,#'#2+. . )#4@5@!#~#{#]## ",
"# ^#/#(#_#:#<#[#. . }#|#1#2#3#4#5#6#7#8#8#9#0#. a#b#W@X@c#d#e## ",
"# ^#f#g#h#i#j#k#l#l#m#n#o#p#q#r#s#t#U@u#z@u#v#w#x#y#6@z#A#B#C## ",
"# D#E#F#G#H#I#J#K#L#M#N#O#P#Q#R#S#T#V@A@A@A@b#5@W@6@~#U#V#W#X## ",
"# Y#Z#`# $F@.$+$@$#$$$%$&$*$=$-$;$>$W@B@B@B@W@6@X@,$U#V#'$)$!$# ",
"# ~${$]$^$/$F@($_$:$<$[$}$|$1$2$3$4$X@X@X@X@5$~#c#6$V#'$)$C 7$# ",
"# 8$9$0$a$b$c$:#d$e$f$g$h$i$j$k$l$m$n$o$o$3$p$q$q$r$s$s$t$t$u$# ",
"# v$w$x$y$z$A$B$C$D$D$E$F$G$H$I$J$K$L$M$k$N$O$P$Q$R$S$T$U$<#V$# ",
"@ W$X$Y$Z$`$ %.%+%9@/@@%(@#%$%_@%%&%*%=%-%;%>%,%'%)%)%!%a@~%{%@ ",
"+ # ]%^%/%(%_%:%<%[%[%}%|%1%2%3%4%4%5%6%7%8%8%4%4%4%3%2%2%9%# + ",
". $ # 0%a%b%c%d%d%e%f%{%g%h%h%h%i%i%j%k%l%h%h%h%h%m%n%o%p%# $ . ",
". . + @ # # # # # # # # # # # # # # # # # # # # # # # # @ + . . "};
