/* XPM */
static char * hover_skip_backward_xpm[] = {
"32 32 628 2",
"  	c None",
". 	c #FFFFFF",
"+ 	c #80C6E1",
"@ 	c #1093C7",
"# 	c #008CC3",
"$ 	c #30A2CE",
"% 	c #028BC3",
"& 	c #0884BF",
"* 	c #0A7FBB",
"= 	c #0D80BB",
"- 	c #1081BC",
"; 	c #1181BC",
"> 	c #1381BC",
", 	c #1481BC",
"' 	c #1682BD",
") 	c #1783BD",
"! 	c #3AA2D2",
"~ 	c #4DB3DE",
"{ 	c #4EB3DF",
"] 	c #50B4DF",
"^ 	c #51B4DF",
"/ 	c #51B5DF",
"( 	c #52B5DF",
"_ 	c #58B7E1",
": 	c #75C1E5",
"< 	c #80C6E6",
"[ 	c #7DC5E5",
"} 	c #77C3E4",
"| 	c #61BAE0",
"1 	c #36A7D5",
"2 	c #0B91C7",
"3 	c #0589C2",
"4 	c #0A7DB9",
"5 	c #0B7CB8",
"6 	c #0C7CB8",
"7 	c #0F7DB9",
"8 	c #107DB9",
"9 	c #127EBA",
"0 	c #147EBA",
"a 	c #157EBB",
"b 	c #177FBB",
"c 	c #1980BB",
"d 	c #399CCF",
"e 	c #5DBCE5",
"f 	c #5FBDE5",
"g 	c #60BEE5",
"h 	c #61BEE6",
"i 	c #63BFE6",
"j 	c #74C5E8",
"k 	c #9AD3EE",
"l 	c #BAE0F3",
"m 	c #BBE0F2",
"n 	c #B6DEF1",
"o 	c #82C9E9",
"p 	c #1998CC",
"q 	c #0A7EBA",
"r 	c #0D7DB9",
"s 	c #0F7DBA",
"t 	c #117EBA",
"u 	c #137FBB",
"v 	c #157FBB",
"w 	c #1680BB",
"x 	c #1880BB",
"y 	c #1A81BC",
"z 	c #1C82BD",
"A 	c #1D83BD",
"B 	c #3294C9",
"C 	c #62BFE6",
"D 	c #64BFE7",
"E 	c #65C0E7",
"F 	c #66C0E7",
"G 	c #68C1E7",
"H 	c #72C4E8",
"I 	c #AAD9F1",
"J 	c #BCE0F3",
"K 	c #84CAE9",
"L 	c #0C91C7",
"M 	c #0986C0",
"N 	c #0E7EBB",
"O 	c #117FBB",
"P 	c #1380BB",
"Q 	c #1580BB",
"R 	c #1781BC",
"S 	c #1982BC",
"T 	c #1B83BD",
"U 	c #1F84BE",
"V 	c #2185BE",
"W 	c #2386BF",
"X 	c #2B8CC3",
"Y 	c #67C0E7",
"Z 	c #69C1E8",
"` 	c #6BC2E8",
" .	c #6CC2E8",
"..	c #6DC3E9",
"+.	c #67C1E7",
"@.	c #68C1E8",
"#.	c #A7D9F0",
"$.	c #B8DFF2",
"%.	c #38A7D6",
"&.	c #509BC9",
"*.	c #649FCB",
"=.	c #639FCB",
"-.	c #629FCB",
";.	c #619FCB",
">.	c #609FCB",
",.	c #85C8E9",
"'.	c #89CDED",
").	c #8ACDED",
"!.	c #8ACEED",
"~.	c #89CDEC",
"{.	c #87CCEC",
"].	c #86CCEC",
"^.	c #84CBEC",
"/.	c #82CAEB",
"(.	c #80C9EB",
"_.	c #85CBEB",
":.	c #C3E3F5",
"<.	c #C5E4F5",
"[.	c #71C0E3",
"}.	c #589AC9",
"|.	c #66A1CC",
"1.	c #67A1CC",
"2.	c #68A2CC",
"3.	c #69A2CC",
"4.	c #6AA3CD",
"5.	c #6BA4CE",
"6.	c #6CA4CE",
"7.	c #6DA5CE",
"8.	c #6EA6CF",
"9.	c #6FA7CF",
"0.	c #8AC5E6",
"a.	c #95D1EE",
"b.	c #96D2EE",
"c.	c #97D2EF",
"d.	c #98D3EF",
"e.	c #97D2EE",
"f.	c #94D1EE",
"g.	c #92D0EE",
"h.	c #91CFED",
"i.	c #B3DDF2",
"j.	c #CCE8F6",
"k.	c #94CDE9",
"l.	c #5796C7",
"m.	c #68A2CD",
"n.	c #69A3CD",
"o.	c #69A4CE",
"p.	c #6AA4CE",
"q.	c #6CA5CE",
"r.	c #6DA6CF",
"s.	c #6EA7CF",
"t.	c #6FA7D0",
"u.	c #70A8D0",
"v.	c #71A8D1",
"w.	c #71A9D1",
"x.	c #86BFE1",
"y.	c #9AD4EF",
"z.	c #9AD4F0",
"A.	c #9BD4F0",
"B.	c #93D1EE",
"C.	c #A2D6F0",
"D.	c #CDE8F7",
"E.	c #97CFEA",
"F.	c #5792C5",
"G.	c #6BA5CE",
"H.	c #6CA5CF",
"I.	c #6EA8D0",
"J.	c #6FA8D0",
"K.	c #70A8D1",
"L.	c #72AAD2",
"M.	c #73ABD2",
"N.	c #74ABD2",
"O.	c #82BADD",
"P.	c #9CD4F0",
"Q.	c #9DD5F1",
"R.	c #9ED6F1",
"S.	c #CEE9F7",
"T.	c #98CFEA",
"U.	c #5791C4",
"V.	c #69A2CD",
"W.	c #6BA6CF",
"X.	c #6DA7D0",
"Y.	c #6DA8D0",
"Z.	c #6EA8D1",
"`.	c #ADCDE4",
" +	c #E6EFF6",
".+	c #D7E6F2",
"++	c #74ACD3",
"@+	c #75ADD4",
"#+	c #76ADD4",
"$+	c #7DB4D8",
"%+	c #9FD6F1",
"&+	c #A0D6F1",
"*+	c #A0D7F1",
"=+	c #A1D7F1",
"-+	c #C1E5F6",
";+	c #C6E6F7",
">+	c #CCE8F7",
",+	c #5892C5",
"'+	c #68A0CC",
")+	c #6CA8D1",
"!+	c #6DA8D1",
"~+	c #6FA9D1",
"{+	c #70AAD2",
"]+	c #BBD7EA",
"^+	c #EDF4F9",
"/+	c #76AED4",
"(+	c #78AFD5",
"_+	c #79AFD5",
":+	c #7AB1D6",
"<+	c #9ED5F0",
"[+	c #A3D8F2",
"}+	c #A3D9F2",
"|+	c #A4D9F2",
"1+	c #B7E1F5",
"2+	c #EAF6FC",
"3+	c #D1ECF8",
"4+	c #9CD5F1",
"5+	c #C9E7F6",
"6+	c #9AD0EB",
"7+	c #5893C6",
"8+	c #689DCB",
"9+	c #6DA9D2",
"0+	c #6FABD2",
"a+	c #70ABD2",
"b+	c #71ACD3",
"c+	c #BCD7EA",
"d+	c #79B0D6",
"e+	c #7CB2D6",
"f+	c #7DB3D7",
"g+	c #9AD0EC",
"h+	c #A5D9F3",
"i+	c #A6DAF3",
"j+	c #AFDEF4",
"k+	c #DDF1FB",
"l+	c #FEFFFF",
"m+	c #D3ECF9",
"n+	c #C8E6F6",
"o+	c #5995C7",
"p+	c #679CCA",
"q+	c #6FABD3",
"r+	c #71ACD4",
"s+	c #71ADD4",
"t+	c #73AED4",
"u+	c #BDD8EB",
"v+	c #7BB2D7",
"w+	c #7DB3D8",
"x+	c #7EB4D8",
"y+	c #80B5D9",
"z+	c #95CAE8",
"A+	c #AADCF4",
"B+	c #D1ECF9",
"C+	c #FBFDFF",
"D+	c #D4EDF9",
"E+	c #A2D8F2",
"F+	c #C6E6F6",
"G+	c #9CD1EB",
"H+	c #5D9BCC",
"I+	c #679AC9",
"J+	c #70ADD4",
"K+	c #71AED4",
"L+	c #73AED5",
"M+	c #75AFD6",
"N+	c #BED9EC",
"O+	c #EEF5FA",
"P+	c #7DB4D9",
"Q+	c #7FB5D9",
"R+	c #81B6DA",
"S+	c #83B7DA",
"T+	c #92C6E5",
"U+	c #C4E6F7",
"V+	c #F3FAFE",
"W+	c #C5E5F6",
"X+	c #509CCE",
"Y+	c #5D94C7",
"Z+	c #6FADD5",
"`+	c #73AFD6",
" @	c #74B0D6",
".@	c #76B1D6",
"+@	c #BFDAEC",
"@@	c #7FB6DA",
"#@	c #82B8DB",
"$@	c #84B8DC",
"%@	c #9BC5E2",
"&@	c #E0EDF6",
"*@	c #D5EEF9",
"=@	c #C2E4F6",
"-@	c #97CFEB",
";@	c #429ACE",
">@	c #3C87C1",
",@	c #3797CB",
"'@	c #449DCE",
")@	c #53A3D0",
"!@	c #5FA8D3",
"~@	c #B7D7EB",
"{@	c #81B8DC",
"]@	c #8DBEDF",
"^@	c #CCE2F1",
"/@	c #FDFEFF",
"(@	c #D0ECF9",
"_@	c #97D5F1",
":@	c #91D2F0",
"<@	c #89CFEF",
"[@	c #81CBED",
"}@	c #B0DDF3",
"|@	c #87C9E8",
"1@	c #428DC5",
"2@	c #389ACC",
"3@	c #3B9BCD",
"4@	c #409CCE",
"5@	c #449ECF",
"6@	c #A8D1E8",
"7@	c #EAF3F9",
"8@	c #57A6D3",
"9@	c #67AED7",
"0@	c #BCDBED",
"a@	c #FDFEFE",
"b@	c #C9E9F8",
"c@	c #8BD0F0",
"d@	c #87CEEF",
"e@	c #83CCEE",
"f@	c #7FCAED",
"g@	c #ADDCF2",
"h@	c #4A95CA",
"i@	c #3A9CCE",
"j@	c #3D9DCE",
"k@	c #429ECF",
"l@	c #45A0D0",
"m@	c #A9D2E9",
"n@	c #57A7D4",
"o@	c #5BA9D6",
"p@	c #5EABD6",
"q@	c #7DBBDE",
"r@	c #D6E9F5",
"s@	c #AADAF2",
"t@	c #509ACE",
"u@	c #3D9FD0",
"v@	c #3F9FD0",
"w@	c #43A0D0",
"x@	c #47A1D2",
"y@	c #A9D3EA",
"z@	c #59A9D6",
"A@	c #5DABD7",
"B@	c #61ADD8",
"C@	c #64AFD9",
"D@	c #68B0DA",
"E@	c #A2D1EB",
"F@	c #F0F9FE",
"G@	c #8AD0EF",
"H@	c #86CEEF",
"I@	c #82CCEE",
"J@	c #A4D8F1",
"K@	c #4F99CD",
"L@	c #46A9D8",
"M@	c #40A0D1",
"N@	c #45A1D2",
"O@	c #49A4D2",
"P@	c #AAD4EA",
"Q@	c #5BACD7",
"R@	c #5FAED8",
"S@	c #63AFD9",
"T@	c #66B1DA",
"U@	c #69B2DB",
"V@	c #76BCE2",
"W@	c #95D4F2",
"X@	c #C6E8F8",
"Y@	c #FAFDFF",
"Z@	c #C8E9F8",
"`@	c #86CDEE",
" #	c #81CBEE",
".#	c #7DCAEC",
"+#	c #9DD6F0",
"@#	c #419ACE",
"##	c #4F97CC",
"$#	c #4EB2DE",
"%#	c #42A1D2",
"&#	c #46A3D3",
"*#	c #4AA5D4",
"=#	c #ABD5EB",
"-#	c #EAF4FA",
";#	c #5DADD9",
">#	c #61AFDA",
",#	c #64B1DA",
"'#	c #68B2DC",
")#	c #6BB4DD",
"!#	c #70B8DF",
"~#	c #8FD2F1",
"{#	c #91D3F2",
"]#	c #9DD7F3",
"^#	c #D5EEFA",
"/#	c #C7E8F8",
"(#	c #84CCEE",
"_#	c #80CBED",
":#	c #7BC9EC",
"<#	c #96D3EF",
"[#	c #86C8E8",
"}#	c #4E95CB",
"|#	c #53B8E3",
"1#	c #44A5D5",
"2#	c #46A5D4",
"3#	c #4BA7D5",
"4#	c #5EAFDA",
"5#	c #62B1DB",
"6#	c #65B2DC",
"7#	c #68B4DC",
"8#	c #6BB6DE",
"9#	c #6EB7DE",
"0#	c #89CEEE",
"a#	c #8ED1F1",
"b#	c #A5DBF3",
"c#	c #E5F4FC",
"d#	c #C5E8F7",
"e#	c #85CDEE",
"f#	c #81CCEE",
"g#	c #7ECAEC",
"h#	c #79C8EC",
"i#	c #8BCFEE",
"j#	c #85C8E8",
"k#	c #3F99CE",
"l#	c #4D91C8",
"m#	c #51B8E3",
"n#	c #4AADDA",
"o#	c #47A6D5",
"p#	c #4CA8D6",
"q#	c #98CDE7",
"r#	c #DBEDF7",
"s#	c #DCEDF7",
"t#	c #CCE5F3",
"u#	c #5EB0DB",
"v#	c #62B2DC",
"w#	c #65B4DD",
"x#	c #69B5DE",
"y#	c #6BB7DF",
"z#	c #6EB8E0",
"A#	c #81C9EB",
"B#	c #89D0EF",
"C#	c #B1DFF4",
"D#	c #7ECAED",
"E#	c #77C7EB",
"F#	c #80CAEC",
"G#	c #84C8E8",
"H#	c #3E99CD",
"I#	c #4C8CC5",
"J#	c #4FB6E1",
"K#	c #4FB3DF",
"L#	c #47A8D6",
"M#	c #4CA9D7",
"N#	c #50ABD8",
"O#	c #54ADDA",
"P#	c #57AFDA",
"Q#	c #5BB0DB",
"R#	c #5FB2DC",
"S#	c #62B3DD",
"T#	c #65B5DE",
"U#	c #68B6DF",
"V#	c #6BB8E0",
"W#	c #6EB9E1",
"X#	c #7AC4E8",
"Y#	c #78C7EB",
"Z#	c #75C6EA",
"`#	c #73C5EA",
" $	c #81C7E7",
".$	c #3C98CD",
"+$	c #4B8BC5",
"@$	c #4DADDB",
"#$	c #52B8E3",
"$$	c #48A9D8",
"%$	c #4BABD8",
"&$	c #50ACD9",
"*$	c #53AEDA",
"=$	c #58AFDB",
"-$	c #5BB2DC",
";$	c #5EB3DD",
">$	c #62B5DE",
",$	c #65B6DF",
"'$	c #68B8E0",
")$	c #6DBAE1",
"!$	c #74C0E6",
"~$	c #7AC8EC",
"{$	c #72C5E9",
"]$	c #6EC3E9",
"^$	c #3897CD",
"/$	c #4889C4",
"($	c #4A9CD0",
"_$	c #4DB5E1",
":$	c #49ADDB",
"<$	c #49AAD8",
"[$	c #4DACD9",
"}$	c #51ADDA",
"|$	c #55AFDB",
"1$	c #59B1DC",
"2$	c #5CB2DD",
"3$	c #60B4DE",
"4$	c #64B6DF",
"5$	c #66B8E0",
"6$	c #69BAE2",
"7$	c #6CBBE2",
"8$	c #6FBDE4",
"9$	c #7CC9EC",
"0$	c #74C6EA",
"a$	c #71C5E9",
"b$	c #6EC4E9",
"c$	c #64BBE3",
"d$	c #2D96CB",
"e$	c #4485C0",
"f$	c #4787C1",
"g$	c #44A7D7",
"h$	c #44A9D8",
"i$	c #41A3D3",
"j$	c #44A5D4",
"k$	c #48A6D5",
"l$	c #4BA7D6",
"m$	c #4DA7D5",
"n$	c #50A8D6",
"o$	c #52AAD7",
"p$	c #54ABD7",
"q$	c #57ABD8",
"r$	c #59ADD8",
"s$	c #5CAFDA",
"t$	c #5EB0DA",
"u$	c #6ABAE2",
"v$	c #6BBBE2",
"w$	c #6ABBE3",
"x$	c #69BBE3",
"y$	c #67BBE3",
"z$	c #65BBE3",
"A$	c #61BBE3",
"B$	c #4CB0DC",
"C$	c #1A96CB",
"D$	c #4081BE",
"E$	c #4381BD",
"F$	c #4388C2",
"G$	c #3FA2D3",
"H$	c #3A9ED0",
"I$	c #43A1D1",
"J$	c #44A1D1",
"K$	c #47A2D2",
"L$	c #4AA3D3",
"M$	c #4CA4D3",
"N$	c #4EA5D3",
"O$	c #4FA5D4",
"P$	c #51A7D4",
"Q$	c #52A7D4",
"R$	c #5BAED9",
"S$	c #5AADD8",
"T$	c #59ACD7",
"U$	c #58ABD7",
"V$	c #57ABD7",
"W$	c #56ABD7",
"X$	c #54AAD7",
"Y$	c #52AAD6",
"Z$	c #51A9D6",
"`$	c #4EA8D6",
" %	c #4CA7D5",
".%	c #2B9BCD",
"+%	c #048EC5",
"@%	c #2F8DC5",
"#%	c #407CBA",
"$%	c #427DBB",
"%%	c #4281BE",
"&%	c #3891C8",
"*%	c #3599CD",
"=%	c #389ACD",
"-%	c #3B9BCE",
";%	c #3B9ACD",
">%	c #3E9BCD",
",%	c #429DCE",
"'%	c #449ECE",
")%	c #469ECF",
"!%	c #469FCF",
"~%	c #479FCF",
"{%	c #4BA2D2",
"]%	c #4DA4D3",
"^%	c #4CA3D2",
"/%	c #4BA2D1",
"(%	c #4AA1D1",
"_%	c #49A1D1",
":%	c #47A0D0",
"<%	c #46A0D0",
"[%	c #459FD0",
"}%	c #439ECF",
"|%	c #3E9DCF",
"1%	c #0A8FC5",
"2%	c #0B8FC6",
"3%	c #2B8AC3",
"4%	c #3A7CBB",
"5%	c #3F79B8",
"6%	c #4078B8",
"7%	c #3C7EBB",
"8%	c #368AC3",
"9%	c #3293C8",
"0%	c #3193C8",
"a%	c #3493C8",
"b%	c #3694C9",
"c%	c #3895C9",
"d%	c #3896C9",
"e%	c #3A96CA",
"f%	c #3C97CA",
"g%	c #3E98CB",
"h%	c #419ACC",
"i%	c #4099CC",
"j%	c #3E97CB",
"k%	c #3D97CA",
"l%	c #3B97CA",
"m%	c #3996CA",
"n%	c #3595C9",
"o%	c #1390C6",
"p%	c #058DC4",
"q%	c #148EC5",
"r%	c #1F8BC4",
"s%	c #2889C2",
"t%	c #2987C0",
"u%	c #2C87C0",
"v%	c #2D88C1",
"w%	c #288DC4",
"x%	c #288FC5",
"y%	c #2A8FC5",
"z%	c #2B90C5",
"A%	c #2D90C6",
"B%	c #2E90C6",
"C%	c #2F91C6",
"D%	c #3092C6",
"E%	c #3192C7",
"F%	c #3091C7",
"G%	c #2F90C6",
"H%	c #2D8FC5",
"I%	c #268EC5",
"J%	c #1D90C5",
"K%	c #088EC4",
". . + @ # # # # # # # # # # # # # # # # # # # # # # # # @ + . . ",
". $ # % & * = - ; > , ' ) ! ~ { ] ^ / ( ( _ : < [ } | 1 2 # $ . ",
"+ # 3 4 5 6 7 8 9 0 a b c d e f g h i i i i h j k l m n o p # + ",
"@ % q r s t u v w x y z A B C D E F G G G G F E D H I J m K L @ ",
"# M N O P Q R S T A U V W X Y Z `  ......... .` Z +.@.#.J $.%.# ",
"# &.*.*.*.=.=.=.-.-.-.-.;.>.,.'.'.).!.).).~.{.].^./.(._.:.<.[.# ",
"# }.|.1.2.3.4.5.6.6.7.8.9.9.0.a.b.c.d.d.d.d.c.e.b.f.g.h.i.j.k.# ",
"# l.m.n.o.p.5.q.r.s.t.u.v.w.x.d.y.z.A.A.A.A.A.y.d.c.a.B.C.D.E.# ",
"# F.o.p.G.H.r.I.J.K.w.L.M.N.O.A.P.Q.R.R.R.R.Q.Q.A.y.d.b.d.S.T.# ",
"# U.V.W.X.Y.Z.`. + +.+++@+#+$+Q.%+&+*+=+=+=+*+-+;+P.z.d.b.>+T.# ",
"# ,+'+)+!+~+{+]+. . ^+/+(+_+:+<+=+[+}+|+|+1+2+. 3+R.4+z.d.5+6+# ",
"# 7+8+9+0+a+b+c+. . ^+d+:+e+f+g+|+h+i+j+k+l+. . m+=+R.P.y.n+6+# ",
"# o+p+q+r+s+t+u+. . ^+v+w+x+y+z+i+A+B+C+. . . . D+E+*+R.A.F+G+# ",
"# H+I+J+K+L+M+N+. . O+P+Q+R+S+T+U+V+. . . . . . D+|+E+%+Q.W+G+# ",
"# X+Y+Z+`+ @.@+@. . O+@@#@$@%@&@. . . . . . . . *@h+[+*+Q.=@-@# ",
"# ;@>@,@'@)@!@~@. . O+{@]@^@/@. . . . . . . . . (@_@:@<@[@}@|@# ",
"# ;@1@2@3@4@5@6@. . 7@8@9@0@a@. . . . . . . . . b@c@d@e@f@g@|@# ",
"# ;@h@i@j@k@l@m@. . 7@n@o@p@q@r@. . . . . . . . b@c@d@e@f@s@|@# ",
"# ;@t@u@v@w@x@y@. . 7@z@A@B@C@D@E@F@. . . . . . b@G@H@I@f@J@|@# ",
"# ;@K@L@M@N@O@P@. . 7@Q@R@S@T@U@V@W@X@Y@. . . . Z@<@`@ #.#+#|@# ",
"# @###$#%#&#*#=#. . -#;#>#,#'#)#!#~#{#]#^#l+. . /#d@(#_#:#<#[## ",
"# @#}#|#1#2#3#=#. . -#4#5#6#7#8#9#0#a#~#~#b#c#. d#e#f#g#h#i#j## ",
"# k#l#m#n#o#p#q#r#s#t#u#v#w#x#y#z#A#<@G@G@B#<@C#1+I@D#:#E#F#G## ",
"# H#I#J#K#L#M#N#O#P#Q#R#S#T#U#V#W#X#`@H@H@H@e#e@ #D#:#Y#Z#`# $# ",
"# .$+$@$#$$$%$&$*$=$-$;$>$,$'$V#)$!$f#I@I@I@ #f@.#~$Y#Z#{$]$: # ",
"# ^$/$($_$:$<$[$}$|$1$2$3$4$5$6$7$8$.#g#g#.#9$:#h#E#0$a$b$` c$# ",
"# d$e$f$g$h$i$j$k$l$m$n$o$p$q$r$s$t$u$v$v$v$w$w$w$x$y$z$c$A$B$# ",
"# C$D$E$F$G$H$u@M@I$J$K$L$M$N$O$P$Q$r$R$S$T$U$V$W$X$Y$Z$`$ %.%# ",
"@ +%@%#%$%%%&%*%=%-%;%>%4@,%'%)%!%~%{%]%^%/%(%_%_%:%<%[%}%|%1%@ ",
"+ # 2%3%4%5%6%7%8%9%0%a%b%c%d%e%f%f%g%h%i%j%k%f%f%l%m%c%n%o%# + ",
". $ # p%q%r%s%t%u%v%w%x%y%z%A%B%C%C%D%E%F%G%G%G%B%H%I%J%K%# $ . ",
". . + @ # # # # # # # # # # # # # # # # # # # # # # # # @ + . . "};
