/* XPM */
static char * hover_play_xpm[] = {
"32 32 592 2",
"  	c None",
". 	c #FFFFFF",
"+ 	c #80C6E1",
"@ 	c #1093C7",
"# 	c #008CC3",
"$ 	c #30A2CE",
"% 	c #028BC3",
"& 	c #0884BF",
"* 	c #0A7FBB",
"= 	c #0D80BB",
"- 	c #1081BC",
"; 	c #1181BC",
"> 	c #1381BC",
", 	c #1481BC",
"' 	c #1682BD",
") 	c #1783BD",
"! 	c #3AA2D2",
"~ 	c #4DB3DE",
"{ 	c #4EB3DF",
"] 	c #50B4DF",
"^ 	c #51B4DF",
"/ 	c #51B5DF",
"( 	c #52B5DF",
"_ 	c #58B7E1",
": 	c #75C1E5",
"< 	c #80C6E6",
"[ 	c #7DC5E5",
"} 	c #77C3E4",
"| 	c #61BAE0",
"1 	c #36A7D5",
"2 	c #0B91C7",
"3 	c #0589C2",
"4 	c #0A7DB9",
"5 	c #0B7CB8",
"6 	c #0C7CB8",
"7 	c #0F7DB9",
"8 	c #107DB9",
"9 	c #127EBA",
"0 	c #147EBA",
"a 	c #157EBB",
"b 	c #177FBB",
"c 	c #1980BB",
"d 	c #399CCF",
"e 	c #5DBCE5",
"f 	c #5FBDE5",
"g 	c #60BEE5",
"h 	c #61BEE6",
"i 	c #63BFE6",
"j 	c #74C5E8",
"k 	c #9AD3EE",
"l 	c #BAE0F3",
"m 	c #BBE0F2",
"n 	c #B6DEF1",
"o 	c #82C9E9",
"p 	c #1998CC",
"q 	c #0A7EBA",
"r 	c #0D7DB9",
"s 	c #0F7DBA",
"t 	c #117EBA",
"u 	c #137FBB",
"v 	c #157FBB",
"w 	c #1680BB",
"x 	c #1880BB",
"y 	c #1A81BC",
"z 	c #1C82BD",
"A 	c #1D83BD",
"B 	c #3294C9",
"C 	c #62BFE6",
"D 	c #64BFE7",
"E 	c #65C0E7",
"F 	c #66C0E7",
"G 	c #68C1E7",
"H 	c #72C4E8",
"I 	c #AAD9F1",
"J 	c #BCE0F3",
"K 	c #84CAE9",
"L 	c #0C91C7",
"M 	c #0986C0",
"N 	c #0E7EBB",
"O 	c #117FBB",
"P 	c #1380BB",
"Q 	c #1580BB",
"R 	c #1781BC",
"S 	c #1982BC",
"T 	c #1B83BD",
"U 	c #1F84BE",
"V 	c #2185BE",
"W 	c #2386BF",
"X 	c #2B8CC3",
"Y 	c #67C0E7",
"Z 	c #69C1E8",
"` 	c #6BC2E8",
" .	c #6CC2E8",
"..	c #6DC3E9",
"+.	c #67C1E7",
"@.	c #68C1E8",
"#.	c #A7D9F0",
"$.	c #B8DFF2",
"%.	c #38A7D6",
"&.	c #509BC9",
"*.	c #649FCB",
"=.	c #639FCB",
"-.	c #629FCB",
";.	c #619FCB",
">.	c #609FCB",
",.	c #85C8E9",
"'.	c #89CDED",
").	c #8ACDED",
"!.	c #8ACEED",
"~.	c #89CDEC",
"{.	c #87CCEC",
"].	c #86CCEC",
"^.	c #84CBEC",
"/.	c #82CAEB",
"(.	c #80C9EB",
"_.	c #85CBEB",
":.	c #C3E3F5",
"<.	c #C5E4F5",
"[.	c #71C0E3",
"}.	c #589AC9",
"|.	c #66A1CC",
"1.	c #67A1CC",
"2.	c #68A2CC",
"3.	c #69A2CC",
"4.	c #6AA3CD",
"5.	c #6BA4CE",
"6.	c #6CA4CE",
"7.	c #6DA5CE",
"8.	c #6EA6CF",
"9.	c #6FA7CF",
"0.	c #8AC5E6",
"a.	c #95D1EE",
"b.	c #96D2EE",
"c.	c #97D2EF",
"d.	c #98D3EF",
"e.	c #97D2EE",
"f.	c #94D1EE",
"g.	c #92D0EE",
"h.	c #91CFED",
"i.	c #B3DDF2",
"j.	c #CCE8F6",
"k.	c #94CDE9",
"l.	c #5796C7",
"m.	c #68A2CD",
"n.	c #69A3CD",
"o.	c #69A4CE",
"p.	c #6AA4CE",
"q.	c #6CA5CE",
"r.	c #81B1D5",
"s.	c #79ADD3",
"t.	c #6FA7D0",
"u.	c #70A8D0",
"v.	c #71A8D1",
"w.	c #71A9D1",
"x.	c #86BFE1",
"y.	c #9AD4EF",
"z.	c #9AD4F0",
"A.	c #9BD4F0",
"B.	c #93D1EE",
"C.	c #A2D6F0",
"D.	c #CDE8F7",
"E.	c #97CFEA",
"F.	c #5792C5",
"G.	c #6BA5CE",
"H.	c #6CA5CF",
"I.	c #6DA6CF",
"J.	c #6EA8D0",
"K.	c #A0C5E0",
"L.	c #F5F9FC",
"M.	c #AECDE4",
"N.	c #74ABD2",
"O.	c #73ABD2",
"P.	c #82BADD",
"Q.	c #9CD4F0",
"R.	c #9DD5F1",
"S.	c #9ED6F1",
"T.	c #CEE9F7",
"U.	c #98CFEA",
"V.	c #5791C4",
"W.	c #69A2CD",
"X.	c #6BA6CF",
"Y.	c #6DA7D0",
"Z.	c #6DA8D0",
"`.	c #6EA8D1",
" +	c #70A9D1",
".+	c #A2C6E1",
"++	c #E8F1F7",
"@+	c #9AC2DF",
"#+	c #76ADD4",
"$+	c #7DB4D8",
"%+	c #9FD6F1",
"&+	c #A0D6F1",
"*+	c #A0D7F1",
"=+	c #A1D7F1",
"-+	c #CCE8F7",
";+	c #5892C5",
">+	c #68A0CC",
",+	c #6CA8D1",
"'+	c #6DA8D1",
")+	c #6FA9D1",
"!+	c #70AAD2",
"~+	c #71ABD2",
"{+	c #A3C8E2",
"]+	c #D5E6F2",
"^+	c #8CBBDC",
"/+	c #9ED5F0",
"(+	c #A3D8F2",
"_+	c #A3D9F2",
":+	c #A4D9F2",
"<+	c #A2D8F2",
"[+	c #9CD5F1",
"}+	c #C9E7F6",
"|+	c #9AD0EB",
"1+	c #5893C6",
"2+	c #689DCB",
"3+	c #6DA9D2",
"4+	c #6FABD2",
"5+	c #70ABD2",
"6+	c #71ACD3",
"7+	c #73ADD4",
"8+	c #A4C9E3",
"9+	c #FBFDFE",
"0+	c #D2EBF8",
"a+	c #A8DBF3",
"b+	c #A5D9F3",
"c+	c #A6DAF3",
"d+	c #A7DAF3",
"e+	c #C8E6F6",
"f+	c #5995C7",
"g+	c #679CCA",
"h+	c #6FABD3",
"i+	c #71ACD4",
"j+	c #71ADD4",
"k+	c #73AED4",
"l+	c #75AFD5",
"m+	c #A5CAE3",
"n+	c #F6FBFE",
"o+	c #C8E8F8",
"p+	c #A9DCF4",
"q+	c #AADCF4",
"r+	c #A8DBF4",
"s+	c #C6E6F6",
"t+	c #9CD1EB",
"u+	c #5D9BCC",
"v+	c #679AC9",
"w+	c #70ADD4",
"x+	c #71AED4",
"y+	c #73AED5",
"z+	c #75AFD6",
"A+	c #76B0D6",
"B+	c #A6CBE4",
"C+	c #EDF8FD",
"D+	c #BFE5F7",
"E+	c #ADDDF5",
"F+	c #ACDDF5",
"G+	c #ABDCF4",
"H+	c #C5E5F6",
"I+	c #509CCE",
"J+	c #5D94C7",
"K+	c #6FADD5",
"L+	c #73AFD6",
"M+	c #74B0D6",
"N+	c #76B1D6",
"O+	c #78B2D8",
"P+	c #A7CDE5",
"Q+	c #E2F3FC",
"R+	c #B7E2F6",
"S+	c #ADDEF5",
"T+	c #C2E4F6",
"U+	c #97CFEB",
"V+	c #429ACE",
"W+	c #3C87C1",
"X+	c #3797CB",
"Y+	c #449DCE",
"Z+	c #53A3D0",
"`+	c #5FA8D3",
" @	c #69ADD5",
".@	c #A1CAE4",
"+@	c #FBFEFF",
"@@	c #D5EEFA",
"#@	c #A7DBF4",
"$@	c #9ED8F3",
"%@	c #97D5F1",
"&@	c #91D2F0",
"*@	c #89CFEF",
"=@	c #81CBED",
"-@	c #B0DDF3",
";@	c #87C9E8",
">@	c #428DC5",
",@	c #389ACC",
"'@	c #3B9BCD",
")@	c #409CCE",
"!@	c #449ECF",
"~@	c #47A0D0",
"{@	c #8AC1E0",
"]@	c #FBFDFF",
"^@	c #CAEAF9",
"/@	c #98D6F3",
"(@	c #8FD2F1",
"_@	c #8BD0F0",
":@	c #87CEEF",
"<@	c #83CCEE",
"[@	c #7FCAED",
"}@	c #ADDCF2",
"|@	c #4A95CA",
"1@	c #3A9CCE",
"2@	c #3D9DCE",
"3@	c #429ECF",
"4@	c #45A0D0",
"5@	c #49A1D1",
"6@	c #8BC2E1",
"7@	c #DDF2FC",
"8@	c #A5DCF5",
"9@	c #97D6F3",
"0@	c #93D4F2",
"a@	c #AADAF2",
"b@	c #509ACE",
"c@	c #3D9FD0",
"d@	c #3F9FD0",
"e@	c #43A0D0",
"f@	c #47A1D2",
"g@	c #4BA3D2",
"h@	c #8CC3E2",
"i@	c #EAF7FD",
"j@	c #B1E0F7",
"k@	c #9AD7F4",
"l@	c #95D5F2",
"m@	c #92D3F2",
"n@	c #8AD0EF",
"o@	c #86CEEF",
"p@	c #82CCEE",
"q@	c #A4D8F1",
"r@	c #4F99CD",
"s@	c #46A9D8",
"t@	c #40A0D1",
"u@	c #45A1D2",
"v@	c #49A4D2",
"w@	c #4DA5D4",
"x@	c #8DC4E3",
"y@	c #F3FAFD",
"z@	c #BBE4F7",
"A@	c #96D5F3",
"B@	c #90D2F1",
"C@	c #8DD1F0",
"D@	c #86CDEE",
"E@	c #81CBEE",
"F@	c #7DCAEC",
"G@	c #9DD6F0",
"H@	c #419ACE",
"I@	c #4F97CC",
"J@	c #4EB2DE",
"K@	c #42A1D2",
"L@	c #46A3D3",
"M@	c #4AA5D4",
"N@	c #4EA7D5",
"O@	c #8EC6E3",
"P@	c #FCFDFE",
"Q@	c #BBDCEF",
"R@	c #78BCE1",
"S@	c #91D3F2",
"T@	c #8DD1F1",
"U@	c #84CCEE",
"V@	c #80CBED",
"W@	c #7BC9EC",
"X@	c #96D3EF",
"Y@	c #86C8E8",
"Z@	c #4E95CB",
"`@	c #53B8E3",
" #	c #44A5D5",
".#	c #46A5D4",
"+#	c #4BA7D5",
"@#	c #4FA9D6",
"##	c #8FC6E4",
"$#	c #D1E8F5",
"%#	c #7EBFE2",
"&#	c #6BB6DE",
"*#	c #6EB7DE",
"=#	c #89CEEE",
"-#	c #8ED1F1",
";#	c #8CD1F0",
">#	c #89D0EF",
",#	c #85CDEE",
"'#	c #81CCEE",
")#	c #7ECAEC",
"!#	c #79C8EC",
"~#	c #8BCFEE",
"{#	c #85C8E8",
"]#	c #3F99CE",
"^#	c #4D91C8",
"/#	c #51B8E3",
"(#	c #4AADDA",
"_#	c #47A6D5",
":#	c #4CA8D6",
"<#	c #50AAD7",
"[#	c #8FC8E5",
"}#	c #E5F2F9",
"|#	c #8EC7E6",
"1#	c #65B4DD",
"2#	c #69B5DE",
"3#	c #6BB7DF",
"4#	c #6EB8E0",
"5#	c #81C9EB",
"6#	c #88CFEF",
"7#	c #7ECAED",
"8#	c #77C7EB",
"9#	c #80CAEC",
"0#	c #84C8E8",
"a#	c #3E99CD",
"b#	c #4C8CC5",
"c#	c #4FB6E1",
"d#	c #4FB3DF",
"e#	c #47A8D6",
"f#	c #4CA9D7",
"g#	c #50ABD8",
"h#	c #8FC8E6",
"i#	c #F4F9FC",
"j#	c #A1D1EB",
"k#	c #62B3DD",
"l#	c #65B5DE",
"m#	c #68B6DF",
"n#	c #6BB8E0",
"o#	c #6EB9E1",
"p#	c #7AC4E8",
"q#	c #78C7EB",
"r#	c #75C6EA",
"s#	c #73C5EA",
"t#	c #81C7E7",
"u#	c #3C98CD",
"v#	c #4B8BC5",
"w#	c #4DADDB",
"x#	c #52B8E3",
"y#	c #48A9D8",
"z#	c #4BABD8",
"A#	c #50ACD9",
"B#	c #6BB8DF",
"C#	c #64B5DE",
"D#	c #5BB2DC",
"E#	c #5EB3DD",
"F#	c #62B5DE",
"G#	c #65B6DF",
"H#	c #68B8E0",
"I#	c #6DBAE1",
"J#	c #74C0E6",
"K#	c #7AC8EC",
"L#	c #72C5E9",
"M#	c #6EC3E9",
"N#	c #3897CD",
"O#	c #4889C4",
"P#	c #4A9CD0",
"Q#	c #4DB5E1",
"R#	c #49ADDB",
"S#	c #49AAD8",
"T#	c #4DACD9",
"U#	c #51ADDA",
"V#	c #55AFDB",
"W#	c #59B1DC",
"X#	c #5CB2DD",
"Y#	c #60B4DE",
"Z#	c #64B6DF",
"`#	c #66B8E0",
" $	c #69BAE2",
".$	c #6CBBE2",
"+$	c #6FBDE4",
"@$	c #7CC9EC",
"#$	c #74C6EA",
"$$	c #71C5E9",
"%$	c #6EC4E9",
"&$	c #64BBE3",
"*$	c #2D96CB",
"=$	c #4485C0",
"-$	c #4787C1",
";$	c #44A7D7",
">$	c #44A9D8",
",$	c #41A3D3",
"'$	c #44A5D4",
")$	c #48A6D5",
"!$	c #4BA7D6",
"~$	c #4DA7D5",
"{$	c #50A8D6",
"]$	c #52AAD7",
"^$	c #54ABD7",
"/$	c #57ABD8",
"($	c #59ADD8",
"_$	c #5CAFDA",
":$	c #5EB0DA",
"<$	c #6ABAE2",
"[$	c #6BBBE2",
"}$	c #6ABBE3",
"|$	c #69BBE3",
"1$	c #67BBE3",
"2$	c #65BBE3",
"3$	c #61BBE3",
"4$	c #4CB0DC",
"5$	c #1A96CB",
"6$	c #4081BE",
"7$	c #4381BD",
"8$	c #4388C2",
"9$	c #3FA2D3",
"0$	c #3A9ED0",
"a$	c #43A1D1",
"b$	c #44A1D1",
"c$	c #47A2D2",
"d$	c #4AA3D3",
"e$	c #4CA4D3",
"f$	c #4EA5D3",
"g$	c #4FA5D4",
"h$	c #51A7D4",
"i$	c #52A7D4",
"j$	c #5BAED9",
"k$	c #5AADD8",
"l$	c #59ACD7",
"m$	c #58ABD7",
"n$	c #57ABD7",
"o$	c #56ABD7",
"p$	c #54AAD7",
"q$	c #52AAD6",
"r$	c #51A9D6",
"s$	c #4EA8D6",
"t$	c #4CA7D5",
"u$	c #2B9BCD",
"v$	c #048EC5",
"w$	c #2F8DC5",
"x$	c #407CBA",
"y$	c #427DBB",
"z$	c #4281BE",
"A$	c #3891C8",
"B$	c #3599CD",
"C$	c #389ACD",
"D$	c #3B9BCE",
"E$	c #3B9ACD",
"F$	c #3E9BCD",
"G$	c #429DCE",
"H$	c #449ECE",
"I$	c #469ECF",
"J$	c #469FCF",
"K$	c #479FCF",
"L$	c #4BA2D2",
"M$	c #4DA4D3",
"N$	c #4CA3D2",
"O$	c #4BA2D1",
"P$	c #4AA1D1",
"Q$	c #46A0D0",
"R$	c #459FD0",
"S$	c #439ECF",
"T$	c #3E9DCF",
"U$	c #0A8FC5",
"V$	c #0B8FC6",
"W$	c #2B8AC3",
"X$	c #3A7CBB",
"Y$	c #3F79B8",
"Z$	c #4078B8",
"`$	c #3C7EBB",
" %	c #368AC3",
".%	c #3293C8",
"+%	c #3193C8",
"@%	c #3493C8",
"#%	c #3694C9",
"$%	c #3895C9",
"%%	c #3896C9",
"&%	c #3A96CA",
"*%	c #3C97CA",
"=%	c #3E98CB",
"-%	c #419ACC",
";%	c #4099CC",
">%	c #3E97CB",
",%	c #3D97CA",
"'%	c #3B97CA",
")%	c #3996CA",
"!%	c #3595C9",
"~%	c #1390C6",
"{%	c #058DC4",
"]%	c #148EC5",
"^%	c #1F8BC4",
"/%	c #2889C2",
"(%	c #2987C0",
"_%	c #2C87C0",
":%	c #2D88C1",
"<%	c #288DC4",
"[%	c #288FC5",
"}%	c #2A8FC5",
"|%	c #2B90C5",
"1%	c #2D90C6",
"2%	c #2E90C6",
"3%	c #2F91C6",
"4%	c #3092C6",
"5%	c #3192C7",
"6%	c #3091C7",
"7%	c #2F90C6",
"8%	c #2D8FC5",
"9%	c #268EC5",
"0%	c #1D90C5",
"a%	c #088EC4",
". . + @ # # # # # # # # # # # # # # # # # # # # # # # # @ + . . ",
". $ # % & * = - ; > , ' ) ! ~ { ] ^ / ( ( _ : < [ } | 1 2 # $ . ",
"+ # 3 4 5 6 7 8 9 0 a b c d e f g h i i i i h j k l m n o p # + ",
"@ % q r s t u v w x y z A B C D E F G G G G F E D H I J m K L @ ",
"# M N O P Q R S T A U V W X Y Z `  ......... .` Z +.@.#.J $.%.# ",
"# &.*.*.*.=.=.=.-.-.-.-.;.>.,.'.'.).!.).).~.{.].^./.(._.:.<.[.# ",
"# }.|.1.2.3.4.5.6.6.7.8.9.9.0.a.b.c.d.d.d.d.c.e.b.f.g.h.i.j.k.# ",
"# l.m.n.o.p.5.q.r.s.t.u.v.w.x.d.y.z.A.A.A.A.A.y.d.c.a.B.C.D.E.# ",
"# F.o.p.G.H.I.J.K.L.M.N.O.N.P.A.Q.R.S.S.S.S.R.R.A.y.d.b.d.T.U.# ",
"# V.W.X.Y.Z.`. +.+. . ++@+#+$+R.%+&+*+=+=+=+*+%+S.Q.z.d.b.-+U.# ",
"# ;+>+,+'+)+!+~+{+. . . . ]+^+/+=+(+_+:+:+:+(+<+*+S.[+z.d.}+|+# ",
"# 1+2+3+4+5+6+7+8+. . . . . 9+0+a+b+c+d+d+c+b+:+(+=+S.Q.y.e+|+# ",
"# f+g+h+i+j+k+l+m+. . . . . . . n+o+p+q+q+p+r+c+:+<+*+S.A.s+t+# ",
"# u+v+w+x+y+z+A+B+. . . . . . . . . C+D+E+F+G+p+c+:+<+%+R.H+t+# ",
"# I+J+K+L+M+N+O+P+. . . . . . . . . . . Q+R+S+G+r+b+(+*+R.T+U+# ",
"# V+W+X+Y+Z+`+ @.@. . . . . . . . . . . . +@@@#@$@%@&@*@=@-@;@# ",
"# V+>@,@'@)@!@~@{@. . . . . . . . . . . . ]@^@/@(@_@:@<@[@}@;@# ",
"# V+|@1@2@3@4@5@6@. . . . . . . . . . . 7@8@9@0@(@_@:@<@[@a@;@# ",
"# V+b@c@d@e@f@g@h@. . . . . . . . . i@j@k@/@l@m@(@n@o@p@[@q@;@# ",
"# V+r@s@t@u@v@w@x@. . . . . . . y@z@l@A@A@l@0@B@C@*@D@E@F@G@;@# ",
"# H@I@J@K@L@M@N@O@. . . . . P@Q@R@(@S@m@m@S@B@T@n@:@U@V@W@X@Y@# ",
"# H@Z@`@ #.#+#@###. . . . $#%#&#*#=#-#(@(@-#;#>#:@,#'#)#!#~#{## ",
"# ]#^#/#(#_#:#<#[#. . }#|#1#2#3#4#5#*@n@n@>#6#:@,#p@7#W@8#9#0## ",
"# a#b#c#d#e#f#g#h#i#j#k#k#l#m#n#o#p#D@o@o@o@,#<@E@7#W@q#r#s#t## ",
"# u#v#w#x#y#z#A#B#C#D#E#F#G#H#n#I#J#'#p@p@p@E@[@F@K#q#r#L#M#: # ",
"# N#O#P#Q#R#S#T#U#V#W#X#Y#Z#`# $.$+$F@)#)#F@@$W@!#8##$$$%$` &$# ",
"# *$=$-$;$>$,$'$)$!$~${$]$^$/$($_$:$<$[$[$[$}$}$}$|$1$2$&$3$4$# ",
"# 5$6$7$8$9$0$c@t@a$b$c$d$e$f$g$h$i$($j$k$l$m$n$o$p$q$r$s$t$u$# ",
"@ v$w$x$y$z$A$B$C$D$E$F$)@G$H$I$J$K$L$M$N$O$P$5@5@~@Q$R$S$T$U$@ ",
"+ # V$W$X$Y$Z$`$ %.%+%@%#%$%%%&%*%*%=%-%;%>%,%*%*%'%)%$%!%~%# + ",
". $ # {%]%^%/%(%_%:%<%[%}%|%1%2%3%3%4%5%6%7%7%7%2%8%9%0%a%# $ . ",
". . + @ # # # # # # # # # # # # # # # # # # # # # # # # @ + . . "};
