/* XPM */
static char * hover_skip_forward_xpm[] = {
"32 32 620 2",
"  	c None",
". 	c #FFFFFF",
"+ 	c #80C6E1",
"@ 	c #1093C7",
"# 	c #008CC3",
"$ 	c #30A2CE",
"% 	c #028BC3",
"& 	c #0884BF",
"* 	c #0A7FBB",
"= 	c #0D80BB",
"- 	c #1081BC",
"; 	c #1181BC",
"> 	c #1381BC",
", 	c #1481BC",
"' 	c #1682BD",
") 	c #1783BD",
"! 	c #3AA2D2",
"~ 	c #4DB3DE",
"{ 	c #4EB3DF",
"] 	c #50B4DF",
"^ 	c #51B4DF",
"/ 	c #51B5DF",
"( 	c #52B5DF",
"_ 	c #58B7E1",
": 	c #75C1E5",
"< 	c #80C6E6",
"[ 	c #7DC5E5",
"} 	c #77C3E4",
"| 	c #61BAE0",
"1 	c #36A7D5",
"2 	c #0B91C7",
"3 	c #0589C2",
"4 	c #0A7DB9",
"5 	c #0B7CB8",
"6 	c #0C7CB8",
"7 	c #0F7DB9",
"8 	c #107DB9",
"9 	c #127EBA",
"0 	c #147EBA",
"a 	c #157EBB",
"b 	c #177FBB",
"c 	c #1980BB",
"d 	c #399CCF",
"e 	c #5DBCE5",
"f 	c #5FBDE5",
"g 	c #60BEE5",
"h 	c #61BEE6",
"i 	c #63BFE6",
"j 	c #74C5E8",
"k 	c #9AD3EE",
"l 	c #BAE0F3",
"m 	c #BBE0F2",
"n 	c #B6DEF1",
"o 	c #82C9E9",
"p 	c #1998CC",
"q 	c #0A7EBA",
"r 	c #0D7DB9",
"s 	c #0F7DBA",
"t 	c #117EBA",
"u 	c #137FBB",
"v 	c #157FBB",
"w 	c #1680BB",
"x 	c #1880BB",
"y 	c #1A81BC",
"z 	c #1C82BD",
"A 	c #1D83BD",
"B 	c #3294C9",
"C 	c #62BFE6",
"D 	c #64BFE7",
"E 	c #65C0E7",
"F 	c #66C0E7",
"G 	c #68C1E7",
"H 	c #72C4E8",
"I 	c #AAD9F1",
"J 	c #BCE0F3",
"K 	c #84CAE9",
"L 	c #0C91C7",
"M 	c #0986C0",
"N 	c #0E7EBB",
"O 	c #117FBB",
"P 	c #1380BB",
"Q 	c #1580BB",
"R 	c #1781BC",
"S 	c #1982BC",
"T 	c #1B83BD",
"U 	c #1F84BE",
"V 	c #2185BE",
"W 	c #2386BF",
"X 	c #2B8CC3",
"Y 	c #67C0E7",
"Z 	c #69C1E8",
"` 	c #6BC2E8",
" .	c #6CC2E8",
"..	c #6DC3E9",
"+.	c #67C1E7",
"@.	c #68C1E8",
"#.	c #A7D9F0",
"$.	c #B8DFF2",
"%.	c #38A7D6",
"&.	c #509BC9",
"*.	c #649FCB",
"=.	c #639FCB",
"-.	c #629FCB",
";.	c #619FCB",
">.	c #609FCB",
",.	c #85C8E9",
"'.	c #89CDED",
").	c #8ACDED",
"!.	c #8ACEED",
"~.	c #89CDEC",
"{.	c #87CCEC",
"].	c #86CCEC",
"^.	c #84CBEC",
"/.	c #82CAEB",
"(.	c #80C9EB",
"_.	c #85CBEB",
":.	c #C3E3F5",
"<.	c #C5E4F5",
"[.	c #71C0E3",
"}.	c #589AC9",
"|.	c #66A1CC",
"1.	c #67A1CC",
"2.	c #68A2CC",
"3.	c #69A2CC",
"4.	c #6AA3CD",
"5.	c #6BA4CE",
"6.	c #6CA4CE",
"7.	c #6DA5CE",
"8.	c #6EA6CF",
"9.	c #6FA7CF",
"0.	c #8AC5E6",
"a.	c #95D1EE",
"b.	c #96D2EE",
"c.	c #97D2EF",
"d.	c #98D3EF",
"e.	c #97D2EE",
"f.	c #94D1EE",
"g.	c #92D0EE",
"h.	c #91CFED",
"i.	c #B3DDF2",
"j.	c #CCE8F6",
"k.	c #94CDE9",
"l.	c #5796C7",
"m.	c #68A2CD",
"n.	c #69A3CD",
"o.	c #69A4CE",
"p.	c #6AA4CE",
"q.	c #6CA5CE",
"r.	c #6DA6CF",
"s.	c #6EA7CF",
"t.	c #6FA7D0",
"u.	c #70A8D0",
"v.	c #71A8D1",
"w.	c #71A9D1",
"x.	c #86BFE1",
"y.	c #9AD4EF",
"z.	c #9AD4F0",
"A.	c #9BD4F0",
"B.	c #93D1EE",
"C.	c #A2D6F0",
"D.	c #CDE8F7",
"E.	c #97CFEA",
"F.	c #5792C5",
"G.	c #6BA5CE",
"H.	c #6CA5CF",
"I.	c #6EA8D0",
"J.	c #6FA8D0",
"K.	c #70A8D1",
"L.	c #72AAD2",
"M.	c #73ABD2",
"N.	c #74ABD2",
"O.	c #82BADD",
"P.	c #9CD4F0",
"Q.	c #9DD5F1",
"R.	c #9ED6F1",
"S.	c #CEE9F7",
"T.	c #98CFEA",
"U.	c #5791C4",
"V.	c #69A2CD",
"W.	c #6BA6CF",
"X.	c #6DA7D0",
"Y.	c #6DA8D0",
"Z.	c #6EA8D1",
"`.	c #ABCCE4",
" +	c #A3C8E1",
".+	c #72ABD2",
"++	c #74ACD3",
"@+	c #75ADD4",
"#+	c #76ADD4",
"$+	c #7DB4D8",
"%+	c #9FD6F1",
"&+	c #A0D6F1",
"*+	c #A0D7F1",
"=+	c #A1D7F1",
"-+	c #E1F2FB",
";+	c #EDF7FC",
">+	c #C7E7F7",
",+	c #CCE8F7",
"'+	c #5892C5",
")+	c #68A0CC",
"!+	c #6CA8D1",
"~+	c #6DA8D1",
"{+	c #6FA9D1",
"]+	c #70AAD2",
"^+	c #BCD7EA",
"/+	c #E0ECF5",
"(+	c #91BDDD",
"_+	c #76AED4",
":+	c #78AFD5",
"<+	c #79AFD5",
"[+	c #7AB1D6",
"}+	c #9ED5F0",
"|+	c #A3D8F2",
"1+	c #A3D9F2",
"2+	c #A4D9F2",
"3+	c #F1F9FD",
"4+	c #D1ECF8",
"5+	c #9CD5F1",
"6+	c #C9E7F6",
"7+	c #9AD0EB",
"8+	c #5893C6",
"9+	c #689DCB",
"0+	c #6DA9D2",
"a+	c #6FABD2",
"b+	c #70ABD2",
"c+	c #71ACD3",
"d+	c #FEFFFF",
"e+	c #CCE1EF",
"f+	c #87B8DA",
"g+	c #7CB2D6",
"h+	c #7DB3D7",
"i+	c #9AD0EC",
"j+	c #A5D9F3",
"k+	c #A6DAF3",
"l+	c #A7DAF3",
"m+	c #F2F9FD",
"n+	c #D3ECF9",
"o+	c #C8E6F6",
"p+	c #5995C7",
"q+	c #679CCA",
"r+	c #6FABD3",
"s+	c #71ACD4",
"t+	c #71ADD4",
"u+	c #73AED4",
"v+	c #BDD8EB",
"w+	c #F8FBFD",
"x+	c #BAD7EA",
"y+	c #83B7DA",
"z+	c #95CAE8",
"A+	c #A8DBF3",
"B+	c #A9DCF4",
"C+	c #AADCF4",
"D+	c #F2FAFD",
"E+	c #D4EDF9",
"F+	c #A2D8F2",
"G+	c #C6E6F6",
"H+	c #9CD1EB",
"I+	c #5D9BCC",
"J+	c #679AC9",
"K+	c #70ADD4",
"L+	c #71AED4",
"M+	c #73AED5",
"N+	c #75AFD6",
"O+	c #BED9EC",
"P+	c #EEF5FA",
"Q+	c #B7DAEF",
"R+	c #A8DBF4",
"S+	c #ACDDF5",
"T+	c #ADDDF5",
"U+	c #C5E5F6",
"V+	c #509CCE",
"W+	c #5D94C7",
"X+	c #6FADD5",
"Y+	c #73AFD6",
"Z+	c #74B0D6",
"`+	c #76B1D6",
" @	c #BFDAEC",
".@	c #E8F6FC",
"+@	c #BBE3F7",
"@@	c #AEDEF5",
"#@	c #AFDEF5",
"$@	c #F3FAFE",
"%@	c #D5EEF9",
"&@	c #C2E4F6",
"*@	c #97CFEB",
"=@	c #429ACE",
"-@	c #3C87C1",
";@	c #3797CB",
">@	c #449DCE",
",@	c #53A3D0",
"'@	c #5FA8D3",
")@	c #B7D7EB",
"!@	c #DEF2FB",
"~@	c #B7E2F7",
"{@	c #B0E0F6",
"]@	c #D0ECF9",
"^@	c #97D5F1",
"/@	c #91D2F0",
"(@	c #89CFEF",
"_@	c #81CBED",
":@	c #B0DDF3",
"<@	c #87C9E8",
"[@	c #428DC5",
"}@	c #389ACC",
"|@	c #3B9BCD",
"1@	c #409CCE",
"2@	c #449ECF",
"3@	c #A8D1E8",
"4@	c #D5EEFB",
"5@	c #A5DCF6",
"6@	c #9EDAF5",
"7@	c #F0F9FD",
"8@	c #C9E9F8",
"9@	c #8BD0F0",
"0@	c #87CEEF",
"a@	c #83CCEE",
"b@	c #7FCAED",
"c@	c #ADDCF2",
"d@	c #4A95CA",
"e@	c #3A9CCE",
"f@	c #3D9DCE",
"g@	c #429ECF",
"h@	c #45A0D0",
"i@	c #A9D2E9",
"j@	c #A8DCF5",
"k@	c #9AD7F4",
"l@	c #9DD9F5",
"m@	c #AADAF2",
"n@	c #509ACE",
"o@	c #3D9FD0",
"p@	c #3F9FD0",
"q@	c #43A0D0",
"r@	c #47A1D2",
"s@	c #AAD3EA",
"t@	c #EBF4FA",
"u@	c #99CAE5",
"v@	c #7DC1E5",
"w@	c #95D4F2",
"x@	c #97D6F3",
"y@	c #8AD0EF",
"z@	c #86CEEF",
"A@	c #82CCEE",
"B@	c #A4D8F1",
"C@	c #4F99CD",
"D@	c #46A9D8",
"E@	c #40A0D1",
"F@	c #45A1D2",
"G@	c #49A4D2",
"H@	c #AAD4EA",
"I@	c #AED5EB",
"J@	c #6BB3DB",
"K@	c #69B2DB",
"L@	c #76BCE2",
"M@	c #92D3F2",
"N@	c #96D5F3",
"O@	c #EFF9FD",
"P@	c #C8E9F8",
"Q@	c #86CDEE",
"R@	c #81CBEE",
"S@	c #7DCAEC",
"T@	c #9DD6F0",
"U@	c #419ACE",
"V@	c #4F97CC",
"W@	c #4EB2DE",
"X@	c #42A1D2",
"Y@	c #46A3D3",
"Z@	c #4AA5D4",
"`@	c #ABD5EB",
" #	c #C4E1F1",
".#	c #71B7DD",
"+#	c #64B1DA",
"@#	c #68B2DC",
"##	c #6BB4DD",
"$#	c #70B8DF",
"%#	c #8FD2F1",
"&#	c #91D3F2",
"*#	c #EFF8FD",
"=#	c #C7E8F8",
"-#	c #84CCEE",
";#	c #80CBED",
">#	c #7BC9EC",
",#	c #96D3EF",
"'#	c #86C8E8",
")#	c #4E95CB",
"!#	c #53B8E3",
"~#	c #44A5D5",
"{#	c #46A5D4",
"]#	c #4BA7D5",
"^#	c #ABD6EB",
"/#	c #DAECF6",
"(#	c #7EBEE1",
"_#	c #5EAFDA",
":#	c #62B1DB",
"<#	c #65B2DC",
"[#	c #68B4DC",
"}#	c #6BB6DE",
"|#	c #6EB7DE",
"1#	c #89CEEE",
"2#	c #8ED1F1",
"3#	c #EEF8FD",
"4#	c #C5E8F7",
"5#	c #85CDEE",
"6#	c #81CCEE",
"7#	c #7ECAEC",
"8#	c #79C8EC",
"9#	c #8BCFEE",
"0#	c #85C8E8",
"a#	c #3F99CE",
"b#	c #4D91C8",
"c#	c #51B8E3",
"d#	c #4AADDA",
"e#	c #47A6D5",
"f#	c #4CA8D6",
"g#	c #9ACDE7",
"h#	c #92C9E6",
"i#	c #58ADD9",
"j#	c #5BAFDA",
"k#	c #5EB0DB",
"l#	c #62B2DC",
"m#	c #65B4DD",
"n#	c #69B5DE",
"o#	c #6BB7DF",
"p#	c #6EB8E0",
"q#	c #81C9EB",
"r#	c #D7EEFA",
"s#	c #E5F4FC",
"t#	c #E5F4FB",
"u#	c #B6E1F5",
"v#	c #7ECAED",
"w#	c #77C7EB",
"x#	c #80CAEC",
"y#	c #84C8E8",
"z#	c #3E99CD",
"A#	c #4C8CC5",
"B#	c #4FB6E1",
"C#	c #4FB3DF",
"D#	c #47A8D6",
"E#	c #4CA9D7",
"F#	c #50ABD8",
"G#	c #54ADDA",
"H#	c #57AFDA",
"I#	c #5BB0DB",
"J#	c #5FB2DC",
"K#	c #62B3DD",
"L#	c #65B5DE",
"M#	c #68B6DF",
"N#	c #6BB8E0",
"O#	c #6EB9E1",
"P#	c #7AC4E8",
"Q#	c #78C7EB",
"R#	c #75C6EA",
"S#	c #73C5EA",
"T#	c #81C7E7",
"U#	c #3C98CD",
"V#	c #4B8BC5",
"W#	c #4DADDB",
"X#	c #52B8E3",
"Y#	c #48A9D8",
"Z#	c #4BABD8",
"`#	c #50ACD9",
" $	c #53AEDA",
".$	c #58AFDB",
"+$	c #5BB2DC",
"@$	c #5EB3DD",
"#$	c #62B5DE",
"$$	c #65B6DF",
"%$	c #68B8E0",
"&$	c #6DBAE1",
"*$	c #74C0E6",
"=$	c #7AC8EC",
"-$	c #72C5E9",
";$	c #6EC3E9",
">$	c #3897CD",
",$	c #4889C4",
"'$	c #4A9CD0",
")$	c #4DB5E1",
"!$	c #49ADDB",
"~$	c #49AAD8",
"{$	c #4DACD9",
"]$	c #51ADDA",
"^$	c #55AFDB",
"/$	c #59B1DC",
"($	c #5CB2DD",
"_$	c #60B4DE",
":$	c #64B6DF",
"<$	c #66B8E0",
"[$	c #69BAE2",
"}$	c #6CBBE2",
"|$	c #6FBDE4",
"1$	c #7CC9EC",
"2$	c #74C6EA",
"3$	c #71C5E9",
"4$	c #6EC4E9",
"5$	c #64BBE3",
"6$	c #2D96CB",
"7$	c #4485C0",
"8$	c #4787C1",
"9$	c #44A7D7",
"0$	c #44A9D8",
"a$	c #41A3D3",
"b$	c #44A5D4",
"c$	c #48A6D5",
"d$	c #4BA7D6",
"e$	c #4DA7D5",
"f$	c #50A8D6",
"g$	c #52AAD7",
"h$	c #54ABD7",
"i$	c #57ABD8",
"j$	c #59ADD8",
"k$	c #5CAFDA",
"l$	c #5EB0DA",
"m$	c #6ABAE2",
"n$	c #6BBBE2",
"o$	c #6ABBE3",
"p$	c #69BBE3",
"q$	c #67BBE3",
"r$	c #65BBE3",
"s$	c #61BBE3",
"t$	c #4CB0DC",
"u$	c #1A96CB",
"v$	c #4081BE",
"w$	c #4381BD",
"x$	c #4388C2",
"y$	c #3FA2D3",
"z$	c #3A9ED0",
"A$	c #43A1D1",
"B$	c #44A1D1",
"C$	c #47A2D2",
"D$	c #4AA3D3",
"E$	c #4CA4D3",
"F$	c #4EA5D3",
"G$	c #4FA5D4",
"H$	c #51A7D4",
"I$	c #52A7D4",
"J$	c #5BAED9",
"K$	c #5AADD8",
"L$	c #59ACD7",
"M$	c #58ABD7",
"N$	c #57ABD7",
"O$	c #56ABD7",
"P$	c #54AAD7",
"Q$	c #52AAD6",
"R$	c #51A9D6",
"S$	c #4EA8D6",
"T$	c #4CA7D5",
"U$	c #2B9BCD",
"V$	c #048EC5",
"W$	c #2F8DC5",
"X$	c #407CBA",
"Y$	c #427DBB",
"Z$	c #4281BE",
"`$	c #3891C8",
" %	c #3599CD",
".%	c #389ACD",
"+%	c #3B9BCE",
"@%	c #3B9ACD",
"#%	c #3E9BCD",
"$%	c #429DCE",
"%%	c #449ECE",
"&%	c #469ECF",
"*%	c #469FCF",
"=%	c #479FCF",
"-%	c #4BA2D2",
";%	c #4DA4D3",
">%	c #4CA3D2",
",%	c #4BA2D1",
"'%	c #4AA1D1",
")%	c #49A1D1",
"!%	c #47A0D0",
"~%	c #46A0D0",
"{%	c #459FD0",
"]%	c #439ECF",
"^%	c #3E9DCF",
"/%	c #0A8FC5",
"(%	c #0B8FC6",
"_%	c #2B8AC3",
":%	c #3A7CBB",
"<%	c #3F79B8",
"[%	c #4078B8",
"}%	c #3C7EBB",
"|%	c #368AC3",
"1%	c #3293C8",
"2%	c #3193C8",
"3%	c #3493C8",
"4%	c #3694C9",
"5%	c #3895C9",
"6%	c #3896C9",
"7%	c #3A96CA",
"8%	c #3C97CA",
"9%	c #3E98CB",
"0%	c #419ACC",
"a%	c #4099CC",
"b%	c #3E97CB",
"c%	c #3D97CA",
"d%	c #3B97CA",
"e%	c #3996CA",
"f%	c #3595C9",
"g%	c #1390C6",
"h%	c #058DC4",
"i%	c #148EC5",
"j%	c #1F8BC4",
"k%	c #2889C2",
"l%	c #2987C0",
"m%	c #2C87C0",
"n%	c #2D88C1",
"o%	c #288DC4",
"p%	c #288FC5",
"q%	c #2A8FC5",
"r%	c #2B90C5",
"s%	c #2D90C6",
"t%	c #2E90C6",
"u%	c #2F91C6",
"v%	c #3092C6",
"w%	c #3192C7",
"x%	c #3091C7",
"y%	c #2F90C6",
"z%	c #2D8FC5",
"A%	c #268EC5",
"B%	c #1D90C5",
"C%	c #088EC4",
". . + @ # # # # # # # # # # # # # # # # # # # # # # # # @ + . . ",
". $ # % & * = - ; > , ' ) ! ~ { ] ^ / ( ( _ : < [ } | 1 2 # $ . ",
"+ # 3 4 5 6 7 8 9 0 a b c d e f g h i i i i h j k l m n o p # + ",
"@ % q r s t u v w x y z A B C D E F G G G G F E D H I J m K L @ ",
"# M N O P Q R S T A U V W X Y Z `  ......... .` Z +.@.#.J $.%.# ",
"# &.*.*.*.=.=.=.-.-.-.-.;.>.,.'.'.).!.).).~.{.].^./.(._.:.<.[.# ",
"# }.|.1.2.3.4.5.6.6.7.8.9.9.0.a.b.c.d.d.d.d.c.e.b.f.g.h.i.j.k.# ",
"# l.m.n.o.p.5.q.r.s.t.u.v.w.x.d.y.z.A.A.A.A.A.y.d.c.a.B.C.D.E.# ",
"# F.o.p.G.H.r.I.J.K.w.L.M.N.O.A.P.Q.R.R.R.R.Q.Q.A.y.d.b.d.S.T.# ",
"# U.V.W.X.Y.Z.`. +.+M.++@+#+$+Q.%+&+*+=+=+-+;+;+>+P.z.d.b.,+T.# ",
"# '+)+!+~+{+]+^+. /+(+_+:+<+[+}+=+|+1+2+2+3+. . 4+R.5+z.d.6+7+# ",
"# 8+9+0+a+b+c+^+. . d+e+f+g+h+i+2+j+k+l+l+m+. . n+=+R.P.y.o+7+# ",
"# p+q+r+s+t+u+v+. . . . w+x+y+z+k+A+B+C+C+D+. . E+F+*+R.A.G+H+# ",
"# I+J+K+L+M+N+O+. . . . . . P+Q+R+C+S+T+T+D+. . E+2+F+%+Q.U+H+# ",
"# V+W+X+Y+Z+`+ @. . . . . . . . .@+@@@#@#@$@. . %@j+|+*+Q.&@*@# ",
"# =@-@;@>@,@'@)@. . . . . . . . . d+!@~@{@$@. . ]@^@/@(@_@:@<@# ",
"# =@[@}@|@1@2@3@. . . . . . . . . d+4@5@6@7@. . 8@9@0@a@b@c@<@# ",
"# =@d@e@f@g@h@i@. . . . . . . . -+j@k@l@l@7@. . 8@9@0@a@b@m@<@# ",
"# =@n@o@p@q@r@s@. . . . . . t@u@v@w@x@k@k@7@. . 8@y@z@A@b@B@<@# ",
"# =@C@D@E@F@G@H@. . . . w+I@J@K@L@M@w@N@N@O@. . P@(@Q@R@S@T@<@# ",
"# U@V@W@X@Y@Z@`@. . d+ #.#+#@###$#%#&#M@M@*#. . =#0@-#;#>#,#'## ",
"# U@)#!#~#{#]#^#. /#(#_#:#<#[#}#|#1#2#%#%#3#. . 4#5#6#7#8#9#0## ",
"# a#b#c#d#e#f#g#h#i#j#k#l#m#n#o#p#q#(@y@y@r#s#t#u#A@v#>#w#x#y## ",
"# z#A#B#C#D#E#F#G#H#I#J#K#L#M#N#O#P#Q@z@z@z@5#a@R@v#>#Q#R#S#T## ",
"# U#V#W#X#Y#Z#`# $.$+$@$#$$$%$N#&$*$6#A@A@A@R@b@S@=$Q#R#-$;$: # ",
"# >$,$'$)$!$~${$]$^$/$($_$:$<$[$}$|$S@7#7#S@1$>#8#w#2$3$4$` 5$# ",
"# 6$7$8$9$0$a$b$c$d$e$f$g$h$i$j$k$l$m$n$n$n$o$o$o$p$q$r$5$s$t$# ",
"# u$v$w$x$y$z$o@E@A$B$C$D$E$F$G$H$I$j$J$K$L$M$N$O$P$Q$R$S$T$U$# ",
"@ V$W$X$Y$Z$`$ %.%+%@%#%1@$%%%&%*%=%-%;%>%,%'%)%)%!%~%{%]%^%/%@ ",
"+ # (%_%:%<%[%}%|%1%2%3%4%5%6%7%8%8%9%0%a%b%c%8%8%d%e%5%f%g%# + ",
". $ # h%i%j%k%l%m%n%o%p%q%r%s%t%u%u%v%w%x%y%y%y%t%z%A%B%C%# $ . ",
". . + @ # # # # # # # # # # # # # # # # # # # # # # # # @ + . . "};
