/* XPM */
static char * hover_pause_xpm[] = {
"32 32 655 2",
"  	c None",
". 	c #FFFFFF",
"+ 	c #B6DBEC",
"@ 	c #3EA6D0",
"# 	c #038FC4",
"$ 	c #008EC4",
"% 	c #82C3E0",
"& 	c #028DC4",
"* 	c #0987C0",
"= 	c #0B82BD",
"- 	c #0E83BD",
"; 	c #1183BD",
"> 	c #1384BE",
", 	c #1484BE",
"' 	c #1584BE",
") 	c #1785BF",
"! 	c #1886BF",
"~ 	c #3CA4D4",
"{ 	c #50B5DF",
"] 	c #51B6E0",
"^ 	c #53B6E0",
"/ 	c #54B6E0",
"( 	c #55B6E0",
"_ 	c #5BB9E2",
": 	c #77C3E6",
"< 	c #82C8E7",
"[ 	c #7FC6E6",
"} 	c #79C4E5",
"| 	c #63BBE1",
"1 	c #37A9D6",
"2 	c #0C93C8",
"3 	c #B5DBEC",
"4 	c #068CC3",
"5 	c #0B80BB",
"6 	c #0C7FBA",
"7 	c #0D7FBA",
"8 	c #1080BB",
"9 	c #1180BB",
"0 	c #1381BC",
"a 	c #1581BC",
"b 	c #1781BC",
"c 	c #1982BC",
"d 	c #1B83BD",
"e 	c #3B9FD0",
"f 	c #5FBEE6",
"g 	c #61BEE6",
"h 	c #63BFE6",
"i 	c #64C0E7",
"j 	c #65C0E7",
"k 	c #76C6E9",
"l 	c #9CD4EE",
"m 	c #BCE0F3",
"n 	c #BDE0F3",
"o 	c #B8DFF2",
"p 	c #85CAEA",
"q 	c #1A9ACD",
"r 	c #3DA6D0",
"s 	c #0B81BC",
"t 	c #0E80BB",
"u 	c #1080BC",
"v 	c #1281BC",
"w 	c #1482BC",
"x 	c #1682BD",
"y 	c #1883BD",
"z 	c #1A83BD",
"A 	c #1C83BE",
"B 	c #1E84BE",
"C 	c #1F85BE",
"D 	c #3495C9",
"E 	c #67C1E7",
"F 	c #68C1E7",
"G 	c #69C2E8",
"H 	c #6AC2E8",
"I 	c #75C6E9",
"J 	c #ACDAF1",
"K 	c #BEE1F3",
"L 	c #86CBEA",
"M 	c #0A89C1",
"N 	c #0F81BC",
"O 	c #1282BD",
"P 	c #1483BD",
"Q 	c #1683BD",
"R 	c #1983BE",
"S 	c #1B84BE",
"T 	c #1D85BE",
"U 	c #2186BF",
"V 	c #2387C0",
"W 	c #2588C0",
"X 	c #2D8EC5",
"Y 	c #6BC3E9",
"Z 	c #6DC3E9",
"` 	c #6EC3E9",
" .	c #6FC4E9",
"..	c #6CC3E9",
"+.	c #6BC3E8",
"@.	c #A9DAF0",
"#.	c #BADFF3",
"$.	c #39A9D7",
"%.	c #529DCB",
"&.	c #67A1CC",
"*.	c #66A1CC",
"=.	c #65A1CC",
"-.	c #64A1CC",
";.	c #64A2CC",
">.	c #64A2CD",
",.	c #64A1CD",
"'.	c #63A1CD",
").	c #88CAE9",
"!.	c #8CCEED",
"~.	c #8CCFED",
"{.	c #8DCFED",
"].	c #8BCEED",
"^.	c #8ACEED",
"/.	c #88CDED",
"(.	c #86CCED",
"_.	c #85CBEC",
":.	c #82CBEB",
"<.	c #87CDEC",
"[.	c #C4E4F5",
"}.	c #C6E5F5",
"|.	c #74C1E4",
"1.	c #5B9DCB",
"2.	c #69A3CD",
"3.	c #6AA3CD",
"4.	c #6BA4CE",
"5.	c #6CA5CE",
"6.	c #6DA6CF",
"7.	c #6EA7D0",
"8.	c #70A7D0",
"9.	c #71A8D0",
"0.	c #72A9D0",
"a.	c #72A9D1",
"b.	c #8CC7E6",
"c.	c #97D2EF",
"d.	c #99D3EF",
"e.	c #9AD4EF",
"f.	c #98D3EF",
"g.	c #96D2EF",
"h.	c #95D1EE",
"i.	c #94D0ED",
"j.	c #B4DEF2",
"k.	c #CEE9F6",
"l.	c #96CEEA",
"m.	c #5A98C8",
"n.	c #6AA4CE",
"o.	c #6BA5CE",
"p.	c #6BA6CF",
"q.	c #6CA6D0",
"r.	c #6DA7D0",
"s.	c #6FA7D0",
"t.	c #70A8D0",
"u.	c #71A9D0",
"v.	c #73AAD2",
"w.	c #74AAD2",
"x.	c #74ABD2",
"y.	c #89C1E2",
"z.	c #9CD5F0",
"A.	c #9DD5F0",
"B.	c #9ED5F0",
"C.	c #95D2EF",
"D.	c #A4D7F0",
"E.	c #CEE9F7",
"F.	c #99D0EA",
"G.	c #5A94C6",
"H.	c #6BA6D0",
"I.	c #6CA7D0",
"J.	c #6EA8D0",
"K.	c #70A8D1",
"L.	c #71AAD2",
"M.	c #72AAD2",
"N.	c #75ACD3",
"O.	c #76ADD3",
"P.	c #77ADD3",
"Q.	c #84BBDE",
"R.	c #9ED6F0",
"S.	c #9FD7F1",
"T.	c #A0D7F1",
"U.	c #9FD6F1",
"V.	c #9AD4F0",
"W.	c #CFE9F7",
"X.	c #9AD0EB",
"Y.	c #5A93C5",
"Z.	c #6BA4CF",
"`.	c #6DA8D1",
" +	c #6FA9D2",
".+	c #70AAD2",
"++	c #73ABD2",
"@+	c #74ACD3",
"#+	c #D0E2F0",
"$+	c #E4EEF6",
"%+	c #B5D2E7",
"&+	c #79AFD5",
"*+	c #80B6D9",
"=+	c #A1D8F1",
"-+	c #A2D8F2",
";+	c #CDEAF8",
">+	c #ECF7FC",
",+	c #DEF1FA",
"'+	c #9BD0EB",
")+	c #6BA2CD",
"!+	c #6FAAD2",
"~+	c #72ABD2",
"{+	c #73ACD3",
"]+	c #74ADD4",
"^+	c #76AED4",
"/+	c #E7F0F7",
"(+	c #C5DCED",
"_+	c #7CB1D6",
":+	c #7DB3D7",
"<+	c #A0D6F1",
"[+	c #A3D8F2",
"}+	c #A5D9F2",
"|+	c #A6DAF3",
"1+	c #D9EFFA",
"2+	c #EFF8FD",
"3+	c #A4D9F2",
"4+	c #9ED6F1",
"5+	c #CBE8F6",
"6+	c #9CD1EB",
"7+	c #5B95C7",
"8+	c #6B9FCC",
"9+	c #70ABD3",
"0+	c #72ADD4",
"a+	c #73ADD4",
"b+	c #74AED5",
"c+	c #76AFD5",
"d+	c #78B0D6",
"e+	c #C6DDEE",
"f+	c #7FB4D8",
"g+	c #80B5D8",
"h+	c #9CD1EC",
"i+	c #A7DAF3",
"j+	c #A8DBF3",
"k+	c #DAF0FA",
"l+	c #C9E7F6",
"m+	c #5C97C8",
"n+	c #6A9ECB",
"o+	c #74AFD5",
"p+	c #76B0D6",
"q+	c #78B1D6",
"r+	c #79B1D7",
"s+	c #E7F1F8",
"t+	c #C7DEEE",
"u+	c #81B6D9",
"v+	c #83B7DA",
"w+	c #98CCE9",
"x+	c #AADCF3",
"y+	c #ABDDF4",
"z+	c #DCF0FB",
"A+	c #EFF9FD",
"B+	c #C8E6F6",
"C+	c #9ED2EC",
"D+	c #609DCD",
"E+	c #6A9CCA",
"F+	c #73AFD5",
"G+	c #74B0D6",
"H+	c #78B1D7",
"I+	c #79B2D8",
"J+	c #7BB4D8",
"K+	c #E8F1F8",
"L+	c #C8DFEF",
"M+	c #83B8DB",
"N+	c #85B9DB",
"O+	c #94C7E5",
"P+	c #AADCF4",
"Q+	c #ACDDF5",
"R+	c #AEDEF5",
"S+	c #DCF1FB",
"T+	c #F0F9FD",
"U+	c #C6E6F6",
"V+	c #9FD2EC",
"W+	c #529ECF",
"X+	c #6096C8",
"Y+	c #72AFD6",
"Z+	c #76B1D7",
"`+	c #77B2D8",
" @	c #79B3D8",
".@	c #7BB4D9",
"+@	c #7DB5D9",
"@@	c #E8F2F8",
"#@	c #C9E0EF",
"$@	c #86BADD",
"%@	c #87BBDD",
"&@	c #90C3E2",
"*@	c #AFDEF5",
"=@	c #B0DFF6",
"-@	c #DEF1FB",
";@	c #ADDDF5",
">@	c #C4E5F6",
",@	c #459CD0",
"'@	c #3F8AC3",
")@	c #399ACC",
"!@	c #479FD0",
"~@	c #55A5D2",
"{@	c #62AAD5",
"]@	c #6CAFD7",
"^@	c #73B2D8",
"/@	c #CAE1F0",
"(@	c #88BCDE",
"_@	c #8ABDDF",
":@	c #8DBFE0",
"<@	c #B2E0F6",
"[@	c #DFF2FB",
"}@	c #A6DBF4",
"|@	c #A0D9F3",
"1@	c #9AD6F2",
"2@	c #93D3F1",
"3@	c #8BD0EF",
"4@	c #84CDEE",
"5@	c #B2DEF3",
"6@	c #89CBE9",
"7@	c #4590C7",
"8@	c #3A9CCE",
"9@	c #3E9DCF",
"0@	c #429FCF",
"a@	c #46A0D0",
"b@	c #4AA2D1",
"c@	c #4DA3D2",
"d@	c #E1EEF7",
"e@	c #BADAED",
"f@	c #63ACD7",
"g@	c #68AFD8",
"h@	c #6BB0D9",
"i@	c #91D0EE",
"j@	c #9BD7F4",
"k@	c #9DD9F4",
"l@	c #D6EFFB",
"m@	c #ECF7FD",
"n@	c #96D5F2",
"o@	c #92D3F2",
"p@	c #8ED1F0",
"q@	c #8AD0EF",
"r@	c #85CEEE",
"s@	c #82CCED",
"t@	c #AFDDF3",
"u@	c #4C97CC",
"v@	c #3C9ECF",
"w@	c #409FD0",
"x@	c #44A0D0",
"y@	c #48A2D2",
"z@	c #4BA3D2",
"A@	c #4FA5D3",
"B@	c #E2EFF7",
"C@	c #B9DAED",
"D@	c #61ADD8",
"E@	c #65AFD8",
"F@	c #68B0D9",
"G@	c #86C9EA",
"H@	c #98D6F3",
"I@	c #9CD8F4",
"J@	c #ACDBF2",
"K@	c #539CD0",
"L@	c #40A1D2",
"M@	c #41A1D1",
"N@	c #46A2D2",
"O@	c #4AA4D3",
"P@	c #4EA5D4",
"Q@	c #51A7D5",
"R@	c #BADBEE",
"S@	c #64AFD9",
"T@	c #67B1DA",
"U@	c #6AB2DB",
"V@	c #7FC3E6",
"W@	c #97D6F3",
"X@	c #9AD7F3",
"Y@	c #D5EEFA",
"Z@	c #95D5F2",
"`@	c #91D3F1",
" #	c #8DD1F0",
".#	c #89CFEF",
"+#	c #A6D9F2",
"@#	c #449CD0",
"##	c #529BCF",
"$#	c #49ABD9",
"%#	c #42A2D2",
"&#	c #47A3D3",
"*#	c #4BA6D4",
"=#	c #4FA7D5",
"-#	c #53A9D6",
";#	c #BBDCEE",
">#	c #66B1DA",
",#	c #69B3DB",
"'#	c #6CB4DC",
")#	c #79BEE3",
"!#	c #D3EDFA",
"~#	c #92D4F2",
"{#	c #8FD2F0",
"]#	c #8CD0F0",
"^#	c #88CFEF",
"/#	c #83CDEE",
"(#	c #80CBED",
"_#	c #89CAE9",
":#	c #5299CE",
"<#	c #51B4DF",
"[#	c #44A4D4",
"}#	c #48A5D4",
"|#	c #4CA7D5",
"1#	c #51A9D6",
"2#	c #55ABD7",
"3#	c #E2F0F8",
"4#	c #BCDCEF",
"5#	c #67B3DB",
"6#	c #6AB4DD",
"7#	c #6DB6DE",
"8#	c #73BAE0",
"9#	c #91D3F2",
"0#	c #94D4F2",
"a#	c #D2EDFA",
"b#	c #EBF7FD",
"c#	c #8FD2F1",
"d#	c #8CD1F0",
"e#	c #89D0EF",
"f#	c #86CEEE",
"g#	c #7ECAEC",
"h#	c #98D4F0",
"i#	c #439CD0",
"j#	c #5197CC",
"k#	c #56BAE4",
"l#	c #47A7D6",
"m#	c #49A7D6",
"n#	c #4DA9D6",
"o#	c #51ABD8",
"p#	c #56ACD8",
"q#	c #E3F0F8",
"r#	c #BCDDEF",
"s#	c #68B4DD",
"t#	c #6BB6DD",
"u#	c #6DB7DF",
"v#	c #70B9DF",
"w#	c #8BCFEF",
"x#	c #90D2F1",
"y#	c #D0ECF9",
"z#	c #EBF7FC",
"A#	c #87CEEF",
"B#	c #81CBED",
"C#	c #7CCAEC",
"D#	c #8DD0EE",
"E#	c #87C9E8",
"F#	c #429CCF",
"G#	c #5093C9",
"H#	c #54B9E4",
"I#	c #4DAFDB",
"J#	c #4AA8D6",
"K#	c #4EAAD8",
"L#	c #52ACD8",
"M#	c #56AED9",
"N#	c #C9E3F2",
"O#	c #E0EFF8",
"P#	c #E1F0F8",
"Q#	c #ABD5EC",
"R#	c #68B6DE",
"S#	c #6BB7DF",
"T#	c #6EB9E0",
"U#	c #71BAE0",
"V#	c #84CAEB",
"W#	c #C1E6F7",
"X#	c #E8F6FC",
"Y#	c #D7EEFA",
"Z#	c #81CCED",
"`#	c #7AC9EC",
" $	c #83CCEC",
".$	c #86C9E8",
"+$	c #409BCF",
"@$	c #4F8FC7",
"#$	c #52B8E2",
"$$	c #52B5E0",
"%$	c #4AAAD8",
"&$	c #4EABD9",
"*$	c #53ADD9",
"=$	c #57AFDB",
"-$	c #5AB1DB",
";$	c #5EB2DC",
">$	c #62B4DD",
",$	c #65B5DE",
"'$	c #68B6DF",
")$	c #6BB8E0",
"!$	c #6DBAE0",
"~$	c #70BBE1",
"{$	c #7DC6E9",
"]$	c #87CFEF",
"^$	c #7BC9EC",
"/$	c #78C8EB",
"($	c #76C6EA",
"_$	c #83C8E7",
":$	c #3F9ACE",
"<$	c #4E8EC6",
"[$	c #50AFDD",
"}$	c #4AABD9",
"|$	c #4EADD9",
"1$	c #53AEDA",
"2$	c #56B0DB",
"3$	c #5BB1DC",
"4$	c #5EB4DD",
"5$	c #61B5DE",
"6$	c #65B6DF",
"7$	c #68B8E0",
"8$	c #6AB9E0",
"9$	c #6DBAE1",
"0$	c #6FBCE2",
"a$	c #77C2E6",
"b$	c #7DCAEC",
"c$	c #75C6EA",
"d$	c #71C5E9",
"e$	c #3B9ACE",
"f$	c #4B8CC5",
"g$	c #4D9FD1",
"h$	c #50B6E2",
"i$	c #4CAFDC",
"j$	c #4BACD9",
"k$	c #4FAEDA",
"l$	c #54AFDB",
"m$	c #57B1DC",
"n$	c #5CB3DD",
"o$	c #5FB4DE",
"p$	c #63B6DF",
"q$	c #67B8E0",
"r$	c #69BAE1",
"s$	c #6BBBE2",
"t$	c #6EBCE3",
"u$	c #72BFE5",
"v$	c #7FCBED",
"w$	c #77C8EB",
"x$	c #74C6EA",
"y$	c #71C5EA",
"z$	c #66BDE4",
"A$	c #2F98CD",
"B$	c #4787C2",
"C$	c #4A89C3",
"D$	c #46A9D8",
"E$	c #47ABD9",
"F$	c #43A5D4",
"G$	c #46A7D6",
"H$	c #4AA8D7",
"I$	c #4EA9D7",
"J$	c #50A9D7",
"K$	c #52AAD8",
"L$	c #55ACD8",
"M$	c #57ADD8",
"N$	c #5AADD9",
"O$	c #5CAFDA",
"P$	c #5EB1DB",
"Q$	c #60B2DB",
"R$	c #6CBCE2",
"S$	c #6EBDE3",
"T$	c #6DBCE3",
"U$	c #6DBDE3",
"V$	c #6DBDE4",
"W$	c #6CBDE3",
"X$	c #6ABDE4",
"Y$	c #68BDE4",
"Z$	c #66BCE4",
"`$	c #64BCE4",
" %	c #4EB2DC",
".%	c #1C98CC",
"+%	c #4384C0",
"@%	c #4683BF",
"#%	c #468BC4",
"$%	c #41A4D4",
"%%	c #3CA0D1",
"&%	c #3FA1D2",
"*%	c #42A2D3",
"=%	c #46A3D3",
"-%	c #4CA5D4",
";%	c #4FA6D4",
">%	c #50A7D5",
",%	c #52A8D5",
"'%	c #54A9D6",
")%	c #55A9D6",
"!%	c #5CAFD9",
"~%	c #5EB0DA",
"{%	c #5DAFDA",
"]%	c #5BAED9",
"^%	c #5BADD9",
"/%	c #58ADD9",
"(%	c #57ACD8",
"_%	c #55ACD7",
":%	c #53ABD7",
"<%	c #51AAD7",
"[%	c #4EA9D6",
"}%	c #2D9DCE",
"|%	c #0590C6",
"1%	c #328FC7",
"2%	c #427FBC",
"3%	c #4480BD",
"4%	c #4484C0",
"5%	c #3B93C9",
"6%	c #389BCE",
"7%	c #3A9DCE",
"8%	c #3D9DCF",
"9%	c #3D9CCE",
"0%	c #409DCF",
"a%	c #439ECF",
"b%	c #449FCF",
"c%	c #48A0D0",
"d%	c #49A1D1",
"e%	c #4AA1D1",
"f%	c #4EA4D3",
"g%	c #50A6D4",
"h%	c #4DA4D2",
"i%	c #4CA3D2",
"j%	c #4AA2D2",
"k%	c #49A2D1",
"l%	c #47A2D1",
"m%	c #45A0D1",
"n%	c #41A0D0",
"o%	c #0A91C6",
"p%	c #0C91C7",
"q%	c #2D8DC5",
"r%	c #3C7FBD",
"s%	c #417CBA",
"t%	c #427BBA",
"u%	c #3E81BD",
"v%	c #388DC4",
"w%	c #3595C9",
"x%	c #3496C9",
"y%	c #3696CA",
"z%	c #3897CA",
"A%	c #3A97CB",
"B%	c #3B98CB",
"C%	c #3C98CB",
"D%	c #3E99CB",
"E%	c #419ACD",
"F%	c #439CCD",
"G%	c #429BCD",
"H%	c #419ACC",
"I%	c #3F99CC",
"J%	c #3F99CB",
"K%	c #3D99CB",
"L%	c #3B99CB",
"M%	c #3A98CB",
"N%	c #3798CB",
"O%	c #1492C7",
"P%	c #058FC5",
"Q%	c #1591C7",
"R%	c #218EC5",
"S%	c #2A8CC4",
"T%	c #2B89C2",
"U%	c #2E89C2",
"V%	c #2F8AC3",
"W%	c #2A8FC6",
"X%	c #2A91C7",
"Y%	c #2C92C7",
"Z%	c #2D92C7",
"`%	c #2F92C7",
" &	c #3093C7",
".&	c #3193C8",
"+&	c #3294C8",
"@&	c #3495C8",
"#&	c #3394C8",
"$&	c #3293C7",
"%&	c #3193C7",
"&&	c #3192C7",
"*&	c #2891C6",
"=&	c #1F92C7",
"-&	c #0890C5",
". . + @ # $ $ $ $ $ $ $ $ $ $ $ $ $ $ $ $ $ $ $ $ $ $ # @ + . . ",
". % $ & * = - ; > , ' ) ! ~ { ] ^ ^ / ( ( _ : < [ } | 1 2 $ % . ",
"3 $ 4 5 6 7 8 9 0 a b c d e f g h i j j j j i k l m n o p q $ 3 ",
"r & s t u v w x y z A B C D j E F G H H H H G F E I J K n L 2 r ",
"# M N O P Q R S T C U V W X G Y Z `  . . . .` Z ..H +.@.K #.$.# ",
"$ %.&.&.*.*.*.=.-.-.;.>.,.'.).!.!.~.{.~.!.].^./.(._.:.<.[.}.|.$ ",
"$ 1.2.3.4.4.5.6.7.7.8.9.0.a.b.c.d.e.e.e.e.e.e.d.f.g.h.i.j.k.l.$ ",
"$ m.n.o.p.q.r.s.t.u.a.v.w.x.y.e.z.z.A.B.B.A.A.z.e.e.c.C.D.E.F.$ ",
"$ G.H.I.r.J.K.L.M.v.x.N.O.P.Q.A.R.S.T.T.T.T.S.U.A.z.e.f.V.W.X.$ ",
"$ Y.Z.`. +.+L.++@+#+$+$+%+&+*+T.=+-+-+;+>+>+,+=+T.R.z.e.d.E.'+$ ",
"$ G.)+!+.+~+{+]+^+/+. . (+_+:+<+[+}+|+1+. . 2+3+-+T.4+z.e.5+6+$ ",
"$ 7+8+9+0+a+b+c+d+/+. . e+f+g+h+|+i+j+k+. . 2+i+}+[+T.R.z.l+h+$ ",
"$ m+n+0+b+o+p+q+r+s+. . t+u+v+w+j+x+y+z+. . A+j+i+3+-+T.A.B+C+$ ",
"$ D+E+F+G+p+H+I+J+K+. . L+M+N+O+P+Q+R+S+. . T+y+j+i+3+=+U.U+V+$ ",
"$ W+X+Y+Z+`+ @.@+@@@. . #@$@%@&@Q+*@=@-@. . T+;@P+i+}+-+S.>@X.$ ",
"$ ,@'@)@!@~@{@]@^@s+. . /@(@_@:@;@=@<@[@. . A+}@|@1@2@3@4@5@6@$ ",
"$ ,@7@8@9@0@a@b@c@d@. . e@f@g@h@i@j@k@l@. . m@n@o@p@q@r@s@t@6@$ ",
"$ ,@u@v@w@x@y@z@A@B@. . C@D@E@F@G@H@I@l@. . m@n@o@p@q@r@s@J@6@$ ",
"$ ,@K@L@M@N@O@P@Q@B@. . R@S@T@U@V@W@X@Y@. . m@Z@`@ #.#4@s@+#6@$ ",
"$ @###$#%#&#*#=#-#B@. . ;#>#,#'#)#Z@W@!#. . m@~#{#]#^#/#(#S._#$ ",
"$ @#:#<#[#}#|#1#2#3#. . 4#5#6#7#8#9#0#a#. . b#c#d#e#f#s@g#h#).$ ",
"$ i#j#k#l#m#n#o#p#q#. . r#s#t#u#v#w#x#y#. . z#d#q@A#/#B#C#D#E#$ ",
"$ F#G#H#I#J#K#L#M#N#O#P#Q#R#S#T#U#V#]#W#X#X#Y#e#A#4@Z#g#`# $.$$ ",
"$ +$@$#$$$%$&$*$=$-$;$>$,$'$)$!$~${$^#.#.#.#]$r@/#Z#g#^$/$($_$$ ",
"$ :$<$[$H#}$|$1$2$3$4$5$6$7$8$9$0$a$4@4@4@4@/#s@(#b$^$/$c$d$: $ ",
"$ e$f$g$h$i$j$k$l$m$n$o$p$q$r$s$t$u$(#B#B#(#v$g#C#`#w$x$y$Z z$$ ",
"$ A$B$C$D$E$F$G$H$I$J$K$L$M$N$O$P$Q$R$S$t$T$U$V$U$W$X$Y$Z$`$ %$ ",
"# .%+%@%#%$%%%&%*%=%&#O@-%;%>%,%'%)%!%~%{%]%^%N$/%(%_%:%<%[%}%# ",
"r |%1%2%3%4%5%6%7%8%9%0%a%b%a@c%d%e%f%g%A@h%c@i%i%j%k%l%m%n%o%r ",
"3 $ p%q%r%s%t%u%v%w%x%y%z%A%B%C%D%D%E%F%G%H%I%J%D%K%L%M%N%O%$ 3 ",
". % $ P%Q%R%S%T%U%V%W%X%Y%Z%`% &.&.&+&@&#&$&%&&&&&`%*&=&-&$ % . ",
". . + @ # $ $ $ $ $ $ $ $ $ $ $ $ $ $ $ $ $ $ $ $ $ $ # @ + . . "};
