/* XPM */
static char * Pause_Hover_xpm[] = {
"32 32 743 2",
"  	c None",
". 	c #646C7B",
"+ 	c #95A6D5",
"@ 	c #8299E9",
"# 	c #7794FF",
"$ 	c #8A9FF0",
"% 	c #ABBAE9",
"& 	c #5F6676",
"* 	c #909AAD",
"= 	c #698BE6",
"- 	c #6B8BDB",
"; 	c #7095EC",
"> 	c #6D94F1",
", 	c #6C94F6",
"' 	c #6E95F2",
") 	c #7397EF",
"! 	c #6989D9",
"~ 	c #6A8CE6",
"{ 	c #7B85A5",
"] 	c #5D74BA",
"^ 	c #4C76C5",
"/ 	c #094B7B",
"( 	c #056089",
"_ 	c #107AA4",
": 	c #0782AE",
"< 	c #038BB7",
"[ 	c #0591BC",
"} 	c #058BB8",
"| 	c #0881AD",
"1 	c #137AA6",
"2 	c #025B82",
"3 	c #427DCA",
"4 	c #4771BB",
"5 	c #5970B0",
"6 	c #88A7FF",
"7 	c #7B887C",
"8 	c #87A0FF",
"9 	c #496BB0",
"0 	c #1F5F92",
"a 	c #055C80",
"b 	c #1482AC",
"c 	c #1084B5",
"d 	c #1287BA",
"e 	c #168DC3",
"f 	c #178FC9",
"g 	c #158EC7",
"h 	c #158DC7",
"i 	c #158AC1",
"j 	c #1384B8",
"k 	c #1282B5",
"l 	c #0B749B",
"m 	c #0B5C7E",
"n 	c #205D91",
"o 	c #436AB2",
"p 	c #85A3FF",
"q 	c #748FE7",
"r 	c #7289DC",
"s 	c #5583DA",
"t 	c #246CAB",
"u 	c #0B6FA0",
"v 	c #1987BA",
"w 	c #178DBB",
"x 	c #1D92C0",
"y 	c #1E8FC2",
"z 	c #1E8CC2",
"A 	c #208AC4",
"B 	c #1F88C2",
"C 	c #1D86C0",
"D 	c #1A84BC",
"E 	c #1A86BA",
"F 	c #1886B7",
"G 	c #1580B2",
"H 	c #177AB0",
"I 	c #116BA2",
"J 	c #08547C",
"K 	c #3C6BB0",
"L 	c #526BA2",
"M 	c #7090F9",
"N 	c #4C7BC7",
"O 	c #015A83",
"P 	c #117FB7",
"Q 	c #1E91C8",
"R 	c #2292C5",
"S 	c #208FC3",
"T 	c #1F8DC2",
"U 	c #1E8BC0",
"V 	c #1F8AC0",
"W 	c #1D87C0",
"X 	c #1C85BE",
"Y 	c #1C84BD",
"Z 	c #1B83BA",
"` 	c #1A81B9",
" .	c #1981B8",
"..	c #1B80B7",
"+.	c #1C7FB8",
"@.	c #147BB3",
"#.	c #1275AF",
"$.	c #03517B",
"%.	c #3F6BB2",
"&.	c #7493FD",
"*.	c #7C9CFF",
"=.	c #5B685B",
"-.	c #738AE0",
";.	c #1A4E75",
">.	c #0E6190",
",.	c #238CC9",
"'.	c #2194CC",
").	c #1E90C2",
"!.	c #248DC0",
"~.	c #238CC0",
"{.	c #208CBF",
"].	c #1E8EBE",
"^.	c #1C8FBF",
"/.	c #1B92C1",
"(.	c #1A91BF",
"_.	c #1B8FBE",
":.	c #1C8BBC",
"<.	c #1B84B7",
"[.	c #197FB4",
"}.	c #1B7AB2",
"|.	c #1C77B2",
"1.	c #187AAF",
"2.	c #157BB2",
"3.	c #1875B5",
"4.	c #105790",
"5.	c #0D3752",
"6.	c #6686E6",
"7.	c #788599",
"8.	c #819CFD",
"9.	c #4375C3",
"0.	c #116A9A",
"a.	c #2891CE",
"b.	c #2292C9",
"c.	c #208FC2",
"d.	c #2192BF",
"e.	c #1F8DBC",
"f.	c #1E93C3",
"g.	c #1F98C6",
"h.	c #229BC9",
"i.	c #239DCC",
"j.	c #249ECB",
"k.	c #249ECA",
"l.	c #249CCA",
"m.	c #269BCB",
"n.	c #269ACA",
"o.	c #1F92C3",
"p.	c #1A88B9",
"q.	c #187EAF",
"r.	c #1778AB",
"s.	c #1677AF",
"t.	c #1677B3",
"u.	c #1874B3",
"v.	c #165D94",
"w.	c #07314E",
"x.	c #6E89DD",
"y.	c #889AE1",
"z.	c #4069B7",
"A.	c #095B80",
"B.	c #2493CD",
"C.	c #1E92C9",
"D.	c #1E91C2",
"E.	c #1F91C1",
"F.	c #1C91C0",
"G.	c #2199C5",
"H.	c #209DCB",
"I.	c #1F9DCD",
"J.	c #209CCE",
"K.	c #1F9CCD",
"L.	c #1E9ACB",
"M.	c #1F9ACB",
"N.	c #209BCC",
"O.	c #219ACD",
"P.	c #239DCF",
"Q.	c #249DCF",
"R.	c #239BCA",
"S.	c #1F94BF",
"T.	c #1881B5",
"U.	c #1475AD",
"V.	c #1275AC",
"W.	c #1177AD",
"X.	c #1771AB",
"Y.	c #135180",
"Z.	c #4367B7",
"`.	c #859BE7",
" +	c #7893F3",
".+	c #2588BF",
"++	c #1F94C9",
"@+	c #1F90BF",
"#+	c #1B91C0",
"$+	c #1F9CCA",
"%+	c #1E9ACA",
"&+	c #1E98C9",
"*+	c #1F9ACC",
"=+	c #209BCE",
"-+	c #1F99CD",
";+	c #1F98CE",
">+	c #2099CE",
",+	c #2099CD",
"'+	c #2098CB",
")+	c #1F98CB",
"!+	c #1F9CCB",
"~+	c #2396C9",
"{+	c #1E85B9",
"]+	c #1474A7",
"^+	c #1272A5",
"/+	c #1471AB",
"(+	c #16649E",
"_+	c #184E86",
":+	c #6C7FB9",
"<+	c #6D7688",
"[+	c #3B66B4",
"}+	c #196D93",
"|+	c #2795C8",
"1+	c #1F91C3",
"2+	c #238EC2",
"3+	c #2191C1",
"4+	c #1E98C3",
"5+	c #1A96C5",
"6+	c #2093CB",
"7+	c #2293C5",
"8+	c #1E8DBC",
"9+	c #1C8ABB",
"0+	c #208EC1",
"a+	c #2293C8",
"b+	c #2193CA",
"c+	c #2292C8",
"d+	c #1F8DC0",
"e+	c #1C8ABA",
"f+	c #2193C7",
"g+	c #1E94CD",
"h+	c #2195C5",
"i+	c #2895C1",
"j+	c #207FB2",
"k+	c #176EA7",
"l+	c #136BA7",
"m+	c #196EA8",
"n+	c #0B537A",
"o+	c #436CB8",
"p+	c #6D88E9",
"q+	c #407CC5",
"r+	c #2489B6",
"s+	c #2291C3",
"t+	c #1E8FC1",
"u+	c #218EC1",
"v+	c #1F91C5",
"w+	c #1D94C5",
"x+	c #1E94C4",
"y+	c #238FC2",
"z+	c #388DB2",
"A+	c #87BFD9",
"B+	c #A9D7F1",
"C+	c #66ABCC",
"D+	c #268EBD",
"E+	c #1A90C5",
"F+	c #65AACB",
"G+	c #88BED9",
"H+	c #378DB4",
"I+	c #2191C4",
"J+	c #2293C2",
"K+	c #2190C0",
"L+	c #2690C5",
"M+	c #1779B2",
"N+	c #106DA8",
"O+	c #166AA3",
"P+	c #1E699E",
"Q+	c #0A3F68",
"R+	c #6B89E4",
"S+	c #8D857B",
"T+	c #6A87D3",
"U+	c #0C668A",
"V+	c #2B95C8",
"W+	c #208EBF",
"X+	c #208FC1",
"Y+	c #1F8DBF",
"Z+	c #1E8FC5",
"`+	c #1C91C5",
" @	c #1E93C4",
".@	c #1C85B3",
"+@	c #94CCE4",
"@@	c #FBFFFF",
"#@	c #F8FFFE",
"$@	c #EFFFFF",
"%@	c #54A7C8",
"&@	c #1E89B3",
"*@	c #54A7C7",
"=@	c #ECFFFF",
"-@	c #FEFFFF",
";@	c #93CDE4",
">@	c #1B87B8",
",@	c #2190C5",
"'@	c #2289C0",
")@	c #1070AA",
"!@	c #1368A1",
"~@	c #1F69A2",
"{@	c #0D4D77",
"]@	c #6986D6",
"^@	c #282411",
"/@	c #607ECB",
"(@	c #2682AC",
"_@	c #2390C3",
":@	c #1C8CBE",
"<@	c #1F8BBD",
"[@	c #1D8BC2",
"}@	c #1A8DC2",
"|@	c #1C91C2",
"1@	c #187DAD",
"2@	c #C9F0F5",
"3@	c #F8FDFE",
"4@	c #FBFCFA",
"5@	c #FFFFFF",
"6@	c #80C0D7",
"7@	c #1C7C9D",
"8@	c #81C0D7",
"9@	c #C9F1F6",
"0@	c #1780B3",
"a@	c #228FC0",
"b@	c #1E8BBC",
"c@	c #1C8ABF",
"d@	c #258DC2",
"e@	c #1677B0",
"f@	c #1168A1",
"g@	c #19669E",
"h@	c #135686",
"i@	c #8696B1",
"j@	c #586899",
"k@	c #6A8CE3",
"l@	c #258AB4",
"m@	c #208FC6",
"n@	c #198CBE",
"o@	c #1C8CBD",
"p@	c #1E89BA",
"q@	c #1D89C0",
"r@	c #198AC0",
"s@	c #1B8DBF",
"t@	c #177AAB",
"u@	c #C8E8F2",
"v@	c #FDFFFF",
"w@	c #FBFCFC",
"x@	c #7DBBD5",
"y@	c #18799F",
"z@	c #C7E9F3",
"A@	c #177CAF",
"B@	c #1F8CBD",
"C@	c #1E8ABC",
"D@	c #1B88BD",
"E@	c #1E87BA",
"F@	c #1F82B9",
"G@	c #0C679E",
"H@	c #1666A1",
"I@	c #175C87",
"J@	c #6A8EF6",
"K@	c #7E9DFF",
"L@	c #7095F7",
"M@	c #2088B3",
"N@	c #1C8EC6",
"O@	c #1B8CBF",
"P@	c #1A87B8",
"Q@	c #1E84B8",
"R@	c #1D84BC",
"S@	c #1986BD",
"T@	c #1B8ABE",
"U@	c #1576AA",
"V@	c #CFECF2",
"W@	c #FCFCFE",
"X@	c #7DBCD9",
"Y@	c #1976A1",
"Z@	c #CEECF2",
"`@	c #1779AD",
" #	c #2089BC",
".#	c #1C86B9",
"+#	c #1A87BA",
"@#	c #1D86B8",
"##	c #116BA3",
"$#	c #11639E",
"%#	c #0F5887",
"&#	c #7191E8",
"*#	c #7895FF",
"=#	c #6F94F5",
"-#	c #208CB8",
";#	c #198CC4",
">#	c #1787BA",
",#	c #1883B5",
"'#	c #1E82B4",
")#	c #1D81B9",
"!#	c #1983BA",
"~#	c #1A87BC",
"{#	c #1674A7",
"]#	c #CCE9F2",
"^#	c #FCFCFD",
"/#	c #7CB8D5",
"(#	c #18719E",
"_#	c #CBE9F2",
":#	c #1677AA",
"<#	c #1F86B9",
"[#	c #1A83B4",
"}#	c #1984B5",
"|#	c #1C84B3",
"1#	c #1F82B8",
"2#	c #106DA4",
"3#	c #10629A",
"4#	c #0D578D",
"5#	c #8C9FB8",
"6#	c #7794FD",
"7#	c #6E93F4",
"8#	c #1C85B1",
"9#	c #1B8BC4",
"0#	c #1A87BB",
"a#	c #177EB2",
"b#	c #1E7EB0",
"c#	c #1C7DB6",
"d#	c #197FB6",
"e#	c #1A83B8",
"f#	c #146FA2",
"g#	c #CEEAF1",
"h#	c #7AB6D2",
"i#	c #19709F",
"j#	c #7AB5D2",
"k#	c #CDEAF1",
"l#	c #1572A6",
"m#	c #1D82B4",
"n#	c #1A7FB1",
"o#	c #1880B3",
"p#	c #1D7EB5",
"q#	c #146FA6",
"r#	c #0F6099",
"s#	c #0C5488",
"t#	c #859CC5",
"u#	c #7F9EFF",
"v#	c #6F94F7",
"w#	c #2086AF",
"x#	c #1F8BC2",
"y#	c #1781B5",
"z#	c #177BAF",
"A#	c #1C79AE",
"B#	c #1B79B3",
"C#	c #187AB3",
"D#	c #1A7FB3",
"E#	c #136B9E",
"F#	c #CCE9F1",
"G#	c #F7FDFE",
"H#	c #76B4D4",
"I#	c #136B9D",
"J#	c #136EA2",
"K#	c #1E7DB1",
"L#	c #197BAE",
"M#	c #177CB0",
"N#	c #197BAF",
"O#	c #1C7AB2",
"P#	c #136BA3",
"Q#	c #0F5E99",
"R#	c #125686",
"S#	c #6C8CE9",
"T#	c #313C41",
"U#	c #6586D6",
"V#	c #2483AB",
"W#	c #1D85BA",
"X#	c #1980B3",
"Y#	c #1B77AC",
"Z#	c #1A76B1",
"`#	c #1778B0",
" $	c #1A7CAF",
".$	c #126899",
"+$	c #CEE6F0",
"@$	c #F9FCFD",
"#$	c #7BB2CF",
"$$	c #146693",
"%$	c #CCE7F1",
"&$	c #1C7BAE",
"*$	c #1878AB",
"=$	c #1778AF",
"-$	c #1978AD",
";$	c #1D76B0",
">$	c #13669E",
",$	c #115C95",
"'$	c #145481",
")$	c #6480CA",
"!$	c #86877B",
"~$	c #7190DC",
"{$	c #1E7BA0",
"]$	c #1F85B9",
"^$	c #1C80B4",
"/$	c #1474A9",
"($	c #1A73A9",
"_$	c #1873AF",
":$	c #1575AD",
"<$	c #187AAB",
"[$	c #116695",
"}$	c #CDE5F0",
"|$	c #FBFCFD",
"1$	c #7CB0CB",
"2$	c #15628D",
"3$	c #CDE4F0",
"4$	c #116799",
"5$	c #1B78AB",
"6$	c #1775A9",
"7$	c #1675AD",
"8$	c #1874AC",
"9$	c #1A6FAB",
"0$	c #12609A",
"a$	c #135C94",
"b$	c #124E78",
"c$	c #6988DF",
"d$	c #597ACE",
"e$	c #1A678B",
"f$	c #2486B8",
"g$	c #1C7FB2",
"h$	c #1473A9",
"i$	c #1770A7",
"j$	c #186EA9",
"k$	c #1670A6",
"l$	c #1975A9",
"m$	c #0F6194",
"n$	c #CCE4EF",
"o$	c #7BAECA",
"p$	c #135D88",
"q$	c #CAE5EF",
"r$	c #0F6498",
"s$	c #1A74A8",
"t$	c #1670A4",
"u$	c #1571A8",
"v$	c #1870AA",
"w$	c #196BA5",
"x$	c #0F5C94",
"y$	c #175A90",
"z$	c #13466E",
"A$	c #5877CF",
"B$	c #68728A",
"C$	c #5687DA",
"D$	c #1C7495",
"E$	c #1F83B8",
"F$	c #1577AD",
"G$	c #126DA3",
"H$	c #1A6CA1",
"I$	c #1A6B9E",
"J$	c #1C6FA7",
"K$	c #0C5C97",
"L$	c #CBE8F6",
"M$	c #F8FDFD",
"N$	c #76ACC8",
"O$	c #135F88",
"P$	c #76ACC7",
"Q$	c #0C6198",
"R$	c #1B70A8",
"S$	c #186B9F",
"T$	c #176BA2",
"U$	c #196DA7",
"V$	c #106199",
"W$	c #115A91",
"X$	c #0E496A",
"Y$	c #4B73C8",
"Z$	c #6E768E",
"`$	c #556882",
" %	c #1A638B",
".%	c #1E7EB4",
"+%	c #1779B0",
"@%	c #116EA1",
"#%	c #116B9D",
"$%	c #166BA1",
"%%	c #1567A0",
"&%	c #0E6295",
"*%	c #799FBD",
"=%	c #E9FAFF",
"-%	c #3C799F",
";%	c #116295",
">%	c #3C799D",
",%	c #E6F9FF",
"'%	c #799EBC",
")%	c #126194",
"!%	c #146AA3",
"~%	c #1568A1",
"{%	c #17679F",
"]%	c #17639C",
"^%	c #0D5C97",
"/%	c #0D558B",
"(%	c #1A4D81",
"_%	c #8795AD",
":%	c #8599E9",
"<%	c #4B78C5",
"[%	c #227399",
"}%	c #187DB5",
"|%	c #1476AC",
"1%	c #0F669E",
"2%	c #10649C",
"3%	c #14669E",
"4%	c #156596",
"5%	c #195682",
"6%	c #567CA2",
"7%	c #7898B9",
"8%	c #396995",
"9%	c #155C93",
"0%	c #1466A2",
"a%	c #7798B9",
"b%	c #557CA1",
"c%	c #1A5682",
"d%	c #176697",
"e%	c #12659D",
"f%	c #14649E",
"g%	c #16619B",
"h%	c #105B96",
"i%	c #105898",
"j%	c #124F7B",
"k%	c #6787E8",
"l%	c #57698D",
"m%	c #8099FC",
"n%	c #4B7EC1",
"o%	c #1B739B",
"p%	c #156EAB",
"q%	c #10629C",
"r%	c #106196",
"s%	c #146195",
"t%	c #116298",
"u%	c #12598E",
"v%	c #0A4B83",
"w%	c #115F9D",
"x%	c #10609F",
"y%	c #106399",
"z%	c #116297",
"A%	c #136298",
"B%	c #146098",
"C%	c #135B99",
"D%	c #0E5595",
"E%	c #19558D",
"F%	c #0E3354",
"G%	c #637DC8",
"H%	c #616E6A",
"I%	c #506CA9",
"J%	c #296082",
"K%	c #2374AA",
"L%	c #1573AF",
"M%	c #156DA7",
"N%	c #116097",
"O%	c #0F5D96",
"P%	c #0E6199",
"Q%	c #145D96",
"R%	c #195D95",
"S%	c #106099",
"T%	c #0F5F96",
"U%	c #125F97",
"V%	c #185D95",
"W%	c #155D96",
"X%	c #0D619A",
"Y%	c #0C5F99",
"Z%	c #125D94",
"`%	c #105A93",
" &	c #0F5793",
".&	c #13538B",
"+&	c #173E5E",
"@&	c #6787EB",
"#&	c #7C859D",
"$&	c #607DD0",
"%&	c #27597C",
"&&	c #196C96",
"*&	c #1775AE",
"=&	c #136BA5",
"-&	c #0B5A91",
";&	c #105894",
">&	c #125795",
",&	c #0F5991",
"'&	c #12598F",
")&	c #12568D",
"!&	c #145A90",
"~&	c #0F5890",
"{&	c #145897",
"]&	c #125794",
"^&	c #0C5992",
"/&	c #0E5B99",
"(&	c #0F5995",
"_&	c #115995",
":&	c #114F79",
"<&	c #174062",
"[&	c #5A76C6",
"}&	c #5D71AE",
"|&	c #404647",
"1&	c #5572B3",
"2&	c #4576B9",
"3&	c #1B668E",
"4&	c #186FA5",
"5&	c #186CA2",
"6&	c #16689D",
"7&	c #105F99",
"8&	c #0F5996",
"9&	c #10568D",
"0&	c #0E558D",
"a&	c #0F558E",
"b&	c #11558E",
"c&	c #13578F",
"d&	c #0F5594",
"e&	c #0D5A95",
"f&	c #0E5B92",
"g&	c #135996",
"h&	c #11558F",
"i&	c #134E76",
"j&	c #3E67AB",
"k&	c #566FAB",
"l&	c #7E99F5",
"m&	c #838C86",
"n&	c #87A1FF",
"o&	c #3E67B4",
"p&	c #256297",
"q&	c #17597D",
"r&	c #206E9E",
"s&	c #1B6BA4",
"t&	c #1966A3",
"u&	c #1A639B",
"v&	c #125E96",
"w&	c #0F5E96",
"x&	c #135E97",
"y&	c #135A92",
"z&	c #105B98",
"A&	c #13619B",
"B&	c #185E8F",
"C&	c #0E466C",
"D&	c #23558B",
"E&	c #3B5D9B",
"F&	c #8D9390",
"G&	c #9AAFFA",
"H&	c #6275AF",
"I&	c #4D73C3",
"J&	c #184567",
"K&	c #124F74",
"L&	c #145B8B",
"M&	c #125B8E",
"N&	c #15618F",
"O&	c #156288",
"P&	c #145E8A",
"Q&	c #155D92",
"R&	c #135688",
"S&	c #0B4269",
"T&	c #103B62",
"U&	c #486CB9",
"V&	c #5D75B9",
"W&	c #667AB2",
"X&	c #617CCC",
"Y&	c #6D8BE1",
"Z&	c #6480D1",
"`&	c #7A92CA",
" *	c #355368",
".*	c #204871",
"+*	c #234670",
"@*	c #18335A",
"#*	c #637CC3",
"$*	c #6B8AE5",
"%*	c #7D8798",
"                          . + @ # $ % &                         ",
"                      * = - ; > , ' ) ! ~ {                     ",
"                  ] ^ / ( _ : < [ } | 1 2 3 4 5 6               ",
"            7 8 9 0 a b c d e f g h i j k l m n o p q           ",
"            r s t u v w x y z A B C D E F G H I J K L           ",
"          M N O P Q R S T U V W X Y Z `  ...+.@.#.$.%.&.*.      ",
"      =.-.;.>.,.'.).!.~.{.].^./.(._.:.<.[.}.|.1.2.3.4.5.6.7.    ",
"      8.9.0.a.b.c.d.e.f.g.h.i.j.k.l.m.n.o.p.q.r.s.t.u.v.w.x.    ",
"    y.z.A.B.C.D.E.F.G.H.I.J.K.L.M.N.O.P.Q.R.S.T.U.V.W.X.Y.Z.`.  ",
"     +Y..+++D.@+#+$+%+&+*+=+-+;+>+;+,+O.'+)+!+~+{+]+^+/+(+_+:+  ",
"  <+[+}+|+1+2+3+4+5+6+7+8+9+0+a+b+c+d+e+e.f+g+h+i+j+k+l+m+n+o+  ",
"  p+q+r+s+t+u+v+w+x+y+z+A+B+C+D+E+D+F+B+G+H+I+J+K+L+M+N+O+P+Q+R+",
"S+T+U+V+W+X+Y+Z+`+ @.@+@@@#@$@%@&@*@=@#@-@;@>@s+d+,@'@)@!@~@{@]@",
"^@/@(@_@t+:@<@[@}@|@1@2@3@4@5@6@7@8@5@4@@@9@0@a@b@c@d@e@f@g@h@i@",
"j@k@l@m@n@o@p@q@r@s@t@u@v@w@5@x@y@x@5@w@5@z@A@B@C@D@E@F@G@H@I@J@",
"K@L@M@N@O@P@Q@R@S@T@U@V@5@W@5@X@Y@X@5@W@5@Z@`@ #.#+#@#F@##$#%#&#",
"*#=#-#;#>#,#'#)#!#~#{#]#5@^#5@/#(#/#5@^#5@_#:#<#[#}#|#1#2#3#4#5#",
"6#7#8#9#0#a#b#c#d#e#f#g#5@^#5@h#i#j#5@^#5@k#l#m#n#o#n#p#q#r#s#t#",
"u#v#w#x#y#z#A#B#C#D#E#F#v@G#5@H#I#H#-@G#5@F#J#K#L#M#N#O#P#Q#R#S#",
"T#U#V#W#X#`@Y#Z#`# $.$+$5@@$5@#$$$#$5@@$5@%$E#&$*$=$-$;$>$,$'$)$",
"!$~${$]$^$/$($_$:$<$[$}$5@|$5@1$2$1$5@|$5@3$4$5$6$7$8$9$0$a$b$c$",
"  d$e$f$g$h$i$j$k$l$m$n$5@|$5@o$p$o$5@|$5@q$r$s$t$u$v$w$x$y$z$A$",
"  B$C$D$E$F$G$H$I$J$K$L$-@M$5@N$O$P$5@M$5@L$Q$R$S$T$U$V$W$X$Y$Z$",
"    `$ %.%+%@%#%$%%%&%*%-@5@=%-%;%>%,%5@5@'%)%!%~%{%]%^%/%(%_%  ",
"    :%<%[%}%|%1%2%3%4%5%6%7%8%9%0%9%8%a%b%c%d%e%f%g%h%i%j%k%l%  ",
"      m%n%o%t.p%q%r%s%t%u%v%w%x%x%x%w%v%u%y%z%A%B%C%D%E%F%G%    ",
"      H%I%J%K%L%M%N%O%P%Q%R%S%T%U%T%S%V%W%X%Y%Z%`% &.&+&@&#&    ",
"          $&%&&&*&=&2%-&;&>&,&'&)&!&~&{&]&^&/&(&_&:&<&[&}&      ",
"          |&1&2&3&4&5&6&7&8&9&0&a&b&c&d&e&f&g&h&i&j&k&l&        ",
"            m&n&o&p&q&r&s&t&u&v&w&x&y&z&A&B&C&D&E&n&F&          ",
"                G&H&I&J&K&L&M&N&O&P&Q&R&S&T&U&V&W&              ",
"                      X&Y&Z&`& *.*+*@*#*$*%*                    "};
