/* XPM */
static char * Play_Clickl_xpm[] = {
"32 32 711 2",
"  	c None",
". 	c #FFFFFF",
"+ 	c #969EA0",
"@ 	c #565D64",
"# 	c #979DA1",
"$ 	c #C3C8C8",
"% 	c #B6BBC0",
"& 	c #585F6A",
"* 	c #8FBDCE",
"= 	c #63A3BB",
"- 	c #57606B",
"; 	c #B1BABF",
"> 	c #C0C8C7",
", 	c #525D64",
"' 	c #186995",
") 	c #1073A4",
"! 	c #0C7FAE",
"~ 	c #0B88B8",
"{ 	c #0B8EC1",
"] 	c #0D90C6",
"^ 	c #0E8FC6",
"/ 	c #0D8DC1",
"( 	c #0F86BA",
"_ 	c #107DB0",
": 	c #1471A3",
"< 	c #1C6692",
"[ 	c #4E5A66",
"} 	c #C1C6C8",
"| 	c #AFB5B6",
"1 	c #155A85",
"2 	c #136B9B",
"3 	c #137CAA",
"4 	c #1687B5",
"5 	c #188EBC",
"6 	c #168FBD",
"7 	c #1B91C5",
"8 	c #198CC2",
"9 	c #188BC1",
"0 	c #188CC1",
"a 	c #1485B7",
"b 	c #1685B4",
"c 	c #167FAD",
"d 	c #1575A4",
"e 	c #156697",
"f 	c #145584",
"g 	c #EAEBEC",
"h 	c #B0B4B5",
"i 	c #848888",
"j 	c #0F4A6B",
"k 	c #0F6495",
"l 	c #1079B0",
"m 	c #1E8DC1",
"n 	c #1E90C2",
"o 	c #1F8DC2",
"p 	c #1C88C0",
"q 	c #1D8BC2",
"r 	c #1C89C0",
"s 	c #1B84BB",
"t 	c #1F84BC",
"u 	c #1D83BA",
"v 	c #1981B4",
"w 	c #197FB5",
"x 	c #197CB4",
"y 	c #106FA5",
"z 	c #0E5C8D",
"A 	c #8EA6B7",
"B 	c #838688",
"C 	c #A4ABAD",
"D 	c #14689A",
"E 	c #1981BA",
"F 	c #2092C9",
"G 	c #2190C4",
"H 	c #208EC3",
"I 	c #1E8EC3",
"J 	c #1F8CC1",
"K 	c #1F8AC1",
"L 	c #1C8CBF",
"M 	c #188BBD",
"N 	c #1788BD",
"O 	c #1B87BB",
"P 	c #1C81B8",
"Q 	c #1C7FB6",
"R 	c #1B81B6",
"S 	c #1D7DB6",
"T 	c #197AB4",
"U 	c #167AB2",
"V 	c #1471AC",
"W 	c #165E95",
"X 	c #133A5E",
"Y 	c #A6A9A9",
"Z 	c #B1B9BA",
"` 	c #0E4A6B",
" .	c #186C9E",
"..	c #238CC6",
"+.	c #2394CB",
"@.	c #1D90C1",
"#.	c #2291C1",
"$.	c #1E8EBE",
"%.	c #1C90C1",
"&.	c #2094C5",
"*.	c #2295C6",
"=.	c #2497C8",
"-.	c #2499CA",
";.	c #2598C9",
">.	c #2496C8",
",.	c #2492C6",
"'.	c #1F8DC1",
").	c #1784B8",
"!.	c #177CB2",
"~.	c #1B7BB0",
"{.	c #177AAE",
"].	c #1779B4",
"^.	c #1771B0",
"/.	c #165B92",
"(.	c #E9EAEB",
"_.	c #B3B8B8",
":.	c #9EA3A8",
"<.	c #126A9A",
"[.	c #2091C8",
"}.	c #2191C4",
"|.	c #2192C1",
"1.	c #1F91BF",
"2.	c #2196C5",
"3.	c #229CCB",
"4.	c #1F9BC9",
"5.	c #269DCC",
"6.	c #279ACC",
"7.	c #2999CD",
"8.	c #259ACD",
"9.	c #249DCF",
"0.	c #239DCF",
"a.	c #2098C9",
"b.	c #1D8FBE",
"c.	c #1880B0",
"d.	c #1678AE",
"e.	c #1677AF",
"f.	c #1375B1",
"g.	c #166FA8",
"h.	c #175C8E",
"i.	c #9698A0",
"j.	c #145A87",
"k.	c #228DC3",
"l.	c #1E91C7",
"m.	c #1F93C4",
"n.	c #1E91C0",
"o.	c #1D95C4",
"p.	c #1F9BC8",
"q.	c #239BC9",
"r.	c #2497C7",
"s.	c #239AC9",
"t.	c #239BCC",
"u.	c #2198C9",
"v.	c #2397CB",
"w.	c #2499CE",
"x.	c #219ACD",
"y.	c #1E9ACD",
"z.	c #1F9ACD",
"A.	c #2299CD",
"B.	c #209AC9",
"C.	c #2096C4",
"D.	c #1C86BC",
"E.	c #1677AD",
"F.	c #1375A9",
"G.	c #1272A9",
"H.	c #166AA4",
"I.	c #154C7C",
"J.	c #9599A1",
"K.	c #0B3F64",
"L.	c #247CAD",
"M.	c #2192C6",
"N.	c #2190C1",
"O.	c #1F92C0",
"P.	c #1C98C5",
"Q.	c #1D98CA",
"R.	c #2396C8",
"S.	c #2793C2",
"T.	c #2896C4",
"U.	c #2593C3",
"V.	c #2597C8",
"W.	c #2297C9",
"X.	c #2097CA",
"Y.	c #2197CA",
"Z.	c #2296CA",
"`.	c #2396CB",
" +	c #2098CD",
".+	c #2594C5",
"++	c #1E82B4",
"@+	c #1573A7",
"#+	c #166FA9",
"$+	c #186EAA",
"%+	c #186094",
"&+	c #1B6B97",
"*+	c #278EBF",
"=+	c #2091C3",
"-+	c #218FC2",
";+	c #2290C3",
">+	c #2094C4",
",+	c #1D96C4",
"'+	c #2094C6",
")+	c #3191BE",
"!+	c #70B8D4",
"~+	c #A3E2FA",
"{+	c #87C9E1",
"]+	c #479BBF",
"^+	c #2E91BC",
"/+	c #2493C4",
"(+	c #2192C4",
"_+	c #2192C5",
":+	c #1D94C6",
"<+	c #1D95CA",
"[+	c #1E95C8",
"}+	c #2095C4",
"|+	c #258FBD",
"1+	c #2381B7",
"2+	c #176BA9",
"3+	c #176AA7",
"4+	c #1B679D",
"5+	c #16557F",
"6+	c #ADB2B3",
"7+	c #7A7A7F",
"8+	c #2484B4",
"9+	c #258FC0",
"0+	c #2191C3",
"a+	c #208FC0",
"b+	c #1F90C3",
"c+	c #1D94C4",
"d+	c #2192C2",
"e+	c #4E9CBE",
"f+	c #C8E9F0",
"g+	c #F1FFFF",
"h+	c #EDFEFF",
"i+	c #BEE4F0",
"j+	c #77B7D3",
"k+	c #338AB7",
"l+	c #288DBF",
"m+	c #2092C3",
"n+	c #1B93C4",
"o+	c #1A94C6",
"p+	c #1C93C3",
"q+	c #1C92C4",
"r+	c #1E93C7",
"s+	c #2193C0",
"t+	c #268CC1",
"u+	c #1972B1",
"v+	c #176AA9",
"w+	c #1A679D",
"x+	c #1D5F90",
"y+	c #777D80",
"z+	c #134967",
"A+	c #2990C0",
"B+	c #228FC0",
"C+	c #1E8FC1",
"D+	c #1F8DBF",
"E+	c #1D8EC4",
"F+	c #1B90C1",
"G+	c #1E8EBF",
"H+	c #5AA1C1",
"I+	c #DCF2F8",
"J+	c #F9FFFF",
"K+	c #FEFDFD",
"L+	c #FCFEFE",
"M+	c #F5FFFF",
"N+	c #BBDDEE",
"O+	c #6AAAC7",
"P+	c #2D8EB6",
"Q+	c #208BBB",
"R+	c #258CC2",
"S+	c #248BBF",
"T+	c #208CC0",
"U+	c #208CC3",
"V+	c #1E8EBA",
"W+	c #208CBB",
"X+	c #1E84BA",
"Y+	c #0F6EA8",
"Z+	c #1566A3",
"`+	c #19639C",
" @	c #11395C",
".@	c #1F5F7F",
"+@	c #258FC2",
"@@	c #1E8EC0",
"#@	c #1C8DBF",
"$@	c #1E8BBD",
"%@	c #1E8BBF",
"&@	c #1C8CC2",
"*@	c #198DBF",
"=@	c #1C8BBD",
"-@	c #59A0C1",
";@	c #D9F1F8",
">@	c #FDFEFE",
",@	c #FFFCFA",
"'@	c #FEFEFB",
")@	c #FAFFFE",
"!@	c #F4FFFF",
"~@	c #DCF6FB",
"{@	c #98CBDC",
"]@	c #4A95B6",
"^@	c #2984B2",
"/@	c #2487B7",
"(@	c #2089BE",
"_@	c #1B87C2",
":@	c #1D8BBA",
"<@	c #1F8BBA",
"[@	c #1D87BA",
"}@	c #1174AB",
"|@	c #1265A3",
"1@	c #15649E",
"2@	c #144568",
"3@	c #256C8E",
"4@	c #1F8DC3",
"5@	c #1B8DC1",
"6@	c #1B8CBD",
"7@	c #1D88BA",
"8@	c #1E87BB",
"9@	c #1C87BF",
"0@	c #1989BC",
"a@	c #579DC1",
"b@	c #DAF1F8",
"c@	c #FCFEFD",
"d@	c #FDFEFB",
"e@	c #FAFEFE",
"f@	c #FAFDFE",
"g@	c #DDFCFF",
"h@	c #88BBD1",
"i@	c #4891B3",
"j@	c #2686B8",
"k@	c #1E88C1",
"l@	c #1D87B7",
"m@	c #1E87B7",
"n@	c #1679AC",
"o@	c #12629F",
"p@	c #13639E",
"q@	c #144B6D",
"r@	c #267196",
"s@	c #1C8DC3",
"t@	c #198BC0",
"u@	c #1988BA",
"v@	c #1C85B6",
"w@	c #1F83B8",
"x@	c #1C85BC",
"y@	c #1986BA",
"z@	c #1B85BA",
"A@	c #579BC0",
"B@	c #DCF0F8",
"C@	c #FBFDFF",
"D@	c #FFFDFD",
"E@	c #FFFEFF",
"F@	c #FEFDFF",
"G@	c #FDFEFF",
"H@	c #F6FEFE",
"I@	c #F6FFFF",
"J@	c #F0F9FD",
"K@	c #C4E2EB",
"L@	c #579FC8",
"M@	c #2382B6",
"N@	c #1F83B6",
"O@	c #2184B6",
"P@	c #1F84B5",
"Q@	c #197BAD",
"R@	c #14629F",
"S@	c #115F9B",
"T@	c #194E72",
"U@	c #267297",
"V@	c #1A8BC1",
"W@	c #1A8ABF",
"X@	c #1783B6",
"Y@	c #1B81B3",
"Z@	c #1E7FB4",
"`@	c #1B80B8",
" #	c #1981B7",
".#	c #5898BB",
"+#	c #E0F0F6",
"@#	c #FEFFFF",
"##	c #FFFDFE",
"$#	c #FFFEFE",
"%#	c #FFFDFF",
"&#	c #FEFFFD",
"*#	c #FDFFFD",
"=#	c #FEFDFE",
"-#	c #FDFCFF",
";#	c #CFEFF9",
">#	c #4C98BE",
",#	c #237EAD",
"'#	c #217EB3",
")#	c #1A7CAF",
"!#	c #10619C",
"~#	c #125E9D",
"{#	c #1B4A78",
"]#	c #256D91",
"^#	c #1C8AC0",
"/#	c #1D8ABF",
"(#	c #1780B4",
"_#	c #1A7DB0",
":#	c #1D7CB3",
"<#	c #1B7CB6",
"[#	c #187EB3",
"}#	c #1A7DB2",
"|#	c #5696B8",
"1#	c #DDF0F6",
"2#	c #FDFFFF",
"3#	c #FEFFFC",
"4#	c #FEFFFA",
"5#	c #FDFFFB",
"6#	c #FDFCFD",
"7#	c #FCFDFE",
"8#	c #FCFFFE",
"9#	c #FCFEFC",
"0#	c #FEFEFF",
"a#	c #D4F2FB",
"b#	c #4B99BA",
"c#	c #1F7DAB",
"d#	c #1C7AB0",
"e#	c #1C7DB4",
"f#	c #187AAE",
"g#	c #10629B",
"h#	c #105D98",
"i#	c #194A75",
"j#	c #256888",
"k#	c #1E87BA",
"l#	c #1D86BA",
"m#	c #157BAF",
"n#	c #1A7AAE",
"o#	c #1C78B0",
"p#	c #1A79B3",
"q#	c #177AAF",
"r#	c #1979AE",
"s#	c #5494B7",
"t#	c #DBEFF7",
"u#	c #FDFFFE",
"v#	c #FFFEFA",
"w#	c #FEFFF9",
"x#	c #FCFFFB",
"y#	c #FDFCFE",
"z#	c #F6FEFF",
"A#	c #F1FEFF",
"B#	c #CFE7EE",
"C#	c #649FBA",
"D#	c #2079A2",
"E#	c #157CAA",
"F#	c #187BB1",
"G#	c #1979B2",
"H#	c #1675AA",
"I#	c #0E5F95",
"J#	c #125E93",
"K#	c #34607B",
"L#	c #2D6581",
"M#	c #1E83B4",
"N#	c #1E84B7",
"O#	c #187BAF",
"P#	c #1976AB",
"Q#	c #1B75AE",
"R#	c #1976B1",
"S#	c #1778AC",
"T#	c #1877AA",
"U#	c #5590B4",
"V#	c #DDEFF7",
"W#	c #FFFDFB",
"X#	c #FFFFFD",
"Y#	c #FEFCFF",
"Z#	c #F7FFFE",
"`#	c #EBFFFF",
" $	c #95B7CD",
".$	c #4983A3",
"+$	c #21729D",
"@$	c #1975A8",
"#$	c #147AAB",
"$$	c #167AB0",
"%$	c #1875B0",
"&$	c #186FA7",
"*$	c #115C91",
"=$	c #145B8D",
"-$	c #2384B3",
";$	c #1D81B3",
">$	c #187AAF",
",$	c #1672A8",
"'$	c #1971AA",
")$	c #1772AC",
"!$	c #1574A7",
"~$	c #1773A7",
"{$	c #558DB0",
"]$	c #DFEEF5",
"^$	c #FBFDFC",
"/$	c #EDF5FC",
"($	c #A7C5D5",
"_$	c #4B81A2",
":$	c #206A99",
"<$	c #1A72A5",
"[$	c #186FA9",
"}$	c #206FAD",
"|$	c #1872A6",
"1$	c #1473A8",
"2$	c #1872AE",
"3$	c #1564A2",
"4$	c #175994",
"5$	c #19568C",
"6$	c #777B84",
"7$	c #287DA7",
"8$	c #2080B1",
"9$	c #1A7CB1",
"0$	c #1371A8",
"a$	c #196FA6",
"b$	c #196DA4",
"c$	c #196FA3",
"d$	c #5289B0",
"e$	c #DEEDF4",
"f$	c #FCFDFF",
"g$	c #FEFCFE",
"h$	c #F8FFFF",
"i$	c #CBE2EF",
"j$	c #6F96B5",
"k$	c #2C6A94",
"l$	c #1D6C9A",
"m$	c #146FA3",
"n$	c #1270AA",
"o$	c #186FAB",
"p$	c #1B6CA6",
"q$	c #196DA2",
"r$	c #1670A6",
"s$	c #176CA8",
"t$	c #13609B",
"u$	c #15568D",
"v$	c #3C6A91",
"w$	c #267EAE",
"x$	c #197CB2",
"y$	c #1474AA",
"z$	c #136DA0",
"A$	c #186DA0",
"B$	c #1869A0",
"C$	c #1569A2",
"D$	c #427FA9",
"E$	c #CAE3EC",
"F$	c #F5FEFF",
"G$	c #F8FEFF",
"H$	c #D4E2EB",
"I$	c #82A4C0",
"J$	c #245D8C",
"K$	c #1C6396",
"L$	c #1A6A9F",
"M$	c #14699D",
"N$	c #146DA3",
"O$	c #126BA3",
"P$	c #156CA4",
"Q$	c #176AA2",
"R$	c #176AA1",
"S$	c #1868A2",
"T$	c #13639D",
"U$	c #0E5B93",
"V$	c #165686",
"W$	c #404654",
"X$	c #8F959E",
"Y$	c #B9C2CA",
"Z$	c #25709D",
"`$	c #1B7BB1",
" %	c #1778AD",
".%	c #106CA0",
"+%	c #11699E",
"@%	c #1468A0",
"#%	c #13689D",
"$%	c #226991",
"%%	c #71A0B9",
"&%	c #C4E7F7",
"*%	c #98BACA",
"=%	c #417090",
"-%	c #1F5F8C",
";%	c #15659B",
">%	c #16679E",
",%	c #19679A",
"'%	c #196598",
")%	c #17669B",
"!%	c #15679A",
"~%	c #13689E",
"{%	c #1368A1",
"]%	c #16669F",
"^%	c #16639B",
"/%	c #105C97",
"(%	c #0F5892",
"_%	c #164E7B",
":%	c #8A949A",
"<%	c #2377A5",
"[%	c #1879B0",
"}%	c #1265A1",
"|%	c #11639A",
"1%	c #146498",
"2%	c #156193",
"3%	c #165F90",
"4%	c #0E5280",
"5%	c #165B88",
"6%	c #186192",
"7%	c #136398",
"8%	c #0E659E",
"9%	c #106199",
"0%	c #14649C",
"a%	c #14629C",
"b%	c #13639A",
"c%	c #13649A",
"d%	c #14639B",
"e%	c #15609B",
"f%	c #125B99",
"g%	c #105592",
"h%	c #195389",
"i%	c #BAC2CB",
"j%	c #AEB7B6",
"k%	c #236080",
"l%	c #2374A6",
"m%	c #1774B1",
"n%	c #146DA9",
"o%	c #126096",
"p%	c #156097",
"q%	c #165F96",
"r%	c #18619B",
"s%	c #135E99",
"t%	c #135F9B",
"u%	c #11619A",
"v%	c #10619A",
"w%	c #116098",
"x%	c #136098",
"y%	c #156096",
"z%	c #116097",
"A%	c #116197",
"B%	c #145F96",
"C%	c #115B96",
"D%	c #115896",
"E%	c #175389",
"F%	c #184169",
"G%	c #B5B8BB",
"H%	c #9FAAA7",
"I%	c #2270A2",
"J%	c #1773AA",
"K%	c #166CA5",
"L%	c #11639C",
"M%	c #115C96",
"N%	c #135994",
"O%	c #115895",
"P%	c #125999",
"Q%	c #125B9B",
"R%	c #115897",
"S%	c #135A95",
"T%	c #135A92",
"U%	c #115B91",
"V%	c #125B90",
"W%	c #115C92",
"X%	c #0E5C97",
"Y%	c #0F5D98",
"Z%	c #115A94",
"`%	c #11578F",
" &	c #175485",
".&	c #163C5E",
"+&	c #A9ACB1",
"@&	c #808385",
"#&	c #20587A",
"$&	c #1F6F9E",
"%&	c #176FA7",
"&&	c #166CA4",
"*&	c #12639B",
"=&	c #125D97",
"-&	c #105892",
";&	c #125994",
">&	c #105693",
",&	c #105894",
"'&	c #115890",
")&	c #12588E",
"!&	c #12588D",
"~&	c #115991",
"{&	c #0D5A95",
"]&	c #0D5997",
"^&	c #105895",
"/&	c #135892",
"(&	c #175383",
"_&	c #AAB3B2",
":&	c #1D5F8C",
"<&	c #1F699B",
"[&	c #1C689C",
"}&	c #19679E",
"|&	c #13649B",
"1&	c #105F97",
"2&	c #105C91",
"3&	c #105B8C",
"4&	c #105A89",
"5&	c #125C8F",
"6&	c #105992",
"7&	c #105995",
"8&	c #145A99",
"9&	c #165692",
"0&	c #1A568B",
"a&	c #154A78",
"b&	c #C0C5C8",
"c&	c #256189",
"d&	c #1F6593",
"e&	c #156599",
"f&	c #12669D",
"g&	c #126499",
"h&	c #116193",
"i&	c #116093",
"j&	c #0E5F98",
"k&	c #0E5C98",
"l&	c #1C558B",
"m&	c #1E4F7C",
"n&	c #B2B7BE",
"o&	c #555B66",
"p&	c #1F4765",
"q&	c #14456B",
"r&	c #174B71",
"s&	c #1A4C72",
"t&	c #184D73",
"u&	c #104972",
"v&	c #11446B",
"w&	c #1D415F",
"x&	c #5A5F67",
"y&	c #B6BCC1",
"z&	c #93999C",
"A&	c #999C96",
"B&	c #C5C7C0",
"                    . + @ . . . . . . . # $                     ",
"                % & . . . . . * = . . . . . - ;                 ",
"            > , . . ' ) ! ~ { ] ^ / ( _ : < . . [ }             ",
"          | . . 1 2 3 4 5 6 7 8 9 0 a b c d e f . g h           ",
"        i . j k l m n n o o p q r s t u v w x y z A . B         ",
"      C . . D E F G H I J K L M N O P Q R S T U V W X . Y       ",
"    Z . `  ...+.@.#.$.%.&.*.=.-.;.>.,.'.).!.~.{.].^./.. (._.    ",
"    :.. <...[.}.|.1.2.3.4.3.5.6.7.8.9.0.a.b.c.d.e.f.g.h.. .     ",
"  i.. j.k.l.m.n.o.p.q.r.s.t.u.v.w.x.y.z.A.B.C.D.E.F.G.H.I.. J.  ",
"  . K.L.M.M.N.O.P.Q.R.S.T.U.V.W.X.X.Y.Z.`. +X..+++@+#+$+%+. .   ",
"  . &+*+=+-+;+>+,+'+)+!+~+{+]+^+/+(+_+&.:+<+[+}+|+1+2+3+4+5+. 6+",
"7+. 8+9+0+a+b+l.c+d+e+f+g+h+i+j+k+l+m+n+o+p+q+r+s+t+u+v+w+x+. y+",
". z+A+B+C+D+J E+F+G+H+I+J+K+L+M+N+O+P+Q+R+S+T+U+V+W+X+Y+Z+`+ @. ",
". .@+@@@#@$@%@&@*@=@-@;@>@,@'@)@!@~@{@]@^@/@(@_@:@<@[@}@|@1@2@. ",
". 3@4@5@6@7@8@9@0@O a@b@c@,@d@)@e@f@g+g@h@i@j@k@[@l@m@n@o@p@q@. ",
". r@s@t@u@v@w@x@y@z@A@B@C@D@D@E@F@G@H@I@J@K@L@M@N@O@P@Q@R@S@T@. ",
". U@V@W@X@Y@Z@`@ #R .#+#@###$#E@%###&#*#=#-#;#>#,#'#Z@)#!#~#{#. ",
". ]#^#/#(#_#:#<#[#}#|#1#2#3#4#5#6###7#8#9#0#a#b#c#d#e#f#g#h#i#. ",
". j#k#l#m#n#o#p#q#r#s#t#u#v#w#x#E@y#8#z#A#B#C#D#E#F#G#H#I#J#K#. ",
". L#M#N#O#P#Q#R#S#T#U#V#@#W#X#2#Y#y#Z#`# $.$+$@$#$$$%$&$*$=$. . ",
". . -$;$>$,$'$)$!$~${$]$2#u#u#u#^$/$($_$:$<$[$}$|$1$2$3$4$5$. 6$",
"  . 7$8$9$0$a$b$c$&$d$e$f$g$0#h$i$j$k$l$m$n$o$p$q$r$s$t$u$v$.   ",
"  . . w$x$y$z$A$B$C$D$E$F$G$H$I$J$K$L$M$N$O$P$Q$R$S$T$U$V$. W$  ",
"  X$Y$Z$`$ %.%+%@%#%$%%%&%*%=%-%;%>%,%'%)%!%~%{%]%^%/%(%_%. .   ",
"    :%. <%[%V }%|%1%2%3%4%5%6%7%8%8%9%0%a%b%c%d%e%f%g%h%i%.     ",
"    j%. k%l%m%n%|%o%p%q%r%s%t%t$u%v%w%x%y%z%A%B%C%D%E%F%. G%    ",
"      H%. . I%J%K%L%M%N%O%P%Q%R%S%T%U%V%W%X%Y%Z%`% &.&. +&      ",
"        @&. #&$&%&&&*&=&-&;&>&,&'&)&!&~&{&]&^&/&(&. . .         ",
"          _&. . :&<&[&}&|&1&2&3&4&5&6&7&8&9&0&a&. .             ",
"            b&. . . c&d&e&f&g&h&i&j&k&S%l&m&. . .               ",
"                n&o&. . p&q&r&s&t&u&v&w&. . x&y&                ",
"                      z&. . . . . . . . A&B&                    "};
