/* XPM */
static char * Previous_Normal_xpm[] = {
"32 32 804 2",
"  	c None",
". 	c #C4C8C8",
"+ 	c #9A9CA0",
"@ 	c #575D64",
"# 	c #273D46",
"$ 	c #022532",
"% 	c #03202E",
"& 	c #031F2E",
"* 	c #263C46",
"= 	c #555C64",
"- 	c #9A9B9F",
"; 	c #B6BBC0",
"> 	c #585F6A",
", 	c #1A2C43",
"' 	c #04304E",
") 	c #134D6C",
"! 	c #135D7F",
"~ 	c #0F6C8F",
"{ 	c #11769A",
"] 	c #13769B",
"^ 	c #106B8F",
"/ 	c #135B7E",
"( 	c #134A6A",
"_ 	c #052F4D",
": 	c #192C42",
"< 	c #57606B",
"[ 	c #B1BABF",
"} 	c #525D64",
"| 	c #061C36",
"1 	c #0E3F63",
"2 	c #176A95",
"3 	c #0F75A4",
"4 	c #0E7DAF",
"5 	c #0E86B9",
"6 	c #0E8DC3",
"7 	c #0C90C7",
"8 	c #0D90C7",
"9 	c #0E8CC2",
"0 	c #1185BA",
"a 	c #117CAF",
"b 	c #1273A3",
"c 	c #1A6792",
"d 	c #0E3E61",
"e 	c #061E3A",
"f 	c #4E5A66",
"g 	c #C1C6C8",
"h 	c #AFB5B6",
"i 	c #1F2F38",
"j 	c #0B314A",
"k 	c #155A85",
"l 	c #136B9B",
"m 	c #117DAA",
"n 	c #1389B5",
"o 	c #198DBC",
"p 	c #198DBF",
"q 	c #1E8FC7",
"r 	c #1A8BC3",
"s 	c #198AC2",
"t 	c #1A8AC2",
"u 	c #1584B9",
"v 	c #1685B6",
"w 	c #1280AF",
"x 	c #1276A5",
"y 	c #156697",
"z 	c #145584",
"A 	c #0F324F",
"B 	c #202E39",
"C 	c #B2B6B7",
"D 	c #848888",
"E 	c #101F2B",
"F 	c #0F4A6B",
"G 	c #0F6495",
"H 	c #1079B0",
"I 	c #1E8DC1",
"J 	c #1F90C2",
"K 	c #1E90C2",
"L 	c #1F8EC2",
"M 	c #1F8DC2",
"N 	c #1E88C0",
"O 	c #2189C3",
"P 	c #2087C2",
"Q 	c #1C83BD",
"R 	c #1C85BC",
"S 	c #1B85BA",
"T 	c #1781B6",
"U 	c #197FB5",
"V 	c #197CB4",
"W 	c #106FA5",
"X 	c #0E5C8D",
"Y 	c #124569",
"Z 	c #111D2C",
"` 	c #86898B",
" .	c #A4ABAD",
"..	c #0E202B",
"+.	c #10405F",
"@.	c #14689A",
"#.	c #1981BA",
"$.	c #2092C9",
"%.	c #2190C4",
"&.	c #228EC1",
"*.	c #228EC2",
"=.	c #1E8CC0",
"-.	c #1D8BBF",
";.	c #1C8BBF",
">.	c #1A8ABE",
",.	c #1987BC",
"'.	c #1B87BC",
").	c #1A83B8",
"!.	c #1A80B6",
"~.	c #1C80B7",
"{.	c #1D7DB6",
"].	c #197AB4",
"^.	c #167AB2",
"/.	c #1471AC",
"(.	c #165E95",
"_.	c #133A5E",
":.	c #101D2C",
"<.	c #A8ABAB",
"[.	c #B1B9BA",
"}.	c #192932",
"|.	c #0E4A6B",
"1.	c #186C9E",
"2.	c #238CC6",
"3.	c #2394CB",
"4.	c #1D90C1",
"5.	c #2291C1",
"6.	c #218EBF",
"7.	c #1F90C3",
"8.	c #2094C4",
"9.	c #2297C6",
"0.	c #229AC8",
"a.	c #229CC8",
"b.	c #2299C7",
"c.	c #2298C6",
"d.	c #2394C4",
"e.	c #1F8DBF",
"f.	c #1983B7",
"g.	c #197CB1",
"h.	c #1B7BB0",
"i.	c #177AAE",
"j.	c #1779B4",
"k.	c #1771B0",
"l.	c #165B92",
"m.	c #124165",
"n.	c #192630",
"o.	c #B3B8B8",
"p.	c #333F48",
"q.	c #0A314A",
"r.	c #126A9A",
"s.	c #2091C8",
"t.	c #2191C4",
"u.	c #2192C1",
"v.	c #1F91BF",
"w.	c #2096C4",
"x.	c #1F9BC9",
"y.	c #219CCC",
"z.	c #229ECD",
"A.	c #219DCC",
"B.	c #219CCA",
"C.	c #239DCB",
"D.	c #239BCB",
"E.	c #259CCD",
"F.	c #2196C7",
"G.	c #1E8FBD",
"H.	c #1880B0",
"I.	c #1678AE",
"J.	c #1677AF",
"K.	c #1375B1",
"L.	c #166FA8",
"M.	c #175C8E",
"N.	c #0A2946",
"O.	c #37404C",
"P.	c #051E3A",
"Q.	c #145A87",
"R.	c #228DC3",
"S.	c #1E91C7",
"T.	c #1F93C4",
"U.	c #1E91C0",
"V.	c #1D95C4",
"W.	c #1F9BC8",
"X.	c #209CCA",
"Y.	c #1F9BCB",
"Z.	c #1F9ACD",
"`.	c #1F9ACE",
" +	c #209BCF",
".+	c #209ACD",
"++	c #209ACC",
"@+	c #2199CC",
"#+	c #209BC9",
"$+	c #1C86BC",
"%+	c #1677AD",
"&+	c #1375A9",
"*+	c #1272A9",
"=+	c #166AA4",
"-+	c #154C7C",
";+	c #061A39",
">+	c #9599A1",
",+	c #3F4553",
"'+	c #0B3F64",
")+	c #247CAD",
"!+	c #2192C6",
"~+	c #2190C1",
"{+	c #1F92C0",
"]+	c #1C98C5",
"^+	c #1D98CA",
"/+	c #2097CA",
"(+	c #2098C8",
"_+	c #2098CA",
":+	c #2197CA",
"<+	c #2196CC",
"[+	c #2297CC",
"}+	c #2196CB",
"|+	c #2198C9",
"1+	c #2198CA",
"2+	c #2098CD",
"3+	c #2594C5",
"4+	c #1E82B4",
"5+	c #1573A7",
"6+	c #166FA9",
"7+	c #186EAA",
"8+	c #186094",
"9+	c #0C375D",
"0+	c #414855",
"a+	c #E7E6E4",
"b+	c #0B2137",
"c+	c #1D6A95",
"d+	c #268EBC",
"e+	c #1F93C2",
"f+	c #2090C2",
"g+	c #2391C7",
"h+	c #2193C5",
"i+	c #2692BC",
"j+	c #3A96BF",
"k+	c #479EC6",
"l+	c #3495BA",
"m+	c #2591C3",
"n+	c #2392C6",
"o+	c #2193C7",
"p+	c #2092C7",
"q+	c #2491C6",
"r+	c #2192C7",
"s+	c #2093C5",
"t+	c #2393BF",
"u+	c #2D90BB",
"v+	c #3F98C3",
"w+	c #429AC5",
"x+	c #2E91BB",
"y+	c #258FC1",
"z+	c #1D81B9",
"A+	c #116FA7",
"B+	c #146CA4",
"C+	c #19689C",
"D+	c #155580",
"E+	c #0B1F34",
"F+	c #AFB1B0",
"G+	c #7A7A7F",
"H+	c #032B46",
"I+	c #2684B1",
"J+	c #2191BD",
"K+	c #1E92BF",
"L+	c #1E8FC2",
"M+	c #1E8DC6",
"N+	c #228EC5",
"O+	c #499DC2",
"P+	c #A2D7E8",
"Q+	c #C1E9F1",
"R+	c #98D5E7",
"S+	c #308EBF",
"T+	c #228CC2",
"U+	c #2091C4",
"V+	c #1E91C3",
"W+	c #2391C4",
"X+	c #2590BD",
"Y+	c #2C8BAF",
"Z+	c #72B6D2",
"`+	c #B4DFEC",
" @	c #B1E1EF",
".@	c #55A4C6",
"+@	c #2290C3",
"@@	c #1D8FC5",
"#@	c #1078AC",
"$@	c #126EA2",
"%@	c #1A679B",
"&@	c #1C5F92",
"*@	c #062540",
"=@	c #7B7B7D",
"-@	c #353F4C",
";@	c #114A6C",
">@	c #2691C3",
",@	c #2090C1",
"'@	c #208FBF",
")@	c #1D8EBF",
"!@	c #288CBC",
"~@	c #7FBBD0",
"{@	c #E2FFFF",
"]@	c #F5FFFE",
"^@	c #EBFFFE",
"/@	c #5AA7D6",
"(@	c #278CC0",
"_@	c #1B8FBB",
":@	c #1992BB",
"<@	c #1A8FBC",
"[@	c #2A8FBC",
"}@	c #68ABCA",
"|@	c #B8DFEE",
"1@	c #ECFEFF",
"2@	c #F3FFFF",
"3@	c #E7FFFF",
"4@	c #80BBD1",
"5@	c #268BBA",
"6@	c #1F8EBF",
"7@	c #1C83B5",
"8@	c #116EA2",
"9@	c #15679E",
"0@	c #18649C",
"a@	c #10395D",
"b@	c #39404B",
"c@	c #0F2435",
"d@	c #1A6086",
"e@	c #2091C7",
"f@	c #1E8EC2",
"g@	c #228BBF",
"h@	c #1C8CBC",
"i@	c #1C8DBB",
"j@	c #2887B2",
"k@	c #8DBBCF",
"l@	c #EEFFFF",
"m@	c #FDFFFB",
"n@	c #F4FFFD",
"o@	c #63ABD3",
"p@	c #2688B9",
"q@	c #1D8AB9",
"r@	c #238BB4",
"s@	c #4694B4",
"t@	c #91C8DC",
"u@	c #DCF4FB",
"v@	c #F6FFFF",
"w@	c #FAFFFF",
"x@	c #FDFEFD",
"y@	c #EFFFFF",
"z@	c #89BCCF",
"A@	c #2089BA",
"B@	c #2185B8",
"C@	c #1673A7",
"D@	c #11669F",
"E@	c #1464A0",
"F@	c #14466C",
"G@	c #132533",
"H@	c #021727",
"I@	c #216D91",
"J@	c #1D8EC4",
"K@	c #208BC1",
"L@	c #2288BD",
"M@	c #1C8ABB",
"N@	c #1988B6",
"O@	c #2986B2",
"P@	c #90B9CD",
"Q@	c #F3FEFF",
"R@	c #FFFEFD",
"S@	c #F2FEFF",
"T@	c #61A8CC",
"U@	c #2C83AC",
"V@	c #4390B4",
"W@	c #80B9D2",
"X@	c #DFF8FF",
"Y@	c #F5FFFF",
"Z@	c #FCFDFF",
"`@	c #FFFDFC",
" #	c #FFFEFB",
".#	c #F1FFFF",
"+#	c #8CBCCE",
"@#	c #2A84AF",
"##	c #1F85B5",
"$#	c #2286B8",
"%#	c #1B77AB",
"&#	c #10649E",
"*#	c #12649F",
"=#	c #144A71",
"-#	c #021422",
";#	c #061A26",
">#	c #287194",
",#	c #1F8CC1",
"'#	c #1F89BF",
")#	c #1F85BA",
"!#	c #1985B8",
"~#	c #1987B9",
"{#	c #2381AF",
"]#	c #8DBBCE",
"^#	c #FEFEFF",
"/#	c #64A5C8",
"(#	c #5A9CBB",
"_#	c #C0E3EC",
":#	c #EBFCFE",
"<#	c #FAFFFD",
"[#	c #FBFFFE",
"}#	c #FCFEFF",
"|#	c #FFFCFE",
"1#	c #FFFDFD",
"2#	c #FFFEFE",
"3#	c #F0FFFF",
"4#	c #89BACE",
"5#	c #247FAE",
"6#	c #1E84B7",
"7#	c #2083B7",
"8#	c #1E79AE",
"9#	c #11649E",
"0#	c #10609B",
"a#	c #194D73",
"b#	c #05131F",
"c#	c #071A24",
"d#	c #287292",
"e#	c #1E89BF",
"f#	c #1F88BF",
"g#	c #1B80B7",
"h#	c #1782B7",
"i#	c #1683B7",
"j#	c #227FAF",
"k#	c #8AB7CC",
"l#	c #F2FFFF",
"m#	c #8BB3CC",
"n#	c #C9E4ED",
"o#	c #F4FFFF",
"p#	c #F9FFFE",
"q#	c #F9FEF9",
"r#	c #FAFEFC",
"s#	c #FEFEFE",
"t#	c #F8FEFF",
"u#	c #FCFFFF",
"v#	c #85B7CC",
"w#	c #227DAF",
"x#	c #1A81B6",
"y#	c #1E80B6",
"z#	c #1F79B1",
"A#	c #10619C",
"B#	c #105F9A",
"C#	c #1A4C72",
"D#	c #06121D",
"E#	c #071B2A",
"F#	c #246F90",
"G#	c #1B8BC0",
"H#	c #1F89C0",
"I#	c #1B7DB6",
"J#	c #157EB5",
"K#	c #157FB3",
"L#	c #217BAB",
"M#	c #8CB5CB",
"N#	c #F3FEFD",
"O#	c #7FAAC4",
"P#	c #BCDAE6",
"Q#	c #F9FDFF",
"R#	c #FEFDFD",
"S#	c #FDFDFB",
"T#	c #FBFEFE",
"U#	c #FEFEFC",
"V#	c #F8FFFA",
"W#	c #FCFEFE",
"X#	c #86B6CA",
"Y#	c #227AAB",
"Z#	c #1A7EB3",
"`#	c #1B7CB4",
" $	c #1D77B0",
".$	c #10629D",
"+$	c #0F5D9A",
"@$	c #184B71",
"#$	c #05131E",
"$$	c #142C38",
"%$	c #22698B",
"&$	c #1A88BC",
"*$	c #1979B1",
"=$	c #167BB2",
"-$	c #167BAF",
";$	c #2376A6",
">$	c #8EB3C8",
",$	c #FEFFFB",
"'$	c #F2FFFE",
")$	c #659BBF",
"!$	c #3D739A",
"~$	c #9ABCD5",
"{$	c #DEEDF7",
"]$	c #FAFCFC",
"^$	c #FCFFFC",
"/$	c #FDFFFA",
"($	c #FDFEF9",
"_$	c #87B4C8",
":$	c #2177A6",
"<$	c #197BAE",
"[$	c #1A79B0",
"}$	c #1B73AC",
"|$	c #0E5E9A",
"1$	c #105D9A",
"2$	c #13446B",
"3$	c #12232F",
"4$	c #35434E",
"5$	c #225D7E",
"6$	c #1B84B6",
"7$	c #1C85B8",
"8$	c #1677AC",
"9$	c #1977AB",
"0$	c #2473A3",
"a$	c #8BB2C6",
"b$	c #FEFFFC",
"c$	c #F3FEFE",
"d$	c #619DC4",
"e$	c #2470A2",
"f$	c #2872A2",
"g$	c #5088AF",
"h$	c #BFD5E2",
"i$	c #F2FCFE",
"j$	c #F9FEFC",
"k$	c #FEFEFB",
"l$	c #86B2C6",
"m$	c #1F75A4",
"n$	c #1878AC",
"o$	c #1975AB",
"p$	c #1A6EA6",
"q$	c #105C97",
"r$	c #125A96",
"s$	c #143D61",
"t$	c #374049",
"u$	c #797D82",
"v$	c #143F5B",
"w$	c #2682B0",
"x$	c #1C83B1",
"y$	c #177CAD",
"z$	c #1572A6",
"A$	c #1C71A8",
"B$	c #216F9F",
"C$	c #83B2C7",
"D$	c #FFFEFC",
"E$	c #F6FEFE",
"F$	c #5A98C6",
"G$	c #1B71A9",
"H$	c #1374AA",
"I$	c #1972A2",
"J$	c #276893",
"K$	c #5D8CB1",
"L$	c #C0DBE7",
"M$	c #EFFAFD",
"N$	c #FFFDFE",
"O$	c #83B1C6",
"P$	c #1B71A0",
"Q$	c #1674A8",
"R$	c #1971A7",
"S$	c #16659B",
"T$	c #145B92",
"U$	c #16578E",
"V$	c #0A2A48",
"W$	c #7A7A7E",
"X$	c #AEB0B4",
"Y$	c #0E2C40",
"Z$	c #2C7CA4",
"`$	c #1F80B2",
" %	c #177DB2",
".%	c #1372A7",
"+%	c #176EA4",
"@%	c #1E6C9F",
"#%	c #6CA2BD",
"$%	c #E9FEFF",
"%%	c #EEFEFE",
"&%	c #4383B2",
"*%	c #146DA8",
"=%	c #1271AA",
"-%	c #1770A3",
";%	c #1C6DA0",
">%	c #1D69A0",
",%	c #3474A3",
"'%	c #76A2BC",
")%	c #E9F7FE",
"!%	c #FBFFFF",
"~%	c #79A7BE",
"{%	c #1B6B9C",
"]%	c #186FA6",
"^%	c #186BA3",
"/%	c #136098",
"(%	c #135790",
"_%	c #195285",
":%	c #0C2038",
"<%	c #E5E5EA",
"[%	c #3D4752",
"}%	c #1E5B78",
"|%	c #257FAC",
"1%	c #177CB3",
"2%	c #1573AB",
"3%	c #156BA1",
"4%	c #1969A0",
"5%	c #286B9A",
"6%	c #6E9EBF",
"7%	c #9CC2D4",
"8%	c #6393B2",
"9%	c #1E6698",
"0%	c #146AA5",
"a%	c #136CA6",
"b%	c #176A9E",
"c%	c #176A9F",
"d%	c #136DA8",
"e%	c #1169A5",
"f%	c #1A6497",
"g%	c #37698A",
"h%	c #87ACC5",
"i%	c #85B0C8",
"j%	c #34719B",
"k%	c #1C699E",
"l%	c #186AA3",
"m%	c #14639E",
"n%	c #105993",
"o%	c #185487",
"p%	c #153D63",
"q%	c #3F4855",
"r%	c #E4E5E5",
"s%	c #8E969C",
"t%	c #0C2E3F",
"u%	c #247392",
"v%	c #1B7DAE",
"w%	c #1A75AE",
"x%	c #196AA3",
"y%	c #13649C",
"z%	c #16679D",
"A%	c #136096",
"B%	c #155E93",
"C%	c #186297",
"D%	c #15659D",
"E%	c #1468A1",
"F%	c #14669D",
"G%	c #18679B",
"H%	c #17689D",
"I%	c #12669D",
"J%	c #1267A2",
"K%	c #1668A1",
"L%	c #196399",
"M%	c #166096",
"N%	c #155E96",
"O%	c #19639B",
"P%	c #17669D",
"Q%	c #12669E",
"R%	c #0F609C",
"S%	c #115790",
"T%	c #1D4C73",
"U%	c #091F34",
"V%	c #91999F",
"W%	c #39434B",
"X%	c #1A435B",
"Y%	c #2179A4",
"Z%	c #1778AD",
"`%	c #1B6FA8",
" &	c #1B659C",
".&	c #126299",
"+&	c #11659F",
"@&	c #1063A0",
"#&	c #12639E",
"$&	c #12629C",
"%&	c #14629A",
"&&	c #18649A",
"*&	c #166295",
"=&	c #166296",
"-&	c #166499",
";&	c #14649D",
">&	c #12619C",
",&	c #1363A0",
"'&	c #1063A2",
")&	c #1162A1",
"!&	c #17639D",
"~&	c #116097",
"{&	c #0D5F99",
"]&	c #075692",
"^&	c #175489",
"/&	c #102C48",
"(&	c #3A4248",
"_&	c #B4B3B8",
":&	c #1C293B",
"<&	c #1F6185",
"[&	c #2079A8",
"}&	c #1873A8",
"|&	c #1C6DA4",
"1&	c #165F96",
"2&	c #135F97",
"3&	c #145F99",
"4&	c #14619A",
"5&	c #125F98",
"6&	c #136097",
"7&	c #135F96",
"8&	c #146197",
"9&	c #146199",
"0&	c #105E97",
"a&	c #15619B",
"b&	c #145E98",
"c&	c #155D96",
"d&	c #176096",
"e&	c #105C96",
"f&	c #0D5B97",
"g&	c #11558C",
"h&	c #12446B",
"i&	c #1B2637",
"j&	c #B5B8BA",
"k&	c #A3A7AF",
"l&	c #102139",
"m&	c #1C5577",
"n&	c #1E76A2",
"o&	c #1773A7",
"p&	c #1B6AA5",
"q&	c #16609B",
"r&	c #135B95",
"s&	c #105A92",
"t&	c #105B94",
"u&	c #115C94",
"v&	c #105B95",
"w&	c #125C95",
"x&	c #125A93",
"y&	c #125B93",
"z&	c #135992",
"A&	c #155C94",
"B&	c #0F598F",
"C&	c #125891",
"D&	c #145389",
"E&	c #133F64",
"F&	c #0E1F31",
"G&	c #A6AEB2",
"H&	c #80828C",
"I&	c #122237",
"J&	c #195C7D",
"K&	c #1A729F",
"L&	c #176FA8",
"M&	c #196AAB",
"N&	c #1461A2",
"O&	c #105D99",
"P&	c #0E5992",
"Q&	c #105B93",
"R&	c #0E5890",
"S&	c #0E5993",
"T&	c #105992",
"U&	c #115890",
"V&	c #115992",
"W&	c #0E5A94",
"X&	c #0E5A96",
"Y&	c #0E5A95",
"Z&	c #125990",
"`&	c #185384",
" *	c #154067",
".*	c #101E32",
"+*	c #828A90",
"@*	c #ABB2B7",
"#*	c #1F2D3F",
"$*	c #113852",
"%*	c #1C6188",
"&*	c #1F689E",
"**	c #1C67A3",
"=*	c #1967A0",
"-*	c #0E5F9C",
";*	c #0D5D99",
">*	c #0E5B96",
",*	c #0E5995",
"'*	c #0F5C98",
")*	c #0D5A96",
"!*	c #0F5A94",
"~*	c #145B93",
"{*	c #14598F",
"]*	c #195688",
"^*	c #194874",
"/*	c #102742",
"(*	c #232B37",
"_*	c #4E5863",
":*	c #061D30",
"<*	c #143F5D",
"[*	c #266088",
"}*	c #226491",
"|*	c #19629A",
"1*	c #16649F",
"2*	c #14629C",
"3*	c #155F96",
"4*	c #165D96",
"5*	c #135D98",
"6*	c #115C96",
"7*	c #155A91",
"8*	c #1C5685",
"9*	c #1F5074",
"0*	c #11314F",
"a*	c #061630",
"b*	c #575A63",
"c*	c #B6B6BA",
"d*	c #565B62",
"e*	c #162937",
"f*	c #08293F",
"g*	c #173E5C",
"h*	c #154668",
"i*	c #184B70",
"j*	c #1A4C71",
"k*	c #1B4B72",
"l*	c #17466B",
"m*	c #174264",
"n*	c #153754",
"o*	c #072339",
"p*	c #1B2836",
"q*	c #595E67",
"r*	c #B7BBC2",
"s*	c #BDC6C6",
"t*	c #8F9B9F",
"u*	c #50585E",
"v*	c #273740",
"w*	c #081D2B",
"x*	c #041427",
"y*	c #041327",
"z*	c #0A1B2A",
"A*	c #2D3740",
"B*	c #595C61",
"C*	c #959CA0",
"                    . + @ # $ % & $ * = -                       ",
"                ; > , ' ) ! ~ { ] ^ / ( _ : < [                 ",
"              } | 1 2 3 4 5 6 7 8 9 0 a b c d e f g             ",
"          h i j k l m n o p q r s t u v w x y z A B C           ",
"        D E F G H I J K L M N O P Q R S T U V W X Y Z `         ",
"       ...+.@.#.$.%.&.*.=.-.;.>.,.'.).!.~.{.].^./.(._.:.<.      ",
"    [.}.|.1.2.3.4.5.6.7.8.9.0.a.b.c.d.e.f.g.h.i.j.k.l.m.n.o.    ",
"    p.q.r.2.s.t.u.v.w.x.y.z.A.B.C.D.E.E.F.G.H.I.J.K.L.M.N.O.    ",
"    P.Q.R.S.T.U.V.W.X.Y.Z.Z.Z.`. +.+.+++@+#+w.$+%+&+*+=+-+;+>+  ",
"  ,+'+)+!+!+~+{+]+^+/+(+_+:+<+[+}+<+:+|+1+2+/+3+4+5+6+7+8+9+0+a+",
"  b+c+d+e+f+g+h+i+j+k+l+m+n+o+p+q+r+s+t+u+v+w+x+y+z+A+B+C+D+E+F+",
"G+H+I+J+K+L+M+N+O+P+Q+R+S+T+U+V+W+7.X+Y+Z+`+ @.@+@@@#@$@%@&@*@=@",
"-@;@>@,@'@)@7.!@~@{@]@^@/@(@_@:@<@[@}@|@1@2@3@4@5@6@7@8@9@0@a@b@",
"c@d@e@f@g@h@i@j@k@l@m@n@o@p@q@r@s@t@u@v@w@x@y@z@j@A@B@C@D@E@F@G@",
"H@I@J@K@L@M@N@O@P@Q@R@S@T@U@V@W@X@Y@Z@`@ # #.#+#@###$#%#&#*#=#-#",
";#>#,#'#)#!#~#{#]#Q@^#S@/#(#_#:#<#[#}#|#1#2#3#4#5#6#7#8#9#0#a#b#",
"c#d#e#f#g#h#i#j#k#l#^#Y@m#n#o#p#q#r#s#|#t#u#y@v#w#x#y#z#A#B#C#D#",
"E#F#G#H#I#J#K#L#M#Q@m@N#O#P#Q#R#S#T#T#U#V#W#.#X#Y#Z#`# $.$+$@$#$",
"$$%$&$$+*$=$-$;$>$o#,$'$)$!$~${$}#]$^$/$($ #o#_$:$<$[$}$|$1$2$3$",
"4$5$6$7$<$8$9$0$a$o#b$c$d$e$f$g$h$i$<#j$k$ #o#l$m$n$o$p$q$r$s$t$",
"u$v$w$x$y$z$A$B$C$3#D$E$F$G$H$I$J$K$L$M$s#N$l#O$P$Q$R$S$T$U$V$W$",
"X$Y$Z$`$ %.%+%@%#%$%[#%%&%*%=%-%;%>%,%'%)%!%3#~%{%]%^%/%(%_%:%  ",
"<%[%}%|%1%2%3%4%5%6%7%8%9%0%a%b%c%d%e%f%g%h%i%j%k%l%m%n%o%p%q%r%",
"  s%t%u%v%w%x%y%z%A%B%C%D%E%F%G%H%I%J%K%L%M%N%O%P%Q%R%S%T%U%V%  ",
"    W%X%Y%Z%`% &.&+&@&#&$&%&&&*&=&-&;&>&,&'&)&!&~&{&]&^&/&(&    ",
"    _&:&<&[&}&|&1&M%2&3&4&5&6&7&8&9&0&a&4&b&c&d&e&f&g&h&i&j&    ",
"      k&l&m&n&o&p&q&r&s&t&u&t&v&v&t&w&x&y&z&A&B&C&D&E&F&G&      ",
"        H&I&J&K&L&M&N&O&P&Q&R&S&S&T&U&V&W&X&Y&Z&`& *.*+*        ",
"          @*#*$*%*&***=*m%-*;*>*,*'*)*!*~*{*]*^*/*(*            ",
"              _*:*<*[*}*|*1*2*3*4*5*6*7*8*9*0*a*b*              ",
"                c*d*e*f*g*h*i*j*k*l*m*n*o*p*q*r*                ",
"                    s*t*u*v*w*x*y*z*A*B*C*                      "};
