/* XPM */
static char * skip_backward_xpm[] = {
"32 32 640 2",
"  	c None",
". 	c #FFFFFF",
"+ 	c #80AED0",
"@ 	c #1066A7",
"# 	c #005CA1",
"$ 	c #307BB3",
"% 	c #005BA1",
"& 	c #01549B",
"* 	c #014F97",
"= 	c #024F97",
"- 	c #035098",
"; 	c #045199",
"> 	c #055299",
", 	c #1777B8",
"' 	c #238CCA",
") 	c #248DCB",
"! 	c #258DCC",
"~ 	c #258ECC",
"{ 	c #268ECC",
"] 	c #2D92CE",
"^ 	c #4CA1D4",
"/ 	c #5AA8D7",
"( 	c #57A6D6",
"_ 	c #4FA2D4",
": 	c #3D97CD",
"< 	c #1A7DBD",
"[ 	c #0462A6",
"} 	c #01599F",
"| 	c #014C95",
"1 	c #014B93",
"2 	c #024B93",
"3 	c #024C94",
"4 	c #034D95",
"5 	c #044D96",
"6 	c #054E96",
"7 	c #054F97",
"8 	c #1771B3",
"9 	c #2E98D5",
"0 	c #2F99D5",
"a 	c #309AD5",
"b 	c #329BD6",
"c 	c #339BD6",
"d 	c #45A4DA",
"e 	c #70B9E3",
"f 	c #95CCEB",
"g 	c #97CCEA",
"h 	c #90C9E9",
"i 	c #59ABDB",
"j 	c #0A6BAE",
"k 	c #014D95",
"l 	c #024C95",
"m 	c #034E96",
"n 	c #044E96",
"o 	c #044F97",
"p 	c #055098",
"q 	c #065199",
"r 	c #075299",
"s 	c #1366AA",
"t 	c #349CD7",
"u 	c #359DD7",
"v 	c #369ED8",
"w 	c #379ED8",
"x 	c #43A4DA",
"y 	c #83C3E7",
"z 	c #98CDEB",
"A 	c #5BACDB",
"B 	c #01569D",
"C 	c #024D96",
"D 	c #034E97",
"E 	c #034F97",
"F 	c #045098",
"G 	c #055198",
"H 	c #065299",
"I 	c #07539A",
"J 	c #08549B",
"K 	c #09559B",
"L 	c #0D5CA1",
"M 	c #389FD9",
"N 	c #3AA0D9",
"O 	c #3BA0D9",
"P 	c #3CA1DA",
"Q 	c #399FD9",
"R 	c #399FD8",
"S 	c #7FC1E6",
"T 	c #93CAEA",
"U 	c #1B7EBD",
"V 	c #286DAA",
"W 	c #3472AC",
"X 	c #3472AD",
"Y 	c #3372AD",
"Z 	c #3373AD",
"` 	c #3373AE",
" .	c #3272AE",
"..	c #55A9DB",
"+.	c #5AB0E0",
"@.	c #5AB1E1",
"#.	c #5BB1E1",
"$.	c #5AB0E1",
"%.	c #59B0E0",
"&.	c #57AFE0",
"*.	c #56AEE0",
"=.	c #54ADDF",
"-.	c #52ACDE",
";.	c #4FABDE",
">.	c #56ADDE",
",.	c #A1D2ED",
"'.	c #A4D3EE",
").	c #4DA0D2",
"!.	c #2B6DAA",
"~.	c #3675AE",
"{.	c #3775AE",
"].	c #3876AF",
"^.	c #3977B0",
"/.	c #3A78B1",
"(.	c #3B79B2",
"_.	c #3C7AB2",
":.	c #3D7BB3",
"<.	c #3E7CB3",
"[.	c #5AA6D6",
"}.	c #66B6E3",
"|.	c #68B7E3",
"1.	c #69B8E4",
"2.	c #6AB9E4",
"3.	c #67B7E3",
"4.	c #65B6E3",
"5.	c #63B5E2",
"6.	c #62B3E1",
"7.	c #8DC9EA",
"8.	c #AFD9F0",
"9.	c #6CB1DB",
"0.	c #2B68A7",
"a.	c #3776B0",
"b.	c #3877B0",
"c.	c #3878B1",
"d.	c #3978B2",
"e.	c #3A79B2",
"f.	c #3B7AB2",
"g.	c #3C7BB3",
"h.	c #3D7CB3",
"i.	c #3E7CB4",
"j.	c #3F7DB5",
"k.	c #407EB6",
"l.	c #407FB6",
"m.	c #569DCE",
"n.	c #6CBAE5",
"o.	c #6CBAE6",
"p.	c #6DBAE6",
"q.	c #6EBAE6",
"r.	c #64B5E3",
"s.	c #77BEE6",
"t.	c #B0D9F1",
"u.	c #70B4DC",
"v.	c #2A63A4",
"w.	c #3878B2",
"x.	c #3979B2",
"y.	c #3A7AB2",
"z.	c #3B7AB3",
"A.	c #3D7DB5",
"B.	c #3E7DB5",
"C.	c #3F7EB6",
"D.	c #4180B7",
"E.	c #4281B7",
"F.	c #4381B8",
"G.	c #5195C8",
"H.	c #6EBBE6",
"I.	c #70BCE7",
"J.	c #71BDE7",
"K.	c #6FBCE7",
"L.	c #6AB8E4",
"M.	c #6BB9E4",
"N.	c #B1DAF1",
"O.	c #71B4DD",
"P.	c #2A62A3",
"Q.	c #3877B1",
"R.	c #3A7BB3",
"S.	c #3C7CB5",
"T.	c #3C7DB5",
"U.	c #3D7EB6",
"V.	c #8FB4D5",
"W.	c #DAE7F1",
"X.	c #C4D8E9",
"Y.	c #4383B9",
"Z.	c #4484BA",
"`.	c #4584BA",
" +	c #4C8DC1",
".+	c #72BEE7",
"++	c #73BEE8",
"@+	c #74BFE8",
"#+	c #75BFE8",
"$+	c #A3D4F0",
"%+	c #AAD8F1",
"&+	c #AFDAF1",
"*+	c #72B5DD",
"=+	c #3874AF",
"-+	c #3B7DB6",
";+	c #3C7EB6",
">+	c #3E7FB6",
",+	c #3F80B7",
"'+	c #A3C2DD",
")+	c #E4EDF5",
"!+	c #4585BB",
"~+	c #4787BC",
"{+	c #4887BC",
"]+	c #4989BE",
"^+	c #71BCE6",
"/+	c #77C1E9",
"(+	c #78C1EA",
"_+	c #78C2EA",
":+	c #93CEEE",
"<+	c #DFF1FA",
"[+	c #BBE0F4",
"}+	c #6FBBE7",
"|+	c #ABD7F0",
"1+	c #73B6DE",
"2+	c #2B64A5",
"3+	c #3871AD",
"4+	c #3C7FB7",
"5+	c #3E81B8",
"6+	c #3F81B8",
"7+	c #4082B9",
"8+	c #A4C3DE",
"9+	c #E4EEF5",
"0+	c #4888BD",
"a+	c #4B8ABE",
"b+	c #4C8BBF",
"c+	c #6DB4E0",
"d+	c #7AC2EB",
"e+	c #7BC3EB",
"f+	c #88C9ED",
"g+	c #CCE8F8",
"h+	c #FEFFFF",
"i+	c #BDE1F5",
"j+	c #6FBBE6",
"k+	c #A9D6F0",
"l+	c #73B6DF",
"m+	c #2C66A7",
"n+	c #376FAC",
"o+	c #3E81B9",
"p+	c #4082BA",
"q+	c #4083BA",
"r+	c #4285BB",
"s+	c #A5C5DF",
"t+	c #E4EEF6",
"u+	c #4A8BBF",
"v+	c #4C8CC0",
"w+	c #4D8DC1",
"x+	c #4F8FC2",
"y+	c #68ADDA",
"z+	c #80C6EC",
"A+	c #B9E0F5",
"B+	c #F8FCFE",
"C+	c #BEE2F5",
"D+	c #76C0E9",
"E+	c #A7D6F0",
"F+	c #75B7DF",
"G+	c #306FAF",
"H+	c #376CAA",
"I+	c #3F83BA",
"J+	c #4085BB",
"K+	c #4285BC",
"L+	c #4487BD",
"M+	c #A5C6E0",
"N+	c #E5EEF6",
"O+	c #4C8DC2",
"P+	c #4E8FC2",
"Q+	c #5090C3",
"R+	c #5291C4",
"S+	c #63A6D4",
"T+	c #A5D7F2",
"U+	c #EDF7FD",
"V+	c #BFE2F6",
"W+	c #79C2EA",
"X+	c #A5D5F0",
"Y+	c #76B7DF",
"Z+	c #2670B2",
"`+	c #2F66A6",
" @	c #3E84BB",
".@	c #4286BD",
"+@	c #4388BE",
"@@	c #4589BE",
"#@	c #A6C6E1",
"$@	c #E5EFF6",
"%@	c #4E90C3",
"&@	c #5192C5",
"*@	c #5393C6",
"=@	c #71A6D0",
"-@	c #D2E3F1",
";@	c #C0E3F6",
">@	c #A2D4F0",
",@	c #71B5DE",
"'@	c #1B6DB2",
")@	c #17579F",
"!@	c #1369AD",
"~@	c #1D70B1",
"{@	c #2877B5",
"]@	c #317EB9",
"^@	c #9FC3DF",
"/@	c #E5EFF7",
"(@	c #5093C6",
"_@	c #5F9CCA",
":@	c #B6D2E7",
"<@	c #FCFDFE",
"[@	c #BAE0F5",
"}@	c #69BBE8",
"|@	c #62B7E6",
"1@	c #59B2E4",
"2@	c #50ADE1",
"3@	c #8AC8EB",
"4@	c #5FACDA",
"5@	c #1A5EA5",
"6@	c #136CAF",
"7@	c #156DB0",
"8@	c #186FB1",
"9@	c #1A71B3",
"0@	c #92BBDB",
"a@	c #DFEBF5",
"b@	c #297BB9",
"c@	c #3B87C0",
"d@	c #A4C8E2",
"e@	c #B2DCF4",
"f@	c #5BB5E6",
"g@	c #57B2E4",
"h@	c #52AFE2",
"i@	c #4EACE1",
"j@	c #87C6EA",
"k@	c #1F66AC",
"l@	c #146EB1",
"m@	c #1770B2",
"n@	c #1971B3",
"o@	c #1C73B5",
"p@	c #92BCDC",
"q@	c #DFECF5",
"r@	c #297DBB",
"s@	c #2C7FBC",
"t@	c #2F81BE",
"u@	c #5498CA",
"v@	c #C7DEEE",
"w@	c #82C4E9",
"x@	c #236DB2",
"y@	c #1773B5",
"z@	c #1872B4",
"A@	c #1A73B5",
"B@	c #1D75B7",
"C@	c #93BDDD",
"D@	c #E0ECF5",
"E@	c #2B7FBD",
"F@	c #2E82BF",
"G@	c #3184C0",
"H@	c #3486C1",
"I@	c #3788C3",
"J@	c #7EB8DF",
"K@	c #E9F5FC",
"L@	c #B1DCF3",
"M@	c #5AB4E5",
"N@	c #56B1E4",
"O@	c #51AEE2",
"P@	c #7BC1E8",
"Q@	c #1A6DB2",
"R@	c #236BB1",
"S@	c #1D7FC0",
"T@	c #1873B6",
"U@	c #1B75B7",
"V@	c #1E78B8",
"W@	c #94BFDE",
"X@	c #E0EDF6",
"Y@	c #2D82BF",
"Z@	c #3085C1",
"`@	c #3387C2",
" #	c #3689C4",
".#	c #398BC5",
"+#	c #4598D0",
"@#	c #67BBE9",
"##	c #ABDAF4",
"$#	c #F7FBFE",
"%#	c #B0DBF3",
"&#	c #59B3E5",
"*#	c #55B1E3",
"=#	c #50AEE2",
"-#	c #4CABE0",
";#	c #73BDE7",
">#	c #2369AF",
",#	c #238BCA",
"'#	c #1975B8",
")#	c #1C77B9",
"!#	c #1F7ABA",
"~#	c #94C0DF",
"{#	c #2E84C1",
"]#	c #3187C3",
"^#	c #3489C4",
"/#	c #378BC6",
"(#	c #3A8DC7",
"_#	c #3F93CB",
":#	c #5FB7E8",
"<#	c #62B9E9",
"[#	c #71C0EB",
"}#	c #C2E4F7",
"|#	c #AFDBF2",
"1#	c #56B2E4",
"2#	c #53AFE2",
"3#	c #4FADE1",
"4#	c #4AAADF",
"5#	c #5EABDA",
"6#	c #2266AD",
"7#	c #2693D1",
"8#	c #1B7ABB",
"9#	c #1C79BB",
"0#	c #207CBC",
"a#	c #94C1DF",
"b#	c #2F87C3",
"c#	c #3289C5",
"d#	c #358BC6",
"e#	c #388DC7",
"f#	c #3A8FC9",
"g#	c #3D91CA",
"h#	c #59B1E3",
"i#	c #5EB6E7",
"j#	c #5FB7E7",
"k#	c #7EC5EC",
"l#	c #D9EEF9",
"m#	c #AEDAF2",
"n#	c #54B0E3",
"o#	c #4DABE0",
"p#	c #48A9DF",
"q#	c #5DB3E2",
"r#	c #5CABD9",
"s#	c #196CB1",
"t#	c #2262A9",
"u#	c #2592D1",
"v#	c #2084C4",
"w#	c #1D7BBC",
"x#	c #207EBE",
"y#	c #7BB3D9",
"z#	c #CFE3F2",
"A#	c #CFE4F2",
"B#	c #B8D7EB",
"C#	c #2F88C5",
"D#	c #328BC7",
"E#	c #358DC8",
"F#	c #388FC9",
"G#	c #3A91CB",
"H#	c #3D93CC",
"I#	c #50AADD",
"J#	c #59B4E5",
"K#	c #59B3E4",
"L#	c #90CCED",
"M#	c #99D0EE",
"N#	c #4DACE1",
"O#	c #46A8DE",
"P#	c #50ACDF",
"Q#	c #5BAAD9",
"R#	c #186BB1",
"S#	c #215CA5",
"T#	c #2390CF",
"U#	c #238DCB",
"V#	c #1D7DBE",
"W#	c #207FBF",
"X#	c #2381C1",
"Y#	c #2784C3",
"Z#	c #2986C4",
"`#	c #2C88C5",
" $	c #308AC7",
".$	c #328CC8",
"+$	c #358EC9",
"@$	c #3890CB",
"#$	c #3A92CC",
"$$	c #3D94CD",
"%$	c #49A3D9",
"&$	c #47A8DE",
"*$	c #44A6DD",
"=$	c #42A5DC",
"-$	c #58A8D8",
";$	c #176AB0",
">$	c #205BA4",
",$	c #2285C6",
"'$	c #1D80C0",
")$	c #2081C1",
"!$	c #2383C2",
"~$	c #2685C4",
"{$	c #2A87C5",
"]$	c #2C8AC7",
"^$	c #2F8CC8",
"/$	c #328ECA",
"($	c #3590CB",
"_$	c #3792CC",
":$	c #3A93CD",
"<$	c #3C95CE",
"[$	c #439DD5",
"}$	c #49A9DF",
"|$	c #41A4DB",
"1$	c #3DA2DA",
"2$	c #49A0D5",
"3$	c #156AB0",
"4$	c #1E59A2",
"5$	c #1F70B5",
"6$	c #218ECD",
"7$	c #1F84C4",
"8$	c #1E80C0",
"9$	c #2182C2",
"0$	c #2584C3",
"a$	c #2887C5",
"b$	c #2A89C6",
"c$	c #2D8BC8",
"d$	c #318DCA",
"e$	c #3490CB",
"f$	c #3692CD",
"g$	c #3894CF",
"h$	c #3B96D0",
"i$	c #3E9AD3",
"j$	c #4BABE0",
"k$	c #46A7DE",
"l$	c #43A6DD",
"m$	c #40A4DB",
"n$	c #3DA2DB",
"o$	c #3798D1",
"p$	c #1068AE",
"q$	c #1B549D",
"r$	c #1D57A0",
"s$	c #1B7DBF",
"t$	c #1B7FC0",
"u$	c #1977B9",
"v$	c #1B79BB",
"w$	c #1E7BBC",
"x$	c #207DBD",
"y$	c #217DBC",
"z$	c #237EBE",
"A$	c #2680BF",
"B$	c #2781BF",
"C$	c #2982C0",
"D$	c #2B83C1",
"E$	c #2D86C3",
"F$	c #2F88C4",
"G$	c #3995CF",
"H$	c #3A96D0",
"I$	c #3A97D0",
"J$	c #3A97D1",
"K$	c #3997D1",
"L$	c #3797D1",
"M$	c #3597D1",
"N$	c #3496D1",
"O$	c #3296D1",
"P$	c #2588C6",
"Q$	c #0867AD",
"R$	c #19519B",
"S$	c #1A509A",
"T$	c #1A58A1",
"U$	c #1776B9",
"V$	c #1571B4",
"W$	c #1672B5",
"X$	c #1874B6",
"Y$	c #1A75B6",
"Z$	c #1B75B6",
"`$	c #1D76B7",
" %	c #1F77B8",
".%	c #2178B9",
"+%	c #2279B9",
"@%	c #237ABA",
"#%	c #247CBB",
"$%	c #257CBB",
"%%	c #2C85C2",
"&%	c #2B84C1",
"*%	c #2A82C0",
"=%	c #2981C0",
"-%	c #2881BF",
";%	c #2780BF",
">%	c #257FBE",
",%	c #247EBE",
"'%	c #227EBD",
")%	c #116EB0",
"!%	c #015EA3",
"~%	c #0F5DA5",
"{%	c #184B96",
"]%	c #194C96",
"^%	c #1462A8",
"/%	c #126BAF",
"(%	c #136CB0",
"_%	c #156DB1",
":%	c #156CB0",
"<%	c #176DB0",
"[%	c #186EB1",
"}%	c #1A6FB1",
"|%	c #1B71B2",
"1%	c #1C71B3",
"2%	c #1D72B3",
"3%	c #2076B7",
"4%	c #2278B8",
"5%	c #2177B7",
"6%	c #2076B6",
"7%	c #1F75B6",
"8%	c #1F75B5",
"9%	c #1E74B5",
"0%	c #1D74B5",
"a%	c #1B73B4",
"b%	c #1770B3",
"c%	c #035FA4",
"d%	c #0360A5",
"e%	c #0D5AA2",
"f%	c #154B96",
"g%	c #184893",
"h%	c #184792",
"i%	c #164D97",
"j%	c #125AA2",
"k%	c #1064A9",
"l%	c #1164A9",
"m%	c #1467AB",
"n%	c #1567AB",
"o%	c #1668AB",
"p%	c #1669AB",
"q%	c #176AAD",
"r%	c #196CAE",
"s%	c #186BAD",
"t%	c #1769AC",
"u%	c #1669AC",
"v%	c #1668AC",
"w%	c #1568AC",
"x%	c #1468AB",
"y%	c #1367AB",
"z%	c #1267AB",
"A%	c #0661A6",
"B%	c #015DA2",
"C%	c #055FA5",
"D%	c #085BA2",
"E%	c #0C59A1",
"F%	c #0C579E",
"G%	c #0D579E",
"H%	c #0E579F",
"I%	c #0B5DA3",
"J%	c #0B5FA4",
"K%	c #0C60A5",
"L%	c #0D61A5",
"M%	c #0E61A5",
"N%	c #0E61A6",
"O%	c #0F61A6",
"P%	c #0F62A6",
"Q%	c #1063A7",
"R%	c #1062A6",
"S%	c #0F61A5",
"T%	c #0E60A5",
"U%	c #0D60A5",
"V%	c #0960A5",
"W%	c #025EA3",
". . + @ # # # # # # # # # # # # # # # # # # # # # # # # @ + . . ",
". $ # % & * = - - - ; ; > , ' ) ! ~ { { { ] ^ / ( _ : < [ # $ . ",
"+ # } | 1 2 3 3 4 4 5 6 7 8 9 0 a b c c c c b d e f g h i j # + ",
"@ % k 3 l 4 m n o 7 p q r s c t u v w w w w v u t x y z g A [ @ ",
"# B C D E o F G H r I J K L v M N O P P P P O N Q w R S z T U # ",
"# V W W X X Y Y Y Y Z ` `  ...+.+.@.#.@.$.%.&.*.=.-.;.>.,.'.).# ",
"# !.~.{.].].^./.(.(._.:.<.<.[.}.|.1.2.2.2.2.1.|.3.4.5.6.7.8.9.# ",
"# 0.a.b.c.d.e.f.g.h.i.j.k.l.m.2.n.o.p.q.q.p.p.n.2.1.}.r.s.t.u.# ",
"# v.w.x.y.z.g.A.B.C.l.D.E.F.G.p.H.I.J.J.J.J.I.K.p.n.L.3.M.N.O.# ",
"# P.Q.R.S.T.U.V.W.W.X.Y.Z.`. +I..+++@+#+#+#+@+$+%+H.o.2.|.&+*+# ",
"# v.=+-+;+>+,+'+. . )+!+~+{+]+^+#+/+(+_+_+:+<+. [+J.}+o.L.|+1+# ",
"# 2+3+4+5+6+7+8+. . 9+0+]+a+b+c+_+d+e+f+g+h+. . i+@+J.j+n.k+l+# ",
"# m+n+o+p+q+r+s+. . t+u+v+w+x+y+e+z+A+B+. . . . C+D+@+J.p.E+F+# ",
"# G+H+I+J+K+L+M+. . N+O+P+Q+R+S+T+U+. . . . . . V+W+D+.+K.X+Y+# ",
"# Z+`+ @.@+@@@#@. . $@%@&@*@=@-@. . . . . . . . ;@d+/+@+I.>@,@# ",
"# '@)@!@~@{@]@^@. . /@(@_@:@<@. . . . . . . . . [@}@|@1@2@3@4@# ",
"# '@5@6@7@8@9@0@. . a@b@c@d@<@. . . . . . . . . e@f@g@h@i@j@4@# ",
"# '@k@l@m@n@o@p@. . q@r@s@t@u@v@. . . . . . . . e@f@g@h@i@w@4@# ",
"# '@x@y@z@A@B@C@. . D@E@F@G@H@I@J@K@. . . . . . L@M@N@O@i@P@4@# ",
"# Q@R@S@T@U@V@W@. . X@Y@Z@`@ #.#+#@###$#. . . . %#&#*#=#-#;#4@# ",
"# Q@>#,#'#)#!#~#. . X@{#]#^#/#(#_#:#<#[#}#h+. . |#1#2#3#4#2.5## ",
"# Q@6#7#8#9#0#a#. . X@b#c#d#e#f#g#h#i#j#j#k#l#. m#n#=#o#p#q#r## ",
"# s#t#u#v#w#x#y#z#A#B#C#D#E#F#G#H#I#&#M@M@J#K#L#M#O@N#4#O#P#Q## ",
"# R#S#T#U#V#W#X#Y#Z#`# $.$+$@$#$$$%$*#N@N@N@n#h@=#N#4#&$*$=$-$# ",
"# ;$>$,$u#'$)$!$~${$]$^$/$($_$:$<$[$=#O@O@O@=#i@-#}$&$*$|$1$2$# ",
"# 3$4$5$6$7$8$9$0$a$b$c$d$e$f$g$h$i$-#o#o#-#j$4#p#k$l$m$n$N o$# ",
"# p$q$r$s$t$u$v$w$x$y$z$A$B$C$D$E$F$G$h$h$H$I$J$K$K$L$M$N$O$P$# ",
"# Q$R$S$T$U$V$W$X$Y$Z$`$ %.%+%@%#%$%D$%%&%*%*%=%-%;%>%,%'%0#)%# ",
"@ !%~%{%]%R$^%/%(%_%:%<%[%}%|%1%2%2%3%4%5%6%7%8%9%0%0%a%9@b%c%@ ",
"+ # d%e%f%g%h%i%j%k%k%l%s s m%n%o%p%q%r%s%t%u%u%v%w%x%y%z%A%# + ",
". $ # B%C%D%E%F%G%H%I%J%K%K%L%M%N%O%P%Q%R%S%M%M%T%U%J%V%W%# $ . ",
". . + @ # # # # # # # # # # # # # # # # # # # # # # # # @ + . . "};
