/* XPM */
static char *SMPDlg_StopButton_XPM[]={
/* SMPDlg_StopButton */
"32 32 569 2",
"      c None",
" 0    c #80AED0",
" 1    c #1066A7",
" 2    c #005CA1",
" 3    c #307BB3",
" 4    c #005BA1",
" 5    c #01549B",
" 6    c #014F97",
" 7    c #024F97",
" 8    c #035098",
" 9    c #045199",
" a    c #055299",
" b    c #1777B8",
" c    c #238CCA",
" d    c #248DCB",
" e    c #258DCC",
" f    c #258ECC",
" g    c #268ECC",
" h    c #2D92CE",
" i    c #4CA1D4",
" j    c #5AA8D7",
" k    c #57A6D6",
" l    c #4FA2D4",
" m    c #3D97CD",
" n    c #1A7DBD",
" o    c #0462A6",
" p    c #01599F",
" q    c #014C95",
" r    c #014B93",
" s    c #024B93",
" t    c #024C94",
" u    c #034D95",
" v    c #044D96",
" w    c #054E96",
" x    c #054F97",
" y    c #1771B3",
" z    c #2E98D5",
" A    c #2F99D5",
" B    c #309AD5",
" C    c #329BD6",
" D    c #339BD6",
" E    c #45A4DA",
" F    c #70B9E3",
" G    c #95CCEB",
" H    c #97CCEA",
" I    c #90C9E9",
" J    c #59ABDB",
" K    c #0A6BAE",
" L    c #014D95",
" M    c #024C95",
" N    c #034E96",
" O    c #044E96",
" P    c #044F97",
" Q    c #055098",
" R    c #065199",
" S    c #075299",
" T    c #1366AA",
" U    c #349CD7",
" V    c #359DD7",
" W    c #369ED8",
" X    c #379ED8",
" Y    c #43A4DA",
" Z    c #83C3E7",
" &    c #98CDEB",
"0     c #5BACDB",
"00    c #01569D",
"01    c #024D96",
"02    c #034E97",
"03    c #034F97",
"04    c #045098",
"05    c #055198",
"06    c #065299",
"07    c #07539A",
"08    c #08549B",
"09    c #09559B",
"0a    c #0D5CA1",
"0b    c #389FD9",
"0c    c #3AA0D9",
"0d    c #3BA0D9",
"0e    c #3CA1DA",
"0f    c #399FD9",
"0g    c #399FD8",
"0h    c #7FC1E6",
"0i    c #93CAEA",
"0j    c #1B7EBD",
"0k    c #286DAA",
"0l    c #3472AC",
"0m    c #3472AD",
"0n    c #3372AD",
"0o    c #3373AD",
"0p    c #3373AE",
"0q    c #3272AE",
"0r    c #55A9DB",
"0s    c #5AB0E0",
"0t    c #5AB1E1",
"0u    c #5BB1E1",
"0v    c #5AB0E1",
"0w    c #59B0E0",
"0x    c #57AFE0",
"0y    c #56AEE0",
"0z    c #54ADDF",
"0A    c #52ACDE",
"0B    c #4FABDE",
"0C    c #56ADDE",
"0D    c #A1D2ED",
"0E    c #A4D3EE",
"0F    c #4DA0D2",
"0G    c #2B6DAA",
"0H    c #3675AE",
"0I    c #3775AE",
"0J    c #3876AF",
"0K    c #3977B0",
"0L    c #3A78B1",
"0M    c #3B79B2",
"0N    c #3C7AB2",
"0O    c #3D7BB3",
"0P    c #3E7CB3",
"0Q    c #5AA6D6",
"0R    c #66B6E3",
"0S    c #68B7E3",
"0T    c #69B8E4",
"0U    c #6AB9E4",
"0V    c #67B7E3",
"0W    c #65B6E3",
"0X    c #63B5E2",
"0Y    c #62B3E1",
"0Z    c #8DC9EA",
"0&    c #AFD9F0",
"1     c #6CB1DB",
"10    c #2B68A7",
"11    c #3776B0",
"12    c #3877B0",
"13    c #3878B1",
"14    c #3978B2",
"15    c #3A79B2",
"16    c #3B7AB2",
"17    c #3C7BB3",
"18    c #3D7CB3",
"19    c #3E7CB4",
"1a    c #3F7DB5",
"1b    c #407EB6",
"1c    c #407FB6",
"1d    c #569DCE",
"1e    c #6CBAE5",
"1f    c #6CBAE6",
"1g    c #6DBAE6",
"1h    c #6EBAE6",
"1i    c #64B5E3",
"1j    c #77BEE6",
"1k    c #B0D9F1",
"1l    c #70B4DC",
"1m    c #2A63A4",
"1n    c #3878B2",
"1o    c #3979B2",
"1p    c #3A7AB2",
"1q    c #3B7AB3",
"1r    c #3D7DB5",
"1s    c #3E7DB5",
"1t    c #3F7EB6",
"1u    c #4180B7",
"1v    c #4281B7",
"1w    c #4381B8",
"1x    c #5195C8",
"1y    c #6EBBE6",
"1z    c #70BCE7",
"1A    c #71BDE7",
"1B    c #6FBCE7",
"1C    c #6AB8E4",
"1D    c #6BB9E4",
"1E    c #B1DAF1",
"1F    c #71B4DD",
"1G    c #2A62A3",
"1H    c #3877B1",
"1I    c #3A7BB3",
"1J    c #3C7CB5",
"1K    c #3C7DB5",
"1L    c #3D7EB6",
"1M    c #3F7FB6",
"1N    c #4080B7",
"1O    c #BDD3E6",
"1P    c #DBE7F1",
"1Q    c #DBE7F2",
"1R    c #DDEAF4",
"1S    c #E3F2FA",
"1T    c #E4F3FB",
"1U    c #CEE9F8",
"1V    c #72BEE7",
"1W    c #AFDAF1",
"1X    c #72B5DD",
"1Y    c #3874AF",
"1Z    c #3B7DB6",
"1&    c #3C7EB6",
"2     c #3E7FB6",
"20    c #3F80B7",
"21    c #4081B8",
"22    c #4282B9",
"23    c #FFFFFF",
"24    c #E5F3FB",
"25    c #76C0E9",
"26    c #73BFE8",
"27    c #6FBBE7",
"28    c #ABD7F0",
"29    c #73B6DE",
"2a    c #2B64A5",
"2b    c #3871AD",
"2c    c #3C7FB7",
"2d    c #3E81B8",
"2e    c #3F81B8",
"2f    c #4082B9",
"2g    c #4283BA",
"2h    c #4485BB",
"2i    c #DBE8F2",
"2j    c #79C2EA",
"2k    c #77C1E9",
"2l    c #74BFE8",
"2m    c #6FBBE6",
"2n    c #A9D6F0",
"2o    c #73B6DF",
"2p    c #2C66A7",
"2q    c #376FAC",
"2r    c #3E81B9",
"2s    c #4082BA",
"2t    c #4083BA",
"2u    c #4285BB",
"2v    c #4486BC",
"2w    c #4587BD",
"2x    c #DCE8F3",
"2y    c #E6F4FB",
"2z    c #7BC3EB",
"2A    c #A7D6F0",
"2B    c #75B7DF",
"2C    c #306FAF",
"2D    c #376CAA",
"2E    c #3F83BA",
"2F    c #4085BB",
"2G    c #4285BC",
"2H    c #4487BD",
"2I    c #4588BE",
"2J    c #478ABF",
"2K    c #DCE9F3",
"2L    c #E7F4FC",
"2M    c #7EC6EC",
"2N    c #A5D5F0",
"2O    c #76B7DF",
"2P    c #2670B2",
"2Q    c #2F66A6",
"2R    c #3E84BB",
"2S    c #4286BD",
"2T    c #4388BE",
"2U    c #4589BE",
"2V    c #478AC0",
"2W    c #498CC1",
"2X    c #E7F5FC",
"2Y    c #81C6ED",
"2Z    c #7EC5EC",
"2&    c #7AC2EB",
"3     c #A2D4F0",
"30    c #71B5DE",
"31    c #1B6DB2",
"32    c #17579F",
"33    c #1369AD",
"34    c #1D70B1",
"35    c #2877B5",
"36    c #317EB9",
"37    c #3A84BD",
"38    c #4188BF",
"39    c #DBE9F3",
"3a    c #E6F4FC",
"3b    c #78C3ED",
"3c    c #71C0EA",
"3d    c #69BBE8",
"3e    c #62B7E6",
"3f    c #59B2E4",
"3g    c #50ADE1",
"3h    c #8AC8EB",
"3i    c #5FACDA",
"3j    c #1A5EA5",
"3k    c #136CAF",
"3l    c #156DB0",
"3m    c #186FB1",
"3n    c #1A71B3",
"3o    c #1D73B4",
"3p    c #2075B5",
"3q    c #D4E5F1",
"3r    c #E2F2FB",
"3s    c #65BAE9",
"3t    c #60B7E8",
"3u    c #5BB5E6",
"3v    c #57B2E4",
"3w    c #52AFE2",
"3x    c #4EACE1",
"3y    c #87C6EA",
"3z    c #1F66AC",
"3A    c #146EB1",
"3B    c #1770B2",
"3C    c #1971B3",
"3D    c #1C73B5",
"3E    c #1E75B6",
"3F    c #2177B7",
"3G    c #D5E5F2",
"3H    c #64BAE9",
"3I    c #82C4E9",
"3J    c #236DB2",
"3K    c #1773B5",
"3L    c #1872B4",
"3M    c #1A73B5",
"3N    c #1D75B7",
"3O    c #2077B8",
"3P    c #2379B9",
"3Q    c #D5E6F2",
"3R    c #63BAE9",
"3S    c #5FB7E7",
"3T    c #5AB4E5",
"3U    c #56B1E4",
"3V    c #51AEE2",
"3W    c #7BC1E8",
"3X    c #1A6DB2",
"3Y    c #236BB1",
"3Z    c #1D7FC0",
"3&    c #1873B6",
"4     c #1B75B7",
"40    c #1E78B8",
"41    c #217ABA",
"42    c #247BBB",
"43    c #E1F2FB",
"44    c #60B8E8",
"45    c #5DB6E6",
"46    c #59B3E5",
"47    c #55B1E3",
"48    c #50AEE2",
"49    c #4CABE0",
"4a    c #73BDE7",
"4b    c #2369AF",
"4c    c #238BCA",
"4d    c #1975B8",
"4e    c #1C77B9",
"4f    c #1F7ABA",
"4g    c #227CBC",
"4h    c #257EBD",
"4i    c #D6E7F3",
"4j    c #E0F1FB",
"4k    c #5DB6E7",
"4l    c #56B2E4",
"4m    c #53AFE2",
"4n    c #4FADE1",
"4o    c #4AAADF",
"4p    c #5EABDA",
"4q    c #2266AD",
"4r    c #2693D1",
"4s    c #1B7ABB",
"4t    c #1C79BB",
"4u    c #207CBC",
"4v    c #237EBE",
"4w    c #2680BF",
"4x    c #E0F1FA",
"4y    c #59B4E5",
"4z    c #54B0E3",
"4A    c #4DABE0",
"4B    c #48A9DF",
"4C    c #5DB3E2",
"4D    c #5CABD9",
"4E    c #196CB1",
"4F    c #2262A9",
"4G    c #2592D1",
"4H    c #2084C4",
"4I    c #1D7BBC",
"4J    c #207EBE",
"4K    c #2380BF",
"4L    c #2682C1",
"4M    c #B5D5EA",
"4N    c #D7E8F4",
"4O    c #D8E9F5",
"4P    c #D9EAF5",
"4Q    c #DAEAF5",
"4R    c #DDEEF8",
"4S    c #DFF0FA",
"4T    c #DFF1FA",
"4U    c #C5E4F6",
"4V    c #4DACE1",
"4W    c #46A8DE",
"4X    c #50ACDF",
"4Y    c #5BAAD9",
"4Z    c #186BB1",
"4&    c #215CA5",
"5     c #2390CF",
"50    c #238DCB",
"51    c #1D7DBE",
"52    c #207FBF",
"53    c #2381C1",
"54    c #2784C3",
"55    c #2986C4",
"56    c #2C88C5",
"57    c #308AC7",
"58    c #328CC8",
"59    c #358EC9",
"5a    c #3890CB",
"5b    c #3A92CC",
"5c    c #3D94CD",
"5d    c #49A3D9",
"5e    c #47A8DE",
"5f    c #44A6DD",
"5g    c #42A5DC",
"5h    c #58A8D8",
"5i    c #176AB0",
"5j    c #205BA4",
"5k    c #2285C6",
"5l    c #1D80C0",
"5m    c #2081C1",
"5n    c #2383C2",
"5o    c #2685C4",
"5p    c #2A87C5",
"5q    c #2C8AC7",
"5r    c #2F8CC8",
"5s    c #328ECA",
"5t    c #3590CB",
"5u    c #3792CC",
"5v    c #3A93CD",
"5w    c #3C95CE",
"5x    c #439DD5",
"5y    c #49A9DF",
"5z    c #41A4DB",
"5A    c #3DA2DA",
"5B    c #49A0D5",
"5C    c #156AB0",
"5D    c #1E59A2",
"5E    c #1F70B5",
"5F    c #218ECD",
"5G    c #1F84C4",
"5H    c #1E80C0",
"5I    c #2182C2",
"5J    c #2584C3",
"5K    c #2887C5",
"5L    c #2A89C6",
"5M    c #2D8BC8",
"5N    c #318DCA",
"5O    c #3490CB",
"5P    c #3692CD",
"5Q    c #3894CF",
"5R    c #3B96D0",
"5S    c #3E9AD3",
"5T    c #4BABE0",
"5U    c #46A7DE",
"5V    c #43A6DD",
"5W    c #40A4DB",
"5X    c #3DA2DB",
"5Y    c #3798D1",
"5Z    c #1068AE",
"5&    c #1B549D",
"6     c #1D57A0",
"60    c #1B7DBF",
"61    c #1B7FC0",
"62    c #1977B9",
"63    c #1B79BB",
"64    c #1E7BBC",
"65    c #207DBD",
"66    c #217DBC",
"67    c #2781BF",
"68    c #2982C0",
"69    c #2B83C1",
"6a    c #2D86C3",
"6b    c #2F88C4",
"6c    c #3995CF",
"6d    c #3A96D0",
"6e    c #3A97D0",
"6f    c #3A97D1",
"6g    c #3997D1",
"6h    c #3797D1",
"6i    c #3597D1",
"6j    c #3496D1",
"6k    c #3296D1",
"6l    c #2588C6",
"6m    c #0867AD",
"6n    c #19519B",
"6o    c #1A509A",
"6p    c #1A58A1",
"6q    c #1776B9",
"6r    c #1571B4",
"6s    c #1672B5",
"6t    c #1874B6",
"6u    c #1A75B6",
"6v    c #1B75B6",
"6w    c #1D76B7",
"6x    c #1F77B8",
"6y    c #2178B9",
"6z    c #2279B9",
"6A    c #237ABA",
"6B    c #247CBB",
"6C    c #257CBB",
"6D    c #2C85C2",
"6E    c #2B84C1",
"6F    c #2A82C0",
"6G    c #2981C0",
"6H    c #2881BF",
"6I    c #2780BF",
"6J    c #257FBE",
"6K    c #247EBE",
"6L    c #227EBD",
"6M    c #116EB0",
"6N    c #015EA3",
"6O    c #0F5DA5",
"6P    c #184B96",
"6Q    c #194C96",
"6R    c #1462A8",
"6S    c #126BAF",
"6T    c #136CB0",
"6U    c #156DB1",
"6V    c #156CB0",
"6W    c #176DB0",
"6X    c #186EB1",
"6Y    c #1A6FB1",
"6Z    c #1B71B2",
"6&    c #1C71B3",
"7     c #1D72B3",
"70    c #2076B7",
"71    c #2278B8",
"72    c #2076B6",
"73    c #1F75B6",
"74    c #1F75B5",
"75    c #1E74B5",
"76    c #1D74B5",
"77    c #1B73B4",
"78    c #1770B3",
"79    c #035FA4",
"7a    c #0360A5",
"7b    c #0D5AA2",
"7c    c #154B96",
"7d    c #184893",
"7e    c #184792",
"7f    c #164D97",
"7g    c #125AA2",
"7h    c #1064A9",
"7i    c #1164A9",
"7j    c #1467AB",
"7k    c #1567AB",
"7l    c #1668AB",
"7m    c #1669AB",
"7n    c #176AAD",
"7o    c #196CAE",
"7p    c #186BAD",
"7q    c #1769AC",
"7r    c #1669AC",
"7s    c #1668AC",
"7t    c #1568AC",
"7u    c #1468AB",
"7v    c #1367AB",
"7w    c #1267AB",
"7x    c #0661A6",
"7y    c #015DA2",
"7z    c #055FA5",
"7A    c #085BA2",
"7B    c #0C59A1",
"7C    c #0C579E",
"7D    c #0D579E",
"7E    c #0E579F",
"7F    c #0B5DA3",
"7G    c #0B5FA4",
"7H    c #0C60A5",
"7I    c #0D61A5",
"7J    c #0E61A5",
"7K    c #0E61A6",
"7L    c #0F61A6",
"7M    c #0F62A6",
"7N    c #1063A7",
"7O    c #1062A6",
"7P    c #0F61A5",
"7Q    c #0E60A5",
"7R    c #0D60A5",
"7S    c #0960A5",
"7T    c #025EA3",
"     0 1 2 2 2 2 2 2 2 2 2 2 2 2 2 2 2 2 2 2 2 2 2 2 2 2 1 0    ",
"   3 2 4 5 6 7 8 8 8 9 9 a b c d e f g g g h i j k l m n o 2 3  ",
" 0 2 p q r s t t u u v w x y z A B C D D D D C E F G H I J K 2 0",
" 1 4 L t M u N O P x Q R S T D U V W X X X X W V U Y Z & H0  o 1",
" 200010203 P040506 S0708090a W0b0c0d0e0e0e0e0d0c0f X0g0h &0i0j 2",
" 20k0l0l0m0m0n0n0n0n0o0p0p0q0r0s0s0t0u0t0v0w0x0y0z0A0B0C0D0E0F 2",
" 20G0H0I0J0J0K0L0M0M0N0O0P0P0Q0R0S0T0U0U0U0U0T0S0V0W0X0Y0Z0&1  2",
" 2101112131415161718191a1b1c1d0U1e1f1g1h1h1g1g1e0U0T0R1i1j1k1l 2",
" 21m1n1o1p1q171r1s1t1c1u1v1w1x1g1y1z1A1A1A1A1z1B1g1e1C0V1D1E1F 2",
" 21G1H1I1J1K1L1M1N1O1P1Q1Q1Q1R1S1T1T1T1T1T1T1U1V1A1y1f0U0S1W1X 2",
" 21m1Y1Z1&2 2021221Q2323232323232323232323232425261A271f1C2829 2",
" 22a2b2c2d2e2f2g2h2i232323232323232323232323242j2k2l1A2m1e2n2o 2",
" 22p2q2r2s2t2u2v2w2x2323232323232323232323232y2z2j252l1A1g2A2B 2",
" 22C2D2E2F2G2H2I2J2K2323232323232323232323232L2M2z2j251V1B2N2O 2",
" 22P2Q2R2S2T2U2V2W2K2323232323232323232323232X2Y2Z2&2k2l1z3 30 2",
" 23132333435363738392323232323232323232323233a3b3c3d3e3f3g3h3i 2",
" 2313j3k3l3m3n3o3p3q2323232323232323232323233r3s3t3u3v3w3x3y3i 2",
" 2313z3A3B3C3D3E3F3G2323232323232323232323233r3H3t3u3v3w3x3I3i 2",
" 2313J3K3L3M3N3O3P3Q2323232323232323232323233r3R3S3T3U3V3x3W3i 2",
" 23X3Y3Z3&4 4041423Q232323232323232323232323434445464748494a3i 2",
" 23X4b4c4d4e4f4g4h4i2323232323232323232323234j4k3T4l4m4n4o0U4p 2",
" 23X4q4r4s4t4u4v4w4i2323232323232323232323234x4y3v4z484A4B4C4D 2",
" 24E4F4G4H4I4J4K4L4M4N4N4O4O4P4P4Q4R4S4T4T4T4U4l4z3V4V4o4W4X4Y 2",
" 24Z4&5 505152535455565758595a5b5c5d473U3U3U4z3w484V4o5e5f5g5h 2",
" 25i5j5k4G5l5m5n5o5p5q5r5s5t5u5v5w5x483V3V3V483x495y5e5f5z5A5B 2",
" 25C5D5E5F5G5H5I5J5K5L5M5N5O5P5Q5R5S494A4A495T4o4B5U5V5W5X0c5Y 2",
" 25Z5&6 606162636465664v4w6768696a6b6c5R5R6d6e6f6g6g6h6i6j6k6l 2",
" 26m6n6o6p6q6r6s6t6u6v6w6x6y6z6A6B6C696D6E6F6F6G6H6I6J6K6L4u6M 2",
" 16N6O6P6Q6n6R6S6T6U6V6W6X6Y6Z6&7 7 70713F727374757676773n7879 1",
" 0 27a7b7c7d7e7f7g7h7h7i T T7j7k7l7m7n7o7p7q7r7r7s7t7u7v7w7x 2 0",
"   3 27y7z7A7B7C7D7E7F7G7H7H7I7J7K7L7M7N7O7P7J7J7Q7R7G7S7T 2 3  ",
"     0 1 2 2 2 2 2 2 2 2 2 2 2 2 2 2 2 2 2 2 2 2 2 2 2 2 1 0    "};

