/* XPM */
static char *SMPDlg_WxBitmapButton3_XPM[]={
/* SMPDlg_WxBitmapButton3 */
"32 32 860 2",
"      c None",
" 0    c #FDFDFE",
" 1    c #FEFDFE",
" 2    c #FFFDFE",
" 3    c #FEFEFC",
" 4    c #FDFEFC",
" 5    c #FFFEFB",
" 6    c #FFFDF8",
" 7    c #F3F5F0",
" 8    c #C4C8C8",
" 9    c #9A9CA0",
" a    c #575D64",
" b    c #273D46",
" c    c #022532",
" d    c #03202E",
" e    c #031F2E",
" f    c #263C46",
" g    c #555C64",
" h    c #9A9B9F",
" i    c #C4C7C7",
" j    c #F3F6F0",
" k    c #FDFFF6",
" l    c #FEFEFA",
" m    c #FFFEFF",
" n    c #FEFEFF",
" o    c #FEFCFE",
" p    c #FEFCFC",
" q    c #FAFFFB",
" r    c #FAFEFB",
" s    c #FDFEFD",
" t    c #FEFBFC",
" u    c #FEFEFB",
" v    c #FDFDFA",
" w    c #B6BBC0",
" x    c #585F6A",
" y    c #1A2C43",
" z    c #04304E",
" A    c #134D6C",
" B    c #135D7F",
" C    c #0F6C8F",
" D    c #11769A",
" E    c #13769B",
" F    c #106B8F",
" G    c #135B7E",
" H    c #134A6A",
" I    c #052F4D",
" J    c #192C42",
" K    c #57606B",
" L    c #B1BABF",
" M    c #FCFCFB",
" N    c #FEFDFD",
" O    c #FCFFFF",
" P    c #FBFDFD",
" Q    c #FBFEFC",
" R    c #FCFEFD",
" S    c #FBFFFD",
" T    c #F8FEF9",
" U    c #FCFDFE",
" V    c #FFFCFF",
" W    c #C0C8C7",
" X    c #525D64",
" Y    c #061C36",
" Z    c #0E3F63",
" &    c #176A95",
"0     c #0F75A4",
"00    c #0E7DAF",
"01    c #0E86B9",
"02    c #0E8DC3",
"03    c #0C90C7",
"04    c #0D90C7",
"05    c #0E8CC2",
"06    c #1185BA",
"07    c #117CAF",
"08    c #1273A3",
"09    c #1A6792",
"0a    c #0E3E61",
"0b    c #061E3A",
"0c    c #4E5A66",
"0d    c #C1C6C8",
"0e    c #FFFEFE",
"0f    c #FCFDFF",
"0g    c #FAFEFC",
"0h    c #FDFFFE",
"0i    c #FCFEFE",
"0j    c #FEFFFE",
"0k    c #FEFEFE",
"0l    c #FFFBFD",
"0m    c #FDFBFD",
"0n    c #AFB5B6",
"0o    c #1F2F38",
"0p    c #0B314A",
"0q    c #155A85",
"0r    c #136B9B",
"0s    c #117DAA",
"0t    c #1389B5",
"0u    c #198DBC",
"0v    c #198DBF",
"0w    c #1E8FC7",
"0x    c #1A8BC3",
"0y    c #198AC2",
"0z    c #1A8AC2",
"0A    c #1584B9",
"0B    c #1685B6",
"0C    c #1280AF",
"0D    c #1276A5",
"0E    c #156697",
"0F    c #145584",
"0G    c #0F324F",
"0H    c #202E39",
"0I    c #B0B4B5",
"0J    c #FDFBFC",
"0K    c #FEFBFE",
"0L    c #FFFDFF",
"0M    c #FEFEFD",
"0N    c #FFFDFD",
"0O    c #FEFCFF",
"0P    c #FCFAFC",
"0Q    c #848888",
"0R    c #101F2B",
"0S    c #0F4A6B",
"0T    c #0F6495",
"0U    c #1079B0",
"0V    c #1E8DC1",
"0W    c #1F90C2",
"0X    c #1E90C2",
"0Y    c #1F8EC2",
"0Z    c #1F8DC2",
"0&    c #1E88C0",
"1     c #2189C3",
"10    c #2087C2",
"11    c #1C83BD",
"12    c #1C85BC",
"13    c #1B85BA",
"14    c #1781B6",
"15    c #197FB5",
"16    c #197CB4",
"17    c #106FA5",
"18    c #0E5C8D",
"19    c #124569",
"1a    c #111D2C",
"1b    c #838688",
"1c    c #FCFAFA",
"1d    c #A4ABAD",
"1e    c #0E202B",
"1f    c #10405F",
"1g    c #14689A",
"1h    c #1981BA",
"1i    c #2092C9",
"1j    c #2190C4",
"1k    c #228EC1",
"1l    c #228EC2",
"1m    c #1E8CC0",
"1n    c #1D8BBF",
"1o    c #1C8BBF",
"1p    c #1A8ABE",
"1q    c #1987BC",
"1r    c #1B87BC",
"1s    c #1A83B8",
"1t    c #1A80B6",
"1u    c #1C80B7",
"1v    c #1D7DB6",
"1w    c #197AB4",
"1x    c #167AB2",
"1y    c #1471AC",
"1z    c #165E95",
"1A    c #133A5E",
"1B    c #101D2C",
"1C    c #A6A9A9",
"1D    c #FDFDFC",
"1E    c #FDFFFF",
"1F    c #FDFEFE",
"1G    c #B1B9BA",
"1H    c #192932",
"1I    c #0E4A6B",
"1J    c #186C9E",
"1K    c #238CC6",
"1L    c #2394CB",
"1M    c #1D90C1",
"1N    c #2291C1",
"1O    c #218EBF",
"1P    c #1F90C3",
"1Q    c #2094C4",
"1R    c #2297C6",
"1S    c #229AC8",
"1T    c #229CC8",
"1U    c #2299C7",
"1V    c #2298C6",
"1W    c #2394C4",
"1X    c #1F8DBF",
"1Y    c #1983B7",
"1Z    c #197CB1",
"1&    c #1B7BB0",
"2     c #177AAE",
"20    c #1779B4",
"21    c #1771B0",
"22    c #165B92",
"23    c #124165",
"24    c #192630",
"25    c #B3B8B8",
"26    c #FDFEFF",
"27    c #FAFAF8",
"28    c #333F48",
"29    c #0A314A",
"2a    c #126A9A",
"2b    c #2091C8",
"2c    c #2191C4",
"2d    c #2192C1",
"2e    c #1F91BF",
"2f    c #2096C4",
"2g    c #1F9BC9",
"2h    c #219CCC",
"2i    c #229ECD",
"2j    c #219DCC",
"2k    c #219CCA",
"2l    c #239DCB",
"2m    c #239BCB",
"2n    c #259CCD",
"2o    c #2196C7",
"2p    c #1E8FBD",
"2q    c #1880B0",
"2r    c #1678AE",
"2s    c #1677AF",
"2t    c #1375B1",
"2u    c #166FA8",
"2v    c #175C8E",
"2w    c #0A2946",
"2x    c #37404C",
"2y    c #FAFAFB",
"2z    c #FFFEFD",
"2A    c #FEFAF8",
"2B    c #9698A0",
"2C    c #051E3A",
"2D    c #145A87",
"2E    c #228DC3",
"2F    c #1E91C7",
"2G    c #1F93C4",
"2H    c #1E91C0",
"2I    c #1D95C4",
"2J    c #1F9BC8",
"2K    c #209CCA",
"2L    c #1F9BCB",
"2M    c #1F9ACD",
"2N    c #1F9ACE",
"2O    c #209BCF",
"2P    c #209ACD",
"2Q    c #209ACC",
"2R    c #2199CC",
"2S    c #209BC9",
"2T    c #1C86BC",
"2U    c #1677AD",
"2V    c #1375A9",
"2W    c #1272A9",
"2X    c #166AA4",
"2Y    c #154C7C",
"2Z    c #061A39",
"2&    c #9599A1",
"3     c #FDFAF5",
"30    c #E7E6E5",
"31    c #3F4553",
"32    c #0B3F64",
"33    c #247CAD",
"34    c #2192C6",
"35    c #2190C1",
"36    c #1F92C0",
"37    c #1C98C5",
"38    c #1D98CA",
"39    c #2097CA",
"3a    c #2098C8",
"3b    c #2098CA",
"3c    c #2197CA",
"3d    c #2196CC",
"3e    c #2297CC",
"3f    c #2196CB",
"3g    c #2198C9",
"3h    c #2198CA",
"3i    c #2098CD",
"3j    c #2594C5",
"3k    c #1E82B4",
"3l    c #1573A7",
"3m    c #166FA9",
"3n    c #186EAA",
"3o    c #186094",
"3p    c #0C375D",
"3q    c #414855",
"3r    c #E7E6E4",
"3s    c #AEB1B2",
"3t    c #0A2338",
"3u    c #1B6B97",
"3v    c #278EBF",
"3w    c #2091C3",
"3x    c #218FC2",
"3y    c #2290C3",
"3z    c #1D96C4",
"3A    c #2094C6",
"3B    c #2193C8",
"3C    c #2194C4",
"3D    c #2891BD",
"3E    c #2C8FBA",
"3F    c #2C8FBB",
"3G    c #2990BC",
"3H    c #2B91BD",
"3I    c #2B8FBA",
"3J    c #2B8EB9",
"3K    c #2992BD",
"3L    c #2094CA",
"3M    c #2093C7",
"3N    c #2394C2",
"3O    c #258FBF",
"3P    c #2181B7",
"3Q    c #136DA8",
"3R    c #156CA7",
"3S    c #19689E",
"3T    c #155582",
"3U    c #0B1F35",
"3V    c #AEB2B3",
"3W    c #7A7A7F",
"3X    c #012D48",
"3Y    c #2484B4",
"3Z    c #258FC0",
"3&    c #2191C3",
"4     c #208FC0",
"40    c #1D94C4",
"41    c #2192C2",
"42    c #238FBD",
"43    c #2A8EB7",
"44    c #61B0D2",
"45    c #76BAD8",
"46    c #75BAD7",
"47    c #6FBAD8",
"48    c #6FBAD7",
"49    c #76BAD7",
"4a    c #76BBD8",
"4b    c #60B0D1",
"4c    c #2A8EB8",
"4d    c #2290C2",
"4e    c #218FC3",
"4f    c #238DC3",
"4g    c #1375AE",
"4h    c #126CA7",
"4i    c #19679E",
"4j    c #1A6093",
"4k    c #052643",
"4l    c #797C81",
"4m    c #383E46",
"4n    c #134967",
"4o    c #2990C0",
"4p    c #228FC0",
"4q    c #1E8FC1",
"4r    c #1F8CC1",
"4s    c #1D8EC4",
"4t    c #1B90C1",
"4u    c #1E8EBF",
"4v    c #3E91B7",
"4w    c #A7D9EA",
"4x    c #E9FEFF",
"4y    c #F3FEFF",
"4z    c #F4FDFF",
"4A    c #F4FDFE",
"4B    c #F2FEFF",
"4C    c #E9FFFF",
"4D    c #A6D8EA",
"4E    c #3C93BB",
"4F    c #1E8DC0",
"4G    c #208EBF",
"4H    c #238EC4",
"4I    c #1D81B8",
"4J    c #116DA7",
"4K    c #17669E",
"4L    c #1A6398",
"4M    c #123959",
"4N    c #394148",
"4O    c #13232E",
"4P    c #1F5F7F",
"4Q    c #258FC2",
"4R    c #1E8EC0",
"4S    c #1C8DBF",
"4T    c #1E8BBD",
"4U    c #1E8BBF",
"4V    c #1C8CC2",
"4W    c #1C8BBD",
"4X    c #62A8C5",
"4Y    c #E3FAFC",
"4Z    c #F9FEFF",
"4&    c #FCFBFC",
"5     c #FAFFFF",
"50    c #E2F9FC",
"51    c #5EA8C8",
"52    c #1C8ABE",
"53    c #208CBD",
"54    c #1F8ABE",
"55    c #2085BA",
"56    c #1472AB",
"57    c #13669D",
"58    c #18649A",
"59    c #174466",
"5a    c #15242F",
"5b    c #031624",
"5c    c #256C8E",
"5d    c #1F8DC3",
"5e    c #1B8DC1",
"5f    c #1B8CBD",
"5g    c #1D88BA",
"5h    c #1E87BB",
"5i    c #1C87BF",
"5j    c #1989BC",
"5k    c #1B87BB",
"5l    c #6FAAC6",
"5m    c #F7FEFF",
"5n    c #FEFDFF",
"5o    c #FCFCF9",
"5p    c #FDFEFA",
"5q    c #FDFCF9",
"5r    c #6CAAC7",
"5s    c #1C88BC",
"5t    c #1E88BA",
"5u    c #1C89BC",
"5v    c #1C88BA",
"5w    c #1F86BA",
"5x    c #1777AE",
"5y    c #10649D",
"5z    c #15639C",
"5A    c #18496E",
"5B    c #021322",
"5C    c #061929",
"5D    c #267196",
"5E    c #1C8DC3",
"5F    c #198BC0",
"5G    c #1988BA",
"5H    c #1C85B6",
"5I    c #1F83B8",
"5J    c #1986BA",
"5K    c #70A9C4",
"5L    c #F9FEFE",
"5M    c #FDFFFC",
"5N    c #FCFEFC",
"5O    c #6DA8C4",
"5P    c #1E86BB",
"5Q    c #1D84B6",
"5R    c #1B86B8",
"5S    c #1B86B6",
"5T    c #1F84B8",
"5U    c #1A7AB0",
"5V    c #0F659D",
"5W    c #106099",
"5X    c #1A4D74",
"5Y    c #051224",
"5Z    c #071A29",
"5&    c #267297",
"6     c #1A8BC1",
"60    c #1A8ABF",
"61    c #1783B6",
"62    c #1B81B3",
"63    c #1E7FB4",
"64    c #1B80B8",
"65    c #1981B7",
"66    c #1B81B6",
"67    c #6FA7C1",
"68    c #F7FEFC",
"69    c #FBFEFE",
"6a    c #6BA6C2",
"6b    c #1C81B2",
"6c    c #1982B4",
"6d    c #1A82B3",
"6e    c #1D81B4",
"6f    c #1C7BB1",
"6g    c #0C629B",
"6h    c #106098",
"6i    c #194C74",
"6j    c #061224",
"6k    c #071C2B",
"6l    c #256D91",
"6m    c #1C8AC0",
"6n    c #1D8ABF",
"6o    c #1780B4",
"6p    c #1A7DB0",
"6q    c #1D7CB3",
"6r    c #1B7CB6",
"6s    c #187EB3",
"6t    c #1A7DB2",
"6u    c #6EA4C0",
"6v    c #F8FEFE",
"6w    c #FCFDFD",
"6x    c #6BA4C1",
"6y    c #1A7DB3",
"6z    c #1B7EAF",
"6A    c #187EB2",
"6B    c #197EB1",
"6C    c #1B7DB2",
"6D    c #1B79B0",
"6E    c #0F639C",
"6F    c #105E96",
"6G    c #194A70",
"6H    c #051222",
"6I    c #152C36",
"6J    c #256888",
"6K    c #1E87BA",
"6L    c #1D86BA",
"6M    c #157BAF",
"6N    c #1A7AAE",
"6O    c #1C78B0",
"6P    c #1A79B3",
"6Q    c #177AAF",
"6R    c #1979AE",
"6S    c #6EA2BD",
"6T    c #F8FDFE",
"6U    c #FDFEFB",
"6V    c #FBFEFF",
"6W    c #6BA1BF",
"6X    c #1A79AF",
"6Y    c #1A79AC",
"6Z    c #1879AF",
"6&    c #1A73AC",
"7     c #0F5E96",
"70    c #135D95",
"71    c #164467",
"72    c #13232F",
"73    c #35444B",
"74    c #235E7B",
"75    c #1E83B4",
"76    c #1E84B7",
"77    c #187BAF",
"78    c #1976AB",
"79    c #1B75AE",
"7a    c #1976B1",
"7b    c #1778AC",
"7c    c #1877AA",
"7d    c #6DA1BB",
"7e    c #F7FEFE",
"7f    c #FEFFFC",
"7g    c #FEFFFA",
"7h    c #FCFFFC",
"7i    c #F6FEFE",
"7j    c #69A0BD",
"7k    c #1977AC",
"7l    c #1977AA",
"7m    c #1877AE",
"7n    c #1B75AD",
"7o    c #1A6EA8",
"7p    c #115C94",
"7q    c #155A90",
"7r    c #153D5D",
"7s    c #364049",
"7t    c #787D82",
"7u    c #10425C",
"7v    c #2384B3",
"7w    c #1D81B3",
"7x    c #187AAF",
"7y    c #1672A8",
"7z    c #1971AA",
"7A    c #1772AC",
"7B    c #1574A7",
"7C    c #1773A7",
"7D    c #5A92B6",
"7E    c #E3F3FA",
"7F    c #FFFFFC",
"7G    c #FBFEFD",
"7H    c #E2F3FA",
"7I    c #5692B7",
"7J    c #1873A6",
"7K    c #1673AA",
"7L    c #1772AB",
"7M    c #1A70AB",
"7N    c #14659F",
"7O    c #135B92",
"7P    c #16588B",
"7Q    c #0A2B48",
"7R    c #777B81",
"7S    c #ADB1B4",
"7T    c #0B2E42",
"7U    c #287DA7",
"7V    c #2080B1",
"7W    c #1A7CB1",
"7X    c #1371A8",
"7Y    c #196FA6",
"7Z    c #196DA4",
"7&    c #196FA3",
"8     c #186FA7",
"80    c #2F71A0",
"81    c #98BDD7",
"82    c #F1FFFF",
"83    c #F8FFFF",
"84    c #F5FEFF",
"85    c #F6FEFF",
"86    c #F0FFFF",
"87    c #96BCD6",
"88    c #2D72A2",
"89    c #1670A8",
"8a    c #186EA3",
"8b    c #176EA4",
"8c    c #186CA6",
"8d    c #12619A",
"8e    c #14588C",
"8f    c #1B537F",
"8g    c #0D2038",
"8h    c #AFB2B6",
"8i    c #E6E5E4",
"8j    c #3E4654",
"8k    c #1E5A7C",
"8l    c #267EAE",
"8m    c #197CB2",
"8n    c #1474AA",
"8o    c #136DA0",
"8p    c #186DA0",
"8q    c #1869A0",
"8r    c #1569A2",
"8s    c #1B6AA1",
"8t    c #1D5F91",
"8u    c #44769F",
"8v    c #5C83A7",
"8w    c #5D85A6",
"8x    c #5986A6",
"8y    c #5985A8",
"8z    c #5B84A7",
"8A    c #19699F",
"8B    c #156CA4",
"8C    c #176AA2",
"8D    c #176AA1",
"8E    c #1868A2",
"8F    c #13639D",
"8G    c #0E5B93",
"8H    c #165686",
"8I    c #153E61",
"8J    c #404654",
"8K    c #E5E4E4",
"8L    c #FDFAF8",
"8M    c #8F959E",
"8N    c #0C2B48",
"8O    c #25709D",
"8P    c #1B7BB1",
"8Q    c #1778AD",
"8R    c #106CA0",
"8S    c #11699E",
"8T    c #1468A0",
"8U    c #13689D",
"8V    c #13699E",
"8W    c #15689E",
"8X    c #16639A",
"8Y    c #166196",
"8Z    c #196298",
"8&    c #166197",
"9     c #166399",
"90    c #15679F",
"91    c #14679B",
"92    c #13689E",
"93    c #1368A1",
"94    c #16669F",
"95    c #16639B",
"96    c #105C97",
"97    c #0F5892",
"98    c #164E7B",
"99    c #07203B",
"9a    c #919A9F",
"9b    c #FEFDF8",
"9c    c #FFFEFC",
"9d    c #F6F9F8",
"9e    c #344550",
"9f    c #194360",
"9g    c #2377A5",
"9h    c #1879B0",
"9i    c #1265A1",
"9j    c #11639A",
"9k    c #146498",
"9l    c #126396",
"9m    c #0F6597",
"9n    c #11669B",
"9o    c #11639B",
"9p    c #14629D",
"9q    c #17619E",
"9r    c #17619F",
"9s    c #14619D",
"9t    c #106497",
"9u    c #116497",
"9v    c #13649A",
"9w    c #14639B",
"9x    c #15609B",
"9y    c #125B99",
"9z    c #105592",
"9A    c #195389",
"9B    c #0F2D4C",
"9C    c #37434E",
"9D    c #F8FBF9",
"9E    c #FEFFFB",
"9F    c #FCFFFE",
"9G    c #AEB7B6",
"9H    c #1B2C36",
"9I    c #236080",
"9J    c #2374A6",
"9K    c #1774B1",
"9L    c #146DA9",
"9M    c #126096",
"9N    c #135F98",
"9O    c #125F98",
"9P    c #126196",
"9Q    c #126095",
"9R    c #136098",
"9S    c #145E99",
"9T    c #145E9B",
"9U    c #145F98",
"9V    c #136095",
"9W    c #136096",
"9X    c #115F99",
"9Y    c #116197",
"9Z    c #145F96",
"9&    c #115B96",
"a     c #115896",
"a0    c #175389",
"a1    c #184169",
"a2    c #1B2534",
"a3    c #B5B8BB",
"a4    c #FEFFFD",
"a5    c #FAFFFD",
"a6    c #9FAAA7",
"a7    c #12212F",
"a8    c #255475",
"a9    c #2270A2",
"aa    c #1773AA",
"ab    c #166CA5",
"ac    c #11639C",
"ad    c #105C9A",
"ae    c #13599B",
"af    c #115993",
"ag    c #115C91",
"ah    c #115C92",
"ai    c #115B93",
"aj    c #135B95",
"ak    c #125B92",
"al    c #135B91",
"am    c #135993",
"an    c #14599B",
"ao    c #105A9B",
"ap    c #0F5D98",
"aq    c #115A94",
"ar    c #11578F",
"as    c #175485",
"at    c #163C5E",
"au    c #111B2D",
"av    c #A9ACB1",
"aw    c #FFFCFE",
"ax    c #FDFBFF",
"ay    c #FAFCFB",
"az    c #808385",
"aA    c #132130",
"aB    c #20587A",
"aC    c #1F6F9E",
"aD    c #176FA7",
"aE    c #166CA4",
"aF    c #14629F",
"aG    c #125B9C",
"aH    c #0E5995",
"aI    c #0E5B94",
"aJ    c #0E5890",
"aK    c #125890",
"aL    c #125891",
"aM    c #105992",
"aN    c #0F5993",
"aO    c #105995",
"aP    c #125799",
"aQ    c #105799",
"aR    c #105895",
"aS    c #135892",
"aT    c #175383",
"aU    c #174061",
"aV    c #111E2B",
"aW    c #848A8C",
"aX    c #F8FCFD",
"aY    c #FCFCFE",
"aZ    c #FFFBFA",
"a&    c #FDFAFE",
"b     c #FAFCFC",
"b0    c #AAB3B2",
"b1    c #1F2C38",
"b2    c #123654",
"b3    c #1D5F8C",
"b4    c #1F699B",
"b5    c #1E689B",
"b6    c #1A689B",
"b7    c #12649E",
"b8    c #0D609B",
"b9    c #105B97",
"ba    c #145891",
"bb    c #165691",
"bc    c #135A97",
"bd    c #0A5B97",
"be    c #0B5B94",
"bf    c #135C92",
"bg    c #16588E",
"bh    c #1A568B",
"bi    c #154A78",
"bj    c #0E2943",
"bk    c #222C36",
"bl    c #B2B7B5",
"bm    c #F8FDFC",
"bn    c #F7FDFF",
"bo    c #FFFBFC",
"bp    c #FAFFFE",
"bq    c #FDFDFF",
"br    c #C0C5C8",
"bs    c #4D5864",
"bt    c #061C39",
"bu    c #143E63",
"bv    c #266087",
"bw    c #22658F",
"bx    c #186499",
"by    c #15659F",
"bz    c #15629B",
"bA    c #175E94",
"bB    c #175D95",
"bC    c #135D97",
"bD    c #0F5C96",
"bE    c #195884",
"bF    c #1D5178",
"bG    c #0F3256",
"bH    c #041934",
"bI    c #525C67",
"bJ    c #C5C9CA",
"bK    c #FBFFFF",
"bL    c #FDFCFA",
"bM    c #F9FFFD",
"bN    c #FBFDFC",
"bO    c #F9FBFA",
"bP    c #B2B7BE",
"bQ    c #555B66",
"bR    c #182738",
"bS    c #09283F",
"bT    c #173D5C",
"bU    c #16456A",
"bV    c #164C70",
"bW    c #174F70",
"bX    c #184D70",
"bY    c #14486D",
"bZ    c #164167",
"b&    c #143657",
"c     c #07233B",
"c0    c #1B293A",
"c1    c #5A5F67",
"c2    c #B6BCC1",
"c3    c #FAFDFD",
"c4    c #FEFDFB",
"c5    c #FEFDFA",
"c6    c #FFFCFB",
"c7    c #FDFCFE",
"c8    c #FCFEFA",
"c9    c #FEFFF6",
"ca    c #F3F3ED",
"cb    c #C2C4C3",
"cc    c #93999C",
"cd    c #525760",
"ce    c #293544",
"cf    c #071D2B",
"cg    c #031623",
"ch    c #041523",
"ci    c #081C2B",
"cj    c #2C3645",
"ck    c #5A5A65",
"cl    c #989A9E",
"cm    c #C5C6C4",
"cn    c #F5F5ED",
"co    c #FEFEF6",
"cp    c #FFFDFC",
"cq    c #FFFBF9",
"   0 1 2   3 4 5 6 7 8 9 a b c d e c f g h i j k l 1 m n 1 o p  ",
" 0 q r s 2 t u v w x y z A B C D E F G H I J K L M N o n O P Q R",
" n S T U V n W X Y Z &0 000102030405060708090a0b0c0d0e n0f0g0h0i",
" 10j0k0l0m0n0o0p0q0r0s0t0u0v0w0x0y0z0A0B0C0D0E0F0G0H0I0J0K0L m0M",
"0N0O0L0P0Q0R0S0T0U0V0W0X0Y0Z0&1 101112131415161718191a1b1c V0O0e",
" s 0 U1d1e1f1g1h1i1j1k1l1m1n1o1p1q1r1s1t1u1v1w1x1y1z1A1B1C1D 01E",
"1F 41G1H1I1J1K1L1M1N1O1P1Q1R1S1T1U1V1W1X1Y1Z1&2 2021222324250j26",
" N2728292a1K2b2c2d2e2f2g2h2i2j2k2l2m2n2n2o2p2q2r2s2t2u2v2w2x2y2z",
"2A2B2C2D2E2F2G2H2I2J2K2L2M2M2M2N2O2P2P2Q2R2S2f2T2U2V2W2X2Y2Z2&3 ",
"30313233343435363738393a3b3c3d3e3f3d3c3g3h3i393j3k3l3m3n3o3p3q3r",
"3s3t3u3v3w3x3y1Q3z3A3B3C3D3E3F3G3H3I3J3K1Q3L3M3N3O3P3Q3R3S3T3U3V",
"3W3X3Y3Z3&4 1P2F404142434445464748494a4b4c4d3w1N4e4f4g4h4i4j4k4l",
"4m4n4o4p4q1X4r4s4t4u4v4w4x4y4z4y4y4A4B4C4D4E4F4G4F4H4I4J4K4L4M4N",
"4O4P4Q4R4S4T4U4V0v4W4X4Y4Z4&2z0M m0N0J5 50515253525455565758595a",
"5b5c5d5e5f5g5h5i5j5k5l5m5n0e5o u5p5q0e o5m5r5s5t5u5v5w5x5y5z5A5B",
"5C5D5E5F5G5H5I125J135K5L5n n s 45M5N n5n5L5O5P5Q5R5S5T5U5V5W5X5Y",
"5Z5&6 6061626364656667681E690k0M0M0k691E686a666b6c6d6e6f6g6h6i6j",
"6k6l6m6n6o6p6q6r6s6t6u6v6w1F 00L0L 01F6w6v6x6y6z6A6B6C6D6E6F6G6H",
"6I6J6K6L6M6N6O6P6Q6R6S6T1D6U0h6V0f0j6U1D6T6W6X6Y6Q6Z6D6&7 707172",
"737475767778797a7b7c7d7e7f7g7h5 5 7h7g7f7i7j7k7l5x7m7n7o7p7q7r7s",
"7t7u7v7w7x7y7z7A7B7C7D7E697F 25n0L 27F7G7H7I7C7J7K7L7M7N7O7P7Q7R",
"7S7T7U7V7W7X7Y7Z7&8 808182834Z84854Z83868788898a8b8 8c8d8e8f8g8h",
"8i8j8k8l8m8n8o8p8q8r8s8t8u8v8w8x8y8w8z8u8t8A8B8C8D8E8F8G8H8I8J8K",
"8L8M8N8O8P8Q8R8S8T8U8V8W8X8Y8Z8Y8&8Z8Y9 909192939495969798999a9b",
"9c9d9e9f9g9h1y9i9j9k9l9m9n9o9p9q9r9s9o9n9t9u9v9w9x9y9z9A9B9C9D9E",
"1E9F9G9H9I9J9K9L9j9M9N9O9P9Q9R9S9T9U9V9W9N9X9Y9Z9&a a0a1a2a3a49F",
" n1Fa5a6a7a8a9aaabacadaeafagahaiajakalamanaoapaqarasatauav U1Fa4",
"awax1EayazaAaBaCaDaEaFaGaHaIaJaKaLaMaNaOaPaQaRaSaTaUaVaWaX5 aYaZ",
"0M n0La&b b0b1b2b3b4b5b6b7b8b9babbbcbdbebfbgbhbibjbkblbmbn6V0Lbo",
"bp0k tbq6V0ibrbsbtbubvbwbxbybzbAbBbCbDalbEbFbGbHbIbJ6UbK69bL2z 2",
"bM1D0m5n26 nbNbObPbQbRbSbTbUbVbWbXbYbZb&c c0c1c2c31F261Fc4c59c n",
"c61Dc7aw V nbKc8c9cacbcccdcecfcgchcicjckclcmcnco0j6V ncpcqc4 R O"};

