/* XPM */
static char * click_skip_forward_xpm[] = {
"32 32 602 2",
"  	c None",
". 	c #FFFFFF",
"+ 	c #8096BA",
"@ 	c #103A7E",
"# 	c #002D75",
"$ 	c #30558F",
"% 	c #002C75",
"& 	c #00276E",
"* 	c #002369",
"= 	c #00246A",
"- 	c #00256B",
"; 	c #00266C",
"> 	c #054894",
", 	c #0A5EAD",
"' 	c #0A5EAE",
") 	c #0A5FAE",
"! 	c #0B5FAF",
"~ 	c #0B60AF",
"{ 	c #1064B2",
"] 	c #2A78BC",
"^ 	c #3882BF",
"/ 	c #357FBE",
"( 	c #2E7ABB",
"_ 	c #206CB2",
": 	c #094E9A",
"< 	c #01337C",
"[ 	c #002B73",
"} 	c #002166",
"| 	c #002064",
"1 	c #002165",
"2 	c #002266",
"3 	c #002267",
"4 	c #002268",
"5 	c #002368",
"6 	c #06438E",
"7 	c #0E6ABB",
"8 	c #0F6BBC",
"9 	c #0F6CBC",
"0 	c #106DBD",
"a 	c #116EBD",
"b 	c #207AC3",
"c 	c #4696D1",
"d 	c #67AFDD",
"e 	c #69AFDD",
"f 	c #62ABDA",
"g 	c #3484C5",
"h 	c #033C86",
"i 	c #002167",
"j 	c #01256B",
"k 	c #053881",
"l 	c #116FBE",
"m 	c #1270BF",
"n 	c #1371C0",
"o 	c #1372C0",
"p 	c #1E79C3",
"q 	c #57A2D7",
"r 	c #6AB0DE",
"s 	c #69AFDC",
"t 	c #3586C5",
"u 	c #002970",
"v 	c #002269",
"w 	c #00256A",
"x 	c #01266C",
"y 	c #01276D",
"z 	c #01276E",
"A 	c #022E76",
"B 	c #1473C1",
"C 	c #1574C2",
"D 	c #1675C3",
"E 	c #1572C0",
"F 	c #53A0D6",
"G 	c #6AB1DE",
"H 	c #64ADDC",
"I 	c #094F9B",
"J 	c #0D3C81",
"K 	c #124183",
"L 	c #114183",
"M 	c #114184",
"N 	c #114284",
"O 	c #114285",
"P 	c #124285",
"Q 	c #2980C5",
"R 	c #2C88CD",
"S 	c #2C89CD",
"T 	c #2D89CD",
"U 	c #2D88CD",
"V 	c #2B87CC",
"W 	c #2986CC",
"X 	c #2885CB",
"Y 	c #2683CA",
"Z 	c #2581C9",
"` 	c #2A85CA",
" .	c #75B7E2",
"..	c #78B9E2",
"+.	c #2C77B9",
"@.	c #0E3C81",
"#.	c #124485",
"$.	c #134486",
"%.	c #144586",
"&.	c #144587",
"*.	c #144688",
"=.	c #154789",
"-.	c #15488A",
";.	c #16498B",
">.	c #174A8C",
",.	c #174B8C",
"'.	c #2C7CBD",
").	c #3690D1",
"!.	c #3891D2",
"~.	c #3992D2",
"{.	c #3A93D3",
"].	c #3791D1",
"^.	c #3590D1",
"/.	c #338ED0",
"(.	c #328CCF",
"_.	c #62AADC",
":.	c #86C1E6",
"<.	c #448DC7",
"[.	c #0D387D",
"}.	c #134588",
"|.	c #144789",
"1.	c #14478A",
"2.	c #15488B",
"3.	c #15498B",
"4.	c #164A8C",
"5.	c #174B8D",
"6.	c #184C8F",
"7.	c #184D90",
"8.	c #184E90",
"9.	c #2971B3",
"0.	c #3B95D5",
"a.	c #3C95D6",
"b.	c #3C96D6",
"c.	c #3D96D6",
"d.	c #3A94D4",
"e.	c #348FD1",
"f.	c #499BD6",
"g.	c #88C2E7",
"h.	c #4991C8",
"i.	c #0D3479",
"j.	c #14488B",
"k.	c #15498C",
"l.	c #174C8E",
"m.	c #174C8F",
"n.	c #194F91",
"o.	c #1A5091",
"p.	c #1A5092",
"q.	c #2668A9",
"r.	c #3D96D7",
"s.	c #3F98D8",
"t.	c #4099D8",
"u.	c #3E97D7",
"v.	c #3A94D3",
"w.	c #8AC3E8",
"x.	c #4A91CA",
"y.	c #0D3378",
"z.	c #144689",
"A.	c #154A8C",
"B.	c #164B8E",
"C.	c #164C8F",
"D.	c #174D90",
"E.	c #7194BD",
"F.	c #6289B6",
"G.	c #195092",
"H.	c #1A5093",
"I.	c #1B5294",
"J.	c #1B5395",
"K.	c #1C5495",
"L.	c #225F9F",
"M.	c #419AD8",
"N.	c #429BD9",
"O.	c #439CD9",
"P.	c #449CDA",
"Q.	c #BEDEF3",
"R.	c #D8EBF8",
"S.	c #8EC3E9",
"T.	c #88C3E8",
"U.	c #144386",
"V.	c #154C90",
"W.	c #164D90",
"X.	c #174E90",
"Y.	c #184F91",
"Z.	c #8EAACB",
"`.	c #C5D4E6",
" +	c #4474AA",
".+	c #1C5596",
"++	c #1E5797",
"@+	c #1E5798",
"#+	c #1F599A",
"$+	c #4098D6",
"%+	c #449DDA",
"&+	c #469EDB",
"*+	c #479FDC",
"=+	c #47A0DC",
"-+	c #DFEFFA",
";+	c #A3CFED",
">+	c #409AD8",
",+	c #82BFE6",
"'+	c #4B93CB",
")+	c #0E357B",
"!+	c #144184",
"~+	c #164E91",
"{+	c #175092",
"]+	c #185093",
"^+	c #185194",
"/+	c #8FABCC",
"(+	c #FCFDFE",
"_+	c #A3BCD7",
":+	c #3067A3",
"<+	c #205A9B",
"[+	c #215B9C",
"}+	c #3D8FCD",
"|+	c #49A1DD",
"1+	c #4AA1DE",
"2+	c #4BA3DE",
"3+	c #DFF0FA",
"4+	c #A5D0EE",
"5+	c #80BEE6",
"6+	c #4C94CC",
"7+	c #0E377C",
"8+	c #133F82",
"9+	c #175094",
"0+	c #185195",
"a+	c #185395",
"b+	c #1A5596",
"c+	c #8FADCD",
"d+	c #F1F5FA",
"e+	c #82A5CA",
"f+	c #2762A2",
"g+	c #3985C4",
"h+	c #4CA4DF",
"i+	c #4EA6E0",
"j+	c #4FA6E1",
"k+	c #E0F0FA",
"l+	c #A6D2EF",
"m+	c #459EDB",
"n+	c #7EBDE5",
"o+	c #4D95CC",
"p+	c #104187",
"q+	c #133D81",
"r+	c #185296",
"s+	c #185497",
"t+	c #1A5598",
"u+	c #1B5799",
"v+	c #90AECF",
"w+	c #DCE7F1",
"x+	c #72A8D4",
"y+	c #4CA5DF",
"z+	c #51A8E3",
"A+	c #53A9E3",
"B+	c #E1F1FB",
"C+	c #A7D2EF",
"D+	c #48A0DC",
"E+	c #459DDA",
"F+	c #7DBDE6",
"G+	c #4E95CC",
"H+	c #0B418B",
"I+	c #10387C",
"J+	c #175497",
"K+	c #1A569A",
"L+	c #1B589B",
"M+	c #1C599B",
"N+	c #91AFD0",
"O+	c #CEE7F7",
"P+	c #6EB7E8",
"Q+	c #55ABE4",
"R+	c #57ACE4",
"S+	c #A8D3EF",
"T+	c #469FDB",
"U+	c #439BD9",
"V+	c #79BAE5",
"W+	c #4A92CA",
"X+	c #063E8C",
"Y+	c #052A73",
"Z+	c #033985",
"`+	c #07408A",
" @	c #0D478F",
".@	c #124E94",
"+@	c #8CABCD",
"@@	c #FCFEFF",
"#@	c #B6DCF4",
"$@	c #64B5E9",
"%@	c #58AFE7",
"&@	c #E2F2FB",
"*@	c #A2CFEE",
"=@	c #3A97D9",
"-@	c #3292D6",
";@	c #2B8BD2",
">@	c #2485CE",
",@	c #5FAADE",
"'@	c #3986C5",
")@	c #062F7A",
"!@	c #033B86",
"~@	c #043C88",
"{@	c #053E89",
"]@	c #06408C",
"^@	c #85A3C8",
"/@	c #FBFDFF",
"(@	c #A9D5F2",
"_@	c #4CA7E5",
":@	c #40A1E3",
"<@	c #DDEFFB",
"[@	c #9ACAEC",
"}@	c #2D8ED6",
"|@	c #298BD3",
"1@	c #2687D0",
"2@	c #2283CE",
"3@	c #5AA7DC",
"4@	c #073683",
"5@	c #043D89",
"6@	c #043F8B",
"7@	c #05408C",
"8@	c #06428E",
"9@	c #85A4C9",
"0@	c #C3DFF3",
"a@	c #57A9E3",
"b@	c #3B9CE0",
"c@	c #3F9FE2",
"d@	c #3FA0E3",
"e@	c #2C8ED6",
"f@	c #55A4DB",
"g@	c #093E8C",
"h@	c #05428F",
"i@	c #05418D",
"j@	c #06428F",
"k@	c #064491",
"l@	c #85A5CA",
"m@	c #DAE6F2",
"n@	c #578BBF",
"o@	c #2274BD",
"p@	c #3697DC",
"q@	c #3999DE",
"r@	c #DCEEFA",
"s@	c #99C9EC",
"t@	c #2C8DD5",
"u@	c #288AD2",
"v@	c #2586D0",
"w@	c #2283CD",
"x@	c #4FA0D9",
"y@	c #093C8A",
"z@	c #074F9E",
"A@	c #054290",
"B@	c #074793",
"C@	c #86A6CC",
"D@	c #F0F5FA",
"E@	c #7AA4CD",
"F@	c #175DA5",
"G@	c #145BA5",
"H@	c #1D6BB4",
"I@	c #3395DB",
"J@	c #3798DD",
"K@	c #3898DD",
"L@	c #DBEEFA",
"M@	c #98C9EB",
"N@	c #2B8CD4",
"O@	c #2789D1",
"P@	c #2485CF",
"Q@	c #2182CD",
"R@	c #489BD7",
"S@	c #3986C4",
"T@	c #093A88",
"U@	c #095CAC",
"V@	c #054492",
"W@	c #064694",
"X@	c #074996",
"Y@	c #86A8CD",
"Z@	c #FCFEFE",
"`@	c #9DBCDA",
" #	c #2365AA",
".#	c #1159A3",
"+#	c #135BA6",
"@#	c #155EA8",
"##	c #1864AD",
"$#	c #3092D9",
"%#	c #3294DA",
"&#	c #3495DB",
"*#	c #DAEDF9",
"=#	c #97C8EB",
"-#	c #2384CE",
";#	c #2080CC",
">#	c #3E94D4",
",#	c #3885C4",
"'#	c #063D8B",
")#	c #083784",
"!#	c #0A64B6",
"~#	c #064997",
"{#	c #064896",
"]#	c #084B98",
"^#	c #86A9CE",
"/#	c #C1D5E9",
"(#	c #3875B3",
"_#	c #0F57A2",
":#	c #1059A4",
"<#	c #125BA7",
"[#	c #145DA8",
"}#	c #1560AA",
"|#	c #1662AC",
"1#	c #2B8AD2",
"2#	c #2F90D7",
"3#	c #3091D8",
"4#	c #96C7EA",
"5#	c #2788D1",
"6#	c #1E7FCB",
"7#	c #338CD0",
"8#	c #3785C3",
"9#	c #08327F",
"0#	c #0A63B6",
"a#	c #0854A3",
"b#	c #064A98",
"c#	c #084D9B",
"d#	c #6795C4",
"e#	c #598CC0",
"f#	c #0C54A1",
"g#	c #0D56A3",
"h#	c #0F58A5",
"i#	c #115BA7",
"j#	c #125DA9",
"k#	c #1460AB",
"l#	c #1562AC",
"m#	c #1764AE",
"n#	c #2580C9",
"o#	c #2B8DD5",
"p#	c #B0D6F0",
"q#	c #CDE5F5",
"r#	c #CDE4F5",
"s#	c #7CB7E4",
"t#	c #2486D0",
"u#	c #1F80CB",
"v#	c #1D7DC9",
"w#	c #2683CB",
"x#	c #3683C3",
"y#	c #053C8A",
"z#	c #082D7A",
"A#	c #0960B3",
"B#	c #095DAE",
"C#	c #064C9A",
"D#	c #084E9D",
"E#	c #09509F",
"F#	c #0B53A1",
"G#	c #0C56A3",
"H#	c #0D58A5",
"I#	c #0F5AA7",
"J#	c #115CA9",
"K#	c #125EAA",
"L#	c #1461AD",
"M#	c #1563AF",
"N#	c #1665B1",
"O#	c #2078C2",
"P#	c #1D7ECA",
"Q#	c #1B7BC8",
"R#	c #1A7AC6",
"S#	c #3381C1",
"T#	c #053B89",
"U#	c #082C79",
"V#	c #0855A6",
"W#	c #0A63B5",
"X#	c #08509F",
"Y#	c #0952A0",
"Z#	c #0B55A3",
"`#	c #0C57A5",
" $	c #0D5AA7",
".$	c #0F5CA9",
"+$	c #115EAB",
"@$	c #1261AD",
"#$	c #1363AF",
"$$	c #1564B1",
"%$	c #1666B2",
"&$	c #1B71BC",
"*$	c #1F7FCB",
"=$	c #1979C6",
"-$	c #1776C4",
";$	c #2477BC",
">$	c #043A88",
",$	c #072B76",
"'$	c #08418F",
")$	c #085EB0",
"!$	c #0753A3",
"~$	c #0851A0",
"{$	c #0A54A2",
"]$	c #0B57A5",
"^$	c #0C58A7",
"/$	c #0E5BA9",
"($	c #0F5EAB",
"_$	c #1161AD",
":$	c #1363B0",
"<$	c #1466B2",
"[$	c #1568B4",
"}$	c #186CB9",
"|$	c #2081CC",
"1$	c #1C7DC9",
"2$	c #166BB6",
"3$	c #033886",
"4$	c #062770",
"5$	c #062973",
"6$	c #064C9D",
"7$	c #064E9E",
"8$	c #054694",
"9$	c #074A98",
"0$	c #084C99",
"a$	c #084C98",
"b$	c #094D9A",
"c$	c #0A4F9B",
"d$	c #0B509C",
"e$	c #0C519E",
"f$	c #0D539F",
"g$	c #0E55A1",
"h$	c #0E58A3",
"i$	c #1467B3",
"j$	c #1668B4",
"k$	c #1569B5",
"l$	c #1569B6",
"m$	c #1469B7",
"n$	c #1369B7",
"o$	c #1168B6",
"p$	c #0B5AA7",
"q$	c #013784",
"r$	c #05246E",
"s$	c #06246C",
"t$	c #062B75",
"u$	c #054594",
"v$	c #04408E",
"w$	c #04418E",
"x$	c #054390",
"y$	c #064490",
"z$	c #074591",
"A$	c #074693",
"B$	c #084794",
"C$	c #084894",
"D$	c #094996",
"E$	c #0A4B96",
"F$	c #0A4B97",
"G$	c #0D529F",
"H$	c #0D54A1",
"I$	c #0C529D",
"J$	c #0C519D",
"K$	c #0C509D",
"L$	c #0B509D",
"M$	c #0B4F9C",
"N$	c #0A4F9A",
"O$	c #0A4D9A",
"P$	c #094D99",
"Q$	c #043E89",
"R$	c #002F78",
"S$	c #032F7A",
"T$	c #052067",
"U$	c #052168",
"V$	c #05256E",
"W$	c #04337E",
"X$	c #033A87",
"Y$	c #033C88",
"Z$	c #053D88",
"`$	c #053E8A",
" %	c #06408A",
".%	c #06418C",
"+%	c #07418C",
"@%	c #084591",
"#%	c #094793",
"$%	c #094692",
"%%	c #084590",
"&%	c #08448F",
"*%	c #07448F",
"=%	c #07438F",
"-%	c #07438E",
";%	c #06428D",
">%	c #053F8C",
",%	c #013079",
"'%	c #00307A",
")%	c #022C76",
"!%	c #042168",
"~%	c #051E64",
"{%	c #051D63",
"]%	c #042269",
"^%	c #032D76",
"/%	c #02347F",
"(%	c #03357F",
"_%	c #033680",
":%	c #033681",
"<%	c #033781",
"[%	c #043782",
"}%	c #043882",
"|%	c #053984",
"1%	c #053B86",
"2%	c #053A85",
"3%	c #043983",
"4%	c #01327B",
"5%	c #002E77",
"6%	c #012F79",
"7%	c #012D76",
"8%	c #022B75",
"9%	c #022972",
"0%	c #022A73",
"a%	c #012E78",
"b%	c #02307A",
"c%	c #02317A",
"d%	c #02327B",
"e%	c #02337C",
"f%	c #02337D",
"g%	c #02327C",
"h%	c #023179",
"i%	c #023078",
"j%	c #013179",
"k%	c #012F77",
". . + @ # # # # # # # # # # # # # # # # # # # # # # # # @ + . . ",
". $ # % & * * = = = - - ; > , ' ) ! ~ ~ ~ { ] ^ / ( _ : < # $ . ",
"+ # [ } | | 1 } 2 3 4 5 * 6 7 8 9 0 a a a a 0 b c d e f g h # + ",
"@ # 3 } i 3 4 5 * * = - j k a l m n o o o o n m l p q r s t < @ ",
"# u 4 v * * = w - j x y z A n B C C D D D D C C B o E F G H I # ",
"# J K L L L K M M N N O P P Q R S T T T U R V W X Y Z `  ...+.# ",
"# @.#.$.%.&.*.=.-.-.;.>.,.,.'.).!.~.{.{.{.{.~.!.].^./.(._.:.<.# ",
"# [.}.*.|.1.2.3.4.,.5.6.7.8.9.{.0.a.b.c.c.b.a.0.d.~.).e.f.g.h.# ",
"# i.1.j.3.k.4.l.m.7.8.n.o.p.q.a.r.s.t.t.t.t.s.u.b.0.{.].v.w.x.# ",
"# y.z.A.B.C.D.E.F.G.H.I.J.K.L.s.M.N.O.P.P.Q.R.R.S.r.a.{.!.T.x.# ",
"# i.U.V.W.X.Y.Z.. `. +.+++@+#+$+%+&+*+=+=+-+. . ;+>+u.a.{.,+'+# ",
"# )+!+~+{+]+^+/+. . (+_+:+<+[+}+=+|+1+2+2+3+. . 4+O.>+u.0.5+6+# ",
"# 7+8+9+0+a+b+c+. . . . d+e+f+g+1+h+i+j+j+k+. . l+m+O.t.a.n+o+# ",
"# p+q+r+s+t+u+v+. . . . . . w+x+y+j+z+A+A+B+. . C+D+E+M.u.F+G+# ",
"# H+I+J+K+L+M+N+. . . . . . . . O+P+Q+R+R+B+. . S+|+T+U+s.V+W+# ",
"# X+Y+Z+`+ @.@+@. . . . . . . . . @@#@$@%@&@. . *@=@-@;@>@,@'@# ",
"# X+)@!@~@{@]@^@. . . . . . . . . /@(@_@:@<@. . [@}@|@1@2@3@'@# ",
"# X+4@5@6@7@8@9@. . . . . . . . 0@a@b@c@d@<@. . [@e@|@1@2@f@'@# ",
"# X+g@h@i@j@k@l@. . . . . . m@n@o@p@q@b@b@r@. . s@t@u@v@w@x@'@# ",
"# X+y@z@A@k@B@C@. . . . D@E@F@G@H@I@p@J@K@L@. . M@N@O@P@Q@R@S@# ",
"# X+T@U@V@W@X@Y@. . Z@`@ #.#+#@###$#%#I@&#*#. . =#|@1@-#;#>#,## ",
"# '#)#!#~#{#]#^#. /#(#_#:#<#[#}#|#1#2#3#3#*#. . 4#5#P@Q@6#7#8## ",
"# '#9#0#a#b#c#d#e#f#g#h#i#j#k#l#m#n#N@o#t@p#q#r#s#t#2@u#v#w#x## ",
"# y#z#A#B#C#D#E#F#G#H#I#J#K#L#M#N#O#O@u@u@u@5#1@P@2@;#P#Q#R#S## ",
"# T#U#V#W#z@X#Y#Z#`# $.$+$@$#$$$%$&$P@v@v@v@P@2@Q@*$P#Q#=$-$;$# ",
"# >$,$'$)$!$z@~${$]$^$/$($_$:$<$[$}$Q@Q@Q@Q@|$;#6#1$Q#=$-$C 2$# ",
"# 3$4$5$6$7$8${#9$0$a$b$c$d$e$f$g$h$i$j$j$[$k$l$l$m$n$n$o$o$p$# ",
"# q$r$s$t$u$v$w$x$y$y$z$A$B$C$D$E$F$G$H$f$I$J$K$L$M$N$O$P$]#Q$# ",
"@ R$S$T$U$V$W$X$Y$5@~@Z${@`$ %]@.%+%@%#%$%%%&%*%=%-%-%;%7@>%,%@ ",
"+ # '%)%!%~%{%]%^%/%/%(%_%:%<%[%}%}%|%1%2%3%3%}%}%}%[%<%<%4%# + ",
". $ # 5%6%7%8%9%9%0%a%,%b%c%c%c%d%d%e%f%g%c%c%c%c%h%i%j%k%# $ . ",
". . + @ # # # # # # # # # # # # # # # # # # # # # # # # @ + . . "};
