/* XPM */
static char * click_stop_playing_xpm[] = {
"32 32 537 2",
"  	c None",
". 	c #FFFFFF",
"+ 	c #8096BA",
"@ 	c #103A7E",
"# 	c #002D75",
"$ 	c #30558F",
"% 	c #002C75",
"& 	c #00276E",
"* 	c #002369",
"= 	c #00246A",
"- 	c #00256B",
"; 	c #00266C",
"> 	c #054894",
", 	c #0A5EAD",
"' 	c #0A5EAE",
") 	c #0A5FAE",
"! 	c #0B5FAF",
"~ 	c #0B60AF",
"{ 	c #1064B2",
"] 	c #2A78BC",
"^ 	c #3882BF",
"/ 	c #357FBE",
"( 	c #2E7ABB",
"_ 	c #206CB2",
": 	c #094E9A",
"< 	c #01337C",
"[ 	c #002B73",
"} 	c #002166",
"| 	c #002064",
"1 	c #002165",
"2 	c #002266",
"3 	c #002267",
"4 	c #002268",
"5 	c #002368",
"6 	c #06438E",
"7 	c #0E6ABB",
"8 	c #0F6BBC",
"9 	c #0F6CBC",
"0 	c #106DBD",
"a 	c #116EBD",
"b 	c #207AC3",
"c 	c #4696D1",
"d 	c #67AFDD",
"e 	c #69AFDD",
"f 	c #62ABDA",
"g 	c #3484C5",
"h 	c #033C86",
"i 	c #002167",
"j 	c #01256B",
"k 	c #053881",
"l 	c #116FBE",
"m 	c #1270BF",
"n 	c #1371C0",
"o 	c #1372C0",
"p 	c #1E79C3",
"q 	c #57A2D7",
"r 	c #6AB0DE",
"s 	c #69AFDC",
"t 	c #3586C5",
"u 	c #002970",
"v 	c #002269",
"w 	c #00256A",
"x 	c #01266C",
"y 	c #01276D",
"z 	c #01276E",
"A 	c #022E76",
"B 	c #1473C1",
"C 	c #1574C2",
"D 	c #1675C3",
"E 	c #1572C0",
"F 	c #53A0D6",
"G 	c #6AB1DE",
"H 	c #64ADDC",
"I 	c #094F9B",
"J 	c #0D3C81",
"K 	c #124183",
"L 	c #114183",
"M 	c #114184",
"N 	c #114284",
"O 	c #114285",
"P 	c #124285",
"Q 	c #2980C5",
"R 	c #2C88CD",
"S 	c #2C89CD",
"T 	c #2D89CD",
"U 	c #2D88CD",
"V 	c #2B87CC",
"W 	c #2986CC",
"X 	c #2885CB",
"Y 	c #2683CA",
"Z 	c #2581C9",
"` 	c #2A85CA",
" .	c #75B7E2",
"..	c #78B9E2",
"+.	c #2C77B9",
"@.	c #0E3C81",
"#.	c #124485",
"$.	c #134486",
"%.	c #144586",
"&.	c #144587",
"*.	c #144688",
"=.	c #154789",
"-.	c #15488A",
";.	c #16498B",
">.	c #174A8C",
",.	c #174B8C",
"'.	c #2C7CBD",
").	c #3690D1",
"!.	c #3891D2",
"~.	c #3992D2",
"{.	c #3A93D3",
"].	c #3791D1",
"^.	c #3590D1",
"/.	c #338ED0",
"(.	c #328CCF",
"_.	c #62AADC",
":.	c #86C1E6",
"<.	c #448DC7",
"[.	c #0D387D",
"}.	c #134588",
"|.	c #144789",
"1.	c #14478A",
"2.	c #15488B",
"3.	c #15498B",
"4.	c #164A8C",
"5.	c #174B8D",
"6.	c #184C8F",
"7.	c #184D90",
"8.	c #184E90",
"9.	c #2971B3",
"0.	c #3B95D5",
"a.	c #3C95D6",
"b.	c #3C96D6",
"c.	c #3D96D6",
"d.	c #3A94D4",
"e.	c #348FD1",
"f.	c #499BD6",
"g.	c #88C2E7",
"h.	c #4991C8",
"i.	c #0D3479",
"j.	c #14488B",
"k.	c #15498C",
"l.	c #174C8E",
"m.	c #174C8F",
"n.	c #194F91",
"o.	c #1A5091",
"p.	c #1A5092",
"q.	c #2668A9",
"r.	c #3D96D7",
"s.	c #3F98D8",
"t.	c #4099D8",
"u.	c #3E97D7",
"v.	c #3A94D3",
"w.	c #8AC3E8",
"x.	c #4A91CA",
"y.	c #0D3378",
"z.	c #144689",
"A.	c #154A8C",
"B.	c #164B8E",
"C.	c #164C8F",
"D.	c #174D90",
"E.	c #184F91",
"F.	c #A8BFD8",
"G.	c #CEDCEA",
"H.	c #CFDCEA",
"I.	c #D1E0ED",
"J.	c #D8EBF7",
"K.	c #D8EBF8",
"L.	c #B9DBF2",
"M.	c #419AD8",
"N.	c #88C3E8",
"O.	c #144386",
"P.	c #154C90",
"Q.	c #164D90",
"R.	c #174E90",
"S.	c #185093",
"T.	c #1A5194",
"U.	c #D9ECF8",
"V.	c #459DDA",
"W.	c #429CD9",
"X.	c #409AD8",
"Y.	c #82BFE6",
"Z.	c #4B93CB",
"`.	c #0E357B",
" +	c #144184",
".+	c #164E91",
"++	c #175092",
"@+	c #185194",
"#+	c #1A5395",
"$+	c #1B5596",
"%+	c #CFDDEB",
"&+	c #DAEDF9",
"*+	c #48A0DC",
"=+	c #469EDB",
"-+	c #439CD9",
";+	c #80BEE6",
">+	c #4C94CC",
",+	c #0E377C",
"'+	c #133F82",
")+	c #175094",
"!+	c #185195",
"~+	c #185395",
"{+	c #1A5596",
"]+	c #1B5698",
"^+	c #1C5799",
"/+	c #DBEDF9",
"(+	c #4AA2DE",
"_+	c #48A0DD",
":+	c #459EDB",
"<+	c #7EBDE5",
"[+	c #4D95CC",
"}+	c #104187",
"|+	c #133D81",
"1+	c #185296",
"2+	c #185497",
"3+	c #1A5598",
"4+	c #1B5799",
"5+	c #1C589B",
"6+	c #1E5A9C",
"7+	c #D0DEEC",
"8+	c #DBEEFA",
"9+	c #4DA6E0",
"0+	c #7DBDE6",
"a+	c #4E95CC",
"b+	c #0B418B",
"c+	c #10387C",
"d+	c #175497",
"e+	c #1A569A",
"f+	c #1B589B",
"g+	c #1C599B",
"h+	c #1E5A9D",
"i+	c #1F5C9F",
"j+	c #D0DFED",
"k+	c #DCEEFA",
"l+	c #50A7E2",
"m+	c #4DA5DF",
"n+	c #49A1DD",
"o+	c #469FDB",
"p+	c #439BD9",
"q+	c #79BAE5",
"r+	c #4A92CA",
"s+	c #063E8C",
"t+	c #052A73",
"u+	c #033985",
"v+	c #07408A",
"w+	c #0D478F",
"x+	c #124E94",
"y+	c #165399",
"z+	c #1A589C",
"A+	c #CFDEEC",
"B+	c #DBEEF9",
"C+	c #48A2E0",
"D+	c #419DDD",
"E+	c #3A97D9",
"F+	c #3292D6",
"G+	c #2B8BD2",
"H+	c #2485CE",
"I+	c #5FAADE",
"J+	c #3986C5",
"K+	c #062F7A",
"L+	c #033B86",
"M+	c #043C88",
"N+	c #053E89",
"O+	c #06408C",
"P+	c #06428D",
"Q+	c #08448F",
"R+	c #C9D9E9",
"S+	c #D6EBF8",
"T+	c #3596DB",
"U+	c #3192D9",
"V+	c #2D8ED6",
"W+	c #298BD3",
"X+	c #2687D0",
"Y+	c #2283CE",
"Z+	c #5AA7DC",
"`+	c #073683",
" @	c #043D89",
".@	c #043F8B",
"+@	c #05408C",
"@@	c #06428E",
"#@	c #074490",
"$@	c #084691",
"%@	c #C9DAEA",
"&@	c #3496DB",
"*@	c #2C8ED6",
"=@	c #55A4DB",
"-@	c #093E8C",
";@	c #05428F",
">@	c #05418D",
",@	c #06428F",
"'@	c #064491",
")@	c #084692",
"!@	c #094894",
"~@	c #CADAEA",
"{@	c #3395DA",
"]@	c #3091D8",
"^@	c #2C8DD5",
"/@	c #288AD2",
"(@	c #2586D0",
"_@	c #2283CD",
":@	c #4FA0D9",
"<@	c #093C8A",
"[@	c #074F9E",
"}@	c #054290",
"|@	c #074793",
"1@	c #084995",
"2@	c #094A97",
"3@	c #CADBEB",
"4@	c #D5EAF8",
"5@	c #2E8FD7",
"6@	c #2B8CD4",
"7@	c #2789D1",
"8@	c #2485CF",
"9@	c #2182CD",
"0@	c #489BD7",
"a@	c #3986C4",
"b@	c #093A88",
"c@	c #095CAC",
"d@	c #054492",
"e@	c #064694",
"f@	c #074996",
"g@	c #094B98",
"h@	c #0A4D99",
"i@	c #CADBEC",
"j@	c #D4EAF8",
"k@	c #2E90D7",
"l@	c #2B8DD5",
"m@	c #2384CE",
"n@	c #2080CC",
"o@	c #3E94D4",
"p@	c #3885C4",
"q@	c #063D8B",
"r@	c #083784",
"s@	c #0A64B6",
"t@	c #064997",
"u@	c #064896",
"v@	c #084B98",
"w@	c #094D9A",
"x@	c #0A4F9C",
"y@	c #CADCEC",
"z@	c #D3E9F7",
"A@	c #2788D1",
"B@	c #1E7FCB",
"C@	c #338CD0",
"D@	c #3785C3",
"E@	c #08327F",
"F@	c #0A63B6",
"G@	c #0854A3",
"H@	c #064A98",
"I@	c #084D9B",
"J@	c #094F9D",
"K@	c #0B519F",
"L@	c #A1C1DE",
"M@	c #CBDDED",
"N@	c #CBDEEE",
"O@	c #CCDEEE",
"P@	c #CCDFEE",
"Q@	c #CDDFEF",
"R@	c #CDE0EF",
"S@	c #CEE0EF",
"T@	c #D1E5F4",
"U@	c #D3E8F7",
"V@	c #AFD6F0",
"W@	c #298AD3",
"X@	c #2486D0",
"Y@	c #1F80CB",
"Z@	c #1D7DC9",
"`@	c #2683CB",
" #	c #3683C3",
".#	c #053C8A",
"+#	c #082D7A",
"@#	c #0960B3",
"##	c #095DAE",
"$#	c #064C9A",
"%#	c #084E9D",
"&#	c #09509F",
"*#	c #0B53A1",
"=#	c #0C56A3",
"-#	c #0D58A5",
";#	c #0F5AA7",
">#	c #115CA9",
",#	c #125EAA",
"'#	c #1461AD",
")#	c #1563AF",
"!#	c #1665B1",
"~#	c #2078C2",
"{#	c #1D7ECA",
"]#	c #1B7BC8",
"^#	c #1A7AC6",
"/#	c #3381C1",
"(#	c #053B89",
"_#	c #082C79",
":#	c #0855A6",
"<#	c #0A63B5",
"[#	c #08509F",
"}#	c #0952A0",
"|#	c #0B55A3",
"1#	c #0C57A5",
"2#	c #0D5AA7",
"3#	c #0F5CA9",
"4#	c #115EAB",
"5#	c #1261AD",
"6#	c #1363AF",
"7#	c #1564B1",
"8#	c #1666B2",
"9#	c #1B71BC",
"0#	c #1F7FCB",
"a#	c #1979C6",
"b#	c #1776C4",
"c#	c #2477BC",
"d#	c #043A88",
"e#	c #072B76",
"f#	c #08418F",
"g#	c #085EB0",
"h#	c #0753A3",
"i#	c #0851A0",
"j#	c #0A54A2",
"k#	c #0B57A5",
"l#	c #0C58A7",
"m#	c #0E5BA9",
"n#	c #0F5EAB",
"o#	c #1161AD",
"p#	c #1363B0",
"q#	c #1466B2",
"r#	c #1568B4",
"s#	c #186CB9",
"t#	c #2081CC",
"u#	c #1C7DC9",
"v#	c #166BB6",
"w#	c #033886",
"x#	c #062770",
"y#	c #062973",
"z#	c #064C9D",
"A#	c #064E9E",
"B#	c #054694",
"C#	c #074A98",
"D#	c #084C99",
"E#	c #084C98",
"F#	c #0A4F9B",
"G#	c #0B509C",
"H#	c #0C519E",
"I#	c #0D539F",
"J#	c #0E55A1",
"K#	c #0E58A3",
"L#	c #1467B3",
"M#	c #1668B4",
"N#	c #1569B5",
"O#	c #1569B6",
"P#	c #1469B7",
"Q#	c #1369B7",
"R#	c #1168B6",
"S#	c #0B5AA7",
"T#	c #013784",
"U#	c #05246E",
"V#	c #06246C",
"W#	c #062B75",
"X#	c #054594",
"Y#	c #04408E",
"Z#	c #04418E",
"`#	c #054390",
" $	c #064490",
".$	c #074591",
"+$	c #074693",
"@$	c #084794",
"#$	c #084894",
"$$	c #094996",
"%$	c #0A4B96",
"&$	c #0A4B97",
"*$	c #0D529F",
"=$	c #0D54A1",
"-$	c #0C529D",
";$	c #0C519D",
">$	c #0C509D",
",$	c #0B509D",
"'$	c #0B4F9C",
")$	c #0A4F9A",
"!$	c #0A4D9A",
"~$	c #094D99",
"{$	c #043E89",
"]$	c #002F78",
"^$	c #032F7A",
"/$	c #052067",
"($	c #052168",
"_$	c #05256E",
":$	c #04337E",
"<$	c #033A87",
"[$	c #033C88",
"}$	c #053D88",
"|$	c #053E8A",
"1$	c #06408A",
"2$	c #06418C",
"3$	c #07418C",
"4$	c #084591",
"5$	c #094793",
"6$	c #094692",
"7$	c #084590",
"8$	c #07448F",
"9$	c #07438F",
"0$	c #07438E",
"a$	c #053F8C",
"b$	c #013079",
"c$	c #00307A",
"d$	c #022C76",
"e$	c #042168",
"f$	c #051E64",
"g$	c #051D63",
"h$	c #042269",
"i$	c #032D76",
"j$	c #02347F",
"k$	c #03357F",
"l$	c #033680",
"m$	c #033681",
"n$	c #033781",
"o$	c #043782",
"p$	c #043882",
"q$	c #053984",
"r$	c #053B86",
"s$	c #053A85",
"t$	c #043983",
"u$	c #01327B",
"v$	c #002E77",
"w$	c #012F79",
"x$	c #012D76",
"y$	c #022B75",
"z$	c #022972",
"A$	c #022A73",
"B$	c #012E78",
"C$	c #02307A",
"D$	c #02317A",
"E$	c #02327B",
"F$	c #02337C",
"G$	c #02337D",
"H$	c #02327C",
"I$	c #023179",
"J$	c #023078",
"K$	c #013179",
"L$	c #012F77",
". . + @ # # # # # # # # # # # # # # # # # # # # # # # # @ + . . ",
". $ # % & * * = = = - - ; > , ' ) ! ~ ~ ~ { ] ^ / ( _ : < # $ . ",
"+ # [ } | | 1 } 2 3 4 5 * 6 7 8 9 0 a a a a 0 b c d e f g h # + ",
"@ # 3 } i 3 4 5 * * = - j k a l m n o o o o n m l p q r s t < @ ",
"# u 4 v * * = w - j x y z A n B C C D D D D C C B o E F G H I # ",
"# J K L L L K M M N N O P P Q R S T T T U R V W X Y Z `  ...+.# ",
"# @.#.$.%.&.*.=.-.-.;.>.,.,.'.).!.~.{.{.{.{.~.!.].^./.(._.:.<.# ",
"# [.}.*.|.1.2.3.4.,.5.6.7.8.9.{.0.a.b.c.c.b.a.0.d.~.).e.f.g.h.# ",
"# i.1.j.3.k.4.l.m.7.8.n.o.p.q.a.r.s.t.t.t.t.s.u.b.0.{.].v.w.x.# ",
"# y.z.A.B.C.D.8.E.F.G.H.H.H.I.J.K.K.K.K.K.K.L.M.t.r.a.{.!.N.x.# ",
"# i.O.P.Q.R.E.S.T.H.. . . . . . . . . . . . U.V.W.X.u.a.{.Y.Z.# ",
"# `. +.+++S.@+#+$+%+. . . . . . . . . . . . &+*+=+-+X.u.0.;+>+# ",
"# ,+'+)+!+~+{+]+^+%+. . . . . . . . . . . . /+(+_+:+-+t.a.<+[+# ",
"# }+|+1+2+3+4+5+6+7+. . . . . . . . . . . . 8+9+(+*+V.M.u.0+a+# ",
"# b+c+d+e+f+g+h+i+j+. . . . . . . . . . . . k+l+m+n+o+p+s.q+r+# ",
"# s+t+u+v+w+x+y+z+A+. . . . . . . . . . . . B+C+D+E+F+G+H+I+J+# ",
"# s+K+L+M+N+O+P+Q+R+. . . . . . . . . . . . S+T+U+V+W+X+Y+Z+J+# ",
"# s+`+ @.@+@@@#@$@%@. . . . . . . . . . . . S+&@U+*@W+X+Y+=@J+# ",
"# s+-@;@>@,@'@)@!@~@. . . . . . . . . . . . S+{@]@^@/@(@_@:@J+# ",
"# s+<@[@}@'@|@1@2@3@. . . . . . . . . . . . 4@U+5@6@7@8@9@0@a@# ",
"# s+b@c@d@e@f@g@h@i@. . . . . . . . . . . . j@k@l@W+X+m@n@o@p@# ",
"# q@r@s@t@u@v@w@x@y@. . . . . . . . . . . . z@l@W+A@8@9@B@C@D@# ",
"# q@E@F@G@H@I@J@K@L@M@N@O@P@Q@R@S@T@U@z@z@z@V@W@A@X@Y+Y@Z@`@ ## ",
"# .#+#@###$#%#&#*#=#-#;#>#,#'#)#!#~#7@/@/@/@A@X+8@Y+n@{#]#^#/## ",
"# (#_#:#<#[@[#}#|#1#2#3#4#5#6#7#8#9#8@(@(@(@8@Y+9@0#{#]#a#b#c## ",
"# d#e#f#g#h#[@i#j#k#l#m#n#o#p#q#r#s#9@9@9@9@t#n@B@u#]#a#b#C v## ",
"# w#x#y#z#A#B#u@C#D#E#w@F#G#H#I#J#K#L#M#M#r#N#O#O#P#Q#Q#R#R#S## ",
"# T#U#V#W#X#Y#Z#`# $ $.$+$@$#$$$%$&$*$=$I#-$;$>$,$'$)$!$~$v@{$# ",
"@ ]$^$/$($_$:$<$[$ @M+}$N+|$1$O+2$3$4$5$6$7$Q+8$9$0$0$P++@a$b$@ ",
"+ # c$d$e$f$g$h$i$j$j$k$l$m$n$o$p$p$q$r$s$t$t$p$p$p$o$n$n$u$# + ",
". $ # v$w$x$y$z$z$A$B$b$C$D$D$D$E$E$F$G$H$D$D$D$D$I$J$K$L$# $ . ",
". . + @ # # # # # # # # # # # # # # # # # # # # # # # # @ + . . "};
