/* XPM */
static char * hover_stop_playing_xpm[] = {
"32 32 565 2",
"  	c None",
". 	c #FFFFFF",
"+ 	c #80C6E1",
"@ 	c #1093C7",
"# 	c #008CC3",
"$ 	c #30A2CE",
"% 	c #028BC3",
"& 	c #0884BF",
"* 	c #0A7FBB",
"= 	c #0D80BB",
"- 	c #1081BC",
"; 	c #1181BC",
"> 	c #1381BC",
", 	c #1481BC",
"' 	c #1682BD",
") 	c #1783BD",
"! 	c #3AA2D2",
"~ 	c #4DB3DE",
"{ 	c #4EB3DF",
"] 	c #50B4DF",
"^ 	c #51B4DF",
"/ 	c #51B5DF",
"( 	c #52B5DF",
"_ 	c #58B7E1",
": 	c #75C1E5",
"< 	c #80C6E6",
"[ 	c #7DC5E5",
"} 	c #77C3E4",
"| 	c #61BAE0",
"1 	c #36A7D5",
"2 	c #0B91C7",
"3 	c #0589C2",
"4 	c #0A7DB9",
"5 	c #0B7CB8",
"6 	c #0C7CB8",
"7 	c #0F7DB9",
"8 	c #107DB9",
"9 	c #127EBA",
"0 	c #147EBA",
"a 	c #157EBB",
"b 	c #177FBB",
"c 	c #1980BB",
"d 	c #399CCF",
"e 	c #5DBCE5",
"f 	c #5FBDE5",
"g 	c #60BEE5",
"h 	c #61BEE6",
"i 	c #63BFE6",
"j 	c #74C5E8",
"k 	c #9AD3EE",
"l 	c #BAE0F3",
"m 	c #BBE0F2",
"n 	c #B6DEF1",
"o 	c #82C9E9",
"p 	c #1998CC",
"q 	c #0A7EBA",
"r 	c #0D7DB9",
"s 	c #0F7DBA",
"t 	c #117EBA",
"u 	c #137FBB",
"v 	c #157FBB",
"w 	c #1680BB",
"x 	c #1880BB",
"y 	c #1A81BC",
"z 	c #1C82BD",
"A 	c #1D83BD",
"B 	c #3294C9",
"C 	c #62BFE6",
"D 	c #64BFE7",
"E 	c #65C0E7",
"F 	c #66C0E7",
"G 	c #68C1E7",
"H 	c #72C4E8",
"I 	c #AAD9F1",
"J 	c #BCE0F3",
"K 	c #84CAE9",
"L 	c #0C91C7",
"M 	c #0986C0",
"N 	c #0E7EBB",
"O 	c #117FBB",
"P 	c #1380BB",
"Q 	c #1580BB",
"R 	c #1781BC",
"S 	c #1982BC",
"T 	c #1B83BD",
"U 	c #1F84BE",
"V 	c #2185BE",
"W 	c #2386BF",
"X 	c #2B8CC3",
"Y 	c #67C0E7",
"Z 	c #69C1E8",
"` 	c #6BC2E8",
" .	c #6CC2E8",
"..	c #6DC3E9",
"+.	c #67C1E7",
"@.	c #68C1E8",
"#.	c #A7D9F0",
"$.	c #B8DFF2",
"%.	c #38A7D6",
"&.	c #509BC9",
"*.	c #649FCB",
"=.	c #639FCB",
"-.	c #629FCB",
";.	c #619FCB",
">.	c #609FCB",
",.	c #85C8E9",
"'.	c #89CDED",
").	c #8ACDED",
"!.	c #8ACEED",
"~.	c #89CDEC",
"{.	c #87CCEC",
"].	c #86CCEC",
"^.	c #84CBEC",
"/.	c #82CAEB",
"(.	c #80C9EB",
"_.	c #85CBEB",
":.	c #C3E3F5",
"<.	c #C5E4F5",
"[.	c #71C0E3",
"}.	c #589AC9",
"|.	c #66A1CC",
"1.	c #67A1CC",
"2.	c #68A2CC",
"3.	c #69A2CC",
"4.	c #6AA3CD",
"5.	c #6BA4CE",
"6.	c #6CA4CE",
"7.	c #6DA5CE",
"8.	c #6EA6CF",
"9.	c #6FA7CF",
"0.	c #8AC5E6",
"a.	c #95D1EE",
"b.	c #96D2EE",
"c.	c #97D2EF",
"d.	c #98D3EF",
"e.	c #97D2EE",
"f.	c #94D1EE",
"g.	c #92D0EE",
"h.	c #91CFED",
"i.	c #B3DDF2",
"j.	c #CCE8F6",
"k.	c #94CDE9",
"l.	c #5796C7",
"m.	c #68A2CD",
"n.	c #69A3CD",
"o.	c #69A4CE",
"p.	c #6AA4CE",
"q.	c #6CA5CE",
"r.	c #6DA6CF",
"s.	c #6EA7CF",
"t.	c #6FA7D0",
"u.	c #70A8D0",
"v.	c #71A8D1",
"w.	c #71A9D1",
"x.	c #86BFE1",
"y.	c #9AD4EF",
"z.	c #9AD4F0",
"A.	c #9BD4F0",
"B.	c #93D1EE",
"C.	c #A2D6F0",
"D.	c #CDE8F7",
"E.	c #97CFEA",
"F.	c #5792C5",
"G.	c #6BA5CE",
"H.	c #6CA5CF",
"I.	c #6EA8D0",
"J.	c #6FA8D0",
"K.	c #70A8D1",
"L.	c #72AAD2",
"M.	c #73ABD2",
"N.	c #74ABD2",
"O.	c #82BADD",
"P.	c #9CD4F0",
"Q.	c #9DD5F1",
"R.	c #9ED6F1",
"S.	c #CEE9F7",
"T.	c #98CFEA",
"U.	c #5791C4",
"V.	c #69A2CD",
"W.	c #6BA6CF",
"X.	c #6DA7D0",
"Y.	c #6DA8D0",
"Z.	c #6EA8D1",
"`.	c #70A9D1",
" +	c #71AAD2",
".+	c #D1E2F0",
"++	c #E6EFF7",
"@+	c #E6F0F7",
"#+	c #E8F2F8",
"$+	c #EDF7FC",
"%+	c #EDF7FD",
"&+	c #DFF1FA",
"*+	c #9FD6F1",
"=+	c #CCE8F7",
"-+	c #5892C5",
";+	c #68A0CC",
">+	c #6CA8D1",
",+	c #6DA8D1",
"'+	c #6FA9D1",
")+	c #70AAD2",
"!+	c #71ABD2",
"~+	c #73ACD3",
"{+	c #EEF8FD",
"]+	c #A2D8F2",
"^+	c #A0D7F1",
"/+	c #9CD5F1",
"(+	c #C9E7F6",
"_+	c #9AD0EB",
":+	c #5893C6",
"<+	c #689DCB",
"[+	c #6DA9D2",
"}+	c #6FABD2",
"|+	c #70ABD2",
"1+	c #71ACD3",
"2+	c #73ADD4",
"3+	c #75AED4",
"4+	c #A4D9F2",
"5+	c #A3D8F2",
"6+	c #A1D7F1",
"7+	c #C8E6F6",
"8+	c #5995C7",
"9+	c #679CCA",
"0+	c #6FABD3",
"a+	c #71ACD4",
"b+	c #71ADD4",
"c+	c #73AED4",
"d+	c #75AFD5",
"e+	c #76AFD6",
"f+	c #E7F0F7",
"g+	c #EFF8FD",
"h+	c #A6DAF3",
"i+	c #C6E6F6",
"j+	c #9CD1EB",
"k+	c #5D9BCC",
"l+	c #679AC9",
"m+	c #70ADD4",
"n+	c #71AED4",
"o+	c #73AED5",
"p+	c #75AFD6",
"q+	c #76B0D6",
"r+	c #78B2D7",
"s+	c #E7F1F8",
"t+	c #EFF9FD",
"u+	c #A9DCF4",
"v+	c #C5E5F6",
"w+	c #509CCE",
"x+	c #5D94C7",
"y+	c #6FADD5",
"z+	c #73AFD6",
"A+	c #74B0D6",
"B+	c #76B1D6",
"C+	c #78B2D8",
"D+	c #7AB3D8",
"E+	c #F0F9FD",
"F+	c #ABDCF4",
"G+	c #A8DBF4",
"H+	c #A5D9F3",
"I+	c #C2E4F6",
"J+	c #97CFEB",
"K+	c #429ACE",
"L+	c #3C87C1",
"M+	c #3797CB",
"N+	c #449DCE",
"O+	c #53A3D0",
"P+	c #5FA8D3",
"Q+	c #69ADD5",
"R+	c #70B0D7",
"S+	c #A4DAF4",
"T+	c #9ED8F3",
"U+	c #97D5F1",
"V+	c #91D2F0",
"W+	c #89CFEF",
"X+	c #81CBED",
"Y+	c #B0DDF3",
"Z+	c #87C9E8",
"`+	c #428DC5",
" @	c #389ACC",
".@	c #3B9BCD",
"+@	c #409CCE",
"@@	c #449ECF",
"#@	c #47A0D0",
"$@	c #4AA1D1",
"%@	c #E1EEF6",
"&@	c #ECF7FD",
"*@	c #94D4F2",
"=@	c #8FD2F1",
"-@	c #8BD0F0",
";@	c #87CEEF",
">@	c #83CCEE",
",@	c #7FCAED",
"'@	c #ADDCF2",
")@	c #4A95CA",
"!@	c #3A9CCE",
"~@	c #3D9DCE",
"{@	c #429ECF",
"]@	c #45A0D0",
"^@	c #49A1D1",
"/@	c #4CA3D2",
"(@	c #E1EEF7",
"_@	c #93D4F2",
":@	c #AADAF2",
"<@	c #509ACE",
"[@	c #3D9FD0",
"}@	c #3F9FD0",
"|@	c #43A0D0",
"1@	c #47A1D2",
"2@	c #4BA3D2",
"3@	c #4FA5D3",
"4@	c #E1EFF7",
"5@	c #92D3F2",
"6@	c #8AD0EF",
"7@	c #86CEEF",
"8@	c #82CCEE",
"9@	c #A4D8F1",
"0@	c #4F99CD",
"a@	c #46A9D8",
"b@	c #40A0D1",
"c@	c #45A1D2",
"d@	c #49A4D2",
"e@	c #4DA5D4",
"f@	c #50A6D5",
"g@	c #EBF7FD",
"h@	c #90D2F1",
"i@	c #8DD1F0",
"j@	c #86CDEE",
"k@	c #81CBEE",
"l@	c #7DCAEC",
"m@	c #9DD6F0",
"n@	c #419ACE",
"o@	c #4F97CC",
"p@	c #4EB2DE",
"q@	c #42A1D2",
"r@	c #46A3D3",
"s@	c #4AA5D4",
"t@	c #4EA7D5",
"u@	c #52A9D6",
"v@	c #E2EFF7",
"w@	c #EBF7FC",
"x@	c #8DD1F1",
"y@	c #84CCEE",
"z@	c #80CBED",
"A@	c #7BC9EC",
"B@	c #96D3EF",
"C@	c #86C8E8",
"D@	c #4E95CB",
"E@	c #53B8E3",
"F@	c #44A5D5",
"G@	c #46A5D4",
"H@	c #4BA7D5",
"I@	c #4FA9D6",
"J@	c #53AAD7",
"K@	c #E2F0F8",
"L@	c #EAF6FC",
"M@	c #89D0EF",
"N@	c #85CDEE",
"O@	c #81CCEE",
"P@	c #7ECAEC",
"Q@	c #79C8EC",
"R@	c #8BCFEE",
"S@	c #85C8E8",
"T@	c #3F99CE",
"U@	c #4D91C8",
"V@	c #51B8E3",
"W@	c #4AADDA",
"X@	c #47A6D5",
"Y@	c #4CA8D6",
"Z@	c #50AAD7",
"`@	c #54ACD8",
" #	c #CAE4F2",
".#	c #E3F0F8",
"+#	c #E3F1F9",
"@#	c #E4F1F9",
"##	c #E5F1F9",
"$#	c #E5F2F9",
"%#	c #E8F5FB",
"&#	c #E9F6FC",
"*#	c #D7EFFA",
"=#	c #7ECAED",
"-#	c #77C7EB",
";#	c #80CAEC",
">#	c #84C8E8",
",#	c #3E99CD",
"'#	c #4C8CC5",
")#	c #4FB6E1",
"!#	c #4FB3DF",
"~#	c #47A8D6",
"{#	c #4CA9D7",
"]#	c #50ABD8",
"^#	c #54ADDA",
"/#	c #57AFDA",
"(#	c #5BB0DB",
"_#	c #5FB2DC",
":#	c #62B3DD",
"<#	c #65B5DE",
"[#	c #68B6DF",
"}#	c #6BB8E0",
"|#	c #6EB9E1",
"1#	c #7AC4E8",
"2#	c #78C7EB",
"3#	c #75C6EA",
"4#	c #73C5EA",
"5#	c #81C7E7",
"6#	c #3C98CD",
"7#	c #4B8BC5",
"8#	c #4DADDB",
"9#	c #52B8E3",
"0#	c #48A9D8",
"a#	c #4BABD8",
"b#	c #50ACD9",
"c#	c #53AEDA",
"d#	c #58AFDB",
"e#	c #5BB2DC",
"f#	c #5EB3DD",
"g#	c #62B5DE",
"h#	c #65B6DF",
"i#	c #68B8E0",
"j#	c #6DBAE1",
"k#	c #74C0E6",
"l#	c #7AC8EC",
"m#	c #72C5E9",
"n#	c #6EC3E9",
"o#	c #3897CD",
"p#	c #4889C4",
"q#	c #4A9CD0",
"r#	c #4DB5E1",
"s#	c #49ADDB",
"t#	c #49AAD8",
"u#	c #4DACD9",
"v#	c #51ADDA",
"w#	c #55AFDB",
"x#	c #59B1DC",
"y#	c #5CB2DD",
"z#	c #60B4DE",
"A#	c #64B6DF",
"B#	c #66B8E0",
"C#	c #69BAE2",
"D#	c #6CBBE2",
"E#	c #6FBDE4",
"F#	c #7CC9EC",
"G#	c #74C6EA",
"H#	c #71C5E9",
"I#	c #6EC4E9",
"J#	c #64BBE3",
"K#	c #2D96CB",
"L#	c #4485C0",
"M#	c #4787C1",
"N#	c #44A7D7",
"O#	c #44A9D8",
"P#	c #41A3D3",
"Q#	c #44A5D4",
"R#	c #48A6D5",
"S#	c #4BA7D6",
"T#	c #4DA7D5",
"U#	c #50A8D6",
"V#	c #52AAD7",
"W#	c #54ABD7",
"X#	c #57ABD8",
"Y#	c #59ADD8",
"Z#	c #5CAFDA",
"`#	c #5EB0DA",
" $	c #6ABAE2",
".$	c #6BBBE2",
"+$	c #6ABBE3",
"@$	c #69BBE3",
"#$	c #67BBE3",
"$$	c #65BBE3",
"%$	c #61BBE3",
"&$	c #4CB0DC",
"*$	c #1A96CB",
"=$	c #4081BE",
"-$	c #4381BD",
";$	c #4388C2",
">$	c #3FA2D3",
",$	c #3A9ED0",
"'$	c #43A1D1",
")$	c #44A1D1",
"!$	c #47A2D2",
"~$	c #4AA3D3",
"{$	c #4CA4D3",
"]$	c #4EA5D3",
"^$	c #4FA5D4",
"/$	c #51A7D4",
"($	c #52A7D4",
"_$	c #5BAED9",
":$	c #5AADD8",
"<$	c #59ACD7",
"[$	c #58ABD7",
"}$	c #57ABD7",
"|$	c #56ABD7",
"1$	c #54AAD7",
"2$	c #52AAD6",
"3$	c #51A9D6",
"4$	c #4EA8D6",
"5$	c #4CA7D5",
"6$	c #2B9BCD",
"7$	c #048EC5",
"8$	c #2F8DC5",
"9$	c #407CBA",
"0$	c #427DBB",
"a$	c #4281BE",
"b$	c #3891C8",
"c$	c #3599CD",
"d$	c #389ACD",
"e$	c #3B9BCE",
"f$	c #3B9ACD",
"g$	c #3E9BCD",
"h$	c #429DCE",
"i$	c #449ECE",
"j$	c #469ECF",
"k$	c #469FCF",
"l$	c #479FCF",
"m$	c #4BA2D2",
"n$	c #4DA4D3",
"o$	c #4BA2D1",
"p$	c #46A0D0",
"q$	c #459FD0",
"r$	c #439ECF",
"s$	c #3E9DCF",
"t$	c #0A8FC5",
"u$	c #0B8FC6",
"v$	c #2B8AC3",
"w$	c #3A7CBB",
"x$	c #3F79B8",
"y$	c #4078B8",
"z$	c #3C7EBB",
"A$	c #368AC3",
"B$	c #3293C8",
"C$	c #3193C8",
"D$	c #3493C8",
"E$	c #3694C9",
"F$	c #3895C9",
"G$	c #3896C9",
"H$	c #3A96CA",
"I$	c #3C97CA",
"J$	c #3E98CB",
"K$	c #419ACC",
"L$	c #4099CC",
"M$	c #3E97CB",
"N$	c #3D97CA",
"O$	c #3B97CA",
"P$	c #3996CA",
"Q$	c #3595C9",
"R$	c #1390C6",
"S$	c #058DC4",
"T$	c #148EC5",
"U$	c #1F8BC4",
"V$	c #2889C2",
"W$	c #2987C0",
"X$	c #2C87C0",
"Y$	c #2D88C1",
"Z$	c #288DC4",
"`$	c #288FC5",
" %	c #2A8FC5",
".%	c #2B90C5",
"+%	c #2D90C6",
"@%	c #2E90C6",
"#%	c #2F91C6",
"$%	c #3092C6",
"%%	c #3192C7",
"&%	c #3091C7",
"*%	c #2F90C6",
"=%	c #2D8FC5",
"-%	c #268EC5",
";%	c #1D90C5",
">%	c #088EC4",
". . + @ # # # # # # # # # # # # # # # # # # # # # # # # @ + . . ",
". $ # % & * = - ; > , ' ) ! ~ { ] ^ / ( ( _ : < [ } | 1 2 # $ . ",
"+ # 3 4 5 6 7 8 9 0 a b c d e f g h i i i i h j k l m n o p # + ",
"@ % q r s t u v w x y z A B C D E F G G G G F E D H I J m K L @ ",
"# M N O P Q R S T A U V W X Y Z `  ......... .` Z +.@.#.J $.%.# ",
"# &.*.*.*.=.=.=.-.-.-.-.;.>.,.'.'.).!.).).~.{.].^./.(._.:.<.[.# ",
"# }.|.1.2.3.4.5.6.6.7.8.9.9.0.a.b.c.d.d.d.d.c.e.b.f.g.h.i.j.k.# ",
"# l.m.n.o.p.5.q.r.s.t.u.v.w.x.d.y.z.A.A.A.A.A.y.d.c.a.B.C.D.E.# ",
"# F.o.p.G.H.r.I.J.K.w.L.M.N.O.A.P.Q.R.R.R.R.Q.Q.A.y.d.b.d.S.T.# ",
"# U.V.W.X.Y.Z.`. +.+++++@+@+#+$+$+$+$+%+%+%+&+*+R.P.z.d.b.=+T.# ",
"# -+;+>+,+'+)+!+~+@+. . . . . . . . . . . . {+]+^+R./+z.d.(+_+# ",
"# :+<+[+}+|+1+2+3+@+. . . . . . . . . . . . {+4+5+6+R.P.y.7+_+# ",
"# 8+9+0+a+b+c+d+e+f+. . . . . . . . . . . . g+h+4+]+^+R.A.i+j+# ",
"# k+l+m+n+o+p+q+r+s+. . . . . . . . . . . . t+u+h+4+]+*+Q.v+j+# ",
"# w+x+y+z+A+B+C+D+s+. . . . . . . . . . . . E+F+G+H+5+^+Q.I+J+# ",
"# K+L+M+N+O+P+Q+R+s+. . . . . . . . . . . . g+S+T+U+V+W+X+Y+Z+# ",
"# K+`+ @.@+@@@#@$@%@. . . . . . . . . . . . &@*@=@-@;@>@,@'@Z+# ",
"# K+)@!@~@{@]@^@/@(@. . . . . . . . . . . . &@_@=@-@;@>@,@:@Z+# ",
"# K+<@[@}@|@1@2@3@4@. . . . . . . . . . . . &@5@=@6@7@8@,@9@Z+# ",
"# K+0@a@b@c@d@e@f@4@. . . . . . . . . . . . g@h@i@W+j@k@l@m@Z+# ",
"# n@o@p@q@r@s@t@u@v@. . . . . . . . . . . . w@x@6@;@y@z@A@B@C@# ",
"# n@D@E@F@G@H@I@J@K@. . . . . . . . . . . . L@M@;@N@O@P@Q@R@S@# ",
"# T@U@V@W@X@Y@Z@`@ #.#+#@#@###$#$#%#&#L@L@L@*#;@N@8@=#A@-#;#>## ",
"# ,#'#)#!#~#{#]#^#/#(#_#:#<#[#}#|#1#j@7@7@7@N@>@k@=#A@2#3#4#5## ",
"# 6#7#8#9#0#a#b#c#d#e#f#g#h#i#}#j#k#O@8@8@8@k@,@l@l#2#3#m#n#: # ",
"# o#p#q#r#s#t#u#v#w#x#y#z#A#B#C#D#E#l@P@P@l@F#A@Q@-#G#H#I#` J## ",
"# K#L#M#N#O#P#Q#R#S#T#U#V#W#X#Y#Z#`# $.$.$.$+$+$+$@$#$$$J#%$&$# ",
"# *$=$-$;$>$,$[@b@'$)$!$~${$]$^$/$($Y#_$:$<$[$}$|$1$2$3$4$5$6$# ",
"@ 7$8$9$0$a$b$c$d$e$f$g$+@h$i$j$k$l$m$n$/@o$$@^@^@#@p$q$r$s$t$@ ",
"+ # u$v$w$x$y$z$A$B$C$D$E$F$G$H$I$I$J$K$L$M$N$I$I$O$P$F$Q$R$# + ",
". $ # S$T$U$V$W$X$Y$Z$`$ %.%+%@%#%#%$%%%&%*%*%*%@%=%-%;%>%# $ . ",
". . + @ # # # # # # # # # # # # # # # # # # # # # # # # @ + . . "};
