/* XPM */
static char * Next_Hover_xpm[] = {
"32 32 664 2",
"  	c None",
". 	c #9A9CA0",
"+ 	c #7696FF",
"@ 	c #9A9B9F",
"# 	c #585F6A",
"$ 	c #0F6C8F",
"% 	c #11769A",
"& 	c #13769B",
"* 	c #106B8F",
"= 	c #135B7E",
"- 	c #134A6A",
"; 	c #525D64",
"> 	c #176A95",
", 	c #0F75A4",
"' 	c #0E7DAF",
") 	c #0E86B9",
"! 	c #0E8DC3",
"~ 	c #0C90C7",
"{ 	c #0D90C7",
"] 	c #0E8CC2",
"^ 	c #1185BA",
"/ 	c #117CAF",
"( 	c #1273A3",
"_ 	c #1A6792",
": 	c #155A85",
"< 	c #136B9B",
"[ 	c #117DAA",
"} 	c #1389B5",
"| 	c #198DBC",
"1 	c #198DBF",
"2 	c #1E8FC7",
"3 	c #1A8BC3",
"4 	c #198AC2",
"5 	c #1A8AC2",
"6 	c #1584B9",
"7 	c #1685B6",
"8 	c #1280AF",
"9 	c #1276A5",
"0 	c #156697",
"a 	c #145584",
"b 	c #848888",
"c 	c #0F6495",
"d 	c #1079B0",
"e 	c #1E8DC1",
"f 	c #1F90C2",
"g 	c #1E90C2",
"h 	c #1F8EC2",
"i 	c #1F8DC2",
"j 	c #1E88C0",
"k 	c #2189C3",
"l 	c #2087C2",
"m 	c #1C83BD",
"n 	c #1C85BC",
"o 	c #1B85BA",
"p 	c #1781B6",
"q 	c #197FB5",
"r 	c #197CB4",
"s 	c #106FA5",
"t 	c #0E5C8D",
"u 	c #838688",
"v 	c #14689A",
"w 	c #1981BA",
"x 	c #2092C9",
"y 	c #2190C4",
"z 	c #228EC1",
"A 	c #228EC2",
"B 	c #1E8CC0",
"C 	c #1D8BBF",
"D 	c #1C8BBF",
"E 	c #1A8ABE",
"F 	c #1987BC",
"G 	c #1B87BC",
"H 	c #1A83B8",
"I 	c #1A80B6",
"J 	c #1C80B7",
"K 	c #1D7DB6",
"L 	c #197AB4",
"M 	c #167AB2",
"N 	c #1471AC",
"O 	c #165E95",
"P 	c #186C9E",
"Q 	c #238CC6",
"R 	c #2394CB",
"S 	c #1D90C1",
"T 	c #2291C1",
"U 	c #218EBF",
"V 	c #1F90C3",
"W 	c #2094C4",
"X 	c #2297C6",
"Y 	c #229AC8",
"Z 	c #229CC8",
"` 	c #2299C7",
" .	c #2298C6",
"..	c #2394C4",
"+.	c #1F8DBF",
"@.	c #1983B7",
"#.	c #197CB1",
"$.	c #1B7BB0",
"%.	c #177AAE",
"&.	c #1779B4",
"*.	c #1771B0",
"=.	c #165B92",
"-.	c #126A9A",
";.	c #2091C8",
">.	c #2191C4",
",.	c #2192C1",
"'.	c #1F91BF",
").	c #2096C4",
"!.	c #1F9BC9",
"~.	c #219CCC",
"{.	c #229ECD",
"].	c #219DCC",
"^.	c #219CCA",
"/.	c #239DCB",
"(.	c #239BCB",
"_.	c #259CCD",
":.	c #2196C7",
"<.	c #1E8FBD",
"[.	c #1880B0",
"}.	c #1678AE",
"|.	c #1677AF",
"1.	c #1375B1",
"2.	c #166FA8",
"3.	c #175C8E",
"4.	c #9698A0",
"5.	c #145A87",
"6.	c #228DC3",
"7.	c #1E91C7",
"8.	c #1F93C4",
"9.	c #1E91C0",
"0.	c #1D95C4",
"a.	c #1F9BC8",
"b.	c #209CCA",
"c.	c #1F9BCB",
"d.	c #1F9ACD",
"e.	c #1F9ACE",
"f.	c #209BCF",
"g.	c #209ACD",
"h.	c #209ACC",
"i.	c #2199CC",
"j.	c #209BC9",
"k.	c #1C86BC",
"l.	c #1677AD",
"m.	c #1375A9",
"n.	c #1272A9",
"o.	c #166AA4",
"p.	c #154C7C",
"q.	c #9599A1",
"r.	c #247CAD",
"s.	c #2192C6",
"t.	c #2190C1",
"u.	c #1F92C0",
"v.	c #1C98C5",
"w.	c #1D98CA",
"x.	c #2097CA",
"y.	c #2098C8",
"z.	c #2098CA",
"A.	c #2197CA",
"B.	c #2196CC",
"C.	c #2297CC",
"D.	c #2196CB",
"E.	c #2198C9",
"F.	c #2198CA",
"G.	c #2098CD",
"H.	c #2594C5",
"I.	c #1E82B4",
"J.	c #1573A7",
"K.	c #166FA9",
"L.	c #186EAA",
"M.	c #186094",
"N.	c #1C6A95",
"O.	c #268EBC",
"P.	c #1F92C2",
"Q.	c #1E91C2",
"R.	c #2092C5",
"S.	c #2194C5",
"T.	c #2992BD",
"U.	c #419BC4",
"V.	c #3E96C0",
"W.	c #2C90BC",
"X.	c #2193BF",
"Y.	c #2193C4",
"Z.	c #2292C7",
"`.	c #2290C7",
" +	c #2193C9",
".+	c #2292C3",
"++	c #2493C1",
"@+	c #3495BB",
"#+	c #479FC8",
"$+	c #3995C0",
"%+	c #2D91BC",
"&+	c #258FC1",
"*+	c #1F83BB",
"=+	c #136DA8",
"-+	c #166CA4",
";+	c #1B679C",
">+	c #155580",
",+	c #7F767F",
"'+	c #2485B1",
")+	c #2290BD",
"!+	c #1E92BF",
"~+	c #1A90C1",
"{+	c #1C92C8",
"]+	c #218FC3",
"^+	c #58A4C6",
"/+	c #B2E2EF",
"(+	c #B1DFEB",
"_+	c #71B6D4",
":+	c #2A8CAE",
"<+	c #2590BC",
"[+	c #208FC3",
"}+	c #2391C7",
"|+	c #1E90C6",
"1+	c #2291C3",
"2+	c #228DBE",
"3+	c #2D90BD",
"4+	c #99D5E7",
"5+	c #C0E9F2",
"6+	c #A2D6E7",
"7+	c #4B9CC2",
"8+	c #218EC3",
"9+	c #1C8BC3",
"0+	c #1276AD",
"a+	c #166CA3",
"b+	c #1C669B",
"c+	c #1C5F92",
"d+	c #7B7C7D",
"e+	c #2691C3",
"f+	c #1F91C1",
"g+	c #1E90BF",
"h+	c #1D91C1",
"i+	c #1B8FC0",
"j+	c #258BB8",
"k+	c #84BDD2",
"l+	c #E7FFFF",
"m+	c #F1FFFF",
"n+	c #ECFEFF",
"o+	c #B4E0ED",
"p+	c #67AAC8",
"q+	c #2B8EBC",
"r+	c #1A8EBF",
"s+	c #1991BE",
"t+	c #1D8EBB",
"u+	c #288CBD",
"v+	c #59AAD3",
"w+	c #EBFFFE",
"x+	c #F6FFFE",
"y+	c #E3FFFF",
"z+	c #7BBAD1",
"A+	c #298DBD",
"B+	c #228FC3",
"C+	c #1E83B8",
"D+	c #136DA2",
"E+	c #17669E",
"F+	c #19649C",
"G+	c #10395D",
"H+	c #2190C7",
"I+	c #1D8EC2",
"J+	c #1E8DBF",
"K+	c #1C8CBD",
"L+	c #1D8BBA",
"M+	c #2786B0",
"N+	c #8CBDCF",
"O+	c #EFFFFF",
"P+	c #FCFFFE",
"Q+	c #FAFEFF",
"R+	c #F4FFFF",
"S+	c #DCF4FA",
"T+	c #92C7DC",
"U+	c #4494B7",
"V+	c #2489B7",
"W+	c #2089B9",
"X+	c #2788B6",
"Y+	c #62AED0",
"Z+	c #F4FFFD",
"`+	c #FEFFFD",
" @	c #ECFFFF",
".@	c #89BDD1",
"+@	c #2887B2",
"@@	c #228ABB",
"#@	c #2185B7",
"$@	c #1673A7",
"%@	c #13669F",
"&@	c #1564A2",
"*@	c #14456E",
"=@	c #1E8EC4",
"-@	c #1E8CC1",
";@	c #218ABD",
">@	c #1D89BA",
",@	c #1C87B6",
"'@	c #2786AE",
")@	c #8DBBCC",
"!@	c #FFFEFB",
"~@	c #FFFEFD",
"{@	c #FDFDFC",
"]@	c #F7FFFF",
"^@	c #DEF7FF",
"/@	c #80B8D3",
"(@	c #468EB4",
"_@	c #2D83A9",
":@	c #61ABCA",
"<@	c #F3FEFF",
"[@	c #FFFEFE",
"}@	c #F2FFFF",
"|@	c #89BACD",
"1@	c #2985B0",
"2@	c #1E86B6",
"3@	c #2285B7",
"4@	c #1A77AB",
"5@	c #10649E",
"6@	c #1363A1",
"7@	c #164972",
"8@	c #1F8CC1",
"9@	c #1F8ABE",
"0@	c #1F85BA",
"a@	c #1C85B8",
"b@	c #1B86B8",
"c@	c #2584B1",
"d@	c #89B8CC",
"e@	c #FFFDFD",
"f@	c #FEFDFE",
"g@	c #FEFDFD",
"h@	c #FDFEFF",
"i@	c #FAFFFE",
"j@	c #EBFBFE",
"k@	c #C1E2EC",
"l@	c #5B9CB7",
"m@	c #64A8C5",
"n@	c #FEFCFF",
"o@	c #87B8CC",
"p@	c #2583B1",
"q@	c #1C85B7",
"r@	c #1F83B7",
"s@	c #1D79AE",
"t@	c #11649E",
"u@	c #10609B",
"v@	c #1C4D72",
"w@	c #1D8ABF",
"x@	c #1F88BE",
"y@	c #1A81B7",
"z@	c #1882B7",
"A@	c #227FAF",
"B@	c #F0FFFF",
"C@	c #FDFFFF",
"D@	c #F9FEFF",
"E@	c #FBFEFD",
"F@	c #F8FEFD",
"G@	c #F8FEFF",
"H@	c #F6FEFF",
"I@	c #C8E4EB",
"J@	c #8BB5C8",
"K@	c #F6FFFF",
"L@	c #FFFEFF",
"M@	c #85B7CC",
"N@	c #227FAD",
"O@	c #1982B5",
"P@	c #1B81B6",
"Q@	c #1E7AB1",
"R@	c #0F629C",
"S@	c #115F9A",
"T@	c #1C4B71",
"U@	c #1C89C0",
"V@	c #1E89C0",
"W@	c #1A7DB6",
"X@	c #187EB5",
"Y@	c #177FB3",
"Z@	c #227BAB",
"`@	c #89B6CB",
" #	c #F9FDFD",
".#	c #FEFEFA",
"+#	c #FCFEFC",
"@#	c #FCFEFE",
"##	c #FDFDFF",
"$#	c #F9FDFF",
"%#	c #BBDAE4",
"&#	c #7DACC1",
"*#	c #F5FEFD",
"=#	c #FEFEFD",
"-#	c #F1FEFF",
";#	c #86B6CA",
">#	c #217BAB",
",#	c #187EB3",
"'#	c #197CB3",
")#	c #1D78B0",
"!#	c #0F629D",
"~#	c #0F5D9A",
"{#	c #1A4B70",
"]#	c #1B88BC",
"^#	c #1B86BC",
"/#	c #177AB2",
"(#	c #177AB3",
"_#	c #1979B0",
":#	c #2375A6",
"<#	c #8BB3C9",
"[#	c #F3FFFF",
"}#	c #FFFFFD",
"|#	c #FEFEFC",
"1#	c #FBFFF8",
"2#	c #FCFFFA",
"3#	c #FAFCFC",
"4#	c #F9FFFF",
"5#	c #DBEDF7",
"6#	c #9ABBD4",
"7#	c #3C7396",
"8#	c #639EBB",
"9#	c #F5FFFE",
"0#	c #87B4C7",
"a#	c #2077A5",
"b#	c #187AAE",
"c#	c #1B79B0",
"d#	c #1C72AB",
"e#	c #0E5E9A",
"f#	c #0F5E9A",
"g#	c #13456A",
"h#	c #1C83B6",
"i#	c #197AB0",
"j#	c #1777AD",
"k#	c #1A77AC",
"l#	c #2273A3",
"m#	c #8BB1C7",
"n#	c #F8FFFA",
"o#	c #FAFFFC",
"p#	c #F3FCFE",
"q#	c #BCD5E3",
"r#	c #4E88B0",
"s#	c #2872A2",
"t#	c #24719F",
"u#	c #61A0C1",
"v#	c #F5FEFE",
"w#	c #FEFDFC",
"x#	c #86B2C5",
"y#	c #2075A3",
"z#	c #1977AB",
"A#	c #1B75AB",
"B#	c #1C6DA5",
"C#	c #105C96",
"D#	c #125B96",
"E#	c #123E61",
"F#	c #7C7A81",
"G#	c #2483B2",
"H#	c #1D82B2",
"I#	c #1A7AAD",
"J#	c #1473A8",
"K#	c #1972A9",
"L#	c #226EA1",
"M#	c #88B1C7",
"N#	c #FEFDFF",
"O#	c #EEFAFD",
"P#	c #C1DBE6",
"Q#	c #5C8BB1",
"R#	c #256896",
"S#	c #1772A5",
"T#	c #1474A9",
"U#	c #1B71A6",
"V#	c #5A9AC4",
"W#	c #F7FEFE",
"X#	c #82B2C6",
"Y#	c #1B719F",
"Z#	c #1774A8",
"`#	c #1A70A5",
" $	c #18649A",
".$	c #155A90",
"+$	c #16588C",
"@$	c #787C7C",
"#$	c #2B7CA7",
"$$	c #1F80B1",
"%$	c #177DAF",
"&$	c #1072A8",
"*$	c #176FA9",
"=$	c #226DA2",
"-$	c #79A5BD",
";$	c #FBFEFF",
">$	c #EAF6FE",
",$	c #77A1BA",
"'$	c #35759F",
")$	c #1E699F",
"!$	c #1C6CA3",
"~$	c #156FA6",
"{$	c #1171AA",
"]$	c #156EA3",
"^$	c #4485AE",
"/$	c #E9FDFF",
"($	c #6BA1BB",
"_$	c #1A6F9F",
":$	c #166EA3",
"<$	c #1C6BA3",
"[$	c #165F97",
"}$	c #12588F",
"|$	c #175581",
"1$	c #2580AA",
"2$	c #167EAF",
"3$	c #1675AD",
"4$	c #1668A4",
"5$	c #18659C",
"6$	c #3674A0",
"7$	c #84B0C9",
"8$	c #87ABC4",
"9$	c #37678A",
"0$	c #1A6494",
"a$	c #116AA1",
"b$	c #136DA6",
"c$	c #1769A2",
"d$	c #1869A2",
"e$	c #136CA5",
"f$	c #146BA0",
"g$	c #1D6895",
"h$	c #6393B4",
"i$	c #9CC0D5",
"j$	c #6D9CBF",
"k$	c #266B96",
"l$	c #176AA0",
"m$	c #196AA5",
"n$	c #16619D",
"o$	c #135893",
"p$	c #175587",
"q$	c #8D979D",
"r$	c #227492",
"s$	c #1A7DAE",
"t$	c #1D77B1",
"u$	c #1565A0",
"v$	c #17689F",
"w$	c #15649B",
"x$	c #156198",
"y$	c #175F97",
"z$	c #18639B",
"A$	c #1668A0",
"B$	c #12689E",
"C$	c #12669D",
"D$	c #17679F",
"E$	c #18679F",
"F$	c #14669D",
"G$	c #14699D",
"H$	c #15669B",
"I$	c #186299",
"J$	c #175E98",
"K$	c #156099",
"L$	c #15659B",
"M$	c #15689F",
"N$	c #1566A3",
"O$	c #115B99",
"P$	c #15568E",
"Q$	c #1D4C74",
"R$	c #9199A1",
"S$	c #2278A4",
"T$	c #1977AC",
"U$	c #1D70A8",
"V$	c #166297",
"W$	c #12649B",
"X$	c #1062A1",
"Y$	c #1263A2",
"Z$	c #11629B",
"`$	c #14659B",
" %	c #16649A",
".%	c #166298",
"+%	c #166197",
"@%	c #186499",
"#%	c #146397",
"$%	c #136299",
"%%	c #13629F",
"&%	c #1161A1",
"*%	c #166399",
"=%	c #146299",
"-%	c #0F5D9B",
";%	c #0F5593",
">%	c #1B5386",
",%	c #216083",
"'%	c #2176A5",
")%	c #1974A9",
"!%	c #1A6EA4",
"~%	c #136093",
"{%	c #155F95",
"]%	c #145F98",
"^%	c #13619C",
"/%	c #14629B",
"(%	c #105F96",
"_%	c #146199",
":%	c #146098",
"<%	c #135F97",
"[%	c #136097",
"}%	c #125F96",
"|%	c #166198",
"1%	c #155F98",
"2%	c #175F98",
"3%	c #175E95",
"4%	c #155D92",
"5%	c #125C95",
"6%	c #0D5793",
"7%	c #16558C",
"8%	c #15426B",
"9%	c #1E5778",
"0%	c #1A73A0",
"a%	c #1776A8",
"b%	c #1969A0",
"c%	c #17619A",
"d%	c #115B95",
"e%	c #105C95",
"f%	c #105B94",
"g%	c #115C94",
"h%	c #0F5C94",
"i%	c #0D5B94",
"j%	c #115C96",
"k%	c #105B93",
"l%	c #125C94",
"m%	c #135A92",
"n%	c #115991",
"o%	c #145A91",
"p%	c #155B92",
"q%	c #135993",
"r%	c #11568F",
"s%	c #175487",
"t%	c #133D62",
"u%	c #7E838C",
"v%	c #1B719E",
"w%	c #186EA6",
"x%	c #176AA9",
"y%	c #1362A1",
"z%	c #0F5E99",
"A%	c #0E5992",
"B%	c #0D5890",
"C%	c #0D5A92",
"D%	c #105992",
"E%	c #115892",
"F%	c #115992",
"G%	c #105993",
"H%	c #0D5A95",
"I%	c #0F5996",
"J%	c #135794",
"K%	c #195284",
"L%	c #154066",
"M%	c #1E5F8C",
"N%	c #1E699D",
"O%	c #1A69A0",
"P%	c #1363A0",
"Q%	c #0E5F9E",
"R%	c #0D5D99",
"S%	c #0C5B94",
"T%	c #0E5A92",
"U%	c #0F5C98",
"V%	c #0D5998",
"W%	c #135B93",
"X%	c #115A90",
"Y%	c #18578B",
"Z%	c #194874",
"`%	c #4F5862",
" &	c #256285",
".&	c #226490",
"+&	c #19629C",
"@&	c #14629D",
"#&	c #155F94",
"$&	c #165E93",
"%&	c #135D98",
"&&	c #115B9A",
"*&	c #155993",
"=&	c #1C5683",
"-&	c #1C5176",
";&	c #585965",
">&	c #565B62",
",&	c #184B71",
"'&	c #17466D",
")&	c #596064",
"!&	c #919B9C",
"~&	c #505860",
"{&	c #595B64",
"]&	c #959C9C",
"                      . + + + + + + + + @                       ",
"                  # + + + + $ % & * = - + + +                   ",
"              ; + + > , ' ) ! ~ { ] ^ / ( _ + + +               ",
"            + + : < [ } | 1 2 3 4 5 6 7 8 9 0 a + +             ",
"        b + + c d e f g h i j k l m n o p q r s t + + u         ",
"        + + v w x y z A B C D E F G H I J K L M N O + +         ",
"      + + P Q R S T U V W X Y Z `  ...+.@.#.$.%.&.*.=.+ +       ",
"    + + -.Q ;.>.,.'.).!.~.{.].^./.(._._.:.<.[.}.|.1.2.3.+ +     ",
"  4.+ 5.6.7.8.9.0.a.b.c.d.d.d.e.f.g.g.h.i.j.).k.l.m.n.o.p.+ q.  ",
"  + + r.s.s.t.u.v.w.x.y.z.A.B.C.D.B.A.E.F.G.x.H.I.J.K.L.M.+ +   ",
"  + N.O.P.Q.R.S.T.U.V.W.X.Y.Z.`. +Z..+++@+#+$+%+&+*+=+-+;+>++   ",
",++ '+)+!+~+{+]+^+/+(+_+:+<+[+}+|+1+2+3+4+5+6+7+8+9+0+a+b+c++ d+",
"+ + e+f+g+h+i+j+k+l+m+n+o+p+q+r+s+t+u+v+w+x+y+z+A+B+C+D+E+F+G++ ",
"+ + H+I+J+K+L+M+N+O+P+Q+R+S+T+U+V+W+X+Y+Z+`+ @.@+@@@#@$@%@&@*@+ ",
"+ + =@-@;@>@,@'@)@m+!@~@!@{@]@^@/@(@_@:@<@[@}@|@1@2@3@4@5@6@7@+ ",
"+ + 8@9@0@a@b@c@d@m+e@f@g@h@h@i@j@k@l@m@<@n@m+o@p@q@r@s@t@u@v@+ ",
"+ + w@x@J y@z@A@o@B@C@D@f@f@E@F@G@H@I@J@K@L@B@M@N@O@P@Q@R@S@T@+ ",
"+ + U@V@W@X@Y@Z@`@}@h@ #.#+#@#E@##$#%#&#*#=#-#;#>#,#'#)#!#~#{#+ ",
"+ + ]#^#/#(#_#:#<#[#}#|#1#2#3#4#5#6#7#8#9#!@R+0#a#b#c#d#e#f#g#+ ",
"+ + h#a@i#j#k#l#m#[#[@f@n#o#p#q#r#s#t#u#v#w#R+x#y#z#A#B#C#D#E#+ ",
"F#+ G#H#I#J#K#L#M#}@L@N#O#P#Q#R#S#T#U#V#W#~@B@X#Y#Z#`# $.$+$+ @$",
"  + #$$$%$&$*$=$-$O+;$>$,$'$)$!$~${$]$^$O+;$/$($_$:$<$[$}$|$+   ",
"  + + 1$2$3$4$5$6$7$8$9$0$a$b$c$d$e$f$g$h$i$j$k$l$m$n$o$p$+ +   ",
"  q$+ r$s$t$u$v$w$x$y$z$A$B$C$D$E$F$G$H$I$J$K$L$M$N$O$P$Q$+ R$  ",
"    + + S$T$U$V$W$R@X$Y$Z$`$ %.%+%@%#%$%%%&%%%*%=%-%;%>%+ +     ",
"      + ,%'%)%!%~%{%]%^%/%(%_%:%<%[%}%|%1%2%3%4%5%6%7%8%+       ",
"        + 9%0%a%b%c%d%e%f%g%h%i%j%k%l%m%n%o%p%q%r%s%t%+         ",
"        u%+ + v%w%x%y%z%A%k%B%C%A%D%E%F%G%H%I%J%K%L%+ +         ",
"            + + M%N%O%E$P%Q%R%S%T%U%V%I%W%X%Y%Z%+ +             ",
"              `%+ +  &.&+&&@@&#&$&%&&&*&=&-&+ + ;&              ",
"                  >&+ + + + ,&+ + '&+ + + + )&                  ",
"                      !&~&+ + + + + + {&]&                      "};
