/* XPM */
static char * pause_xpm[] = {
"32 32 663 2",
"  	c None",
". 	c #FFFFFF",
"+ 	c #80AED0",
"@ 	c #1066A7",
"# 	c #005CA1",
"$ 	c #307BB3",
"% 	c #005BA1",
"& 	c #01549B",
"* 	c #014F97",
"= 	c #024F97",
"- 	c #035098",
"; 	c #045199",
"> 	c #055299",
", 	c #1777B8",
"' 	c #238CCA",
") 	c #248DCB",
"! 	c #258DCC",
"~ 	c #258ECC",
"{ 	c #268ECC",
"] 	c #2D92CE",
"^ 	c #4CA1D4",
"/ 	c #5AA8D7",
"( 	c #57A6D6",
"_ 	c #4FA2D4",
": 	c #3D97CD",
"< 	c #1A7DBD",
"[ 	c #0462A6",
"} 	c #01599F",
"| 	c #014C95",
"1 	c #014B93",
"2 	c #024B93",
"3 	c #024C94",
"4 	c #034D95",
"5 	c #044D96",
"6 	c #054E96",
"7 	c #054F97",
"8 	c #1771B3",
"9 	c #2E98D5",
"0 	c #2F99D5",
"a 	c #309AD5",
"b 	c #329BD6",
"c 	c #339BD6",
"d 	c #45A4DA",
"e 	c #70B9E3",
"f 	c #95CCEB",
"g 	c #97CCEA",
"h 	c #90C9E9",
"i 	c #59ABDB",
"j 	c #0A6BAE",
"k 	c #014D95",
"l 	c #024C95",
"m 	c #034E96",
"n 	c #044E96",
"o 	c #044F97",
"p 	c #055098",
"q 	c #065199",
"r 	c #075299",
"s 	c #1366AA",
"t 	c #349CD7",
"u 	c #359DD7",
"v 	c #369ED8",
"w 	c #379ED8",
"x 	c #43A4DA",
"y 	c #83C3E7",
"z 	c #98CDEB",
"A 	c #5BACDB",
"B 	c #01569D",
"C 	c #024D96",
"D 	c #034E97",
"E 	c #034F97",
"F 	c #045098",
"G 	c #055198",
"H 	c #065299",
"I 	c #07539A",
"J 	c #08549B",
"K 	c #09559B",
"L 	c #0D5CA1",
"M 	c #389FD9",
"N 	c #3AA0D9",
"O 	c #3BA0D9",
"P 	c #3CA1DA",
"Q 	c #399FD9",
"R 	c #399FD8",
"S 	c #7FC1E6",
"T 	c #93CAEA",
"U 	c #1B7EBD",
"V 	c #286DAA",
"W 	c #3472AC",
"X 	c #3472AD",
"Y 	c #3372AD",
"Z 	c #3373AD",
"` 	c #3373AE",
" .	c #3272AE",
"..	c #55A9DB",
"+.	c #5AB0E0",
"@.	c #5AB1E1",
"#.	c #5BB1E1",
"$.	c #5AB0E1",
"%.	c #59B0E0",
"&.	c #57AFE0",
"*.	c #56AEE0",
"=.	c #54ADDF",
"-.	c #52ACDE",
";.	c #4FABDE",
">.	c #56ADDE",
",.	c #A1D2ED",
"'.	c #A4D3EE",
").	c #4DA0D2",
"!.	c #2B6DAA",
"~.	c #3675AE",
"{.	c #3775AE",
"].	c #3876AF",
"^.	c #3977B0",
"/.	c #3A78B1",
"(.	c #3B79B2",
"_.	c #3C7AB2",
":.	c #3D7BB3",
"<.	c #3E7CB3",
"[.	c #5AA6D6",
"}.	c #66B6E3",
"|.	c #68B7E3",
"1.	c #69B8E4",
"2.	c #6AB9E4",
"3.	c #67B7E3",
"4.	c #65B6E3",
"5.	c #63B5E2",
"6.	c #62B3E1",
"7.	c #8DC9EA",
"8.	c #AFD9F0",
"9.	c #6CB1DB",
"0.	c #2B68A7",
"a.	c #3776B0",
"b.	c #3877B0",
"c.	c #3878B1",
"d.	c #3978B2",
"e.	c #3A79B2",
"f.	c #3B7AB2",
"g.	c #3C7BB3",
"h.	c #3D7CB3",
"i.	c #3E7CB4",
"j.	c #3F7DB5",
"k.	c #407EB6",
"l.	c #407FB6",
"m.	c #569DCE",
"n.	c #6CBAE5",
"o.	c #6CBAE6",
"p.	c #6DBAE6",
"q.	c #6EBAE6",
"r.	c #64B5E3",
"s.	c #77BEE6",
"t.	c #B0D9F1",
"u.	c #70B4DC",
"v.	c #2A63A4",
"w.	c #3878B2",
"x.	c #3979B2",
"y.	c #3A7AB2",
"z.	c #3B7AB3",
"A.	c #3D7DB5",
"B.	c #3E7DB5",
"C.	c #3F7EB6",
"D.	c #4180B7",
"E.	c #4281B7",
"F.	c #4381B8",
"G.	c #5195C8",
"H.	c #6EBBE6",
"I.	c #70BCE7",
"J.	c #71BDE7",
"K.	c #6FBCE7",
"L.	c #6AB8E4",
"M.	c #6BB9E4",
"N.	c #B1DAF1",
"O.	c #71B4DD",
"P.	c #2A62A3",
"Q.	c #3877B1",
"R.	c #3A7BB3",
"S.	c #3C7CB5",
"T.	c #3C7DB5",
"U.	c #3D7EB6",
"V.	c #3F7FB6",
"W.	c #4080B7",
"X.	c #BAD2E5",
"Y.	c #D8E5F0",
"Z.	c #95B9D8",
"`.	c #4584BA",
" +	c #4C8DC1",
".+	c #72BEE7",
"++	c #73BEE8",
"@+	c #74BFE8",
"#+	c #B2DCF2",
"$+	c #E2F2FA",
"%+	c #CDE8F7",
"&+	c #AFDAF1",
"*+	c #72B5DD",
"=+	c #3874AF",
"-+	c #3B7DB6",
";+	c #3C7EB6",
">+	c #3E7FB6",
",+	c #3F80B7",
"'+	c #4081B8",
")+	c #4282B9",
"!+	c #DBE7F2",
"~+	c #ACC9E1",
"{+	c #4887BC",
"]+	c #4989BE",
"^+	c #71BCE6",
"/+	c #75BFE8",
"(+	c #77C1E9",
"_+	c #78C1EA",
":+	c #C4E5F6",
"<+	c #E5F3FB",
"[+	c #76C0E9",
"}+	c #73BFE8",
"|+	c #6FBBE7",
"1+	c #ABD7F0",
"2+	c #73B6DE",
"3+	c #2B64A5",
"4+	c #3871AD",
"5+	c #3C7FB7",
"6+	c #3E81B8",
"7+	c #3F81B8",
"8+	c #4082B9",
"9+	c #4283BA",
"0+	c #4485BB",
"a+	c #DBE8F2",
"b+	c #ADCAE2",
"c+	c #4B8ABE",
"d+	c #4C8BBF",
"e+	c #6DB4E0",
"f+	c #78C2EA",
"g+	c #7AC2EB",
"h+	c #7BC3EB",
"i+	c #C6E5F7",
"j+	c #79C2EA",
"k+	c #6FBBE6",
"l+	c #A9D6F0",
"m+	c #73B6DF",
"n+	c #2C66A7",
"o+	c #376FAC",
"p+	c #3E81B9",
"q+	c #4082BA",
"r+	c #4083BA",
"s+	c #4285BB",
"t+	c #4486BC",
"u+	c #4587BD",
"v+	c #DCE8F3",
"w+	c #AECBE3",
"x+	c #4D8DC1",
"y+	c #4F8FC2",
"z+	c #68ADDA",
"A+	c #7DC5EB",
"B+	c #7FC6EC",
"C+	c #C8E6F7",
"D+	c #E6F4FB",
"E+	c #A7D6F0",
"F+	c #75B7DF",
"G+	c #306FAF",
"H+	c #376CAA",
"I+	c #3F83BA",
"J+	c #4085BB",
"K+	c #4285BC",
"L+	c #4487BD",
"M+	c #4588BE",
"N+	c #478ABF",
"O+	c #DCE9F3",
"P+	c #AFCCE4",
"Q+	c #5090C3",
"R+	c #5291C4",
"S+	c #63A6D4",
"T+	c #7DC5EC",
"U+	c #80C6ED",
"V+	c #82C8EE",
"W+	c #C9E7F8",
"X+	c #E7F4FC",
"Y+	c #7EC6EC",
"Z+	c #A5D5F0",
"`+	c #76B7DF",
" @	c #2670B2",
".@	c #2F66A6",
"+@	c #3E84BB",
"@@	c #4286BD",
"#@	c #4388BE",
"$@	c #4589BE",
"%@	c #478AC0",
"&@	c #498CC1",
"*@	c #B0CEE5",
"=@	c #5393C6",
"-@	c #5494C6",
";@	c #5FA0CF",
">@	c #83C8EE",
",@	c #85CAEF",
"'@	c #CAE8F8",
")@	c #E7F5FC",
"!@	c #81C6ED",
"~@	c #7EC5EC",
"{@	c #A2D4F0",
"]@	c #71B5DE",
"^@	c #1B6DB2",
"/@	c #17579F",
"(@	c #1369AD",
"_@	c #1D70B1",
":@	c #2877B5",
"<@	c #317EB9",
"[@	c #3A84BD",
"}@	c #4188BF",
"|@	c #DBE9F3",
"1@	c #B2CFE6",
"2@	c #5596C7",
"3@	c #5797C9",
"4@	c #5A9BCB",
"5@	c #87CBEF",
"6@	c #CCE9F9",
"7@	c #E6F4FC",
"8@	c #78C3ED",
"9@	c #71C0EA",
"0@	c #69BBE8",
"a@	c #62B7E6",
"b@	c #59B2E4",
"c@	c #50ADE1",
"d@	c #8AC8EB",
"e@	c #5FACDA",
"f@	c #1A5EA5",
"g@	c #136CAF",
"h@	c #156DB0",
"i@	c #186FB1",
"j@	c #1A71B3",
"k@	c #1D73B4",
"l@	c #2075B5",
"m@	c #D4E5F1",
"n@	c #A1C5E0",
"o@	c #3181BD",
"p@	c #3583BE",
"q@	c #3886C0",
"r@	c #5FB3E3",
"s@	c #6ABDEC",
"t@	c #6DC0EC",
"u@	c #C1E4F8",
"v@	c #E2F2FB",
"w@	c #65BAE9",
"x@	c #60B7E8",
"y@	c #5BB5E6",
"z@	c #57B2E4",
"A@	c #52AFE2",
"B@	c #4EACE1",
"C@	c #87C6EA",
"D@	c #1F66AC",
"E@	c #146EB1",
"F@	c #1770B2",
"G@	c #1971B3",
"H@	c #1C73B5",
"I@	c #1E75B6",
"J@	c #2177B7",
"K@	c #D5E5F2",
"L@	c #A0C6E1",
"M@	c #2F81BE",
"N@	c #3283BF",
"O@	c #3585C1",
"P@	c #54A8DB",
"Q@	c #67BCEB",
"R@	c #6CBFEC",
"S@	c #C0E4F7",
"T@	c #64BAE9",
"U@	c #82C4E9",
"V@	c #236DB2",
"W@	c #1773B5",
"X@	c #1872B4",
"Y@	c #1A73B5",
"Z@	c #1D75B7",
"`@	c #2077B8",
" #	c #2379B9",
".#	c #D5E6F2",
"+#	c #A1C7E2",
"@#	c #3184C0",
"##	c #3486C1",
"$#	c #3788C3",
"%#	c #4CA0D5",
"&#	c #66BBEA",
"*#	c #69BDEB",
"=#	c #BFE3F7",
"-#	c #63BAE9",
";#	c #5FB7E7",
">#	c #5AB4E5",
",#	c #56B1E4",
"'#	c #51AEE2",
")#	c #7BC1E8",
"!#	c #1A6DB2",
"~#	c #236BB1",
"{#	c #1D7FC0",
"]#	c #1873B6",
"^#	c #1B75B7",
"/#	c #1E78B8",
"(#	c #217ABA",
"_#	c #247BBB",
":#	c #A2C8E3",
"<#	c #3387C2",
"[#	c #3689C4",
"}#	c #398BC5",
"|#	c #4598D0",
"1#	c #63B9E9",
"2#	c #BDE2F6",
"3#	c #E1F2FB",
"4#	c #60B8E8",
"5#	c #5DB6E6",
"6#	c #59B3E5",
"7#	c #55B1E3",
"8#	c #50AEE2",
"9#	c #4CABE0",
"0#	c #73BDE7",
"a#	c #2369AF",
"b#	c #238BCA",
"c#	c #1975B8",
"d#	c #1C77B9",
"e#	c #1F7ABA",
"f#	c #227CBC",
"g#	c #257EBD",
"h#	c #D6E7F3",
"i#	c #A2C9E4",
"j#	c #3489C4",
"k#	c #378BC6",
"l#	c #3A8DC7",
"m#	c #3F93CB",
"n#	c #5FB7E8",
"o#	c #62B9E9",
"p#	c #BBE1F6",
"q#	c #E0F1FB",
"r#	c #5DB6E7",
"s#	c #56B2E4",
"t#	c #53AFE2",
"u#	c #4FADE1",
"v#	c #4AAADF",
"w#	c #5EABDA",
"x#	c #2266AD",
"y#	c #2693D1",
"z#	c #1B7ABB",
"A#	c #1C79BB",
"B#	c #207CBC",
"C#	c #237EBE",
"D#	c #2680BF",
"E#	c #A3CAE5",
"F#	c #358BC6",
"G#	c #388DC7",
"H#	c #3A8FC9",
"I#	c #3D91CA",
"J#	c #59B1E3",
"K#	c #5EB6E7",
"L#	c #B9E0F5",
"M#	c #E0F1FA",
"N#	c #59B4E5",
"O#	c #54B0E3",
"P#	c #4DABE0",
"Q#	c #48A9DF",
"R#	c #5DB3E2",
"S#	c #5CABD9",
"T#	c #196CB1",
"U#	c #2262A9",
"V#	c #2592D1",
"W#	c #2084C4",
"X#	c #1D7BBC",
"Y#	c #207EBE",
"Z#	c #2380BF",
"`#	c #2682C1",
" $	c #B2D3EA",
".$	c #D3E6F3",
"+$	c #D4E7F3",
"@$	c #8BBDDF",
"#$	c #358DC8",
"$$	c #388FC9",
"%$	c #3A91CB",
"&$	c #3D93CC",
"*$	c #50AADD",
"=$	c #A3D5F1",
"-$	c #DCEFFA",
";$	c #C3E4F6",
">$	c #4DACE1",
",$	c #46A8DE",
"'$	c #50ACDF",
")$	c #5BAAD9",
"!$	c #186BB1",
"~$	c #215CA5",
"{$	c #2390CF",
"]$	c #238DCB",
"^$	c #1D7DBE",
"/$	c #207FBF",
"($	c #2381C1",
"_$	c #2784C3",
":$	c #2986C4",
"<$	c #2C88C5",
"[$	c #308AC7",
"}$	c #328CC8",
"|$	c #358EC9",
"1$	c #3890CB",
"2$	c #3A92CC",
"3$	c #3D94CD",
"4$	c #49A3D9",
"5$	c #47A8DE",
"6$	c #44A6DD",
"7$	c #42A5DC",
"8$	c #58A8D8",
"9$	c #176AB0",
"0$	c #205BA4",
"a$	c #2285C6",
"b$	c #1D80C0",
"c$	c #2081C1",
"d$	c #2383C2",
"e$	c #2685C4",
"f$	c #2A87C5",
"g$	c #2C8AC7",
"h$	c #2F8CC8",
"i$	c #328ECA",
"j$	c #3590CB",
"k$	c #3792CC",
"l$	c #3A93CD",
"m$	c #3C95CE",
"n$	c #439DD5",
"o$	c #49A9DF",
"p$	c #41A4DB",
"q$	c #3DA2DA",
"r$	c #49A0D5",
"s$	c #156AB0",
"t$	c #1E59A2",
"u$	c #1F70B5",
"v$	c #218ECD",
"w$	c #1F84C4",
"x$	c #1E80C0",
"y$	c #2182C2",
"z$	c #2584C3",
"A$	c #2887C5",
"B$	c #2A89C6",
"C$	c #2D8BC8",
"D$	c #318DCA",
"E$	c #3490CB",
"F$	c #3692CD",
"G$	c #3894CF",
"H$	c #3B96D0",
"I$	c #3E9AD3",
"J$	c #4BABE0",
"K$	c #46A7DE",
"L$	c #43A6DD",
"M$	c #40A4DB",
"N$	c #3DA2DB",
"O$	c #3798D1",
"P$	c #1068AE",
"Q$	c #1B549D",
"R$	c #1D57A0",
"S$	c #1B7DBF",
"T$	c #1B7FC0",
"U$	c #1977B9",
"V$	c #1B79BB",
"W$	c #1E7BBC",
"X$	c #207DBD",
"Y$	c #217DBC",
"Z$	c #2781BF",
"`$	c #2982C0",
" %	c #2B83C1",
".%	c #2D86C3",
"+%	c #2F88C4",
"@%	c #3995CF",
"#%	c #3A96D0",
"$%	c #3A97D0",
"%%	c #3A97D1",
"&%	c #3997D1",
"*%	c #3797D1",
"=%	c #3597D1",
"-%	c #3496D1",
";%	c #3296D1",
">%	c #2588C6",
",%	c #0867AD",
"'%	c #19519B",
")%	c #1A509A",
"!%	c #1A58A1",
"~%	c #1776B9",
"{%	c #1571B4",
"]%	c #1672B5",
"^%	c #1874B6",
"/%	c #1A75B6",
"(%	c #1B75B6",
"_%	c #1D76B7",
":%	c #1F77B8",
"<%	c #2178B9",
"[%	c #2279B9",
"}%	c #237ABA",
"|%	c #247CBB",
"1%	c #257CBB",
"2%	c #2C85C2",
"3%	c #2B84C1",
"4%	c #2A82C0",
"5%	c #2981C0",
"6%	c #2881BF",
"7%	c #2780BF",
"8%	c #257FBE",
"9%	c #247EBE",
"0%	c #227EBD",
"a%	c #116EB0",
"b%	c #015EA3",
"c%	c #0F5DA5",
"d%	c #184B96",
"e%	c #194C96",
"f%	c #1462A8",
"g%	c #126BAF",
"h%	c #136CB0",
"i%	c #156DB1",
"j%	c #156CB0",
"k%	c #176DB0",
"l%	c #186EB1",
"m%	c #1A6FB1",
"n%	c #1B71B2",
"o%	c #1C71B3",
"p%	c #1D72B3",
"q%	c #2076B7",
"r%	c #2278B8",
"s%	c #2076B6",
"t%	c #1F75B6",
"u%	c #1F75B5",
"v%	c #1E74B5",
"w%	c #1D74B5",
"x%	c #1B73B4",
"y%	c #1770B3",
"z%	c #035FA4",
"A%	c #0360A5",
"B%	c #0D5AA2",
"C%	c #154B96",
"D%	c #184893",
"E%	c #184792",
"F%	c #164D97",
"G%	c #125AA2",
"H%	c #1064A9",
"I%	c #1164A9",
"J%	c #1467AB",
"K%	c #1567AB",
"L%	c #1668AB",
"M%	c #1669AB",
"N%	c #176AAD",
"O%	c #196CAE",
"P%	c #186BAD",
"Q%	c #1769AC",
"R%	c #1669AC",
"S%	c #1668AC",
"T%	c #1568AC",
"U%	c #1468AB",
"V%	c #1367AB",
"W%	c #1267AB",
"X%	c #0661A6",
"Y%	c #015DA2",
"Z%	c #055FA5",
"`%	c #085BA2",
" &	c #0C59A1",
".&	c #0C579E",
"+&	c #0D579E",
"@&	c #0E579F",
"#&	c #0B5DA3",
"$&	c #0B5FA4",
"%&	c #0C60A5",
"&&	c #0D61A5",
"*&	c #0E61A5",
"=&	c #0E61A6",
"-&	c #0F61A6",
";&	c #0F62A6",
">&	c #1063A7",
",&	c #1062A6",
"'&	c #0F61A5",
")&	c #0E60A5",
"!&	c #0D60A5",
"~&	c #0960A5",
"{&	c #025EA3",
". . + @ # # # # # # # # # # # # # # # # # # # # # # # # @ + . . ",
". $ # % & * = - - - ; ; > , ' ) ! ~ { { { ] ^ / ( _ : < [ # $ . ",
"+ # } | 1 2 3 3 4 4 5 6 7 8 9 0 a b c c c c b d e f g h i j # + ",
"@ % k 3 l 4 m n o 7 p q r s c t u v w w w w v u t x y z g A [ @ ",
"# B C D E o F G H r I J K L v M N O P P P P O N Q w R S z T U # ",
"# V W W X X Y Y Y Y Z ` `  ...+.+.@.#.@.$.%.&.*.=.-.;.>.,.'.).# ",
"# !.~.{.].].^./.(.(._.:.<.<.[.}.|.1.2.2.2.2.1.|.3.4.5.6.7.8.9.# ",
"# 0.a.b.c.d.e.f.g.h.i.j.k.l.m.2.n.o.p.q.q.p.p.n.2.1.}.r.s.t.u.# ",
"# v.w.x.y.z.g.A.B.C.l.D.E.F.G.p.H.I.J.J.J.J.I.K.p.n.L.3.M.N.O.# ",
"# P.Q.R.S.T.U.V.W.X.Y.Y.Z.`. +I..+++@+#+$+$+%+.+J.H.o.2.|.&+*+# ",
"# v.=+-+;+>+,+'+)+!+. . ~+{+]+^+/+(+_+:+. . <+[+}+J.|+o.L.1+2+# ",
"# 3+4+5+6+7+8+9+0+a+. . b+c+d+e+f+g+h+i+. . <+j+(+@+J.k+n.l+m+# ",
"# n+o+p+q+r+s+t+u+v+. . w+x+y+z+h+A+B+C+. . D+h+j+[+@+J.p.E+F+# ",
"# G+H+I+J+K+L+M+N+O+. . P+Q+R+S+T+U+V+W+. . X+Y+h+j+[+.+K.Z+`+# ",
"#  @.@+@@@#@$@%@&@O+. . *@=@-@;@U+>@,@'@. . )@!@~@g+(+@+I.{@]@# ",
"# ^@/@(@_@:@<@[@}@|@. . 1@2@3@4@!@,@5@6@. . 7@8@9@0@a@b@c@d@e@# ",
"# ^@f@g@h@i@j@k@l@m@. . n@o@p@q@r@s@t@u@. . v@w@x@y@z@A@B@C@e@# ",
"# ^@D@E@F@G@H@I@J@K@. . L@M@N@O@P@Q@R@S@. . v@T@x@y@z@A@B@U@e@# ",
"# ^@V@W@X@Y@Z@`@ #.#. . +#@###$#%#&#*#=#. . v@-#;#>#,#'#B@)#e@# ",
"# !#~#{#]#^#/#(#_#.#. . :#<#[#}#|#1#&#2#. . 3#4#5#6#7#8#9#0#e@# ",
"# !#a#b#c#d#e#f#g#h#. . i#j#k#l#m#n#o#p#. . q#r#>#s#t#u#v#2.w## ",
"# !#x#y#z#A#B#C#D#h#. . E#F#G#H#I#J#K#L#. . M#N#z@O#8#P#Q#R#S## ",
"# T#U#V#W#X#Y#Z#`# $.$+$@$#$$$%$&$*$6#=$-$-$;$s#O#'#>$v#,$'$)$# ",
"# !$~${$]$^$/$($_$:$<$[$}$|$1$2$3$4$7#,#,#,#O#A@8#>$v#5$6$7$8$# ",
"# 9$0$a$V#b$c$d$e$f$g$h$i$j$k$l$m$n$8#'#'#'#8#B@9#o$5$6$p$q$r$# ",
"# s$t$u$v$w$x$y$z$A$B$C$D$E$F$G$H$I$9#P#P#9#J$v#Q#K$L$M$N$N O$# ",
"# P$Q$R$S$T$U$V$W$X$Y$C#D#Z$`$ %.%+%@%H$H$#%$%%%&%&%*%=%-%;%>%# ",
"# ,%'%)%!%~%{%]%^%/%(%_%:%<%[%}%|%1% %2%3%4%4%5%6%7%8%9%0%B#a%# ",
"@ b%c%d%e%'%f%g%h%i%j%k%l%m%n%o%p%p%q%r%J@s%t%u%v%w%w%x%j@y%z%@ ",
"+ # A%B%C%D%E%F%G%H%H%I%s s J%K%L%M%N%O%P%Q%R%R%S%T%U%V%W%X%# + ",
". $ # Y%Z%`% &.&+&@&#&$&%&%&&&*&=&-&;&>&,&'&*&*&)&!&$&~&{&# $ . ",
". . + @ # # # # # # # # # # # # # # # # # # # # # # # # @ + . . "};
