/* XPM */
static char * Pause_Normal_xpm[] = {
"32 32 742 2",
"  	c None",
". 	c #6F7475",
"+ 	c #15292D",
"@ 	c #00040A",
"# 	c #000001",
"$ 	c #000309",
"% 	c #12262A",
"& 	c #6E7173",
"* 	c #162532",
"= 	c #101C2C",
"- 	c #192F3E",
"; 	c #073749",
"> 	c #054054",
", 	c #0C485E",
"' 	c #064055",
") 	c #06394C",
"! 	c #182E40",
"~ 	c #0F1B2C",
"{ 	c #142230",
"] 	c #141D30",
"^ 	c #05213E",
"/ 	c #0A4A75",
"( 	c #0D6A99",
"_ 	c #1883B4",
": 	c #128CBE",
"< 	c #0E94C7",
"[ 	c #0F99CC",
"} 	c #1094C8",
"| 	c #138ABD",
"1 	c #1981B2",
"2 	c #106A9B",
"3 	c #0D4B76",
"4 	c #04203C",
"5 	c #111E31",
"6 	c #262A35",
"7 	c #8A9694",
"8 	c #152129",
"9 	c #0B263F",
"0 	c #114E79",
"a 	c #146F9D",
"b 	c #117FAA",
"c 	c #0E81AF",
"d 	c #0F84B5",
"e 	c #138BBF",
"f 	c #148DC5",
"g 	c #128CC4",
"h 	c #138BC3",
"i 	c #1288BD",
"j 	c #1081B4",
"k 	c #0F7EAE",
"l 	c #137AA8",
"m 	c #1A6F9B",
"n 	c #124D7A",
"o 	c #0A2743",
"p 	c #15212D",
"q 	c #858D8C",
"r 	c #101C24",
"s 	c #073957",
"t 	c #116493",
"u 	c #1174A8",
"v 	c #1785B6",
"w 	c #178DBB",
"x 	c #1D92C0",
"y 	c #1E8FC2",
"z 	c #1E8CC2",
"A 	c #208AC4",
"B 	c #1F88C2",
"C 	c #1D86C0",
"D 	c #1A84BC",
"E 	c #1A86BA",
"F 	c #1887B7",
"G 	c #137FB0",
"H 	c #1578AD",
"I 	c #116CA2",
"J 	c #146193",
"K 	c #073657",
"L 	c #111C26",
"M 	c #0C181F",
"N 	c #104667",
"O 	c #0F689A",
"P 	c #1380B9",
"Q 	c #1E91C7",
"R 	c #2292C5",
"S 	c #208FC3",
"T 	c #1F8DC2",
"U 	c #1E8BC0",
"V 	c #1F8AC0",
"W 	c #1D87C0",
"X 	c #1C85BE",
"Y 	c #1C84BD",
"Z 	c #1B83BA",
"` 	c #1A81B9",
" .	c #1981B8",
"..	c #1B80B7",
"+.	c #1C7FB8",
"@.	c #157BB4",
"#.	c #0F72AB",
"$.	c #146296",
"%.	c #134168",
"&.	c #0D1422",
"*.	c #363B3E",
"=.	c #6D7876",
"-.	c #0E1C23",
";.	c #0E4667",
">.	c #16689D",
",.	c #218AC6",
"'.	c #2194CB",
").	c #1E90C2",
"!.	c #248DC0",
"~.	c #238CC0",
"{.	c #208CBF",
"].	c #1E8EBE",
"^.	c #1C8FBF",
"/.	c #1B92C1",
"(.	c #1A91BF",
"_.	c #1B8FBE",
":.	c #1C8BBC",
"<.	c #1B84B7",
"[.	c #197FB4",
"}.	c #1B7AB2",
"|.	c #1C77B2",
"1.	c #187AAF",
"2.	c #157BB3",
"3.	c #1673B1",
"4.	c #165D9A",
"5.	c #134066",
"6.	c #0E1722",
"7.	c #6C7470",
"8.	c #111D24",
"9.	c #023855",
"0.	c #156FA1",
"a.	c #258FCA",
"b.	c #2292C9",
"c.	c #208FC2",
"d.	c #2192BF",
"e.	c #1F8DBC",
"f.	c #1E93C3",
"g.	c #1F98C6",
"h.	c #229BC9",
"i.	c #239DCC",
"j.	c #249ECB",
"k.	c #249ECA",
"l.	c #249CCA",
"m.	c #269BCB",
"n.	c #269ACA",
"o.	c #1F92C3",
"p.	c #1A88B9",
"q.	c #187EAF",
"r.	c #1778AB",
"s.	c #1677AF",
"t.	c #1677B3",
"u.	c #155C91",
"v.	c #0A3557",
"w.	c #101621",
"x.	c #42444D",
"y.	c #001A35",
"z.	c #176A99",
"A.	c #2290C9",
"B.	c #1E92C9",
"C.	c #1E91C2",
"D.	c #1F91C1",
"E.	c #1C91C0",
"F.	c #2199C5",
"G.	c #209DCB",
"H.	c #1F9DCD",
"I.	c #209CCE",
"J.	c #1F9CCD",
"K.	c #1E9ACB",
"L.	c #1F9ACB",
"M.	c #209BCC",
"N.	c #219ACD",
"O.	c #239DCF",
"P.	c #249DCF",
"Q.	c #239BCA",
"R.	c #1F94BF",
"S.	c #1881B5",
"T.	c #1475AD",
"U.	c #1275AC",
"V.	c #1177AD",
"W.	c #166FA8",
"X.	c #1A5A8D",
"Y.	c #001938",
"Z.	c #404450",
"`.	c #0F1A2E",
" +	c #0E4E7C",
".+	c #2488BD",
"++	c #2095CA",
"@+	c #1F90BF",
"#+	c #1B91C0",
"$+	c #1F9CCA",
"%+	c #1E9ACA",
"&+	c #1E98C9",
"*+	c #1F9ACC",
"=+	c #209BCE",
"-+	c #1F99CD",
";+	c #1F98CE",
">+	c #2099CE",
",+	c #2099CD",
"'+	c #2098CB",
")+	c #1F98CB",
"!+	c #1F9CCB",
"~+	c #2396C9",
"{+	c #1E85B9",
"]+	c #1474A7",
"^+	c #1272A5",
"/+	c #1571AC",
"(+	c #1866A2",
"_+	c #114475",
":+	c #101B30",
"<+	c #595F66",
"[+	c #001838",
"}+	c #267DAC",
"|+	c #2593C5",
"1+	c #1E91C3",
"2+	c #238EC2",
"3+	c #2191C1",
"4+	c #1E98C3",
"5+	c #1A96C5",
"6+	c #2093CB",
"7+	c #2293C5",
"8+	c #1E8DBC",
"9+	c #1C8ABB",
"0+	c #208EC1",
"a+	c #2293C8",
"b+	c #2193CA",
"c+	c #2292C8",
"d+	c #1F8DC0",
"e+	c #1C8ABA",
"f+	c #2193C7",
"g+	c #1E94CD",
"h+	c #2195C5",
"i+	c #2895C1",
"j+	c #207FB2",
"k+	c #176EA7",
"l+	c #136BA7",
"m+	c #196EA8",
"n+	c #196393",
"o+	c #011F3C",
"p+	c #000915",
"q+	c #0A4F76",
"r+	c #2B8FC0",
"s+	c #2190C1",
"t+	c #1E8FC1",
"u+	c #218EC1",
"v+	c #1F91C5",
"w+	c #1D94C5",
"x+	c #1E94C4",
"y+	c #238FC2",
"z+	c #388DB2",
"A+	c #87BFD9",
"B+	c #A9D7F1",
"C+	c #66ABCC",
"D+	c #268EBD",
"E+	c #1A90C5",
"F+	c #65AACB",
"G+	c #88BED9",
"H+	c #378DB4",
"I+	c #2191C4",
"J+	c #2293C2",
"K+	c #2190C0",
"L+	c #2690C5",
"M+	c #1779B2",
"N+	c #106DA8",
"O+	c #166AA3",
"P+	c #1D679A",
"Q+	c #093E68",
"R+	c #0B1422",
"S+	c #9C9798",
"T+	c #1A2432",
"U+	c #1974A1",
"V+	c #2790C1",
"W+	c #208EBF",
"X+	c #208FC1",
"Y+	c #1F8DBF",
"Z+	c #1E8FC5",
"`+	c #1C91C5",
" @	c #1E93C4",
".@	c #1C85B3",
"+@	c #94CCE4",
"@@	c #FBFFFF",
"#@	c #F8FFFE",
"$@	c #EFFFFF",
"%@	c #54A7C8",
"&@	c #1E89B3",
"*@	c #54A7C7",
"=@	c #ECFFFF",
"-@	c #FEFFFF",
";@	c #93CDE4",
">@	c #1B87B8",
",@	c #2291C3",
"'@	c #2190C5",
")@	c #2289C0",
"!@	c #1070AA",
"~@	c #1368A1",
"{@	c #1C669C",
"]@	c #155787",
"^@	c #1B2432",
"/@	c #37373A",
"(@	c #0D2636",
"_@	c #2C89B8",
":@	c #218EBF",
"<@	c #1C8CBE",
"[@	c #1F8BBD",
"}@	c #1D8BC2",
"|@	c #1A8DC2",
"1@	c #1C91C2",
"2@	c #187DAD",
"3@	c #C9F0F5",
"4@	c #F8FDFE",
"5@	c #FBFCFA",
"6@	c #FFFFFF",
"7@	c #80C0D7",
"8@	c #1C7C9D",
"9@	c #81C0D7",
"0@	c #C9F1F6",
"a@	c #1780B3",
"b@	c #228FC0",
"c@	c #1E8BBC",
"d@	c #1C8ABF",
"e@	c #258DC2",
"f@	c #1677B0",
"g@	c #1168A1",
"h@	c #15639A",
"i@	c #1E6192",
"j@	c #0D2132",
"k@	c #02050C",
"l@	c #092D40",
"m@	c #2F93C4",
"n@	c #1D8DC1",
"o@	c #198CBE",
"p@	c #1C8CBD",
"q@	c #1E89BA",
"r@	c #1D89C0",
"s@	c #198AC0",
"t@	c #1B8DBF",
"u@	c #177AAB",
"v@	c #C8E8F2",
"w@	c #FDFFFF",
"x@	c #FBFCFC",
"y@	c #7DBBD5",
"z@	c #18799F",
"A@	c #C7E9F3",
"B@	c #177CAF",
"C@	c #1F8CBD",
"D@	c #1E8ABC",
"E@	c #1B88BD",
"F@	c #1E87BA",
"G@	c #1F82B9",
"H@	c #0C679E",
"I@	c #13649C",
"J@	c #21679A",
"K@	c #072236",
"L@	c #000002",
"M@	c #12394E",
"N@	c #2992C4",
"O@	c #198CC2",
"P@	c #1B8CBF",
"Q@	c #1A87B8",
"R@	c #1E84B8",
"S@	c #1D84BC",
"T@	c #1986BD",
"U@	c #1B8ABE",
"V@	c #1576AA",
"W@	c #CFECF2",
"X@	c #FCFCFE",
"Y@	c #7DBCD9",
"Z@	c #1976A1",
"`@	c #CEECF2",
" #	c #1779AD",
".#	c #2089BC",
"+#	c #1C86B9",
"@#	c #1A87BA",
"##	c #1D86B8",
"$#	c #116BA3",
"%#	c #0E619A",
"&#	c #196298",
"*#	c #0C283F",
"=#	c #000000",
"-#	c #153E55",
";#	c #2995C8",
">#	c #178AC0",
",#	c #1787BA",
"'#	c #1883B5",
")#	c #1E82B4",
"!#	c #1D81B9",
"~#	c #1983BA",
"{#	c #1A87BC",
"]#	c #1674A7",
"^#	c #CCE9F2",
"/#	c #FCFCFD",
"(#	c #7CB8D5",
"_#	c #18719E",
":#	c #CBE9F2",
"<#	c #1677AA",
"[#	c #1F86B9",
"}#	c #1A83B4",
"|#	c #1984B5",
"1#	c #1C84B3",
"2#	c #1F82B8",
"3#	c #106DA4",
"4#	c #0D6098",
"5#	c #196399",
"6#	c #102B45",
"7#	c #153E54",
"8#	c #258EC1",
"9#	c #1989C0",
"0#	c #1A87BB",
"a#	c #177EB2",
"b#	c #1E7EB0",
"c#	c #1C7DB6",
"d#	c #197FB6",
"e#	c #1A83B8",
"f#	c #146FA2",
"g#	c #CEEAF1",
"h#	c #7AB6D2",
"i#	c #19709F",
"j#	c #7AB5D2",
"k#	c #CDEAF1",
"l#	c #1572A6",
"m#	c #1D82B4",
"n#	c #1A7FB1",
"o#	c #1880B3",
"p#	c #1D7EB5",
"q#	c #146FA6",
"r#	c #0C5E96",
"s#	c #175F95",
"t#	c #102C43",
"u#	c #00070E",
"v#	c #133A4D",
"w#	c #298FC0",
"x#	c #1C89BE",
"y#	c #1781B5",
"z#	c #177BAF",
"A#	c #1C79AE",
"B#	c #1B79B3",
"C#	c #187AB3",
"D#	c #1A7FB3",
"E#	c #136B9E",
"F#	c #CCE9F1",
"G#	c #F7FDFE",
"H#	c #76B4D4",
"I#	c #136B9D",
"J#	c #136EA2",
"K#	c #1E7DB1",
"L#	c #197BAE",
"M#	c #177CB0",
"N#	c #197BAF",
"O#	c #1C7AB2",
"P#	c #136BA3",
"Q#	c #0D5C95",
"R#	c #1C6097",
"S#	c #0C263C",
"T#	c #333C3E",
"U#	c #113242",
"V#	c #2C8BB9",
"W#	c #1A83B6",
"X#	c #1980B3",
"Y#	c #1B77AC",
"Z#	c #1A76B1",
"`#	c #1778B0",
" $	c #1A7CAF",
".$	c #126899",
"+$	c #CEE6F0",
"@$	c #F9FCFD",
"#$	c #7BB2CF",
"$$	c #146693",
"%$	c #CCE7F1",
"&$	c #1C7BAE",
"*$	c #1878AB",
"=$	c #1778AF",
"-$	c #1978AD",
";$	c #1D76B0",
">$	c #13669E",
",$	c #0E5991",
"'$	c #1C5D8F",
")$	c #102638",
"!$	c #969999",
"~$	c #1F2F3C",
"{$	c #2785B2",
"]$	c #1C81B3",
"^$	c #1C80B4",
"/$	c #1474A9",
"($	c #1A73A9",
"_$	c #1873AF",
":$	c #1575AD",
"<$	c #187AAB",
"[$	c #116695",
"}$	c #CDE5F0",
"|$	c #FBFCFD",
"1$	c #7CB0CB",
"2$	c #15628D",
"3$	c #CDE4F0",
"4$	c #116799",
"5$	c #1B78AB",
"6$	c #1775A9",
"7$	c #1675AD",
"8$	c #1874AC",
"9$	c #1A6FAB",
"0$	c #12609A",
"a$	c #10588F",
"b$	c #1B598A",
"c$	c #0D1728",
"d$	c #000C17",
"e$	c #17688E",
"f$	c #2485B5",
"g$	c #1C7FB2",
"h$	c #1473A9",
"i$	c #1770A7",
"j$	c #186EA9",
"k$	c #1670A6",
"l$	c #1975A9",
"m$	c #0F6194",
"n$	c #CCE4EF",
"o$	c #7BAECA",
"p$	c #135D88",
"q$	c #CAE5EF",
"r$	c #0F6498",
"s$	c #1A74A8",
"t$	c #1670A4",
"u$	c #1571A8",
"v$	c #1870AA",
"w$	c #196BA5",
"x$	c #0F5C94",
"y$	c #17598D",
"z$	c #0F446D",
"A$	c #000211",
"B$	c #535D64",
"C$	c #0D3752",
"D$	c #2A83AF",
"E$	c #1E81B5",
"F$	c #1577AD",
"G$	c #126DA3",
"H$	c #1A6CA1",
"I$	c #1A6B9E",
"J$	c #1C6FA7",
"K$	c #0C5C97",
"L$	c #CBE8F6",
"M$	c #F8FDFD",
"N$	c #76ACC8",
"O$	c #135F88",
"P$	c #76ACC7",
"Q$	c #0C6198",
"R$	c #1B70A8",
"S$	c #186B9F",
"T$	c #176BA2",
"U$	c #196DA7",
"V$	c #106199",
"W$	c #115A90",
"X$	c #1E5B88",
"Y$	c #072140",
"Z$	c #5A5E67",
"`$	c #0C1F33",
" %	c #2A739E",
".%	c #1B7BAF",
"+%	c #177AB1",
"@%	c #116EA1",
"#%	c #116B9D",
"$%	c #166BA1",
"%%	c #1567A0",
"&%	c #0E6295",
"*%	c #799FBD",
"=%	c #E9FAFF",
"-%	c #3C799F",
";%	c #116295",
">%	c #3C799D",
",%	c #E6F9FF",
"'%	c #799EBC",
")%	c #126194",
"!%	c #146AA3",
"~%	c #1568A1",
"{%	c #17679F",
"]%	c #17639C",
"^%	c #0D5C96",
"/%	c #0F578E",
"(%	c #154A75",
"_%	c #0D1E30",
":%	c #3C414C",
"<%	c #092F4C",
"[%	c #2E80AF",
"}%	c #167BB1",
"|%	c #1476AD",
"1%	c #0F669E",
"2%	c #10649C",
"3%	c #14669E",
"4%	c #156596",
"5%	c #195682",
"6%	c #567CA2",
"7%	c #7898B9",
"8%	c #396995",
"9%	c #155C93",
"0%	c #1466A2",
"a%	c #7798B9",
"b%	c #557CA1",
"c%	c #1A5682",
"d%	c #176697",
"e%	c #12659D",
"f%	c #14649E",
"g%	c #16619B",
"h%	c #105B96",
"i%	c #0D5593",
"j%	c #1D5B8F",
"k%	c #021F3C",
"l%	c #3E464F",
"m%	c #101A24",
"n%	c #1D5472",
"o%	c #237AA8",
"p%	c #1576B1",
"q%	c #156EAB",
"r%	c #10629C",
"s%	c #106196",
"t%	c #146195",
"u%	c #116298",
"v%	c #12598E",
"w%	c #0A4B83",
"x%	c #115F9D",
"y%	c #10609F",
"z%	c #106399",
"A%	c #116297",
"B%	c #136298",
"C%	c #146098",
"D%	c #135B99",
"E%	c #0E5595",
"F%	c #19558C",
"G%	c #0F365B",
"H%	c #111725",
"I%	c #657270",
"J%	c #0C1B23",
"K%	c #296083",
"L%	c #2577AE",
"M%	c #1573AF",
"N%	c #156DA7",
"O%	c #116097",
"P%	c #0F5D96",
"Q%	c #0E6199",
"R%	c #145D96",
"S%	c #195D95",
"T%	c #106099",
"U%	c #0F5F96",
"V%	c #125F97",
"W%	c #185D95",
"X%	c #155D96",
"Y%	c #0D619A",
"Z%	c #0C5F99",
"`%	c #125D94",
" &	c #105A93",
".&	c #0F5693",
"+&	c #165790",
"@&	c #1A436A",
"#&	c #101727",
"$&	c #707477",
"%&	c #0E1724",
"&&	c #275A7D",
"*&	c #2276A5",
"=&	c #1572A9",
"-&	c #146CA6",
";&	c #0B5A91",
">&	c #105894",
",&	c #125795",
"'&	c #0F5991",
")&	c #12598F",
"!&	c #12568D",
"~&	c #145A90",
"{&	c #0F5890",
"]&	c #145897",
"^&	c #125794",
"/&	c #0C5992",
"(&	c #0E5B99",
"_&	c #105A96",
":&	c #0F5690",
"<&	c #1A598A",
"[&	c #164062",
"}&	c #0D1523",
"|&	c #3B4045",
"1&	c #3E4546",
"2&	c #101C26",
"3&	c #124464",
"4&	c #2673A3",
"5&	c #186FA6",
"6&	c #186CA2",
"7&	c #105F99",
"8&	c #0F5996",
"9&	c #10568D",
"0&	c #0E558D",
"a&	c #0F558E",
"b&	c #11558E",
"c&	c #13578F",
"d&	c #0F5594",
"e&	c #0D5A95",
"f&	c #0E5B92",
"g&	c #135895",
"h&	c #115590",
"i&	c #1E5B8B",
"j&	c #0A2D4B",
"k&	c #141D25",
"l&	c #454C4C",
"m&	c #89918F",
"n&	c #16212E",
"o&	c #011D3B",
"p&	c #17527D",
"q&	c #266C9B",
"r&	c #1F6C9B",
"s&	c #18689E",
"t&	c #16639D",
"u&	c #166097",
"v&	c #115D96",
"w&	c #0F5E96",
"x&	c #135E96",
"y&	c #135A92",
"z&	c #0E5893",
"A&	c #105D95",
"B&	c #165C8D",
"C&	c #1F5A8C",
"D&	c #13436F",
"E&	c #081F39",
"F&	c #18222C",
"G&	c #909593",
"H&	c #60646E",
"I&	c #242D40",
"J&	c #061D38",
"K&	c #154264",
"L&	c #1B5A85",
"M&	c #1B6399",
"N&	c #1C659B",
"O&	c #1A6694",
"P&	c #18658E",
"Q&	c #17628F",
"R&	c #195F95",
"S&	c #144E7C",
"T&	c #10395B",
"U&	c #021731",
"V&	c #151F32",
"W&	c #2A333D",
"X&	c #111E29",
"Y&	c #101927",
"Z&	c #192737",
"`&	c #0E2640",
" *	c #0A2A42",
".*	c #0C2E44",
"+*	c #0F2640",
"@*	c #1A2335",
"#*	c #0F1827",
"$*	c #17232D",
"                          . + @ # $ % &                         ",
"                      * = - ; > , ' ) ! ~ {                     ",
"                  ] ^ / ( _ : < [ } | 1 2 3 4 5 6               ",
"            7 8 9 0 a b c d e f g h i j k l m n o p q           ",
"            r s t u v w x y z A B C D E F G H I J K L           ",
"          M N O P Q R S T U V W X Y Z `  ...+.@.#.$.%.&.*.      ",
"      =.-.;.>.,.'.).!.~.{.].^./.(._.:.<.[.}.|.1.2.3.4.5.6.7.    ",
"      8.9.0.a.b.c.d.e.f.g.h.i.j.k.l.m.n.o.p.q.r.s.t.3.u.v.w.    ",
"    x.y.z.A.B.C.D.E.F.G.H.I.J.K.L.M.N.O.P.Q.R.S.T.U.V.W.X.Y.Z.  ",
"    `. +.+++C.@+#+$+%+&+*+=+-+;+>+;+,+N.'+)+!+~+{+]+^+/+(+_+:+  ",
"  <+[+}+|+1+2+3+4+5+6+7+8+9+0+a+b+c+d+e+e.f+g+h+i+j+k+l+m+n+o+  ",
"  p+q+r+s+t+u+v+w+x+y+z+A+B+C+D+E+D+F+B+G+H+I+J+K+L+M+N+O+P+Q+R+",
"S+T+U+V+W+X+Y+Z+`+ @.@+@@@#@$@%@&@*@=@#@-@;@>@,@d+'@)@!@~@{@]@^@",
"/@(@_@:@t+<@[@}@|@1@2@3@4@5@6@7@8@9@6@5@@@0@a@b@c@d@e@f@g@h@i@j@",
"k@l@m@n@o@p@q@r@s@t@u@v@w@x@6@y@z@y@6@x@6@A@B@C@D@E@F@G@H@I@J@K@",
"L@M@N@O@P@Q@R@S@T@U@V@W@6@X@6@Y@Z@Y@6@X@6@`@ #.#+#@###G@$#%#&#*#",
"=#-#;#>#,#'#)#!#~#{#]#^#6@/#6@(#_#(#6@/#6@:#<#[#}#|#1#2#3#4#5#6#",
"L@7#8#9#0#a#b#c#d#e#f#g#6@/#6@h#i#j#6@/#6@k#l#m#n#o#n#p#q#r#s#t#",
"u#v#w#x#y#z#A#B#C#D#E#F#w@G#6@H#I#H#-@G#6@F#J#K#L#M#N#O#P#Q#R#S#",
"T#U#V#W#X# #Y#Z#`# $.$+$6@@$6@#$$$#$6@@$6@%$E#&$*$=$-$;$>$,$'$)$",
"!$~${$]$^$/$($_$:$<$[$}$6@|$6@1$2$1$6@|$6@3$4$5$6$7$8$9$0$a$b$c$",
"  d$e$f$g$h$i$j$k$l$m$n$6@|$6@o$p$o$6@|$6@q$r$s$t$u$v$w$x$y$z$A$",
"  B$C$D$E$F$G$H$I$J$K$L$-@M$6@N$O$P$6@M$6@L$Q$R$S$T$U$V$W$X$Y$Z$",
"    `$ %.%+%@%#%$%%%&%*%-@6@=%-%;%>%,%6@6@'%)%!%~%{%]%^%/%(%_%  ",
"    :%<%[%}%|%1%2%3%4%5%6%7%8%9%0%9%8%a%b%c%d%e%f%g%h%i%j%k%l%  ",
"      m%n%o%p%q%r%s%t%u%v%w%x%y%y%y%x%w%v%z%A%B%C%D%E%F%G%H%    ",
"      I%J%K%L%M%N%O%P%Q%R%S%T%U%V%U%T%W%X%Y%Z%`% &.&+&@&#&$&    ",
"          %&&&*&=&-&2%;&>&,&'&)&!&~&{&]&^&/&(&_&:&<&[&}&|&      ",
"          1&2&3&4&5&6&>.7&8&9&0&a&b&c&d&e&f&g&h&i&j&k&l&        ",
"            m&n&o&p&q&r&s&t&u&v&w&x&y&z&A&B&C&D&E&F&G&          ",
"                H&I&J&K&L&M&N&O&P&Q&s#R&S&T&U&V&W&              ",
"                      X&Y&Z&`& *.* *+*@*#*$*                    "};
