/* XPM */
static char * Pause_Click_xpm[] = {
"32 32 734 2",
"  	c None",
". 	c #75797B",
"+ 	c #D4D6D5",
"@ 	c #EDEBE9",
"# 	c #FFFFFF",
"$ 	c #F5F1F0",
"% 	c #EBEAE9",
"& 	c #717477",
"* 	c #A0A7AD",
"= 	c #DBE2E6",
"- 	c #CDD6DB",
"; 	c #DDE8EC",
"> 	c #E0EDF1",
", 	c #E6F2F6",
"' 	c #E2EEF2",
") 	c #E0EBEF",
"! 	c #CAD3D8",
"~ 	c #DDE4E8",
"{ 	c #788088",
"] 	c #AFB2B6",
"^ 	c #9EB5C5",
"/ 	c #11517B",
"( 	c #005889",
"_ 	c #0673A4",
": 	c #007AAE",
"< 	c #0082B7",
"[ 	c #0087BC",
"} 	c #0082B8",
"| 	c #0078AD",
"1 	c #0771A3",
"2 	c #005688",
"3 	c #17557E",
"4 	c #9CB3C2",
"5 	c #A5AAAE",
"6 	c #697A7C",
"7 	c #90A1AD",
"8 	c #2D6991",
"9 	c #004F80",
"0 	c #1381AC",
"a 	c #1487B5",
"b 	c #1589BA",
"c 	c #1990C3",
"d 	c #1A91C9",
"e 	c #1890C7",
"f 	c #198FC7",
"g 	c #188DC1",
"h 	c #1686B8",
"i 	c #1585B4",
"j 	c #147BA9",
"k 	c #004D7C",
"l 	c #2F6992",
"m 	c #8BA1B2",
"n 	c #E7E7E7",
"o 	c #E3E0DC",
"p 	c #B4CCDA",
"q 	c #4586AC",
"r 	c #0369A0",
"s 	c #1C8ABA",
"t 	c #188EBB",
"u 	c #1D92C0",
"v 	c #1E8FC2",
"w 	c #1E8CC2",
"x 	c #208AC4",
"y 	c #1F88C2",
"z 	c #1D86C0",
"A 	c #1A84BC",
"B 	c #1A86BA",
"C 	c #1886B7",
"D 	c #147FB0",
"E 	c #197CB0",
"F 	c #116BA2",
"G 	c #00487C",
"H 	c #799AB0",
"I 	c #949EA2",
"J 	c #F8F8F9",
"K 	c #98B5C7",
"L 	c #004D83",
"M 	c #0D7CB7",
"N 	c #1F92C8",
"O 	c #2292C5",
"P 	c #208FC3",
"Q 	c #1F8DC2",
"R 	c #1E8BC0",
"S 	c #1F8AC0",
"T 	c #1D87C0",
"U 	c #1C85BE",
"V 	c #1C84BD",
"W 	c #1B83BA",
"X 	c #1A81B9",
"Y 	c #1981B8",
"Z 	c #1B80B7",
"` 	c #1C7FB8",
" .	c #147AB3",
"..	c #1577AF",
"+.	c #00427B",
"@.	c #7B99B2",
"#.	c #FEFDFD",
"$.	c #45585B",
"%.	c #EAE5E0",
"&.	c #265775",
"*.	c #045990",
"=.	c #258EC9",
"-.	c #2295CC",
";.	c #1E90C2",
">.	c #248DC0",
",.	c #238CC0",
"'.	c #208CBF",
").	c #1E8EBE",
"!.	c #1C8FBF",
"~.	c #1B92C1",
"{.	c #1A91BF",
"].	c #1B8FBE",
"^.	c #1C8BBC",
"/.	c #1B84B7",
"(.	c #197FB4",
"_.	c #1B7AB2",
":.	c #1C77B2",
"<.	c #187AAF",
"[.	c #157BB2",
"}.	c #1B77B5",
"|.	c #095290",
"1.	c #002C52",
"2.	c #E1E4E6",
"3.	c #969C99",
"4.	c #FFFFFD",
"5.	c #91B1C3",
"6.	c #0D679A",
"7.	c #2A93CE",
"8.	c #2292C9",
"9.	c #2090C2",
"0.	c #2192BF",
"a.	c #1F8DBC",
"b.	c #1E93C3",
"c.	c #1F98C6",
"d.	c #229BC9",
"e.	c #239DCC",
"f.	c #249ECB",
"g.	c #249ECA",
"h.	c #249CCA",
"i.	c #269BCB",
"j.	c #269ACA",
"k.	c #1F92C3",
"l.	c #1A88B9",
"m.	c #187EAF",
"n.	c #1778AB",
"o.	c #1677AF",
"p.	c #1577B3",
"q.	c #1A75B3",
"r.	c #185F94",
"s.	c #002B4E",
"t.	c #DCDEDD",
"u.	c #E4E1E1",
"v.	c #91A7B7",
"w.	c #2695CD",
"x.	c #1E92C9",
"y.	c #1E91C2",
"z.	c #1F91C1",
"A.	c #1C91C0",
"B.	c #2199C5",
"C.	c #209DCB",
"D.	c #1F9DCD",
"E.	c #209CCE",
"F.	c #1F9CCD",
"G.	c #1E9ACB",
"H.	c #1F9ACB",
"I.	c #209BCC",
"J.	c #219ACD",
"K.	c #239DCF",
"L.	c #249DCF",
"M.	c #239BCA",
"N.	c #1F94BF",
"O.	c #1881B5",
"P.	c #1475AD",
"Q.	c #1275AC",
"R.	c #1177AD",
"S.	c #1973AB",
"T.	c #0B4B80",
"U.	c #94A5B7",
"V.	c #E6E5E7",
"W.	c #F6F3F3",
"X.	c #175580",
"Y.	c #2689BF",
"Z.	c #1F94C9",
"`.	c #1F90BF",
" +	c #1B91C0",
".+	c #1F9CCA",
"++	c #1E9ACA",
"@+	c #1E98C9",
"#+	c #1F9ACC",
"$+	c #209BCE",
"%+	c #1F99CD",
"&+	c #1F98CE",
"*+	c #2099CE",
"=+	c #2099CD",
"-+	c #2098CB",
";+	c #1F98CB",
">+	c #1F9CCB",
",+	c #2396C9",
"'+	c #1E85B9",
")+	c #1474A7",
"!+	c #1272A5",
"~+	c #1471AB",
"{+	c #14629E",
"]+	c #265986",
"^+	c #B1B4B9",
"/+	c #838788",
"(+	c #88A1B4",
"_+	c #096193",
":+	c #2996C8",
"<+	c #1F91C3",
"[+	c #238EC2",
"}+	c #2191C1",
"|+	c #1E98C3",
"1+	c #1A96C5",
"2+	c #2093CB",
"3+	c #2293C5",
"4+	c #1E8DBC",
"5+	c #1C8ABB",
"6+	c #208EC1",
"7+	c #2293C8",
"8+	c #2193CA",
"9+	c #2292C8",
"0+	c #1F8DC0",
"a+	c #2193C7",
"b+	c #1E94CD",
"c+	c #2195C5",
"d+	c #2895C1",
"e+	c #207FB2",
"f+	c #176EA7",
"g+	c #136BA7",
"h+	c #196EA8",
"i+	c #00477A",
"j+	c #92A8B8",
"k+	c #EEEBE9",
"l+	c #80ADC5",
"m+	c #1B83B6",
"n+	c #2492C3",
"o+	c #1E8FC1",
"p+	c #218EC1",
"q+	c #1F91C5",
"r+	c #1D94C5",
"s+	c #1E94C4",
"t+	c #238FC2",
"u+	c #388DB2",
"v+	c #87BFD9",
"w+	c #A9D7F1",
"x+	c #66ABCC",
"y+	c #268EBD",
"z+	c #1A90C5",
"A+	c #65AACB",
"B+	c #88BED9",
"C+	c #378DB4",
"D+	c #2191C4",
"E+	c #2293C2",
"F+	c #2190C0",
"G+	c #2690C5",
"H+	c #1779B2",
"I+	c #106DA8",
"J+	c #166AA3",
"K+	c #216B9E",
"L+	c #0B3F68",
"M+	c #DEE1E4",
"N+	c #7D797B",
"O+	c #C7CED3",
"P+	c #005A8A",
"Q+	c #2F98C8",
"R+	c #1F8EBF",
"S+	c #208FC1",
"T+	c #1F8DBF",
"U+	c #1E8FC5",
"V+	c #1C91C5",
"W+	c #1E93C4",
"X+	c #1C85B3",
"Y+	c #94CCE4",
"Z+	c #FBFFFF",
"`+	c #F8FFFE",
" @	c #EFFFFF",
".@	c #54A7C8",
"+@	c #1E89B3",
"@@	c #54A7C7",
"#@	c #ECFFFF",
"$@	c #FEFFFF",
"%@	c #93CDE4",
"&@	c #1B87B8",
"*@	c #2291C3",
"=@	c #2190C5",
"-@	c #2289C0",
";@	c #1070AA",
">@	c #1368A1",
",@	c #226CA2",
"'@	c #034677",
")@	c #CCD2D6",
"!@	c #080B11",
"~@	c #BEC6CB",
"{@	c #1F7DAC",
"]@	c #2692C3",
"^@	c #1C8CBE",
"/@	c #1F8BBD",
"(@	c #1D8BC2",
"_@	c #1A8DC2",
":@	c #1C91C2",
"<@	c #187DAD",
"[@	c #C9F0F5",
"}@	c #F8FDFE",
"|@	c #FBFCFA",
"1@	c #80C0D7",
"2@	c #1C7C9D",
"3@	c #81C0D7",
"4@	c #C9F1F6",
"5@	c #1780B3",
"6@	c #228FC0",
"7@	c #1E8BBC",
"8@	c #1C8ABF",
"9@	c #258DC2",
"0@	c #1677B0",
"a@	c #1168A1",
"b@	c #1A679E",
"c@	c #105486",
"d@	c #A1AAB1",
"e@	c #969799",
"f@	c #D6DFE3",
"g@	c #1B82B4",
"h@	c #2392C6",
"i@	c #198CBE",
"j@	c #1C8CBD",
"k@	c #1E89BA",
"l@	c #1D89C0",
"m@	c #198AC0",
"n@	c #1B8DBF",
"o@	c #177AAB",
"p@	c #C8E8F2",
"q@	c #FDFFFF",
"r@	c #FBFCFC",
"s@	c #7DBBD5",
"t@	c #18799F",
"u@	c #C7E9F3",
"v@	c #177CAF",
"w@	c #1F8CBD",
"x@	c #1E8ABC",
"y@	c #1B88BD",
"z@	c #1E87BA",
"A@	c #1F82B9",
"B@	c #0C679E",
"C@	c #1969A1",
"D@	c #0A5287",
"E@	c #EEF2F6",
"F@	c #EBF4F7",
"G@	c #137FB3",
"H@	c #1F90C6",
"I@	c #1B8CBF",
"J@	c #1A87B8",
"K@	c #1E84B8",
"L@	c #1D84BC",
"M@	c #1986BD",
"N@	c #1B8ABE",
"O@	c #1576AA",
"P@	c #CFECF2",
"Q@	c #FCFCFE",
"R@	c #7DBCD9",
"S@	c #1976A1",
"T@	c #CEECF2",
"U@	c #1779AD",
"V@	c #2089BC",
"W@	c #1C86B9",
"X@	c #1A87BA",
"Y@	c #1D86B8",
"Z@	c #116BA3",
"`@	c #14659E",
" #	c #055087",
".#	c #DCE3E8",
"+#	c #E8F1F5",
"@#	c #1483B8",
"##	c #1C8EC4",
"$#	c #1787BA",
"%#	c #1883B5",
"&#	c #1E82B4",
"*#	c #1D81B9",
"=#	c #1983BA",
"-#	c #1A87BC",
";#	c #1674A7",
">#	c #CCE9F2",
",#	c #FCFCFD",
"'#	c #7CB8D5",
")#	c #18719E",
"!#	c #CBE9F2",
"~#	c #1677AA",
"{#	c #1F86B9",
"]#	c #1A83B4",
"^#	c #1984B5",
"/#	c #1C84B3",
"(#	c #1F82B8",
"_#	c #106DA4",
":#	c #10629A",
"<#	c #0A568D",
"[#	c #9CABB8",
"}#	c #E7F0F4",
"|#	c #0F7CB1",
"1#	c #1E8DC4",
"2#	c #1A87BB",
"3#	c #177EB2",
"4#	c #1E7EB0",
"5#	c #1C7DB6",
"6#	c #197FB6",
"7#	c #1A83B8",
"8#	c #146FA2",
"9#	c #CEEAF1",
"0#	c #7AB6D2",
"a#	c #19709F",
"b#	c #7AB5D2",
"c#	c #CDEAF1",
"d#	c #1572A6",
"e#	c #1D82B4",
"f#	c #1A7FB1",
"g#	c #1880B3",
"h#	c #1D7EB5",
"i#	c #146FA6",
"j#	c #0F6199",
"k#	c #075088",
"l#	c #AFBCC5",
"m#	c #EBF3F7",
"n#	c #147CAF",
"o#	c #228EC2",
"p#	c #1781B5",
"q#	c #177BAF",
"r#	c #1C79AE",
"s#	c #1B79B3",
"t#	c #187AB3",
"u#	c #1A7FB3",
"v#	c #136B9E",
"w#	c #CCE9F1",
"x#	c #F7FDFE",
"y#	c #76B4D4",
"z#	c #136B9D",
"A#	c #136EA2",
"B#	c #1E7DB1",
"C#	c #197BAE",
"D#	c #177CB0",
"E#	c #197BAF",
"F#	c #1C7AB2",
"G#	c #136BA3",
"H#	c #126199",
"I#	c #074E86",
"J#	c #DFE5E9",
"K#	c #343D41",
"L#	c #C8D2D6",
"M#	c #1B7CAB",
"N#	c #2088BA",
"O#	c #1980B3",
"P#	c #1B77AC",
"Q#	c #1A76B1",
"R#	c #1778B0",
"S#	c #1A7CAF",
"T#	c #126899",
"U#	c #CEE6F0",
"V#	c #F9FCFD",
"W#	c #7BB2CF",
"X#	c #146693",
"Y#	c #CCE7F1",
"Z#	c #1C7BAE",
"`#	c #1878AB",
" $	c #1778AF",
".$	c #1978AD",
"+$	c #1D76B0",
"@$	c #13669E",
"#$	c #145F95",
"$$	c #0B4E81",
"%$	c #BEC5CA",
"&$	c #74797B",
"*$	c #D0D8DC",
"=$	c #1372A0",
"-$	c #2287B9",
";$	c #1C80B4",
">$	c #1474A9",
",$	c #1A73A9",
"'$	c #1873AF",
")$	c #1575AD",
"!$	c #187AAB",
"~$	c #116695",
"{$	c #CDE5F0",
"]$	c #FBFCFD",
"^$	c #7CB0CB",
"/$	c #15628D",
"($	c #CDE4F0",
"_$	c #116799",
":$	c #1B78AB",
"<$	c #1775A9",
"[$	c #1675AD",
"}$	c #1874AC",
"|$	c #1A6FAB",
"1$	c #12609A",
"2$	c #175F94",
"3$	c #074678",
"4$	c #D4DADF",
"5$	c #C3CACE",
"6$	c #1A678B",
"7$	c #2687B8",
"8$	c #1C7FB2",
"9$	c #1473A9",
"0$	c #1770A7",
"a$	c #186EA9",
"b$	c #1670A6",
"c$	c #1975A9",
"d$	c #0F6194",
"e$	c #CCE4EF",
"f$	c #7BAECA",
"g$	c #135D88",
"h$	c #CAE5EF",
"i$	c #0F6498",
"j$	c #1A74A8",
"k$	c #1670A4",
"l$	c #1571A8",
"m$	c #1870AA",
"n$	c #196BA5",
"o$	c #0F5C94",
"p$	c #195B90",
"q$	c #13466E",
"r$	c #C6CBCF",
"s$	c #82878A",
"t$	c #B1CDDA",
"u$	c #0B6795",
"v$	c #2184B8",
"w$	c #1577AD",
"x$	c #126DA3",
"y$	c #1A6CA1",
"z$	c #1A6B9E",
"A$	c #1C6FA7",
"B$	c #0C5C97",
"C$	c #CBE8F6",
"D$	c #F8FDFD",
"E$	c #76ACC8",
"F$	c #135F88",
"G$	c #76ACC7",
"H$	c #0C6198",
"I$	c #1B70A8",
"J$	c #186B9F",
"K$	c #176BA2",
"L$	c #196DA7",
"M$	c #106199",
"N$	c #115A91",
"O$	c #003A6A",
"P$	c #A5B9C8",
"Q$	c #888A8E",
"R$	c #647482",
"S$	c #145F8B",
"T$	c #217FB4",
"U$	c #1679B0",
"V$	c #116EA1",
"W$	c #116B9D",
"X$	c #166BA1",
"Y$	c #1567A0",
"Z$	c #0E6295",
"`$	c #799FBD",
" %	c #E9FAFF",
".%	c #3C799F",
"+%	c #116295",
"@%	c #3C799D",
"#%	c #E6F9FF",
"$%	c #799EBC",
"%%	c #126194",
"&%	c #146AA3",
"*%	c #1568A1",
"=%	c #17679F",
"-%	c #17639C",
";%	c #0E5D97",
">%	c #09528A",
",%	c #3F6D92",
"'%	c #9AA3AC",
")%	c #EDE9E9",
"!%	c #9BB5C5",
"~%	c #126799",
"{%	c #1B7FB5",
"]%	c #1476AC",
"^%	c #0F669E",
"/%	c #10649C",
"(%	c #14669E",
"_%	c #156596",
":%	c #195682",
"<%	c #567CA2",
"[%	c #7898B9",
"}%	c #396995",
"|%	c #155C93",
"1%	c #1466A2",
"2%	c #7798B9",
"3%	c #557CA1",
"4%	c #1A5682",
"5%	c #176697",
"6%	c #12659D",
"7%	c #14649E",
"8%	c #16619B",
"9%	c #105B96",
"0%	c #115895",
"a%	c #0F4D83",
"b%	c #78828F",
"c%	c #8C9397",
"d%	c #FFFFFC",
"e%	c #88ADC1",
"f%	c #116B9B",
"g%	c #1878B3",
"h%	c #156EAB",
"i%	c #10629C",
"j%	c #106196",
"k%	c #146195",
"l%	c #116298",
"m%	c #12598E",
"n%	c #0A4B83",
"o%	c #115F9D",
"p%	c #10609F",
"q%	c #106399",
"r%	c #116297",
"s%	c #136298",
"t%	c #146098",
"u%	c #135B99",
"v%	c #0F5595",
"w%	c #19548C",
"x%	c #082F54",
"y%	c #979FA6",
"z%	c #5C6B6A",
"A%	c #9BA7A9",
"B%	c #286082",
"C%	c #2173AA",
"D%	c #1573AF",
"E%	c #156DA7",
"F%	c #116097",
"G%	c #0F5D96",
"H%	c #0E6199",
"I%	c #145D96",
"J%	c #195D95",
"K%	c #106099",
"L%	c #0F5F96",
"M%	c #125F97",
"N%	c #185D95",
"O%	c #155D96",
"P%	c #0D619A",
"Q%	c #0C5F99",
"R%	c #125D94",
"S%	c #105A93",
"T%	c #0F5793",
"U%	c #11518B",
"V%	c #0C365D",
"W%	c #E4E7EB",
"X%	c #A4A6A6",
"Y%	c #C7CCD0",
"Z%	c #25597C",
"`%	c #0E6496",
" &	c #1B77AE",
".&	c #136BA5",
"+&	c #0B5A91",
"@&	c #105894",
"#&	c #125795",
"$&	c #0F5991",
"%&	c #12598F",
"&&	c #12568D",
"*&	c #145A90",
"=&	c #0F5890",
"-&	c #145897",
";&	c #125794",
">&	c #0C5992",
",&	c #0E5B99",
"'&	c #0F5995",
")&	c #145B95",
"!&	c #074779",
"~&	c #164062",
"{&	c #C0C5CA",
"]&	c #636769",
"^&	c #414747",
"/&	c #A6B0B3",
"(&	c #80A3B9",
"_&	c #0D5B8E",
":&	c #1970A6",
"<&	c #186CA2",
"[&	c #16689D",
"}&	c #105F99",
"|&	c #0F5996",
"1&	c #10568D",
"2&	c #0E558D",
"3&	c #0F558E",
"4&	c #11558E",
"5&	c #13578F",
"6&	c #0F5594",
"7&	c #0D5A95",
"8&	c #0E5B92",
"9&	c #135996",
"0&	c #10548F",
"a&	c #054476",
"b&	c #7B96AB",
"c&	c #A1A8AB",
"d&	c #F9F8F5",
"e&	c #7C8686",
"f&	c #8DA4B5",
"g&	c #2A648E",
"h&	c #064D7E",
"i&	c #226F9D",
"j&	c #1E6EA4",
"k&	c #1C68A3",
"l&	c #1B649B",
"m&	c #115D96",
"n&	c #0F5E96",
"o&	c #135E97",
"p&	c #135A92",
"q&	c #135D98",
"r&	c #17649B",
"s&	c #185E8F",
"t&	c #00376C",
"u&	c #35628B",
"v&	c #768A9B",
"w&	c #8A9090",
"x&	c #FEFCFD",
"y&	c #8C9099",
"z&	c #A3B5C5",
"A&	c #1A4768",
"B&	c #084874",
"C&	c #0B548B",
"D&	c #0C568E",
"E&	c #15618F",
"F&	c #125F88",
"G&	c #115C8A",
"H&	c #135B92",
"I&	c #0B5088",
"J&	c #003A69",
"K&	c #194262",
"L&	c #99AAB9",
"M&	c #B1B6B9",
"N&	c #ADB0B2",
"O&	c #B2B6BA",
"P&	c #DADFE3",
"Q&	c #C6CBD0",
"R&	c #B9C2CA",
"S&	c #365368",
"T&	c #3D5E71",
"U&	c #3C5A6F",
"V&	c #293F58",
"W&	c #B7BCC4",
"X&	c #DEE2E5",
"Y&	c #8E9398",
"                          . + @ # $ % &                         ",
"                      * = - ; > , ' ) ! ~ {                     ",
"                  ] ^ / ( _ : < [ } | 1 2 3 4 5 #               ",
"            6 # 7 8 9 0 a b c d e f g h i j k l m # n           ",
"            o p q r s t u v w x y z A B C D E F G H I           ",
"          J K L M N O P Q R S T U V W X Y Z `  ...+.@.#.#       ",
"      $.%.&.*.=.-.;.>.,.'.).!.~.{.].^./.(._.:.<.[.}.|.1.2.3.    ",
"      4.5.6.7.8.9.0.a.b.c.d.e.f.g.h.i.j.k.l.m.n.o.p.q.r.s.t.    ",
"    u.v.9 w.x.y.z.A.B.C.D.E.F.G.H.I.J.K.L.M.N.O.P.Q.R.S.T.U.V.  ",
"    W.X.Y.Z.y.`. +.+++@+#+$+%+&+*+&+=+J.-+;+>+,+'+)+!+~+{+]+^+  ",
"  /+(+_+:+<+[+}+|+1+2+3+4+5+6+7+8+9+0+s a.a+b+c+d+e+f+g+h+i+j+  ",
"  k+l+m+n+o+p+q+r+s+t+u+v+w+x+y+z+y+A+w+B+C+D+E+F+G+H+I+J+K+L+M+",
"N+O+P+Q+R+S+T+U+V+W+X+Y+Z+`+ @.@+@@@#@`+$@%@&@*@0+=@-@;@>@,@'@)@",
"!@~@{@]@o+^@/@(@_@:@<@[@}@|@# 1@2@3@# |@Z+4@5@6@7@8@9@0@a@b@c@d@",
"e@f@g@h@i@j@k@l@m@n@o@p@q@r@# s@t@s@# r@# u@v@w@x@y@z@A@B@C@D@E@",
"# F@G@H@I@J@K@L@M@N@O@P@# Q@# R@S@R@# Q@# T@U@V@W@X@Y@A@Z@`@ #.#",
"# +#@###$#%#&#*#=#-#;#>## ,## '#)#'## ,## !#~#{#]#^#/#(#_#:#<#[#",
"4.}#|#1#2#3#4#5#6#7#8#9## ,## 0#a#b## ,## c#d#e#f#g#f#h#i#j#k#l#",
"# m#n#o#p#q#r#s#t#u#v#w#q@x## y#z#y#$@x## w#A#B#C#D#E#F#G#H#I#J#",
"K#L#M#N#O#U@P#Q#R#S#T#U## V## W#X#W## V## Y#v#Z#`# $.$+$@$#$$$%$",
"&$*$=$-$;$>$,$'$)$!$~${$# ]$# ^$/$^$# ]$# ($_$:$<$[$}$|$1$2$3$4$",
"  5$6$7$8$9$0$a$b$c$d$e$# ]$# f$g$f$# ]$# h$i$j$k$l$m$n$o$p$q$r$",
"  s$t$u$v$w$x$y$z$A$B$C$$@D$# E$F$G$# D$# C$H$I$J$K$L$M$N$O$P$Q$",
"    R$S$T$U$V$W$X$Y$Z$`$$@#  %.%+%@%#%# # $%%%&%*%=%-%;%>%,%'%  ",
"    )%!%~%{%]%^%/%(%_%:%<%[%}%|%1%|%}%2%3%4%5%6%7%8%9%0%a%b%c%  ",
"      d%e%f%g%h%i%j%k%l%m%n%o%p%p%p%o%n%m%q%r%s%t%u%v%w%x%y%    ",
"      z%A%B%C%D%E%F%G%H%I%J%K%L%M%L%K%N%O%P%Q%R%S%T%U%V%W%X%    ",
"          Y%Z%`% &.&/%+&@&#&$&%&&&*&=&-&;&>&,&'&)&!&~&{&]&      ",
"          ^&/&(&_&:&<&[&}&|&1&2&3&4&5&6&7&8&9&0&a&b&c&d&        ",
"            e&# f&g&h&i&j&k&l&m&n&o&p&q&r&s&t&u&v&# w&          ",
"                x&y&z&A&B&C&D&E&F&G&H&I&J&K&L&M&N&              ",
"                      O&P&Q&R&S&T&U&V&W&X&Y&                    "};
