/* XPM */
static char * Previous_Hoverl_xpm[] = {
"32 32 757 2",
"  	c None",
". 	c #C4C8C8",
"+ 	c #9A9CA0",
"@ 	c #62729D",
"# 	c #708FF1",
"$ 	c #7393FA",
"% 	c #7696FF",
"& 	c #7595FE",
"* 	c #536EAF",
"= 	c #555C64",
"- 	c #9A9B9F",
"; 	c #B6BBC0",
"> 	c #6373A0",
", 	c #35669F",
"' 	c #135D7F",
") 	c #0F6C8F",
"! 	c #11769A",
"~ 	c #13769B",
"{ 	c #106B8F",
"] 	c #135B7E",
"^ 	c #134A6A",
"/ 	c #7493FB",
"( 	c #6273A1",
"_ 	c #B1BABF",
": 	c #525D64",
"< 	c #174771",
"[ 	c #176A95",
"} 	c #0F75A4",
"| 	c #0E7DAF",
"1 	c #0E86B9",
"2 	c #0E8DC3",
"3 	c #0C90C7",
"4 	c #0D90C7",
"5 	c #0E8CC2",
"6 	c #1185BA",
"7 	c #117CAF",
"8 	c #1273A3",
"9 	c #1A6792",
"0 	c #596B93",
"a 	c #C1C6C8",
"b 	c #AFB5B6",
"c 	c #5670B6",
"d 	c #155A85",
"e 	c #136B9B",
"f 	c #117DAA",
"g 	c #1389B5",
"h 	c #198DBC",
"i 	c #198DBF",
"j 	c #1E8FC7",
"k 	c #1A8BC3",
"l 	c #198AC2",
"m 	c #1A8AC2",
"n 	c #1584B9",
"o 	c #1685B6",
"p 	c #1280AF",
"q 	c #1276A5",
"r 	c #156697",
"s 	c #145584",
"t 	c #15385A",
"u 	c #B2B6B7",
"v 	c #848888",
"w 	c #6684DF",
"x 	c #688CEB",
"y 	c #0F6495",
"z 	c #1079B0",
"A 	c #1E8DC1",
"B 	c #1F90C2",
"C 	c #1E90C2",
"D 	c #1F8EC2",
"E 	c #1F8DC2",
"F 	c #1E88C0",
"G 	c #2189C3",
"H 	c #2087C2",
"I 	c #1C83BD",
"J 	c #1C85BC",
"K 	c #1B85BA",
"L 	c #1781B6",
"M 	c #197FB5",
"N 	c #197CB4",
"O 	c #106FA5",
"P 	c #0E5C8D",
"Q 	c #124569",
"R 	c #6683DF",
"S 	c #86898B",
"T 	c #A4ABAD",
"U 	c #14689A",
"V 	c #1981BA",
"W 	c #2092C9",
"X 	c #2190C4",
"Y 	c #228EC1",
"Z 	c #228EC2",
"` 	c #1E8CC0",
" .	c #1D8BBF",
"..	c #1C8BBF",
"+.	c #1A8ABE",
"@.	c #1987BC",
"#.	c #1B87BC",
"$.	c #1A83B8",
"%.	c #1A80B6",
"&.	c #1C80B7",
"*.	c #1D7DB6",
"=.	c #197AB4",
"-.	c #167AB2",
";.	c #1471AC",
">.	c #165E95",
",.	c #133A5E",
"'.	c #A8ABAB",
").	c #B1B9BA",
"!.	c #546EB4",
"~.	c #186C9E",
"{.	c #238CC6",
"].	c #2394CB",
"^.	c #1D90C1",
"/.	c #2291C1",
"(.	c #218EBF",
"_.	c #1F90C3",
":.	c #2094C4",
"<.	c #2297C6",
"[.	c #229AC8",
"}.	c #229CC8",
"|.	c #2299C7",
"1.	c #2298C6",
"2.	c #2394C4",
"3.	c #1F8DBF",
"4.	c #1983B7",
"5.	c #197CB1",
"6.	c #1B7BB0",
"7.	c #177AAE",
"8.	c #1779B4",
"9.	c #1771B0",
"0.	c #165B92",
"a.	c #124165",
"b.	c #6987E3",
"c.	c #B3B8B8",
"d.	c #425271",
"e.	c #126A9A",
"f.	c #2091C8",
"g.	c #2191C4",
"h.	c #2192C1",
"i.	c #1F91BF",
"j.	c #2096C4",
"k.	c #1F9BC9",
"l.	c #219CCC",
"m.	c #229ECD",
"n.	c #219DCC",
"o.	c #219CCA",
"p.	c #239DCB",
"q.	c #239BCB",
"r.	c #259CCD",
"s.	c #2196C7",
"t.	c #1E8FBD",
"u.	c #1880B0",
"v.	c #1678AE",
"w.	c #1677AF",
"x.	c #1375B1",
"y.	c #166FA8",
"z.	c #175C8E",
"A.	c #495981",
"B.	c #145A87",
"C.	c #228DC3",
"D.	c #1E91C7",
"E.	c #1F93C4",
"F.	c #1E91C0",
"G.	c #1D95C4",
"H.	c #1F9BC8",
"I.	c #209CCA",
"J.	c #1F9BCB",
"K.	c #1F9ACD",
"L.	c #1F9ACE",
"M.	c #209BCF",
"N.	c #209ACD",
"O.	c #209ACC",
"P.	c #2199CC",
"Q.	c #209BC9",
"R.	c #1C86BC",
"S.	c #1677AD",
"T.	c #1375A9",
"U.	c #1272A9",
"V.	c #166AA4",
"W.	c #5B81DB",
"X.	c #9599A1",
"Y.	c #3F4553",
"Z.	c #247CAD",
"`.	c #2192C6",
" +	c #2190C1",
".+	c #1F92C0",
"++	c #1C98C5",
"@+	c #1D98CA",
"#+	c #2097CA",
"$+	c #2098C8",
"%+	c #2098CA",
"&+	c #2197CA",
"*+	c #2196CC",
"=+	c #2297CC",
"-+	c #2196CB",
";+	c #2198C9",
">+	c #2198CA",
",+	c #2098CD",
"'+	c #2594C5",
")+	c #1E82B4",
"!+	c #1573A7",
"~+	c #166FA9",
"{+	c #186EAA",
"]+	c #186094",
"^+	c #0C375D",
"/+	c #546493",
"(+	c #E7E6E4",
"_+	c #7292F8",
":+	c #1D6A95",
"<+	c #268EBC",
"[+	c #1F93C2",
"}+	c #2090C2",
"|+	c #2391C7",
"1+	c #2193C5",
"2+	c #2692BC",
"3+	c #3A96BF",
"4+	c #479EC6",
"5+	c #3495BA",
"6+	c #2591C3",
"7+	c #2392C6",
"8+	c #2193C7",
"9+	c #2092C7",
"0+	c #2491C6",
"a+	c #2192C7",
"b+	c #2093C5",
"c+	c #2393BF",
"d+	c #2D90BB",
"e+	c #3F98C3",
"f+	c #429AC5",
"g+	c #2E91BB",
"h+	c #258FC1",
"i+	c #1D81B9",
"j+	c #116FA7",
"k+	c #146CA4",
"l+	c #19689C",
"m+	c #155580",
"n+	c #AFB1B0",
"o+	c #7A7A7F",
"p+	c #2684B1",
"q+	c #2191BD",
"r+	c #1E92BF",
"s+	c #1E8FC2",
"t+	c #1E8DC6",
"u+	c #228EC5",
"v+	c #499DC2",
"w+	c #A2D7E8",
"x+	c #C1E9F1",
"y+	c #98D5E7",
"z+	c #308EBF",
"A+	c #228CC2",
"B+	c #2091C4",
"C+	c #1E91C3",
"D+	c #2391C4",
"E+	c #2590BD",
"F+	c #2C8BAF",
"G+	c #72B6D2",
"H+	c #B4DFEC",
"I+	c #B1E1EF",
"J+	c #55A4C6",
"K+	c #2290C3",
"L+	c #1D8FC5",
"M+	c #1078AC",
"N+	c #126EA2",
"O+	c #1A679B",
"P+	c #1C5F92",
"Q+	c #7B7B7D",
"R+	c #4C5F8D",
"S+	c #4873BC",
"T+	c #2691C3",
"U+	c #2090C1",
"V+	c #208FBF",
"W+	c #1D8EBF",
"X+	c #288CBC",
"Y+	c #7FBBD0",
"Z+	c #E2FFFF",
"`+	c #F5FFFE",
" @	c #EBFFFE",
".@	c #5AA7D6",
"+@	c #278CC0",
"@@	c #1B8FBB",
"#@	c #1992BB",
"$@	c #1A8FBC",
"%@	c #2A8FBC",
"&@	c #68ABCA",
"*@	c #B8DFEE",
"=@	c #ECFEFF",
"-@	c #F3FFFF",
";@	c #E7FFFF",
">@	c #80BBD1",
",@	c #268BBA",
"'@	c #1F8EBF",
")@	c #1C83B5",
"!@	c #116EA2",
"~@	c #15679E",
"{@	c #18649C",
"]@	c #10395D",
"^@	c #39404B",
"/@	c #5875C6",
"(@	c #1A6086",
"_@	c #2091C7",
":@	c #1E8EC2",
"<@	c #228BBF",
"[@	c #1C8CBC",
"}@	c #1C8DBB",
"|@	c #2887B2",
"1@	c #8DBBCF",
"2@	c #EEFFFF",
"3@	c #FDFFFB",
"4@	c #F4FFFD",
"5@	c #63ABD3",
"6@	c #2688B9",
"7@	c #1D8AB9",
"8@	c #238BB4",
"9@	c #4694B4",
"0@	c #91C8DC",
"a@	c #DCF4FB",
"b@	c #F6FFFF",
"c@	c #FAFFFF",
"d@	c #FDFEFD",
"e@	c #EFFFFF",
"f@	c #89BCCF",
"g@	c #2089BA",
"h@	c #2185B8",
"i@	c #1673A7",
"j@	c #11669F",
"k@	c #1464A0",
"l@	c #14466C",
"m@	c #516CB4",
"n@	c #216D91",
"o@	c #1D8EC4",
"p@	c #208BC1",
"q@	c #2288BD",
"r@	c #1C8ABB",
"s@	c #1988B6",
"t@	c #2986B2",
"u@	c #90B9CD",
"v@	c #F3FEFF",
"w@	c #FFFEFD",
"x@	c #F2FEFF",
"y@	c #61A8CC",
"z@	c #2C83AC",
"A@	c #4390B4",
"B@	c #80B9D2",
"C@	c #DFF8FF",
"D@	c #F5FFFF",
"E@	c #FCFDFF",
"F@	c #FFFDFC",
"G@	c #FFFEFB",
"H@	c #F1FFFF",
"I@	c #8CBCCE",
"J@	c #2A84AF",
"K@	c #1F85B5",
"L@	c #2286B8",
"M@	c #1B77AB",
"N@	c #10649E",
"O@	c #12649F",
"P@	c #144A71",
"Q@	c #6482DE",
"R@	c #287194",
"S@	c #1F8CC1",
"T@	c #1F89BF",
"U@	c #1F85BA",
"V@	c #1985B8",
"W@	c #1987B9",
"X@	c #2381AF",
"Y@	c #8DBBCE",
"Z@	c #FEFEFF",
"`@	c #64A5C8",
" #	c #5A9CBB",
".#	c #C0E3EC",
"+#	c #EBFCFE",
"@#	c #FAFFFD",
"##	c #FBFFFE",
"$#	c #FCFEFF",
"%#	c #FFFCFE",
"&#	c #FFFDFD",
"*#	c #FFFEFE",
"=#	c #F0FFFF",
"-#	c #89BACE",
";#	c #247FAE",
">#	c #1E84B7",
",#	c #2083B7",
"'#	c #1E79AE",
")#	c #11649E",
"!#	c #10609B",
"~#	c #194D73",
"{#	c #7291F7",
"]#	c #287292",
"^#	c #1E89BF",
"/#	c #1F88BF",
"(#	c #1B80B7",
"_#	c #1782B7",
":#	c #1683B7",
"<#	c #227FAF",
"[#	c #8AB7CC",
"}#	c #F2FFFF",
"|#	c #8BB3CC",
"1#	c #C9E4ED",
"2#	c #F4FFFF",
"3#	c #F9FFFE",
"4#	c #F9FEF9",
"5#	c #FAFEFC",
"6#	c #FEFEFE",
"7#	c #F8FEFF",
"8#	c #FCFFFF",
"9#	c #85B7CC",
"0#	c #227DAF",
"a#	c #1A81B6",
"b#	c #1E80B6",
"c#	c #1F79B1",
"d#	c #10619C",
"e#	c #105F9A",
"f#	c #1A4C72",
"g#	c #246F90",
"h#	c #1B8BC0",
"i#	c #1F89C0",
"j#	c #1B7DB6",
"k#	c #157EB5",
"l#	c #157FB3",
"m#	c #217BAB",
"n#	c #8CB5CB",
"o#	c #F3FEFD",
"p#	c #7FAAC4",
"q#	c #BCDAE6",
"r#	c #F9FDFF",
"s#	c #FEFDFD",
"t#	c #FDFDFB",
"u#	c #FBFEFE",
"v#	c #FEFEFC",
"w#	c #F8FFFA",
"x#	c #FCFEFE",
"y#	c #86B6CA",
"z#	c #227AAB",
"A#	c #1A7EB3",
"B#	c #1B7CB4",
"C#	c #1D77B0",
"D#	c #10629D",
"E#	c #0F5D9A",
"F#	c #184B71",
"G#	c #6582DD",
"H#	c #5C7ACA",
"I#	c #22698B",
"J#	c #1A88BC",
"K#	c #1979B1",
"L#	c #167BB2",
"M#	c #167BAF",
"N#	c #2376A6",
"O#	c #8EB3C8",
"P#	c #FEFFFB",
"Q#	c #F2FFFE",
"R#	c #659BBF",
"S#	c #3D739A",
"T#	c #9ABCD5",
"U#	c #DEEDF7",
"V#	c #FAFCFC",
"W#	c #FCFFFC",
"X#	c #FDFFFA",
"Y#	c #FDFEF9",
"Z#	c #87B4C8",
"`#	c #2177A6",
" $	c #197BAE",
".$	c #1A79B0",
"+$	c #1B73AC",
"@$	c #0E5E9A",
"#$	c #105D9A",
"$$	c #13446B",
"%$	c #516CB3",
"&$	c #4C618F",
"*$	c #225D7E",
"=$	c #1B84B6",
"-$	c #1C85B8",
";$	c #1677AC",
">$	c #1977AB",
",$	c #2473A3",
"'$	c #8BB2C6",
")$	c #FEFFFC",
"!$	c #F3FEFE",
"~$	c #619DC4",
"{$	c #2470A2",
"]$	c #2872A2",
"^$	c #5088AF",
"/$	c #BFD5E2",
"($	c #F2FCFE",
"_$	c #F9FEFC",
":$	c #FEFEFB",
"<$	c #86B2C6",
"[$	c #1F75A4",
"}$	c #1878AC",
"|$	c #1975AB",
"1$	c #1A6EA6",
"2$	c #105C97",
"3$	c #125A96",
"4$	c #30568E",
"5$	c #4E5F8C",
"6$	c #797D82",
"7$	c #2682B0",
"8$	c #1C83B1",
"9$	c #177CAD",
"0$	c #1572A6",
"a$	c #1C71A8",
"b$	c #216F9F",
"c$	c #83B2C7",
"d$	c #FFFEFC",
"e$	c #F6FEFE",
"f$	c #5A98C6",
"g$	c #1B71A9",
"h$	c #1374AA",
"i$	c #1972A2",
"j$	c #276893",
"k$	c #5D8CB1",
"l$	c #C0DBE7",
"m$	c #EFFAFD",
"n$	c #FFFDFE",
"o$	c #83B1C6",
"p$	c #1B71A0",
"q$	c #1674A8",
"r$	c #1971A7",
"s$	c #16659B",
"t$	c #145B92",
"u$	c #16578E",
"v$	c #7A7A7E",
"w$	c #AEB0B4",
"x$	c #7292F9",
"y$	c #2C7CA4",
"z$	c #1F80B2",
"A$	c #177DB2",
"B$	c #1372A7",
"C$	c #176EA4",
"D$	c #1E6C9F",
"E$	c #6CA2BD",
"F$	c #E9FEFF",
"G$	c #EEFEFE",
"H$	c #4383B2",
"I$	c #146DA8",
"J$	c #1271AA",
"K$	c #1770A3",
"L$	c #1C6DA0",
"M$	c #1D69A0",
"N$	c #3474A3",
"O$	c #76A2BC",
"P$	c #E9F7FE",
"Q$	c #FBFFFF",
"R$	c #79A7BE",
"S$	c #1B6B9C",
"T$	c #186FA6",
"U$	c #186BA3",
"V$	c #136098",
"W$	c #135790",
"X$	c #195285",
"Y$	c #E5E5EA",
"Z$	c #526491",
"`$	c #4E7BC2",
" %	c #257FAC",
".%	c #177CB3",
"+%	c #1573AB",
"@%	c #156BA1",
"#%	c #1969A0",
"$%	c #286B9A",
"%%	c #6E9EBF",
"&%	c #9CC2D4",
"*%	c #6393B2",
"=%	c #1E6698",
"-%	c #146AA5",
";%	c #136CA6",
">%	c #176A9E",
",%	c #176A9F",
"'%	c #136DA8",
")%	c #1169A5",
"!%	c #1A6497",
"~%	c #37698A",
"{%	c #87ACC5",
"]%	c #85B0C8",
"^%	c #34719B",
"/%	c #1C699E",
"(%	c #186AA3",
"_%	c #14639E",
":%	c #105993",
"<%	c #185487",
"[%	c #244B7C",
"}%	c #536493",
"|%	c #E4E5E5",
"1%	c #8E969C",
"2%	c #247392",
"3%	c #1B7DAE",
"4%	c #1A75AE",
"5%	c #196AA3",
"6%	c #13649C",
"7%	c #16679D",
"8%	c #136096",
"9%	c #155E93",
"0%	c #186297",
"a%	c #15659D",
"b%	c #1468A1",
"c%	c #14669D",
"d%	c #18679B",
"e%	c #17689D",
"f%	c #12669D",
"g%	c #1267A2",
"h%	c #1668A1",
"i%	c #196399",
"j%	c #166096",
"k%	c #155E96",
"l%	c #19639B",
"m%	c #17669D",
"n%	c #12669E",
"o%	c #0F609C",
"p%	c #115790",
"q%	c #1D4C73",
"r%	c #91999F",
"s%	c #4B5B80",
"t%	c #2179A4",
"u%	c #1778AD",
"v%	c #1B6FA8",
"w%	c #1B659C",
"x%	c #126299",
"y%	c #11659F",
"z%	c #1063A0",
"A%	c #12639E",
"B%	c #12629C",
"C%	c #14629A",
"D%	c #18649A",
"E%	c #166295",
"F%	c #166296",
"G%	c #166499",
"H%	c #14649D",
"I%	c #12619C",
"J%	c #1363A0",
"K%	c #1063A2",
"L%	c #1162A1",
"M%	c #17639D",
"N%	c #116097",
"O%	c #0D5F99",
"P%	c #075692",
"Q%	c #175489",
"R%	c #4B5B7E",
"S%	c #B4B3B8",
"T%	c #556EB7",
"U%	c #3870A8",
"V%	c #2079A8",
"W%	c #1873A8",
"X%	c #1C6DA4",
"Y%	c #165F96",
"Z%	c #135F97",
"`%	c #145F99",
" &	c #14619A",
".&	c #125F98",
"+&	c #136097",
"@&	c #135F96",
"#&	c #146197",
"$&	c #146199",
"%&	c #105E97",
"&&	c #15619B",
"*&	c #145E98",
"=&	c #155D96",
"-&	c #176096",
";&	c #105C96",
">&	c #0D5B97",
",&	c #11558C",
"'&	c #12446B",
")&	c #546DB6",
"!&	c #B5B8BA",
"~&	c #A3A7AF",
"{&	c #6684E1",
"]&	c #537CCA",
"^&	c #1E76A2",
"/&	c #1773A7",
"(&	c #1B6AA5",
"_&	c #16609B",
":&	c #135B95",
"<&	c #105A92",
"[&	c #105B94",
"}&	c #115C94",
"|&	c #105B95",
"1&	c #125C95",
"2&	c #125A93",
"3&	c #125B93",
"4&	c #135992",
"5&	c #155C94",
"6&	c #0F598F",
"7&	c #125891",
"8&	c #145389",
"9&	c #133F64",
"0&	c #0E1F31",
"a&	c #A6AEB2",
"b&	c #80828C",
"c&	c #6784E1",
"d&	c #2D689A",
"e&	c #1A729F",
"f&	c #176FA8",
"g&	c #196AAB",
"h&	c #1461A2",
"i&	c #105D99",
"j&	c #0E5992",
"k&	c #105B93",
"l&	c #0E5890",
"m&	c #0E5993",
"n&	c #105992",
"o&	c #115890",
"p&	c #115992",
"q&	c #0E5A94",
"r&	c #0E5A96",
"s&	c #0E5A95",
"t&	c #125990",
"u&	c #185384",
"v&	c #5074C3",
"w&	c #6684E0",
"x&	c #828A90",
"y&	c #ABB2B7",
"z&	c #566FB8",
"A&	c #1C6188",
"B&	c #1F689E",
"C&	c #1C67A3",
"D&	c #1967A0",
"E&	c #0E5F9C",
"F&	c #0D5D99",
"G&	c #0E5B96",
"H&	c #0E5995",
"I&	c #0F5C98",
"J&	c #0D5A96",
"K&	c #0F5A94",
"L&	c #145B93",
"M&	c #14598F",
"N&	c #195688",
"O&	c #5177C9",
"P&	c #576EB6",
"Q&	c #4E5863",
"R&	c #1D476C",
"S&	c #266088",
"T&	c #226491",
"U&	c #19629A",
"V&	c #16649F",
"W&	c #14629C",
"X&	c #155F96",
"Y&	c #165D96",
"Z&	c #135D98",
"`&	c #115C96",
" *	c #155A91",
".*	c #1C5685",
"+*	c #547AC9",
"@*	c #575A63",
"#*	c #B6B6BA",
"$*	c #565B62",
"%*	c #698CEC",
"&*	c #6487E3",
"**	c #5E82DA",
"=*	c #7392F8",
"-*	c #595E67",
";*	c #B7BBC2",
">*	c #BDC6C6",
",*	c #8F9B9F",
"'*	c #50585E",
")*	c #516AA7",
"!*	c #6583DF",
"~*	c #7291F8",
"{*	c #415175",
"]*	c #595C61",
"^*	c #959CA0",
"                    . + @ # $ % & $ * = -                       ",
"                ; > & % , ' ) ! ~ { ] ^ % / ( _                 ",
"              : % < [ } | 1 2 3 4 5 6 7 8 9 % % 0 a             ",
"          b c % d e f g h i j k l m n o p q r s t c u           ",
"        v w x y z A B C D E F G H I J K L M N O P Q R S         ",
"      T w % U V W X Y Z `  ...+.@.#.$.%.&.*.=.-.;.>.,.$ '.      ",
"    ).!.x ~.{.].^./.(._.:.<.[.}.|.1.2.3.4.5.6.7.8.9.0.a.b.c.    ",
"    d.% e.{.f.g.h.i.j.k.l.m.n.o.p.q.r.r.s.t.u.v.w.x.y.z.% A.    ",
"    % B.C.D.E.F.G.H.I.J.K.K.K.L.M.N.N.O.P.Q.j.R.S.T.U.V.W.% X.  ",
"  Y.% Z.`.`. +.+++@+#+$+%+&+*+=+-+*+&+;+>+,+#+'+)+!+~+{+]+^+/+(+",
"  _+:+<+[+}+|+1+2+3+4+5+6+7+8+9+0+a+b+c+d+e+f+g+h+i+j+k+l+m+_+n+",
"o+% p+q+r+s+t+u+v+w+x+y+z+A+B+C+D+_.E+F+G+H+I+J+K+L+M+N+O+P+% Q+",
"R+S+T+U+V+W+_.X+Y+Z+`+ @.@+@@@#@$@%@&@*@=@-@;@>@,@'@)@!@~@{@]@^@",
"/@(@_@:@<@[@}@|@1@2@3@4@5@6@7@8@9@0@a@b@c@d@e@f@|@g@h@i@j@k@l@m@",
"$ n@o@p@q@r@s@t@u@v@w@x@y@z@A@B@C@D@E@F@G@G@H@I@J@K@L@M@N@O@P@Q@",
"& R@S@T@U@V@W@X@Y@v@Z@x@`@ #.#+#@###$#%#&#*#=#-#;#>#,#'#)#!#~#{#",
"& ]#^#/#(#_#:#<#[#}#Z@D@|#1#2#3#4#5#6#%#7#8#e@9#0#a#b#c#d#e#f#{#",
"$ g#h#i#j#k#l#m#n#v@3@o#p#q#r#s#t#u#u#v#w#x#H@y#z#A#B#C#D#E#F#G#",
"H#I#J#R.K#L#M#N#O#2#P#Q#R#S#T#U#$#V#W#X#Y#G@2#Z#`# $.$+$@$#$$$%$",
"&$*$=$-$ $;$>$,$'$2#)$!$~${$]$^$/$($@#_$:$G@2#<$[$}$|$1$2$3$4$5$",
"6$% 7$8$9$0$a$b$c$=#d$e$f$g$h$i$j$k$l$m$6#n$}#o$p$q$r$s$t$u$% v$",
"w$x$y$z$A$B$C$D$E$F$##G$H$I$J$K$L$M$N$O$P$Q$=#R$S$T$U$V$W$X$_+  ",
"Y$Z$`$ %.%+%@%#%$%%%&%*%=%-%;%>%,%'%)%!%~%{%]%^%/%(%_%:%<%[%}%|%",
"  1%% 2%3%4%5%6%7%8%9%0%a%b%c%d%e%f%g%h%i%j%k%l%m%n%o%p%q%% r%  ",
"    s%% t%u%v%w%x%y%z%A%B%C%D%E%F%G%H%I%J%K%L%M%N%O%P%Q%% R%    ",
"    S%T%U%V%W%X%Y%j%Z%`% &.&+&@&#&$&%&&& &*&=&-&;&>&,&'&)&!&    ",
"      ~&{&]&^&/&(&_&:&<&[&}&[&|&|&[&1&2&3&4&5&6&7&8&9&0&a&      ",
"        b&c&d&e&f&g&h&i&j&k&l&m&m&n&o&p&q&r&s&t&u&v&w&x&        ",
"          y&z&% A&B&C&D&_%E&F&G&H&I&J&K&L&M&N&O&% P&            ",
"              Q&% R&S&T&U&V&W&X&Y&Z&`& *.*+*% % @*              ",
"                #*$*_+% % % %*&***% % % % =*-*;*                ",
"                    >*,*'*)*!*% ~*!*{*]*^*                      "};
