/* XPM */
static char *Self_SMPDlg_XPM[]={
/* Self_SMPDlg */
"32 32 819 2",
"      c None",
" 0    c #C3C9C8",
" 1    c #969EA0",
" 2    c #565D64",
" 3    c #293B46",
" 4    c #062432",
" 5    c #041F2E",
" 6    c #041D2F",
" 7    c #072334",
" 8    c #283A48",
" 9    c #555B65",
" a    c #979DA1",
" b    c #C3C8C8",
" c    c #B6BBC0",
" d    c #585F6A",
" e    c #192D42",
" f    c #02314D",
" g    c #134D6C",
" h    c #135D7E",
" i    c #116B8E",
" j    c #147598",
" k    c #16759A",
" l    c #126A8F",
" m    c #125B7F",
" n    c #114A6C",
" o    c #032F4E",
" p    c #182D43",
" q    c #57606B",
" r    c #B1BABF",
" s    c #C0C8C7",
" t    c #525D64",
" u    c #061C36",
" v    c #0E3F63",
" w    c #186995",
" x    c #1073A4",
" y    c #0C7FAE",
" z    c #0B88B8",
" A    c #0B8EC1",
" B    c #0D90C6",
" C    c #0E8FC6",
" D    c #0D8DC1",
" E    c #0F86BA",
" F    c #107DB0",
" G    c #1471A3",
" H    c #1C6692",
" I    c #0E3E61",
" J    c #061E3A",
" K    c #4E5A66",
" L    c #C1C6C8",
" M    c #AFB5B6",
" N    c #1F2F38",
" O    c #0B314A",
" P    c #155A85",
" Q    c #136B9B",
" R    c #137CAA",
" S    c #1687B5",
" T    c #188EBC",
" U    c #168FBD",
" V    c #1B91C5",
" W    c #198CC2",
" X    c #188BC1",
" Y    c #188CC1",
" Z    c #1485B7",
" &    c #1685B4",
"0     c #167FAD",
"00    c #1575A4",
"01    c #156697",
"02    c #145584",
"03    c #0F324F",
"04    c #202E39",
"05    c #B0B4B5",
"06    c #848888",
"07    c #101F2B",
"08    c #0F4A6B",
"09    c #0F6495",
"0a    c #1079B0",
"0b    c #1E8DC1",
"0c    c #1E90C2",
"0d    c #1F8DC2",
"0e    c #1C88C0",
"0f    c #1D8BC2",
"0g    c #1C89C0",
"0h    c #1B84BB",
"0i    c #1F84BC",
"0j    c #1D83BA",
"0k    c #1981B4",
"0l    c #197FB5",
"0m    c #197CB4",
"0n    c #106FA5",
"0o    c #0E5C8D",
"0p    c #124569",
"0q    c #111D2C",
"0r    c #838688",
"0s    c #A4ABAD",
"0t    c #0E202B",
"0u    c #10405F",
"0v    c #14689A",
"0w    c #1981BA",
"0x    c #2092C9",
"0y    c #2190C4",
"0z    c #208EC3",
"0A    c #1E8EC3",
"0B    c #1F8CC1",
"0C    c #1F8AC1",
"0D    c #1C8CBF",
"0E    c #188BBD",
"0F    c #1788BD",
"0G    c #1B87BB",
"0H    c #1C81B8",
"0I    c #1C7FB6",
"0J    c #1B81B6",
"0K    c #1D7DB6",
"0L    c #197AB4",
"0M    c #167AB2",
"0N    c #1471AC",
"0O    c #165E95",
"0P    c #133A5E",
"0Q    c #101D2C",
"0R    c #A6A9A9",
"0S    c #B1B9BA",
"0T    c #192932",
"0U    c #0E4A6B",
"0V    c #186C9E",
"0W    c #238CC6",
"0X    c #2394CB",
"0Y    c #1D90C1",
"0Z    c #2291C1",
"0&    c #1E8EBE",
"1     c #1C90C1",
"10    c #2094C5",
"11    c #2295C6",
"12    c #2497C8",
"13    c #2499CA",
"14    c #2598C9",
"15    c #2496C8",
"16    c #2492C6",
"17    c #1F8DC1",
"18    c #1784B8",
"19    c #177CB2",
"1a    c #1B7BB0",
"1b    c #177AAE",
"1c    c #1779B4",
"1d    c #1771B0",
"1e    c #165B92",
"1f    c #124165",
"1g    c #192630",
"1h    c #B3B8B8",
"1i    c #333F48",
"1j    c #0A314A",
"1k    c #126A9A",
"1l    c #2091C8",
"1m    c #2191C4",
"1n    c #2192C1",
"1o    c #1F91BF",
"1p    c #2196C5",
"1q    c #229CCB",
"1r    c #1F9BC9",
"1s    c #269DCC",
"1t    c #279ACC",
"1u    c #2999CD",
"1v    c #259ACD",
"1w    c #249DCF",
"1x    c #239DCF",
"1y    c #2098C9",
"1z    c #1D8FBE",
"1A    c #1880B0",
"1B    c #1678AE",
"1C    c #1677AF",
"1D    c #1375B1",
"1E    c #166FA8",
"1F    c #175C8E",
"1G    c #0A2946",
"1H    c #37404C",
"1I    c #9698A0",
"1J    c #051E3A",
"1K    c #145A87",
"1L    c #228DC3",
"1M    c #1E91C7",
"1N    c #1F93C4",
"1O    c #1E91C0",
"1P    c #1D95C4",
"1Q    c #1F9BC8",
"1R    c #239BC9",
"1S    c #2497C7",
"1T    c #239AC9",
"1U    c #239BCC",
"1V    c #2198C9",
"1W    c #2397CB",
"1X    c #2499CE",
"1Y    c #219ACD",
"1Z    c #1E9ACD",
"1&    c #1F9ACD",
"2     c #2299CD",
"20    c #209AC9",
"21    c #2096C4",
"22    c #1C86BC",
"23    c #1677AD",
"24    c #1375A9",
"25    c #1272A9",
"26    c #166AA4",
"27    c #154C7C",
"28    c #061A39",
"29    c #9599A1",
"2a    c #3F4553",
"2b    c #0B3F64",
"2c    c #247CAD",
"2d    c #2192C6",
"2e    c #2190C1",
"2f    c #1F92C0",
"2g    c #1C98C5",
"2h    c #1D98CA",
"2i    c #2396C8",
"2j    c #2793C2",
"2k    c #2896C4",
"2l    c #2593C3",
"2m    c #2597C8",
"2n    c #2297C9",
"2o    c #2097CA",
"2p    c #2197CA",
"2q    c #2296CA",
"2r    c #2396CB",
"2s    c #2098CD",
"2t    c #2594C5",
"2u    c #1E82B4",
"2v    c #1573A7",
"2w    c #166FA9",
"2x    c #186EAA",
"2y    c #186094",
"2z    c #0C375D",
"2A    c #414855",
"2B    c #E7E6E4",
"2C    c #0A2338",
"2D    c #1B6B97",
"2E    c #278EBF",
"2F    c #2091C3",
"2G    c #218FC2",
"2H    c #2290C3",
"2I    c #2094C4",
"2J    c #1D96C4",
"2K    c #2094C6",
"2L    c #3191BE",
"2M    c #70B8D4",
"2N    c #A3E2FA",
"2O    c #87C9E1",
"2P    c #479BBF",
"2Q    c #2E91BC",
"2R    c #2493C4",
"2S    c #2192C4",
"2T    c #2192C5",
"2U    c #1D94C6",
"2V    c #1D95CA",
"2W    c #1E95C8",
"2X    c #2095C4",
"2Y    c #258FBD",
"2Z    c #2381B7",
"2&    c #176BA9",
"3     c #176AA7",
"30    c #1B679D",
"31    c #16557F",
"32    c #0B1F34",
"33    c #ADB2B3",
"34    c #7A7A7F",
"35    c #012D48",
"36    c #2484B4",
"37    c #258FC0",
"38    c #2191C3",
"39    c #208FC0",
"3a    c #1F90C3",
"3b    c #1D94C4",
"3c    c #2192C2",
"3d    c #4E9CBE",
"3e    c #C8E9F0",
"3f    c #F1FFFF",
"3g    c #EDFEFF",
"3h    c #BEE4F0",
"3i    c #77B7D3",
"3j    c #338AB7",
"3k    c #288DBF",
"3l    c #2092C3",
"3m    c #1B93C4",
"3n    c #1A94C6",
"3o    c #1C93C3",
"3p    c #1C92C4",
"3q    c #1E93C7",
"3r    c #2193C0",
"3s    c #268CC1",
"3t    c #1972B1",
"3u    c #176AA9",
"3v    c #1A679D",
"3w    c #1D5F90",
"3x    c #052640",
"3y    c #777D80",
"3z    c #383E46",
"3A    c #134967",
"3B    c #2990C0",
"3C    c #228FC0",
"3D    c #1E8FC1",
"3E    c #1F8DBF",
"3F    c #1D8EC4",
"3G    c #1B90C1",
"3H    c #1E8EBF",
"3I    c #5AA1C1",
"3J    c #DCF2F8",
"3K    c #F9FFFF",
"3L    c #FEFDFD",
"3M    c #FCFEFE",
"3N    c #F5FFFF",
"3O    c #BBDDEE",
"3P    c #6AAAC7",
"3Q    c #2D8EB6",
"3R    c #208BBB",
"3S    c #258CC2",
"3T    c #248BBF",
"3U    c #208CC0",
"3V    c #208CC3",
"3W    c #1E8EBA",
"3X    c #208CBB",
"3Y    c #1E84BA",
"3Z    c #0F6EA8",
"3&    c #1566A3",
"4     c #19639C",
"40    c #11395C",
"41    c #39404B",
"42    c #13232E",
"43    c #1F5F7F",
"44    c #258FC2",
"45    c #1E8EC0",
"46    c #1C8DBF",
"47    c #1E8BBD",
"48    c #1E8BBF",
"49    c #1C8CC2",
"4a    c #198DBF",
"4b    c #1C8BBD",
"4c    c #59A0C1",
"4d    c #D9F1F8",
"4e    c #FDFEFE",
"4f    c #FFFCFA",
"4g    c #FEFEFB",
"4h    c #FAFFFE",
"4i    c #F4FFFF",
"4j    c #DCF6FB",
"4k    c #98CBDC",
"4l    c #4A95B6",
"4m    c #2984B2",
"4n    c #2487B7",
"4o    c #2089BE",
"4p    c #1B87C2",
"4q    c #1D8BBA",
"4r    c #1F8BBA",
"4s    c #1D87BA",
"4t    c #1174AB",
"4u    c #1265A3",
"4v    c #15649E",
"4w    c #144568",
"4x    c #15252E",
"4y    c #031624",
"4z    c #256C8E",
"4A    c #1F8DC3",
"4B    c #1B8DC1",
"4C    c #1B8CBD",
"4D    c #1D88BA",
"4E    c #1E87BB",
"4F    c #1C87BF",
"4G    c #1989BC",
"4H    c #579DC1",
"4I    c #DAF1F8",
"4J    c #FCFEFD",
"4K    c #FDFEFB",
"4L    c #FAFEFE",
"4M    c #FAFDFE",
"4N    c #DDFCFF",
"4O    c #88BBD1",
"4P    c #4891B3",
"4Q    c #2686B8",
"4R    c #1E88C1",
"4S    c #1D87B7",
"4T    c #1E87B7",
"4U    c #1679AC",
"4V    c #12629F",
"4W    c #13639E",
"4X    c #144B6D",
"4Y    c #02151C",
"4Z    c #061929",
"4&    c #267196",
"5     c #1C8DC3",
"50    c #198BC0",
"51    c #1988BA",
"52    c #1C85B6",
"53    c #1F83B8",
"54    c #1C85BC",
"55    c #1986BA",
"56    c #1B85BA",
"57    c #579BC0",
"58    c #DCF0F8",
"59    c #FBFDFF",
"5a    c #FFFDFD",
"5b    c #FFFEFF",
"5c    c #FEFDFF",
"5d    c #FDFEFF",
"5e    c #F6FEFE",
"5f    c #F6FFFF",
"5g    c #F0F9FD",
"5h    c #C4E2EB",
"5i    c #579FC8",
"5j    c #2382B6",
"5k    c #1F83B6",
"5l    c #2184B6",
"5m    c #1F84B5",
"5n    c #197BAD",
"5o    c #14629F",
"5p    c #115F9B",
"5q    c #194E72",
"5r    c #05131E",
"5s    c #071A29",
"5t    c #267297",
"5u    c #1A8BC1",
"5v    c #1A8ABF",
"5w    c #1783B6",
"5x    c #1B81B3",
"5y    c #1E7FB4",
"5z    c #1B80B8",
"5A    c #1981B7",
"5B    c #5898BB",
"5C    c #E0F0F6",
"5D    c #FEFFFF",
"5E    c #FFFDFE",
"5F    c #FFFEFE",
"5G    c #FFFDFF",
"5H    c #FEFFFD",
"5I    c #FDFFFD",
"5J    c #FEFDFE",
"5K    c #FDFCFF",
"5L    c #CFEFF9",
"5M    c #4C98BE",
"5N    c #237EAD",
"5O    c #217EB3",
"5P    c #1A7CAF",
"5Q    c #10619C",
"5R    c #125E9D",
"5S    c #1B4A78",
"5T    c #071027",
"5U    c #071C2B",
"5V    c #256D91",
"5W    c #1C8AC0",
"5X    c #1D8ABF",
"5Y    c #1780B4",
"5Z    c #1A7DB0",
"5&    c #1D7CB3",
"6     c #1B7CB6",
"60    c #187EB3",
"61    c #1A7DB2",
"62    c #5696B8",
"63    c #DDF0F6",
"64    c #FDFFFF",
"65    c #FEFFFC",
"66    c #FEFFFA",
"67    c #FDFFFB",
"68    c #FDFCFD",
"69    c #FCFDFE",
"6a    c #FCFFFE",
"6b    c #FCFEFC",
"6c    c #FEFEFF",
"6d    c #D4F2FB",
"6e    c #4B99BA",
"6f    c #1F7DAB",
"6g    c #1C7AB0",
"6h    c #1C7DB4",
"6i    c #187AAE",
"6j    c #10629B",
"6k    c #105D98",
"6l    c #194A75",
"6m    c #051127",
"6n    c #152C36",
"6o    c #256888",
"6p    c #1E87BA",
"6q    c #1D86BA",
"6r    c #157BAF",
"6s    c #1A7AAE",
"6t    c #1C78B0",
"6u    c #1A79B3",
"6v    c #177AAF",
"6w    c #1979AE",
"6x    c #5494B7",
"6y    c #DBEFF7",
"6z    c #FDFFFE",
"6A    c #FFFEFA",
"6B    c #FEFFF9",
"6C    c #FCFFFB",
"6D    c #FDFCFE",
"6E    c #F6FEFF",
"6F    c #F1FEFF",
"6G    c #CFE7EE",
"6H    c #649FBA",
"6I    c #2079A2",
"6J    c #157CAA",
"6K    c #187BB1",
"6L    c #1979B2",
"6M    c #1675AA",
"6N    c #0E5F95",
"6O    c #125E93",
"6P    c #134666",
"6Q    c #0E2530",
"6R    c #35444B",
"6S    c #235E7B",
"6T    c #1E83B4",
"6U    c #1E84B7",
"6V    c #187BAF",
"6W    c #1976AB",
"6X    c #1B75AE",
"6Y    c #1976B1",
"6Z    c #1778AC",
"6&    c #1877AA",
"7     c #5590B4",
"70    c #DDEFF7",
"71    c #FFFDFB",
"72    c #FFFFFD",
"73    c #FEFCFF",
"74    c #F7FFFE",
"75    c #EBFFFF",
"76    c #95B7CD",
"77    c #4983A3",
"78    c #21729D",
"79    c #1975A8",
"7a    c #147AAB",
"7b    c #167AB0",
"7c    c #1875B0",
"7d    c #186FA7",
"7e    c #115C91",
"7f    c #145B8D",
"7g    c #143F5A",
"7h    c #324347",
"7i    c #787D82",
"7j    c #10425C",
"7k    c #2384B3",
"7l    c #1D81B3",
"7m    c #187AAF",
"7n    c #1672A8",
"7o    c #1971AA",
"7p    c #1772AC",
"7q    c #1574A7",
"7r    c #1773A7",
"7s    c #558DB0",
"7t    c #DFEEF5",
"7u    c #FBFDFC",
"7v    c #EDF5FC",
"7w    c #A7C5D5",
"7x    c #4B81A2",
"7y    c #206A99",
"7z    c #1A72A5",
"7A    c #186FA9",
"7B    c #206FAD",
"7C    c #1872A6",
"7D    c #1473A8",
"7E    c #1872AE",
"7F    c #1564A2",
"7G    c #175994",
"7H    c #19568C",
"7I    c #0B2A48",
"7J    c #777B84",
"7K    c #AEB0B4",
"7L    c #0B2E42",
"7M    c #287DA7",
"7N    c #2080B1",
"7O    c #1A7CB1",
"7P    c #1371A8",
"7Q    c #196FA6",
"7R    c #196DA4",
"7S    c #196FA3",
"7T    c #5289B0",
"7U    c #DEEDF4",
"7V    c #FCFDFF",
"7W    c #FEFCFE",
"7X    c #F8FFFF",
"7Y    c #CBE2EF",
"7Z    c #6F96B5",
"7&    c #2C6A94",
"8     c #1D6C9A",
"80    c #146FA3",
"81    c #1270AA",
"82    c #186FAB",
"83    c #1B6CA6",
"84    c #196DA2",
"85    c #1670A6",
"86    c #176CA8",
"87    c #13609B",
"88    c #15568D",
"89    c #1D527F",
"8a    c #0D2038",
"8b    c #E5E5EA",
"8c    c #3E4654",
"8d    c #1E5A7C",
"8e    c #267EAE",
"8f    c #197CB2",
"8g    c #1474AA",
"8h    c #136DA0",
"8i    c #186DA0",
"8j    c #1869A0",
"8k    c #1569A2",
"8l    c #427FA9",
"8m    c #CAE3EC",
"8n    c #F5FEFF",
"8o    c #F8FEFF",
"8p    c #D4E2EB",
"8q    c #82A4C0",
"8r    c #245D8C",
"8s    c #1C6396",
"8t    c #1A6A9F",
"8u    c #14699D",
"8v    c #146DA3",
"8w    c #126BA3",
"8x    c #156CA4",
"8y    c #176AA2",
"8z    c #176AA1",
"8A    c #1868A2",
"8B    c #13639D",
"8C    c #0E5B93",
"8D    c #165686",
"8E    c #153E61",
"8F    c #404654",
"8G    c #E4E5E5",
"8H    c #8F959E",
"8I    c #0C2B48",
"8J    c #25709D",
"8K    c #1B7BB1",
"8L    c #1778AD",
"8M    c #106CA0",
"8N    c #11699E",
"8O    c #1468A0",
"8P    c #13689D",
"8Q    c #226991",
"8R    c #71A0B9",
"8S    c #C4E7F7",
"8T    c #98BACA",
"8U    c #417090",
"8V    c #1F5F8C",
"8W    c #15659B",
"8X    c #16679E",
"8Y    c #19679A",
"8Z    c #196598",
"8&    c #17669B",
"9     c #15679A",
"90    c #13689E",
"91    c #1368A1",
"92    c #16669F",
"93    c #16639B",
"94    c #105C97",
"95    c #0F5892",
"96    c #164E7B",
"97    c #07203B",
"98    c #919A9F",
"99    c #344550",
"9a    c #194360",
"9b    c #2377A5",
"9c    c #1879B0",
"9d    c #1265A1",
"9e    c #11639A",
"9f    c #146498",
"9g    c #156193",
"9h    c #165F90",
"9i    c #0E5280",
"9j    c #165B88",
"9k    c #186192",
"9l    c #136398",
"9m    c #0E659E",
"9n    c #106199",
"9o    c #14649C",
"9p    c #14629C",
"9q    c #13639A",
"9r    c #13649A",
"9s    c #14639B",
"9t    c #15609B",
"9u    c #125B99",
"9v    c #105592",
"9w    c #195389",
"9x    c #0F2D4C",
"9y    c #37434E",
"9z    c #AEB7B6",
"9A    c #1B2C36",
"9B    c #236080",
"9C    c #2374A6",
"9D    c #1774B1",
"9E    c #146DA9",
"9F    c #126096",
"9G    c #156097",
"9H    c #165F96",
"9I    c #18619B",
"9J    c #135E99",
"9K    c #135F9B",
"9L    c #11619A",
"9M    c #10619A",
"9N    c #116098",
"9O    c #136098",
"9P    c #156096",
"9Q    c #116097",
"9R    c #116197",
"9S    c #145F96",
"9T    c #115B96",
"9U    c #115896",
"9V    c #175389",
"9W    c #184169",
"9X    c #1B2534",
"9Y    c #B5B8BB",
"9Z    c #9FAAA7",
"9&    c #12212F",
"a     c #255475",
"a0    c #2270A2",
"a1    c #1773AA",
"a2    c #166CA5",
"a3    c #11639C",
"a4    c #115C96",
"a5    c #135994",
"a6    c #115895",
"a7    c #125999",
"a8    c #125B9B",
"a9    c #115897",
"aa    c #135A95",
"ab    c #135A92",
"ac    c #115B91",
"ad    c #125B90",
"ae    c #115C92",
"af    c #0E5C97",
"ag    c #0F5D98",
"ah    c #115A94",
"ai    c #11578F",
"aj    c #175485",
"ak    c #163C5E",
"al    c #111B2D",
"am    c #A9ACB1",
"an    c #808385",
"ao    c #132130",
"ap    c #20587A",
"aq    c #1F6F9E",
"ar    c #176FA7",
"as    c #166CA4",
"at    c #12639B",
"au    c #125D97",
"av    c #105892",
"aw    c #125994",
"ax    c #105693",
"ay    c #105894",
"az    c #115890",
"aA    c #12588E",
"aB    c #12588D",
"aC    c #115991",
"aD    c #0D5A95",
"aE    c #0D5997",
"aF    c #105895",
"aG    c #135892",
"aH    c #175383",
"aI    c #174061",
"aJ    c #111E2B",
"aK    c #848A8C",
"aL    c #AAB3B2",
"aM    c #1F2C38",
"aN    c #123654",
"aO    c #1D5F8C",
"aP    c #1F699B",
"aQ    c #1C689C",
"aR    c #19679E",
"aS    c #13649B",
"aT    c #105F97",
"aU    c #105C91",
"aV    c #105B8C",
"aW    c #105A89",
"aX    c #125C8F",
"aY    c #105992",
"aZ    c #105995",
"a&    c #145A99",
"b     c #165692",
"b0    c #1A568B",
"b1    c #154A78",
"b2    c #0E2943",
"b3    c #222C36",
"b4    c #C0C5C8",
"b5    c #4D5864",
"b6    c #061C39",
"b7    c #143E63",
"b8    c #256189",
"b9    c #1F6593",
"ba    c #156599",
"bb    c #12669D",
"bc    c #126499",
"bd    c #116193",
"be    c #116093",
"bf    c #0E5F98",
"bg    c #0E5C98",
"bh    c #1C558B",
"bi    c #1E4F7C",
"bj    c #0F3256",
"bk    c #041934",
"bl    c #525C67",
"bm    c #B2B7BE",
"bn    c #555B66",
"bo    c #182838",
"bp    c #07293F",
"bq    c #143E5E",
"br    c #14456B",
"bs    c #174B71",
"bt    c #1A4C72",
"bu    c #184D73",
"bv    c #104972",
"bw    c #11446B",
"bx    c #123858",
"by    c #082239",
"bz    c #1B2838",
"bA    c #5A5F67",
"bB    c #B6BCC1",
"bC    c #BDC6C6",
"bD    c #93999C",
"bE    c #52575F",
"bF    c #2C3541",
"bG    c #0F182A",
"bH    c #071023",
"bI    c #051025",
"bJ    c #081A2E",
"bK    c #293845",
"bL    c #575D62",
"bM    c #999C96",
"bN    c #C5C7C0",
"                     0 1 2 3 4 5 6 7 8 9 a b                    ",
"                 c d e f g h i j k l m n o p q r                ",
"             s t u v w x y z A B C D E F G H I J K L            ",
"           M N O P Q R S T U V W X Y Z &0 000102030405          ",
"        060708090a0b0c0c0d0d0e0f0g0h0i0j0k0l0m0n0o0p0q0r        ",
"      0s0t0u0v0w0x0y0z0A0B0C0D0E0F0G0H0I0J0K0L0M0N0O0P0Q0R      ",
"    0S0T0U0V0W0X0Y0Z0&1 101112131415161718191a1b1c1d1e1f1g1h    ",
"    1i1j1k0W1l1m1n1o1p1q1r1q1s1t1u1v1w1x1y1z1A1B1C1D1E1F1G1H    ",
"  1I1J1K1L1M1N1O1P1Q1R1S1T1U1V1W1X1Y1Z1&2 20212223242526272829  ",
"  2a2b2c2d2d2e2f2g2h2i2j2k2l2m2n2o2o2p2q2r2s2o2t2u2v2w2x2y2z2A2B",
"  2C2D2E2F2G2H2I2J2K2L2M2N2O2P2Q2R2S2T102U2V2W2X2Y2Z2&3 30313233",
"3435363738393a1M3b3c3d3e3f3g3h3i3j3k3l3m3n3o3p3q3r3s3t3u3v3w3x3y",
"3z3A3B3C3D3E0B3F3G3H3I3J3K3L3M3N3O3P3Q3R3S3T3U3V3W3X3Y3Z3&4 4041",
"42434445464748494a4b4c4d4e4f4g4h4i4j4k4l4m4n4o4p4q4r4s4t4u4v4w4x",
"4y4z4A4B4C4D4E4F4G0G4H4I4J4f4K4h4L4M3f4N4O4P4Q4R4s4S4T4U4V4W4X4Y",
"4Z4&5 505152535455565758595a5a5b5c5d5e5f5g5h5i5j5k5l5m5n5o5p5q5r",
"5s5t5u5v5w5x5y5z5A0J5B5C5D5E5F5b5G5E5H5I5J5K5L5M5N5O5y5P5Q5R5S5T",
"5U5V5W5X5Y5Z5&6 6061626364656667685E696a6b6c6d6e6f6g6h6i6j6k6l6m",
"6n6o6p6q6r6s6t6u6v6w6x6y6z6A6B6C5b6D6a6E6F6G6H6I6J6K6L6M6N6O6P6Q",
"6R6S6T6U6V6W6X6Y6Z6&7 705D717264736D7475767778797a7b7c7d7e7f7g7h",
"7i7j7k7l7m7n7o7p7q7r7s7t646z6z6z7u7v7w7x7y7z7A7B7C7D7E7F7G7H7I7J",
"7K7L7M7N7O7P7Q7R7S7d7T7U7V7W6c7X7Y7Z7&8 808182838485868788898a  ",
"8b8c8d8e8f8g8h8i8j8k8l8m8n8o8p8q8r8s8t8u8v8w8x8y8z8A8B8C8D8E8F8G",
"  8H8I8J8K8L8M8N8O8P8Q8R8S8T8U8V8W8X8Y8Z8&9 909192939495969798  ",
"    999a9b9c0N9d9e9f9g9h9i9j9k9l9m9m9n9o9p9q9r9s9t9u9v9w9x9y    ",
"    9z9A9B9C9D9E9e9F9G9H9I9J9K879L9M9N9O9P9Q9R9S9T9U9V9W9X9Y    ",
"      9Z9&a a0a1a2a3a4a5a6a7a8a9aaabacadaeafagahaiajakalam      ",
"        anaoapaqarasatauavawaxayazaAaBaCaDaEaFaGaHaIaJaK        ",
"          aLaMaNaOaPaQaRaSaTaUaVaWaXaYaZa&b b0b1b2b3            ",
"            b4b5b6b7b8b9babbbcbdbebfbgaabhbibjbkbl              ",
"                bmbnbobpbqbrbsbtbubvbwbxbybzbAbB                ",
"                    bCbDbEbFbGbHbIbJbKbLbMbN                    "};

