/* XPM */
static char *SMPDlg_NextButton_XPM[]={
/* SMPDlg_NextButton */
"32 32 629 2",
"      c None",
" 0    c #80AED0",
" 1    c #1066A7",
" 2    c #005CA1",
" 3    c #307BB3",
" 4    c #005BA1",
" 5    c #01549B",
" 6    c #014F97",
" 7    c #024F97",
" 8    c #035098",
" 9    c #045199",
" a    c #055299",
" b    c #1777B8",
" c    c #238CCA",
" d    c #248DCB",
" e    c #258DCC",
" f    c #258ECC",
" g    c #268ECC",
" h    c #2D92CE",
" i    c #4CA1D4",
" j    c #5AA8D7",
" k    c #57A6D6",
" l    c #4FA2D4",
" m    c #3D97CD",
" n    c #1A7DBD",
" o    c #0462A6",
" p    c #01599F",
" q    c #014C95",
" r    c #014B93",
" s    c #024B93",
" t    c #024C94",
" u    c #034D95",
" v    c #044D96",
" w    c #054E96",
" x    c #054F97",
" y    c #1771B3",
" z    c #2E98D5",
" A    c #2F99D5",
" B    c #309AD5",
" C    c #329BD6",
" D    c #339BD6",
" E    c #45A4DA",
" F    c #70B9E3",
" G    c #95CCEB",
" H    c #97CCEA",
" I    c #90C9E9",
" J    c #59ABDB",
" K    c #0A6BAE",
" L    c #014D95",
" M    c #024C95",
" N    c #034E96",
" O    c #044E96",
" P    c #044F97",
" Q    c #055098",
" R    c #065199",
" S    c #075299",
" T    c #1366AA",
" U    c #349CD7",
" V    c #359DD7",
" W    c #369ED8",
" X    c #379ED8",
" Y    c #43A4DA",
" Z    c #83C3E7",
" &    c #98CDEB",
"0     c #5BACDB",
"00    c #01569D",
"01    c #024D96",
"02    c #034E97",
"03    c #034F97",
"04    c #045098",
"05    c #055198",
"06    c #065299",
"07    c #07539A",
"08    c #08549B",
"09    c #09559B",
"0a    c #0D5CA1",
"0b    c #389FD9",
"0c    c #3AA0D9",
"0d    c #3BA0D9",
"0e    c #3CA1DA",
"0f    c #399FD9",
"0g    c #399FD8",
"0h    c #7FC1E6",
"0i    c #93CAEA",
"0j    c #1B7EBD",
"0k    c #286DAA",
"0l    c #3472AC",
"0m    c #3472AD",
"0n    c #3372AD",
"0o    c #3373AD",
"0p    c #3373AE",
"0q    c #3272AE",
"0r    c #55A9DB",
"0s    c #5AB0E0",
"0t    c #5AB1E1",
"0u    c #5BB1E1",
"0v    c #5AB0E1",
"0w    c #59B0E0",
"0x    c #57AFE0",
"0y    c #56AEE0",
"0z    c #54ADDF",
"0A    c #52ACDE",
"0B    c #4FABDE",
"0C    c #56ADDE",
"0D    c #A1D2ED",
"0E    c #A4D3EE",
"0F    c #4DA0D2",
"0G    c #2B6DAA",
"0H    c #3675AE",
"0I    c #3775AE",
"0J    c #3876AF",
"0K    c #3977B0",
"0L    c #3A78B1",
"0M    c #3B79B2",
"0N    c #3C7AB2",
"0O    c #3D7BB3",
"0P    c #3E7CB3",
"0Q    c #5AA6D6",
"0R    c #66B6E3",
"0S    c #68B7E3",
"0T    c #69B8E4",
"0U    c #6AB9E4",
"0V    c #67B7E3",
"0W    c #65B6E3",
"0X    c #63B5E2",
"0Y    c #62B3E1",
"0Z    c #8DC9EA",
"0&    c #AFD9F0",
"1     c #6CB1DB",
"10    c #2B68A7",
"11    c #3776B0",
"12    c #3877B0",
"13    c #3878B1",
"14    c #3978B2",
"15    c #3A79B2",
"16    c #3B7AB2",
"17    c #3C7BB3",
"18    c #3D7CB3",
"19    c #3E7CB4",
"1a    c #3F7DB5",
"1b    c #407EB6",
"1c    c #407FB6",
"1d    c #569DCE",
"1e    c #6CBAE5",
"1f    c #6CBAE6",
"1g    c #6DBAE6",
"1h    c #6EBAE6",
"1i    c #64B5E3",
"1j    c #77BEE6",
"1k    c #B0D9F1",
"1l    c #70B4DC",
"1m    c #2A63A4",
"1n    c #3878B2",
"1o    c #3979B2",
"1p    c #3A7AB2",
"1q    c #3B7AB3",
"1r    c #3D7DB5",
"1s    c #3E7DB5",
"1t    c #3F7EB6",
"1u    c #4180B7",
"1v    c #4281B7",
"1w    c #4381B8",
"1x    c #5195C8",
"1y    c #6EBBE6",
"1z    c #70BCE7",
"1A    c #71BDE7",
"1B    c #6FBCE7",
"1C    c #6AB8E4",
"1D    c #6BB9E4",
"1E    c #B1DAF1",
"1F    c #71B4DD",
"1G    c #2A62A3",
"1H    c #3877B1",
"1I    c #3A7BB3",
"1J    c #3C7CB5",
"1K    c #3C7DB5",
"1L    c #3D7EB6",
"1M    c #8CB3D4",
"1N    c #81ABCF",
"1O    c #4181B8",
"1P    c #4281B8",
"1Q    c #4383B9",
"1R    c #4484BA",
"1S    c #4584BA",
"1T    c #4C8DC1",
"1U    c #72BEE7",
"1V    c #73BEE8",
"1W    c #74BFE8",
"1X    c #75BFE8",
"1Y    c #D2EBF8",
"1Z    c #E4F3FB",
"1&    c #ACD8F2",
"2     c #AFDAF1",
"20    c #72B5DD",
"21    c #3874AF",
"22    c #3B7DB6",
"23    c #3C7EB6",
"24    c #3E7FB6",
"25    c #3F80B7",
"26    c #A3C2DD",
"27    c #D2E2EF",
"28    c #689CC8",
"29    c #4585BB",
"2a    c #4787BC",
"2b    c #4887BC",
"2c    c #4989BE",
"2d    c #71BCE6",
"2e    c #77C1E9",
"2f    c #78C1EA",
"2g    c #78C2EA",
"2h    c #E9F5FC",
"2i    c #BBE0F4",
"2j    c #6FBBE7",
"2k    c #ABD7F0",
"2l    c #73B6DE",
"2m    c #2B64A5",
"2n    c #3871AD",
"2o    c #3C7FB7",
"2p    c #3E81B8",
"2q    c #3F81B8",
"2r    c #4082B9",
"2s    c #A4C3DE",
"2t    c #FDFEFF",
"2u    c #B8D1E5",
"2v    c #5994C4",
"2w    c #4B8ABE",
"2x    c #4C8BBF",
"2y    c #6DB4E0",
"2z    c #7AC2EB",
"2A    c #7BC3EB",
"2B    c #7CC4EB",
"2C    c #EAF6FC",
"2D    c #BDE1F5",
"2E    c #6FBBE6",
"2F    c #A9D6F0",
"2G    c #73B6DF",
"2H    c #2C66A7",
"2I    c #376FAC",
"2J    c #3E81B9",
"2K    c #4082BA",
"2L    c #4083BA",
"2M    c #4285BB",
"2N    c #A5C5DF",
"2O    c #F5F9FB",
"2P    c #9DC1DD",
"2Q    c #5391C3",
"2R    c #68ADDA",
"2S    c #7DC5EB",
"2T    c #7FC6EC",
"2U    c #80C6ED",
"2V    c #BEE2F5",
"2W    c #76C0E9",
"2X    c #A7D6F0",
"2Y    c #75B7DF",
"2Z    c #306FAF",
"2&    c #376CAA",
"3     c #3F83BA",
"30    c #4085BB",
"31    c #4285BC",
"32    c #4487BD",
"33    c #A5C6E0",
"34    c #E5EFF6",
"35    c #96C5E4",
"36    c #7DC5EC",
"37    c #82C8EE",
"38    c #83C8EE",
"39    c #84C8EE",
"3a    c #EBF6FC",
"3b    c #BFE2F6",
"3c    c #79C2EA",
"3d    c #A5D5F0",
"3e    c #76B7DF",
"3f    c #2670B2",
"3g    c #2F66A6",
"3h    c #3E84BB",
"3i    c #4286BD",
"3j    c #4388BE",
"3k    c #4589BE",
"3l    c #A6C7E1",
"3m    c #DCF0FA",
"3n    c #98D1F1",
"3o    c #85CAEF",
"3p    c #87CAEF",
"3q    c #EBF7FD",
"3r    c #C0E3F6",
"3s    c #A2D4F0",
"3t    c #71B5DE",
"3u    c #1B6DB2",
"3v    c #17579F",
"3w    c #1369AD",
"3x    c #1D70B1",
"3y    c #2877B5",
"3z    c #317EB9",
"3A    c #9FC3DF",
"3B    c #CCE9F9",
"3C    c #92D0F2",
"3D    c #88CCF0",
"3E    c #BAE0F5",
"3F    c #69BBE8",
"3G    c #62B7E6",
"3H    c #59B2E4",
"3I    c #50ADE1",
"3J    c #8AC8EB",
"3K    c #5FACDA",
"3L    c #1A5EA5",
"3M    c #136CAF",
"3N    c #156DB0",
"3O    c #186FB1",
"3P    c #1A71B3",
"3Q    c #92BBDB",
"3R    c #C1E4F7",
"3S    c #7AC6EF",
"3T    c #71C3EF",
"3U    c #E8F5FC",
"3V    c #B2DCF4",
"3W    c #5BB5E6",
"3X    c #57B2E4",
"3Y    c #52AFE2",
"3Z    c #4EACE1",
"3&    c #87C6EA",
"4     c #1F66AC",
"40    c #146EB1",
"41    c #1770B2",
"42    c #1971B3",
"43    c #1C73B5",
"44    c #92BCDC",
"45    c #D3EBF8",
"46    c #81C8EE",
"47    c #6CBFEC",
"48    c #70C1EE",
"49    c #70C2EE",
"4a    c #82C4E9",
"4b    c #236DB2",
"4c    c #1773B5",
"4d    c #1872B4",
"4e    c #1A73B5",
"4f    c #1D75B7",
"4g    c #93BDDD",
"4h    c #E3EFF7",
"4i    c #75AED6",
"4j    c #4CA0D5",
"4k    c #66BBEA",
"4l    c #69BDEB",
"4m    c #E7F5FC",
"4n    c #B1DCF3",
"4o    c #5AB4E5",
"4p    c #56B1E4",
"4q    c #51AEE2",
"4r    c #7BC1E8",
"4s    c #1A6DB2",
"4t    c #236BB1",
"4u    c #1D7FC0",
"4v    c #1873B6",
"4w    c #1B75B7",
"4x    c #1E78B8",
"4y    c #94BFDE",
"4z    c #F4F9FC",
"4A    c #92BFDF",
"4B    c #3B8CC6",
"4C    c #398BC5",
"4D    c #4598D0",
"4E    c #63B9E9",
"4F    c #67BCEB",
"4G    c #68BCEB",
"4H    c #E6F4FC",
"4I    c #B0DBF3",
"4J    c #59B3E5",
"4K    c #55B1E3",
"4L    c #50AEE2",
"4M    c #4CABE0",
"4N    c #73BDE7",
"4O    c #2369AF",
"4P    c #238BCA",
"4Q    c #1975B8",
"4R    c #1C77B9",
"4S    c #1F7ABA",
"4T    c #94C0DF",
"4U    c #AFD1E8",
"4V    c #4492C9",
"4W    c #3489C4",
"4X    c #378BC6",
"4Y    c #3A8DC7",
"4Z    c #3F93CB",
"4&    c #5FB7E8",
"5     c #62B9E9",
"50    c #63BAE9",
"51    c #AFDBF2",
"52    c #56B2E4",
"53    c #53AFE2",
"54    c #4FADE1",
"55    c #4AAADF",
"56    c #5EABDA",
"57    c #2266AD",
"58    c #2693D1",
"59    c #1B7ABB",
"5a    c #1C79BB",
"5b    c #207CBC",
"5c    c #94C1DF",
"5d    c #CDE2F1",
"5e    c #2F87C3",
"5f    c #3289C5",
"5g    c #358BC6",
"5h    c #388DC7",
"5i    c #3A8FC9",
"5j    c #3D91CA",
"5k    c #59B1E3",
"5l    c #5EB6E7",
"5m    c #5FB7E7",
"5n    c #E5F3FB",
"5o    c #AEDAF2",
"5p    c #54B0E3",
"5q    c #4DABE0",
"5r    c #48A9DF",
"5s    c #5DB3E2",
"5t    c #5CABD9",
"5u    c #196CB1",
"5v    c #2262A9",
"5w    c #2592D1",
"5x    c #2084C4",
"5y    c #1D7BBC",
"5z    c #207EBE",
"5A    c #7CB4D9",
"5B    c #71AED7",
"5C    c #2A84C2",
"5D    c #2C86C4",
"5E    c #2F88C5",
"5F    c #328BC7",
"5G    c #358DC8",
"5H    c #388FC9",
"5I    c #3A91CB",
"5J    c #3D93CC",
"5K    c #50AADD",
"5L    c #C5E5F6",
"5M    c #D9EEF9",
"5N    c #98CFEE",
"5O    c #4DACE1",
"5P    c #46A8DE",
"5Q    c #50ACDF",
"5R    c #5BAAD9",
"5S    c #186BB1",
"5T    c #215CA5",
"5U    c #2390CF",
"5V    c #238DCB",
"5W    c #1D7DBE",
"5X    c #207FBF",
"5Y    c #2381C1",
"5Z    c #2784C3",
"5&    c #2986C4",
"6     c #2C88C5",
"60    c #308AC7",
"61    c #328CC8",
"62    c #358EC9",
"63    c #3890CB",
"64    c #3A92CC",
"65    c #3D94CD",
"66    c #49A3D9",
"67    c #47A8DE",
"68    c #44A6DD",
"69    c #42A5DC",
"6a    c #58A8D8",
"6b    c #176AB0",
"6c    c #205BA4",
"6d    c #2285C6",
"6e    c #1D80C0",
"6f    c #2081C1",
"6g    c #2383C2",
"6h    c #2685C4",
"6i    c #2A87C5",
"6j    c #2C8AC7",
"6k    c #2F8CC8",
"6l    c #328ECA",
"6m    c #3590CB",
"6n    c #3792CC",
"6o    c #3A93CD",
"6p    c #3C95CE",
"6q    c #439DD5",
"6r    c #49A9DF",
"6s    c #41A4DB",
"6t    c #3DA2DA",
"6u    c #49A0D5",
"6v    c #156AB0",
"6w    c #1E59A2",
"6x    c #1F70B5",
"6y    c #218ECD",
"6z    c #1F84C4",
"6A    c #1E80C0",
"6B    c #2182C2",
"6C    c #2584C3",
"6D    c #2887C5",
"6E    c #2A89C6",
"6F    c #2D8BC8",
"6G    c #318DCA",
"6H    c #3490CB",
"6I    c #3692CD",
"6J    c #3894CF",
"6K    c #3B96D0",
"6L    c #3E9AD3",
"6M    c #4BABE0",
"6N    c #46A7DE",
"6O    c #43A6DD",
"6P    c #40A4DB",
"6Q    c #3DA2DB",
"6R    c #3798D1",
"6S    c #1068AE",
"6T    c #1B549D",
"6U    c #1D57A0",
"6V    c #1B7DBF",
"6W    c #1B7FC0",
"6X    c #1977B9",
"6Y    c #1B79BB",
"6Z    c #1E7BBC",
"6&    c #207DBD",
"7     c #217DBC",
"70    c #237EBE",
"71    c #2680BF",
"72    c #2781BF",
"73    c #2982C0",
"74    c #2B83C1",
"75    c #2D86C3",
"76    c #2F88C4",
"77    c #3995CF",
"78    c #3A96D0",
"79    c #3A97D0",
"7a    c #3A97D1",
"7b    c #3997D1",
"7c    c #3797D1",
"7d    c #3597D1",
"7e    c #3496D1",
"7f    c #3296D1",
"7g    c #2588C6",
"7h    c #0867AD",
"7i    c #19519B",
"7j    c #1A509A",
"7k    c #1A58A1",
"7l    c #1776B9",
"7m    c #1571B4",
"7n    c #1672B5",
"7o    c #1874B6",
"7p    c #1A75B6",
"7q    c #1B75B6",
"7r    c #1D76B7",
"7s    c #1F77B8",
"7t    c #2178B9",
"7u    c #2279B9",
"7v    c #237ABA",
"7w    c #247CBB",
"7x    c #257CBB",
"7y    c #2C85C2",
"7z    c #2B84C1",
"7A    c #2A82C0",
"7B    c #2981C0",
"7C    c #2881BF",
"7D    c #2780BF",
"7E    c #257FBE",
"7F    c #247EBE",
"7G    c #227EBD",
"7H    c #116EB0",
"7I    c #015EA3",
"7J    c #0F5DA5",
"7K    c #184B96",
"7L    c #194C96",
"7M    c #1462A8",
"7N    c #126BAF",
"7O    c #136CB0",
"7P    c #156DB1",
"7Q    c #156CB0",
"7R    c #176DB0",
"7S    c #186EB1",
"7T    c #1A6FB1",
"7U    c #1B71B2",
"7V    c #1C71B3",
"7W    c #1D72B3",
"7X    c #2076B7",
"7Y    c #2278B8",
"7Z    c #2177B7",
"7&    c #2076B6",
"8     c #1F75B6",
"80    c #1F75B5",
"81    c #1E74B5",
"82    c #1D74B5",
"83    c #1B73B4",
"84    c #1770B3",
"85    c #035FA4",
"86    c #0360A5",
"87    c #0D5AA2",
"88    c #154B96",
"89    c #184893",
"8a    c #184792",
"8b    c #164D97",
"8c    c #125AA2",
"8d    c #1064A9",
"8e    c #1164A9",
"8f    c #1467AB",
"8g    c #1567AB",
"8h    c #1668AB",
"8i    c #1669AB",
"8j    c #176AAD",
"8k    c #196CAE",
"8l    c #186BAD",
"8m    c #1769AC",
"8n    c #1669AC",
"8o    c #1668AC",
"8p    c #1568AC",
"8q    c #1468AB",
"8r    c #1367AB",
"8s    c #1267AB",
"8t    c #0661A6",
"8u    c #015DA2",
"8v    c #055FA5",
"8w    c #085BA2",
"8x    c #0C59A1",
"8y    c #0C579E",
"8z    c #0D579E",
"8A    c #0E579F",
"8B    c #0B5DA3",
"8C    c #0B5FA4",
"8D    c #0C60A5",
"8E    c #0D61A5",
"8F    c #0E61A5",
"8G    c #0E61A6",
"8H    c #0F61A6",
"8I    c #0F62A6",
"8J    c #1063A7",
"8K    c #1062A6",
"8L    c #0F61A5",
"8M    c #0E60A5",
"8N    c #0D60A5",
"8O    c #0960A5",
"8P    c #025EA3",
"     0 1 2 2 2 2 2 2 2 2 2 2 2 2 2 2 2 2 2 2 2 2 2 2 2 2 1 0    ",
"   3 2 4 5 6 7 8 8 8 9 9 a b c d e f g g g h i j k l m n o 2 3  ",
" 0 2 p q r s t t u u v w x y z A B C D D D D C E F G H I J K 2 0",
" 1 4 L t M u N O P x Q R S T D U V W X X X X W V U Y Z & H0  o 1",
" 200010203 P040506 S0708090a W0b0c0d0e0e0e0e0d0c0f X0g0h &0i0j 2",
" 20k0l0l0m0m0n0n0n0n0o0p0p0q0r0s0s0t0u0t0v0w0x0y0z0A0B0C0D0E0F 2",
" 20G0H0I0J0J0K0L0M0M0N0O0P0P0Q0R0S0T0U0U0U0U0T0S0V0W0X0Y0Z0&1  2",
" 2101112131415161718191a1b1c1d0U1e1f1g1h1h1g1g1e0U0T0R1i1j1k1l 2",
" 21m1n1o1p1q171r1s1t1c1u1v1w1x1g1y1z1A1A1A1A1z1B1g1e1C0V1D1E1F 2",
" 21G1H1I1J1K1L1M1N1O1P1Q1R1S1T1z1U1V1W1X1X1Y1Z1Z1&1y1f0U0S2 20 2",
" 21m212223242526  2728292a2b2c2d1X2e2f2g2g2h    2i1A2j1f1C2k2l 2",
" 22m2n2o2p2q2r2s    2t2u2v2w2x2y2g2z2A2B2B2C    2D1W1A2E1e2F2G 2",
" 22H2I2J2K2L2M2N        2O2P2Q2R2A2S2T2U2U2C    2V2W1W1A1g2X2Y 2",
" 22Z2&3 30313233            3435362U3738393a    3b3c2W1U1B3d3e 2",
" 23f3g3h3i3j3k3l                3m3n3o3p3p3q    3r2z2e1W1z3s3t 2",
" 23u3v3w3x3y3z3A                  2t3B3C3D3q    3E3F3G3H3I3J3K 2",
" 23u3L3M3N3O3P3Q                  2t3R3S3T3U    3V3W3X3Y3Z3&3K 2",
" 23u4 4041424344                45464748493U    3V3W3X3Y3Z4a3K 2",
" 23u4b4c4d4e4f4g            4h4i4j4k4l47474m    4n4o4p4q3Z4r3K 2",
" 24s4t4u4v4w4x4y        4z4A4B4C4D4E4k4F4G4H    4I4J4K4L4M4N3K 2",
" 24s4O4P4Q4R4S4T    2t4U4V4W4X4Y4Z4&5 50504H    51525354550U56 2",
" 24s5758595a5b5c  5d1d5e5f5g5h5i5j5k5l5m5m5n    5o5p4L5q5r5s5t 2",
" 25u5v5w5x5y5z5A5B5C5D5E5F5G5H5I5J5K4J4o4o5L5M5M5N4q5O555P5Q5R 2",
" 25S5T5U5V5W5X5Y5Z5&6 606162636465664K4p4p4p5p3Y4L5O556768696a 2",
" 26b6c6d5w6e6f6g6h6i6j6k6l6m6n6o6p6q4L4q4q4q4L3Z4M6r67686s6t6u 2",
" 26v6w6x6y6z6A6B6C6D6E6F6G6H6I6J6K6L4M5q5q4M6M555r6N6O6P6Q0c6R 2",
" 26S6T6U6V6W6X6Y6Z6&7 70717273747576776K6K78797a7b7b7c7d7e7f7g 2",
" 27h7i7j7k7l7m7n7o7p7q7r7s7t7u7v7w7x747y7z7A7A7B7C7D7E7F7G5b7H 2",
" 17I7J7K7L7i7M7N7O7P7Q7R7S7T7U7V7W7W7X7Y7Z7&8 80818282833P8485 1",
" 0 2868788898a8b8c8d8d8e T T8f8g8h8i8j8k8l8m8n8n8o8p8q8r8s8t 2 0",
"   3 28u8v8w8x8y8z8A8B8C8D8D8E8F8G8H8I8J8K8L8F8F8M8N8C8O8P 2 3  ",
"     0 1 2 2 2 2 2 2 2 2 2 2 2 2 2 2 2 2 2 2 2 2 2 2 2 2 1 0    "};

