/* XPM */
static char *SMPDlg_PlayButton_XPM[]={
/* SMPDlg_PlayButton */
"32 32 603 2",
"      c None",
" 0    c #80AED0",
" 1    c #1066A7",
" 2    c #005CA1",
" 3    c #307BB3",
" 4    c #005BA1",
" 5    c #01549B",
" 6    c #014F97",
" 7    c #024F97",
" 8    c #035098",
" 9    c #045199",
" a    c #055299",
" b    c #1777B8",
" c    c #238CCA",
" d    c #248DCB",
" e    c #258DCC",
" f    c #258ECC",
" g    c #268ECC",
" h    c #2D92CE",
" i    c #4CA1D4",
" j    c #5AA8D7",
" k    c #57A6D6",
" l    c #4FA2D4",
" m    c #3D97CD",
" n    c #1A7DBD",
" o    c #0462A6",
" p    c #01599F",
" q    c #014C95",
" r    c #014B93",
" s    c #024B93",
" t    c #024C94",
" u    c #034D95",
" v    c #044D96",
" w    c #054E96",
" x    c #054F97",
" y    c #1771B3",
" z    c #2E98D5",
" A    c #2F99D5",
" B    c #309AD5",
" C    c #329BD6",
" D    c #339BD6",
" E    c #45A4DA",
" F    c #70B9E3",
" G    c #95CCEB",
" H    c #97CCEA",
" I    c #90C9E9",
" J    c #59ABDB",
" K    c #0A6BAE",
" L    c #014D95",
" M    c #024C95",
" N    c #034E96",
" O    c #044E96",
" P    c #044F97",
" Q    c #055098",
" R    c #065199",
" S    c #075299",
" T    c #1366AA",
" U    c #349CD7",
" V    c #359DD7",
" W    c #369ED8",
" X    c #379ED8",
" Y    c #43A4DA",
" Z    c #83C3E7",
" &    c #98CDEB",
"0     c #5BACDB",
"00    c #01569D",
"01    c #024D96",
"02    c #034E97",
"03    c #034F97",
"04    c #045098",
"05    c #055198",
"06    c #065299",
"07    c #07539A",
"08    c #08549B",
"09    c #09559B",
"0a    c #0D5CA1",
"0b    c #389FD9",
"0c    c #3AA0D9",
"0d    c #3BA0D9",
"0e    c #3CA1DA",
"0f    c #399FD9",
"0g    c #399FD8",
"0h    c #7FC1E6",
"0i    c #93CAEA",
"0j    c #1B7EBD",
"0k    c #286DAA",
"0l    c #3472AC",
"0m    c #3472AD",
"0n    c #3372AD",
"0o    c #3373AD",
"0p    c #3373AE",
"0q    c #3272AE",
"0r    c #55A9DB",
"0s    c #5AB0E0",
"0t    c #5AB1E1",
"0u    c #5BB1E1",
"0v    c #5AB0E1",
"0w    c #59B0E0",
"0x    c #57AFE0",
"0y    c #56AEE0",
"0z    c #54ADDF",
"0A    c #52ACDE",
"0B    c #4FABDE",
"0C    c #56ADDE",
"0D    c #A1D2ED",
"0E    c #A4D3EE",
"0F    c #4DA0D2",
"0G    c #2B6DAA",
"0H    c #3675AE",
"0I    c #3775AE",
"0J    c #3876AF",
"0K    c #3977B0",
"0L    c #3A78B1",
"0M    c #3B79B2",
"0N    c #3C7AB2",
"0O    c #3D7BB3",
"0P    c #3E7CB3",
"0Q    c #5AA6D6",
"0R    c #66B6E3",
"0S    c #68B7E3",
"0T    c #69B8E4",
"0U    c #6AB9E4",
"0V    c #67B7E3",
"0W    c #65B6E3",
"0X    c #63B5E2",
"0Y    c #62B3E1",
"0Z    c #8DC9EA",
"0&    c #AFD9F0",
"1     c #6CB1DB",
"10    c #2B68A7",
"11    c #3776B0",
"12    c #3877B0",
"13    c #3878B1",
"14    c #3978B2",
"15    c #3A79B2",
"16    c #3B7AB2",
"17    c #548BBC",
"18    c #4A85B9",
"19    c #3E7CB4",
"1a    c #3F7DB5",
"1b    c #407EB6",
"1c    c #407FB6",
"1d    c #569DCE",
"1e    c #6CBAE5",
"1f    c #6CBAE6",
"1g    c #6DBAE6",
"1h    c #6EBAE6",
"1i    c #64B5E3",
"1j    c #77BEE6",
"1k    c #B0D9F1",
"1l    c #70B4DC",
"1m    c #2A63A4",
"1n    c #3878B2",
"1o    c #3979B2",
"1p    c #3A7AB2",
"1q    c #3B7AB3",
"1r    c #3C7BB3",
"1s    c #3D7DB5",
"1t    c #7DA8CE",
"1u    c #F0F5FA",
"1v    c #8FB4D4",
"1w    c #4382B8",
"1x    c #4281B7",
"1y    c #4381B8",
"1z    c #5195C8",
"1A    c #6EBBE6",
"1B    c #70BCE7",
"1C    c #71BDE7",
"1D    c #6FBCE7",
"1E    c #6AB8E4",
"1F    c #6BB9E4",
"1G    c #B1DAF1",
"1H    c #71B4DD",
"1I    c #2A62A3",
"1J    c #3877B1",
"1K    c #3A7BB3",
"1L    c #3C7CB5",
"1M    c #3C7DB5",
"1N    c #3D7EB6",
"1O    c #3F7FB6",
"1P    c #7EA9CE",
"1Q    c #DEE9F3",
"1R    c #74A3CB",
"1S    c #4584BA",
"1T    c #4C8DC1",
"1U    c #72BEE7",
"1V    c #73BEE8",
"1W    c #74BFE8",
"1X    c #75BFE8",
"1Y    c #AFDAF1",
"1Z    c #72B5DD",
"1&    c #3874AF",
"2     c #3B7DB6",
"20    c #3C7EB6",
"21    c #3E7FB6",
"22    c #3F80B7",
"23    c #4081B8",
"24    c #80ABD0",
"25    c #C4D8E9",
"26    c #6198C6",
"27    c #71BCE6",
"28    c #77C1E9",
"29    c #78C1EA",
"2a    c #78C2EA",
"2b    c #76C0E9",
"2c    c #73BFE8",
"2d    c #6FBBE7",
"2e    c #ABD7F0",
"2f    c #73B6DE",
"2g    c #2B64A5",
"2h    c #3871AD",
"2i    c #3C7FB7",
"2j    c #3E81B8",
"2k    c #3F81B8",
"2l    c #4082B9",
"2m    c #4283BA",
"2n    c #81ADD1",
"2o    c #F9FBFD",
"2p    c #BBDEF3",
"2q    c #7EC5EB",
"2r    c #7AC2EB",
"2s    c #7BC3EB",
"2t    c #7CC4EB",
"2u    c #79C2EA",
"2v    c #6FBBE6",
"2w    c #A9D6F0",
"2x    c #73B6DF",
"2y    c #2C66A7",
"2z    c #376FAC",
"2A    c #3E81B9",
"2B    c #4082BA",
"2C    c #4083BA",
"2D    c #4285BB",
"2E    c #4486BC",
"2F    c #82AED2",
"2G    c #F1F9FD",
"2H    c #ACDAF3",
"2I    c #7FC6EC",
"2J    c #80C6ED",
"2K    c #7EC5EC",
"2L    c #A7D6F0",
"2M    c #75B7DF",
"2N    c #306FAF",
"2O    c #376CAA",
"2P    c #3F83BA",
"2Q    c #4085BB",
"2R    c #4285BC",
"2S    c #4487BD",
"2T    c #4588BE",
"2U    c #83B0D4",
"2V    c #E4F3FC",
"2W    c #9DD4F2",
"2X    c #84C8EE",
"2Y    c #83C8EE",
"2Z    c #81C6ED",
"2&    c #7EC6EC",
"3     c #A5D5F0",
"30    c #76B7DF",
"31    c #2670B2",
"32    c #2F66A6",
"33    c #3E84BB",
"34    c #4286BD",
"35    c #4388BE",
"36    c #4589BE",
"37    c #478AC0",
"38    c #84B2D5",
"39    c #FEFFFF",
"3a    c #D2ECFA",
"3b    c #92CFF1",
"3c    c #83C9EE",
"3d    c #A2D4F0",
"3e    c #71B5DE",
"3f    c #1B6DB2",
"3g    c #17579F",
"3h    c #1369AD",
"3i    c #1D70B1",
"3j    c #2877B5",
"3k    c #317EB9",
"3l    c #3A84BD",
"3m    c #7FAFD4",
"3n    c #F9FDFF",
"3o    c #BFE3F7",
"3p    c #7DC5ED",
"3q    c #71C0EA",
"3r    c #69BBE8",
"3s    c #62B7E6",
"3t    c #59B2E4",
"3u    c #50ADE1",
"3v    c #8AC8EB",
"3w    c #5FACDA",
"3x    c #1A5EA5",
"3y    c #136CAF",
"3z    c #156DB0",
"3A    c #186FB1",
"3B    c #1A71B3",
"3C    c #1D73B4",
"3D    c #69A2CD",
"3E    c #F9FDFE",
"3F    c #B2DDF5",
"3G    c #6ABDEA",
"3H    c #60B7E8",
"3I    c #5BB5E6",
"3J    c #57B2E4",
"3K    c #52AFE2",
"3L    c #4EACE1",
"3M    c #87C6EA",
"3N    c #1F66AC",
"3O    c #146EB1",
"3P    c #1770B2",
"3Q    c #1971B3",
"3R    c #1C73B5",
"3S    c #1E75B6",
"3T    c #6AA3CF",
"3U    c #CCE9F9",
"3V    c #7CC6EE",
"3W    c #68BDEB",
"3X    c #64BAE9",
"3Y    c #82C4E9",
"3Z    c #236DB2",
"3&    c #1773B5",
"4     c #1872B4",
"40    c #1A73B5",
"41    c #1D75B7",
"42    c #2077B8",
"43    c #6BA5D0",
"44    c #E0F2FB",
"45    c #8CCDF0",
"46    c #6CBFEC",
"47    c #6ABEEB",
"48    c #67BCEA",
"49    c #63BAE9",
"4a    c #5FB7E7",
"4b    c #5AB4E5",
"4c    c #56B1E4",
"4d    c #51AEE2",
"4e    c #7BC1E8",
"4f    c #1A6DB2",
"4g    c #236BB1",
"4h    c #1D7FC0",
"4i    c #1873B6",
"4j    c #1B75B7",
"4k    c #1E78B8",
"4l    c #217ABA",
"4m    c #6CA7D1",
"4n    c #EDF6FC",
"4o    c #9DD3F2",
"4p    c #66BCEA",
"4q    c #67BCEB",
"4r    c #68BCEB",
"4s    c #60B8E8",
"4t    c #5DB6E6",
"4u    c #59B3E5",
"4v    c #55B1E3",
"4w    c #50AEE2",
"4x    c #4CABE0",
"4y    c #73BDE7",
"4z    c #2369AF",
"4A    c #238BCA",
"4B    c #1975B8",
"4C    c #1C77B9",
"4D    c #1F7ABA",
"4E    c #227CBC",
"4F    c #6CA8D3",
"4G    c #F9FCFE",
"4H    c #A2CAE5",
"4I    c #4998CE",
"4J    c #5FB7E8",
"4K    c #62B9E9",
"4L    c #5DB6E7",
"4M    c #56B2E4",
"4N    c #53AFE2",
"4O    c #4FADE1",
"4P    c #4AAADF",
"4Q    c #5EABDA",
"4R    c #2266AD",
"4S    c #2693D1",
"4T    c #1B7ABB",
"4U    c #1C79BB",
"4V    c #207CBC",
"4W    c #237EBE",
"4X    c #6DA9D4",
"4Y    c #BFDBED",
"4Z    c #529CCF",
"4&    c #3A8FC9",
"5     c #3D91CA",
"50    c #59B1E3",
"51    c #5EB6E7",
"52    c #5CB5E6",
"53    c #59B4E5",
"54    c #54B0E3",
"55    c #4DABE0",
"56    c #48A9DF",
"57    c #5DB3E2",
"58    c #5CABD9",
"59    c #196CB1",
"5a    c #2262A9",
"5b    c #2592D1",
"5c    c #2084C4",
"5d    c #1D7BBC",
"5e    c #207EBE",
"5f    c #2380BF",
"5g    c #6DABD5",
"5h    c #DBEBF5",
"5i    c #68A9D6",
"5j    c #358DC8",
"5k    c #388FC9",
"5l    c #3A91CB",
"5m    c #3D93CC",
"5n    c #50AADD",
"5o    c #58B3E4",
"5p    c #4DACE1",
"5q    c #46A8DE",
"5r    c #50ACDF",
"5s    c #5BAAD9",
"5t    c #186BB1",
"5u    c #215CA5",
"5v    c #2390CF",
"5w    c #238DCB",
"5x    c #1D7DBE",
"5y    c #207FBF",
"5z    c #2381C1",
"5A    c #6DACD6",
"5B    c #EFF6FB",
"5C    c #84BADD",
"5D    c #338CC7",
"5E    c #328CC8",
"5F    c #358EC9",
"5G    c #3890CB",
"5H    c #3A92CC",
"5I    c #3D94CD",
"5J    c #49A3D9",
"5K    c #47A8DE",
"5L    c #44A6DD",
"5M    c #42A5DC",
"5N    c #58A8D8",
"5O    c #176AB0",
"5P    c #205BA4",
"5Q    c #2285C6",
"5R    c #1D80C0",
"5S    c #2081C1",
"5T    c #2383C2",
"5U    c #4194CB",
"5V    c #3890C9",
"5W    c #2C8AC7",
"5X    c #2F8CC8",
"5Y    c #328ECA",
"5Z    c #3590CB",
"5&    c #3792CC",
"6     c #3A93CD",
"60    c #3C95CE",
"61    c #439DD5",
"62    c #49A9DF",
"63    c #41A4DB",
"64    c #3DA2DA",
"65    c #49A0D5",
"66    c #156AB0",
"67    c #1E59A2",
"68    c #1F70B5",
"69    c #218ECD",
"6a    c #1F84C4",
"6b    c #1E80C0",
"6c    c #2182C2",
"6d    c #2584C3",
"6e    c #2887C5",
"6f    c #2A89C6",
"6g    c #2D8BC8",
"6h    c #318DCA",
"6i    c #3490CB",
"6j    c #3692CD",
"6k    c #3894CF",
"6l    c #3B96D0",
"6m    c #3E9AD3",
"6n    c #4BABE0",
"6o    c #46A7DE",
"6p    c #43A6DD",
"6q    c #40A4DB",
"6r    c #3DA2DB",
"6s    c #3798D1",
"6t    c #1068AE",
"6u    c #1B549D",
"6v    c #1D57A0",
"6w    c #1B7DBF",
"6x    c #1B7FC0",
"6y    c #1977B9",
"6z    c #1B79BB",
"6A    c #1E7BBC",
"6B    c #207DBD",
"6C    c #217DBC",
"6D    c #2680BF",
"6E    c #2781BF",
"6F    c #2982C0",
"6G    c #2B83C1",
"6H    c #2D86C3",
"6I    c #2F88C4",
"6J    c #3995CF",
"6K    c #3A96D0",
"6L    c #3A97D0",
"6M    c #3A97D1",
"6N    c #3997D1",
"6O    c #3797D1",
"6P    c #3597D1",
"6Q    c #3496D1",
"6R    c #3296D1",
"6S    c #2588C6",
"6T    c #0867AD",
"6U    c #19519B",
"6V    c #1A509A",
"6W    c #1A58A1",
"6X    c #1776B9",
"6Y    c #1571B4",
"6Z    c #1672B5",
"6&    c #1874B6",
"7     c #1A75B6",
"70    c #1B75B6",
"71    c #1D76B7",
"72    c #1F77B8",
"73    c #2178B9",
"74    c #2279B9",
"75    c #237ABA",
"76    c #247CBB",
"77    c #257CBB",
"78    c #2C85C2",
"79    c #2B84C1",
"7a    c #2A82C0",
"7b    c #2981C0",
"7c    c #2881BF",
"7d    c #2780BF",
"7e    c #257FBE",
"7f    c #247EBE",
"7g    c #227EBD",
"7h    c #116EB0",
"7i    c #015EA3",
"7j    c #0F5DA5",
"7k    c #184B96",
"7l    c #194C96",
"7m    c #1462A8",
"7n    c #126BAF",
"7o    c #136CB0",
"7p    c #156DB1",
"7q    c #156CB0",
"7r    c #176DB0",
"7s    c #186EB1",
"7t    c #1A6FB1",
"7u    c #1B71B2",
"7v    c #1C71B3",
"7w    c #1D72B3",
"7x    c #2076B7",
"7y    c #2278B8",
"7z    c #2177B7",
"7A    c #2076B6",
"7B    c #1F75B6",
"7C    c #1F75B5",
"7D    c #1E74B5",
"7E    c #1D74B5",
"7F    c #1B73B4",
"7G    c #1770B3",
"7H    c #035FA4",
"7I    c #0360A5",
"7J    c #0D5AA2",
"7K    c #154B96",
"7L    c #184893",
"7M    c #184792",
"7N    c #164D97",
"7O    c #125AA2",
"7P    c #1064A9",
"7Q    c #1164A9",
"7R    c #1467AB",
"7S    c #1567AB",
"7T    c #1668AB",
"7U    c #1669AB",
"7V    c #176AAD",
"7W    c #196CAE",
"7X    c #186BAD",
"7Y    c #1769AC",
"7Z    c #1669AC",
"7&    c #1668AC",
"8     c #1568AC",
"80    c #1468AB",
"81    c #1367AB",
"82    c #1267AB",
"83    c #0661A6",
"84    c #015DA2",
"85    c #055FA5",
"86    c #085BA2",
"87    c #0C59A1",
"88    c #0C579E",
"89    c #0D579E",
"8a    c #0E579F",
"8b    c #0B5DA3",
"8c    c #0B5FA4",
"8d    c #0C60A5",
"8e    c #0D61A5",
"8f    c #0E61A5",
"8g    c #0E61A6",
"8h    c #0F61A6",
"8i    c #0F62A6",
"8j    c #1063A7",
"8k    c #1062A6",
"8l    c #0F61A5",
"8m    c #0E60A5",
"8n    c #0D60A5",
"8o    c #0960A5",
"8p    c #025EA3",
"     0 1 2 2 2 2 2 2 2 2 2 2 2 2 2 2 2 2 2 2 2 2 2 2 2 2 1 0    ",
"   3 2 4 5 6 7 8 8 8 9 9 a b c d e f g g g h i j k l m n o 2 3  ",
" 0 2 p q r s t t u u v w x y z A B C D D D D C E F G H I J K 2 0",
" 1 4 L t M u N O P x Q R S T D U V W X X X X W V U Y Z & H0  o 1",
" 200010203 P040506 S0708090a W0b0c0d0e0e0e0e0d0c0f X0g0h &0i0j 2",
" 20k0l0l0m0m0n0n0n0n0o0p0p0q0r0s0s0t0u0t0v0w0x0y0z0A0B0C0D0E0F 2",
" 20G0H0I0J0J0K0L0M0M0N0O0P0P0Q0R0S0T0U0U0U0U0T0S0V0W0X0Y0Z0&1  2",
" 2101112131415161718191a1b1c1d0U1e1f1g1h1h1g1g1e0U0T0R1i1j1k1l 2",
" 21m1n1o1p1q1r1s1t1u1v1w1x1y1z1g1A1B1C1C1C1C1B1D1g1e1E0V1F1G1H 2",
" 21I1J1K1L1M1N1O1P    1Q1R1S1T1B1U1V1W1X1X1X1W1U1C1A1f0U0S1Y1Z 2",
" 21m1&2 2021222324        2526271X28292a2a2a282b2c1C2d1f1E2e2f 2",
" 22g2h2i2j2k2l2m2n          2o2p2q2r2s2t2t2s2r2u281W1C2v1e2w2x 2",
" 22y2z2A2B2C2D2E2F              2G2H2I2J2J2I2K2s2u2b1W1C1g2L2M 2",
" 22N2O2P2Q2R2S2T2U                  2V2W2X2Y2Z2&2s2u2b1U1D3 30 2",
" 23132333435363738                    393a3b3c2Z2K2r281W1B3d3e 2",
" 23f3g3h3i3j3k3l3m                        3n3o3p3q3r3s3t3u3v3w 2",
" 23f3x3y3z3A3B3C3D                        3E3F3G3H3I3J3K3L3M3w 2",
" 23f3N3O3P3Q3R3S3T                      3U3V3W3X3H3I3J3K3L3Y3w 2",
" 23f3Z3&4 40414243                  4445464748494a4b4c4d3L4e3w 2",
" 24f4g4h4i4j4k4l4m              4n4o4p4q4r4p3X4s4t4u4v4w4x4y3w 2",
" 24f4z4A4B4C4D4E4F          4G4H4I4J4K49494K4s4L4b4M4N4O4P0U4Q 2",
" 24f4R4S4T4U4V4W4X        4Y4Z4&5 50514a4a5152533J544w55565758 2",
" 2595a5b5c5d5e5f5g    5h5i5j5k5l5m5n4u4b4b535o4M544d5p4P5q5r5s 2",
" 25t5u5v5w5x5y5z5A5B5C5D5E5F5G5H5I5J4v4c4c4c543K4w5p4P5K5L5M5N 2",
" 25O5P5Q5b5R5S5T5U5V5W5X5Y5Z5&6 60614w4d4d4d4w3L4x625K5L636465 2",
" 2666768696a6b6c6d6e6f6g6h6i6j6k6l6m4x55554x6n4P566o6p6q6r0c6s 2",
" 26t6u6v6w6x6y6z6A6B6C4W6D6E6F6G6H6I6J6l6l6K6L6M6N6N6O6P6Q6R6S 2",
" 26T6U6V6W6X6Y6Z6&7 70717273747576776G78797a7a7b7c7d7e7f7g4V7h 2",
" 17i7j7k7l6U7m7n7o7p7q7r7s7t7u7v7w7w7x7y7z7A7B7C7D7E7E7F3B7G7H 1",
" 0 27I7J7K7L7M7N7O7P7P7Q T T7R7S7T7U7V7W7X7Y7Z7Z7&8 80818283 2 0",
"   3 28485868788898a8b8c8d8d8e8f8g8h8i8j8k8l8f8f8m8n8c8o8p 2 3  ",
"     0 1 2 2 2 2 2 2 2 2 2 2 2 2 2 2 2 2 2 2 2 2 2 2 2 2 1 0    "};

